<svg xmlns="http://www.w3.org/2000/svg" id="Layer_1" width="520" height="520"><defs><style>.cls-1{opacity:.2}.cls-1,.cls-3,.cls-4{fill:#231f20;stroke-width:0}.cls-5{opacity:.45}.cls-3{opacity:.3}</style></defs><path d="m237.69 410.01 1.69 1.69c.23.23.66.25.88 0s.25-.64 0-.88l-1.69-1.69c-.23-.23-.66-.25-.88 0s-.25.64 0 .88ZM236.62 412.18c-.26.2-.55.47-.82.75-.1.1-.14.24-.26.34-.4.36-.85.67-1.27.95-.18.13-.34.28-.51.41-.2.19-.4.38-.72.38-.1 0-.27-.27-.42-.58-.14-.31-.29-.68-.23-.8.11-.21.19-.41.3-.58.14-.14.3-.26.5-.35.25-.12.28-.42.41-.65.17-.27.34-.56.5-.83.12-.19.25-.38.37-.57.19-.3.44-.58.62-.91.14-.25.15-.64.32-.92.04-.05.07-.12.13-.15.22-.13.42-.01.87.48l.3.34c.32.39.54.78.61 1.04.32.86.12.88-.08 1.12-.15.15-.38.31-.58.56l-.06-.03Z" class="cls-4"/><path d="M276.58 241.52c0 1.17 5.02 24.73 10.41 35.4 5.4 10.67 21.89 22.55 31.31 23.33 9.41.78 15.6-.68 15.6-.68s7.52-8.16 13.01-10.6c5.49-2.44 12.99-8.31 16.82-6.31 3.83 2-17.77-13.11-15.64-24.48 2.13-11.37 9.07-19.63 2.86-23.25-6.21-3.62-12.54-5.96-15.08-3.62-2.54 2.34-8.14 8.89-8.14 8.89s-10.12.06-13.69-8.89c-3.57-8.95-7.53-9.61-7.53-9.61s-4.8 12.15-12.42 15.02c-7.62 2.87-17.51 4.8-17.51 4.8Z" class="cls-1"/><path d="M289.36 258.25c.18.52.32 1.05.43 1.59l.06.35c.01.08.02.16.04.24-.03-.2-.03-.21 0-.03.03.29.06.58.07.88.03.65.02 1.3-.04 1.95-.01.13-.03.26-.04.39.04-.37-.03.19-.04.25-.05.3-.12.6-.19.89s-.16.58-.26.86c-.02.06-.23.56-.08.23-.05.11-.1.23-.16.34-.14.28-.29.55-.47.8-.04.06-.32.41-.09.14-.1.12-.21.25-.32.37-.08.09-.17.17-.26.26-.05.05-.46.36-.17.15-.24.17-.48.32-.74.45-.08.04-.15.07-.23.11.16-.07.16-.07 0 0-.13.04-.25.08-.38.12-.18.05-.35.08-.53.12-.18.03-.18.03-.02 0l-.29.03c-.81.07-1.5.64-1.5 1.5 0 .76.69 1.57 1.5 1.5 2.58-.21 4.78-1.56 6-3.87 1.1-2.07 1.46-4.53 1.31-6.85-.08-1.21-.27-2.43-.68-3.58-.27-.76-1.02-1.27-1.85-1.05-.74.2-1.32 1.08-1.05 1.85ZM301.65 284.86c0 .3 0 .6-.04.91-.03.27.05-.27.01-.08-.01.07-.03.15-.04.22-.03.15-.06.3-.1.44l-.12.39c-.02.07-.05.14-.08.21-.02.05-.13.3-.03.07s-.01.02-.03.07c-.03.07-.07.14-.1.2-.07.14-.14.27-.22.4-.07.12-.14.23-.22.35-.04.06-.09.12-.13.19-.13.19-.05.04.04-.05-.21.22-.39.46-.61.67-.11.1-.22.21-.34.3-.05.04-.1.07-.14.11.29-.28.1-.08.01-.02-.25.17-.51.33-.78.47-.7.36-.96 1.4-.54 2.05.46.71 1.31.92 2.05.54 2.7-1.4 4.46-4.42 4.38-7.45-.02-.78-.67-1.54-1.5-1.5s-1.52.66-1.5 1.5ZM459.39 455.83s10.98-91.16 19.01-86.97c3.66 1.91 2.93 15.6 2.63 20.67-.31 5.07-4.71 39.26-4.71 39.26l-5.19 27.04H459.4Z" class="cls-4"/><path d="M312.14 379.18s-31.2-25.33-35.56-26.88c-4.35-1.55-18-1.44-22.65.61-4.65 2.05-14.2 9.06-15.41 12.3-1.21 3.24-1.53 7.38.44 6.24s11.24-8.6 11.24-8.6l8-1.59s-8.53 2.28-8.78 8.03c-.26 5.75 2.48 10.18 4.13 11.15 1.65.97 4.77 3.85 8.16 4.4 3.39.55 7.34.94 8.66 1.39s-1.13-6.7-1.13-6.7 4.56-5.91 6.22-4.69 5.79 8 8.65 9.46c2.85 1.46 11.78 3.79 11.78 3.79s2.75.95 5.13 3.86 4.85 6.15 4.85 6.15l6.27-18.93ZM253.77 344.53s6.58-3.51 9.83-4.14c4.89-.94 15.68.18 15.68.18s-5.59-2.39-7.53-4.25-12.32-3.68-12.32-3.68-16.03-14.08-18.04-18c-2.02-3.92-7.58-17.37-8.01-18.21-.43-.85-5.14-3.38-5.07-5.05s2.44 11.29 2.44 11.29l1.96 8.31s-8.51-9.88-10.57-10.49-11.21-5.67-11.21-4.47c0 1.19 4.8 6.44 5.01 6.65s7.99 8.31 7.99 8.31l-8.59-2.69s-12.18-4.47-14.69-3.42-2.65 2.88 0 4.27 13.37 5.14 15.4 6.76c2.04 1.61 6.09 6.35 6.09 6.35s-9.36 2.75-12.14 7.24-5.17 10.21-5 12.29 3.23 3.84 5 1.7 7.2-10 10.51-10.83c3.31-.83 11.78-1.32 12.6-.15.82 1.17 1.24 7.26-.38 7.62s-10.92 7.12-11.48 7.94-.84 3.51-.84 3.51l9.61-1.37 13.53-6.36 10.23.7Z" class="cls-1"/><path d="M341.33 292.63c-3.9 3.43-8.66 7.35-5.89 13.98 4.62 11.06 17.65 5.81 17.65 5.81l-7.61 7.49s-7.07-1.54-9.6-6.48c-2.54-4.94-2.82-10.76-2.82-10.76l4.38-6.61 3.9-3.43ZM410.9 421.04c.69-.85 1.38-1.7 2.05-2.57.7-.85 1.38-1.72 2.03-2.61.49-.64.89-1.34 1.35-1.99.84-1.14 1.65-2.31 2.46-3.49.81-1.17 1.64-2.34 2.4-3.55.69-1.07 1.28-2.19 1.88-3.3.37-.72.77-1.42 1.17-2.13.4-.71.82-1.4 1.33-2.06.32-.41.35-.32.35.15 0 .32 0 .66.01.98-.02.4-.08.85-.22 1.31-.26.8-.5 1.61-.79 2.4-.33.77-.67 1.54-1.02 2.3-.72 1.51-1.51 3-2.42 4.42-1.11 1.69-2.08 3.55-3.19 5.3-1.25 1.9-2.52 3.79-3.95 5.56-.86 1.11-1.75 2.19-2.66 3.26-1.35 1.64-2.83 3.17-4.25 4.73-.56.6-1.1 1.21-1.63 1.83-.54.61-1.13 1.17-1.72 1.74-.26.25-.49.52-.79.73-1.05.85-1.53.93-2.12.65-.13-.06-.28-.11-.39-.19-.35-.25-.21-.93.38-1.69.45-.55.89-1.11 1.32-1.69.43-.58.9-1.12 1.32-1.72.46-.56.94-1.1 1.42-1.65l1.41-1.68c.69-.85 1.4-1.67 2.12-2.5.69-.86 1.41-1.69 2.07-2.57l.07.05ZM365.78 402.09c-.48-.44-1.19-.77-2-.94-.29-.06-.6-.05-.91-.09-1.08-.15-2.28-.12-3.48-.1-.54.02-1.08.03-1.61.05-.69.03-1.41-.05-2.06-.36-.2-.1-.13-.26.09-.42.21-.16.55-.37.91-.43 1.25-.11 2.5-.34 3.89-.41.82-.03 1.71-.26 2.62-.27.99-.01 2.04.12 3.04.52.59.23 1.15.57 1.64.99l.92.79-1.02.61-.08.05c-.84.55-1.84.76-2.79.9-.74.1-1.5.27-2.31.21-.18 0-.36 0-.53-.04-.65-.15-.78-.45-.57-1.17.05-.17.09-.33.15-.49.22-.54.6-.88.94-.94.99-.17 1.8-.23 2.63-.44.37-.13.77-.16 1.16-.29l-.2 2.8c-.13-.16-.28-.33-.46-.47l.03-.05Z" class="cls-4"/><path d="M386.34 447.65a53.473 53.473 0 0 1-7.53 3.77c-.94.4-1.9.78-2.87 1.11-3.43 1.15-7 1.87-10.6 2.08-1.6.07-3.21.11-4.78-.04-.51-.02-1.01-.08-1.52-.15-.5-.07-1.01-.11-1.51-.23-.5-.11-1-.19-1.49-.33-.48-.17-.95-.34-1.44-.52-.59-.22-.5-.21.04-.19.27.01.66.02 1.12.01h.75c.26 0 .53.03.82.07 2 .25 4.01.35 6.02.24 2.01-.05 4.01-.26 6.02-.59 2.4-.4 4.82-1.23 7.13-2.15 2.55-1.01 5.02-2.23 7.43-3.57 1.47-.84 2.92-1.73 4.33-2.68 2.13-1.45 4.21-3.01 6.18-4.64 1.52-1.28 2.92-2.65 4.33-4.03.31-.31.61-.61.91-.92 1.16-1.14 1.57-1.45 2.03-1.49.11 0 .23-.04.31-.02.27.04-.04.67-.81 1.59-2.3 2.74-4.98 5.4-7.89 7.85-2.2 1.76-4.55 3.38-6.96 4.87l-.02-.03ZM319.74 383.07c.89.39 1.75.83 2.57 1.33.31.17.62.31.92.5 1.05.65 2.02 1.4 2.97 2.16.43.33.85.65 1.27.98.54.42 1.05.87 1.53 1.35.15.15.12.14-.05.07-.16-.08-.49-.2-.83-.39-1.22-.66-2.46-1.22-3.64-1.89-.71-.4-1.5-.72-2.26-1.04-.84-.37-1.69-.7-2.53-1.04-.52-.21-1.05-.4-1.59-.57-.81-.26-1.64-.5-2.47-.64-.65-.1-1.31-.05-1.96-.05-.14-.01-.28 0-.42-.02-.53-.06-.68-.23-.75-.75-.02-.12-.04-.24-.05-.35-.02-.39.23-.7.66-.81.32-.08.64-.16.97-.19.32 0 .65-.01.97.02.65.06 1.3.17 1.94.33.95.25 1.87.6 2.77.96v.05Z" class="cls-4"/><path d="m311.1 386.54-1.58 3.35c-.2.41-.32.84-.54 1.24-.77 1.4-1.56 2.8-2.4 4.17-.36.61-.72 1.24-1.12 1.83-.29.37-.49.78-.85 1.12-.17.17-.38.31-.57.45-.22.13-.46.23-.68.32-.29.11-.29-.02-.22-.34.09-.31.13-.79.25-1.28.41-.68.72-1.49 1.14-2.24.41-.76.83-1.53 1.28-2.31.56-.92.86-2.02 1.27-3.04l1.44-3.37.86-2.1c.42-1.07.87-2.13 1.21-3.21.28-.84.41-1.72.64-2.59.05-.19.07-.39.13-.57.24-.7.54-.83 1.19-.72.15.03.3.04.45.08.48.13.76.57.75 1.12-.15 1.57-.56 3.15-1.18 4.69-.43 1.15-.93 2.28-1.41 3.42l-.06-.02Z" class="cls-4"/><path d="M297.35 388.21s-14.11 21.22-8.75 28.55c2.11 2.88 15.8-18.64 15.8-18.64l-7.05-9.9Z" class="cls-4"/><path d="M284.2 271.92s-3.32 12.96-1.66 14.88 10.29-1.85 10.29-1.85l-8.63-13.03Z" style="opacity:.15;fill:#231f20;stroke-width:0"/><path d="M318.31 300.25s6.89.77 11.62-1.46c5.01-2.36 8.73-7.4 12.11-7.4 1.15 0-4.3 6.07-6.53 8.85-.68.85-1.74 1.3-2.82 1.21l-14.38-1.19ZM270.66 189.51c-18.64 5.94-27.96 37.05-13.13 45.43 4.5 2.54 9.01-1.99 9.01-1.99s7.7 7.97 15.22 8.57c7.52.61 17.84-7.14 19.02-8.23s8.17-8.1 8.17-8.1 5.59 12.56 14 15.45 9.7-3.92 9.7-3.92 5.98-6.62 12.08-5.41 6.21 13.36 6.21 13.64-4.02 9.63-4.02 9.63 5.67 18.86 11.99 24.66c6.33 5.8 22.67 11.66 33.13 12.12s26.29-5.65 30.97-10.94c4.69-5.29 10.61-14.13 10.83-21.29.21-7.17-1.79-20.19-4.48-24.19-2.69-4-12.22-14.34-15.67-15.22-3.45-.88-23.84-10.33-23.84-10.33s-1.57-12.01-3.83-17.61-7.91-13.51-13.01-15.15-20.21-.88-20.21-.88l-7.33 2.85s-15.96-16.4-22.52-16.83c-6.56-.44-21.46 3.29-25.61 6.93s-12.02 14.56-12.02 14.56l-2.71 5.83-11.95.42ZM213.7 334.93c.55-.65 1.12-1.31 1.81-1.97.37-.33.72-.66 1.23-1 .46-.3.88-.52 1.32-.75 1.75-.83 3.5-1.26 5.23-1.53 1.74-.27 3.47-.36 5.22-.29.88.04 1.76.12 2.68.29.45.07.93.2 1.42.36.26.08.51.2.81.32.3.14.6.37.89.54.33.31.68.62.92 1.01.17.21.27.46.37.71.12.24.21.49.26.76.07.26.11.52.12.78.02.24.04.47.02.68-.02.89-.21 1.66-.46 2.38-.5 1.44-1.28 2.66-2.28 3.75-.28.3-.6.59-.93.87-.31.25-.59.46-.89.68-.59.43-1.17.83-1.75 1.22l-3.44 2.27c-1.12.75-2.23 1.51-3.18 2.34l-.42.37c-.09.09-.18.18-.26.29-.08.11-.15.23-.15.37 0 .14.1.24.19.33.21.21.49.35.81.42.49.11 1.21.1 1.86.03 1.36-.15 2.79-.57 4.18-1.08 3.48-1.26 6.81-3.12 10.24-4.81 1.11-.53 2.23-1.07 3.46-1.51.62-.22 1.25-.43 2.02-.53.35-.06.91-.04 1.15-.01l.92.08c.61.06 1.23.12 1.84.2.61.11 1.22.22 1.83.35.61.11 1.21.31 1.81.52.6.23 1.2.42 1.79.76.74.42.97.96.85.97-.05.02-.17-.04-.35-.1a3.23 3.23 0 0 0-.77-.06c-.66.03-1.57.15-2.68.39-.55.11-1.14.15-1.77.21-.31.03-.64.05-.97.08-.33 0-.66-.02-1-.05l-1.76-.11c-.41-.02-.28 0-.5.02-.15.02-.37.08-.58.14-.9.28-1.95.76-2.98 1.26-2.14 1.06-4.27 2.11-6.41 3.17-2.21 1.05-4.47 2.07-6.99 2.8-1.26.36-2.59.65-4.08.68-.38 0-.76-.02-1.15-.06-.34-.04-.96-.13-1.44-.35-.53-.14-.97-.42-1.41-.69-.41-.29-.76-.64-1.11-.99l-.4-.63c-.1-.23-.19-.47-.22-.72-.14-1.17.49-2.26 1.38-3.2.22-.25.44-.44.66-.65l.49-.43c.32-.26.63-.51.95-.75 1.26-.98 2.52-1.88 3.77-2.77 1.24-.89 2.49-1.78 3.62-2.69.6-.48.97-.83 1.37-1.34.39-.49.73-1.04.99-1.6.3-.64.49-1.32.51-1.87 0-.3 0-.43-.06-.58-.04-.16-.16-.26-.26-.39-.11-.05-.16-.11-.37-.18-.17-.08-.45-.13-.68-.2-.51-.11-1.06-.2-1.62-.26-1.13-.12-2.3-.13-3.46-.06-2.31.14-4.67.58-6.56 1.57-.42.22-.7.39-1.03.68-.33.28-.66.63-.99.98-.66.72-1.3 1.5-1.93 2.3-1.27 1.6-2.5 3.28-3.9 4.91-.31.37-.65.73-.99 1.09-.19.19-.32.33-.58.56-.26.23-.51.46-.79.65-.54.4-1.12.72-1.72.85-.6.15-1.26.04-1.8-.27-1.3-.79-1.79-2.46-1.79-4.01 0-1.25.2-2.41.46-3.54.54-2.25 1.39-4.37 2.42-6.4.58-1.12 1.22-2.2 1.97-3.24.76-1.03 1.61-2.03 2.79-2.85 2.03-1.35 4.06-2.63 6.21-3.81.95-.51 1.88-1.03 2.89-1.47 3.74-1.65 5.57-1.44 6.44-.49.2.22.44.44.51.64.12.34-.25.59-.8.86-.58.31-1.47.66-2.7 1.17-1.82.76-3.66 1.78-5.48 2.85-.91.54-1.83 1.1-2.74 1.67l-1.37.87-.69.44-.34.22-.21.16c-1.2.94-2.4 2.7-3.31 4.49-.93 1.81-1.69 3.78-2.12 5.72-.2.92-.34 1.87-.32 2.64 0 .05-.01.03 0 .05 0 .02.02.02.04.01l.02-.02.12-.12.25-.25c.17-.17.34-.36.51-.55.34-.39.68-.79 1.02-1.22 1.36-1.69 2.67-3.55 4.19-5.41l.08.05ZM283.41 280.39c-.27 1.37-.49 2.81-.4 3.98.02.21.07.39.12.55.07.16.07.17.09.25.03.1.09.2.19.24.06.04.1.07.18.11l.43.12c.29.07.6.13.93.14.65.05 1.35-.04 2.05-.19.78-.16 1.53-.52 2.28-.85.96-.45 1.83-1.07 3.1-1.14.4-.02.43.19.35.66-.03.23-.09.55-.16.91-.09.34-.25.65-.49.89-.41.45-.93.73-1.42 1.08-.51.32-1.04.65-1.63.85-1.17.44-2.46.74-3.84.68-.46 0-.94-.06-1.42-.1l-.73-.1-.94-.22c-.45-.2-.91-.43-1.23-.81-.16-.19-.33-.37-.44-.6-.13-.21-.26-.43-.32-.66-.34-1.03-.35-1.89-.35-2.74.02-.84.1-1.65.22-2.44.14-.97.34-1.93.54-2.87.3-1.43.72-2.82 1.06-4.22.26-1.09.37-2.21.64-3.33.06-.25.09-.5.18-.75.39-.88.81-1.09 1.62-.85.19.05.38.1.55.17.58.27.88.8.87 1.42-.08 1.85-.61 3.7-1.04 5.6-.33 1.4-.68 2.82-.9 4.22h-.08Z" class="cls-4"/><path d="M304.48 297.43c-3.71-2.2-7.11-4.88-10.08-7.96-1.1-1.11-2.18-2.22-3.17-3.43-3.43-4.29-6.02-9.17-7.92-14.24-.39-1.14-.84-2.25-1.18-3.41l-.55-1.71-.45-1.74c-.21-.74-.36-1.49-.52-2.24-.15-.75-.33-1.5-.42-2.26-.1-.76-.16-1.53-.21-2.29 0-.77-.03-1.53.02-2.3.14-.96.43-.84 1.04-.1.6.74 1.34 2.1 1.82 3.71 1.36 5.78 3.12 11.38 5.68 16.79 1.55 3.24 3.85 6.21 6.25 8.96 2.64 3.04 5.67 5.75 9.04 7.99 2.07 1.37 4.24 2.62 6.54 3.58 3.45 1.52 7.16 2.52 10.89 2.85 2.9.24 5.76-.06 8.54-.63.61-.13 1.21-.26 1.81-.44 1.13-.28 1.88-.41 2.44-.44.56 0 .94.17 1.33.51.17.16.39.3.52.47.45.56-.34 1.4-2.09 2.11-5.21 1.96-11.36 2.2-17.14 1-4.29-.93-8.44-2.53-12.22-4.72l.03-.07Z" class="cls-4"/><path d="m291.29 252.3-6.09 2.65-3 1.37-.62.29-.17.07c-.06.03-.12.05-.17.09-.03.05 0 .11.02.17 0 .04.01.08.02.12-.02-.03.17.52.3.87l.45 1.16c.31.78.62 1.56.9 2.36.71 1.96 1.34 3.96 1.83 6.08.23 1.07.44 2.15.45 3.37.02.52-.06 1.52-.4 2.22-.32.73-.92 1.33-1.67 1.59-.34.1-.68.13-1.03.16-.35-.04-.7-.06-1.03-.19-.35-.08-.66-.27-.98-.42-.25-.16-.47-.3-.69-.46-.84-.62-1.53-1.32-2.16-2.04-1.82-2.1-3.32-4.35-4.66-6.69-.43-.75-.84-1.52-1.21-2.33-.19-.41-.37-.82-.52-1.27-.16-.48-.39-1.24-.3-1.86.03-.16.05-.32.15-.46.02-.16.15-.27.23-.41.22-.24.5-.44.79-.62.15-.09.28-.19.44-.26.08-.03.16-.07.23-.11l.16-.07c.21-.1.42-.18.63-.25.84-.29 1.66-.55 2.49-.72 1.07-.08 1.02.05.43.94-.29.45-.77.96-1.3 1.55-.27.28-.54.58-.83.89-.06.06-.17.18-.17.18 0 .02.01.03.01.04 0 .02.02.03.02.03l.19.53c.24.63.56 1.3.89 1.95.68 1.32 1.45 2.62 2.27 3.87.83 1.24 1.71 2.46 2.67 3.5.47.51.98.99 1.44 1.31l.17.12.04.03s.05.04.08.06c.06.03.14.08.23.06.12 0 .23-.07.3-.18.03-.05.06-.12.08-.18.02-.02.03-.33.03-.5-.01-.42-.05-.88-.14-1.35-.16-.94-.44-1.92-.75-2.89-.64-1.95-1.4-3.92-2.11-5.92l-.61-1.74-.3-.91c-.15-.47-.27-.95-.39-1.42-.02-.16-.06-.33-.07-.48l.03-.43c.3-.21.22-.51.47-.72.2-.22.51-.4.82-.56l.93-.49c.88-.43 1.6-.77 2.4-1.14l4.72-2.13c2.63-1.15 5.26-2.29 7.89-3.44 3.98-1.73 8.01-3.41 11.95-5.16 3.06-1.36 6-2.85 9.02-4.25.66-.31 1.31-.63 1.99-.92 2.52-1.07 3.43-1.18 4.29-.56.19.14.42.26.56.41.45.5-.36 1.45-2.14 2.33-5.26 2.67-10.96 5.16-16.69 7.63-4.26 1.83-8.55 3.66-12.8 5.55l-.04-.07Z" class="cls-4"/><path d="m313.85 232.19.61.94c.22.31.48.58.72.88.46.61 1.04 1.12 1.6 1.65.4.41.94.62 1.38.98 1.61 1.16 3.35 2.34 5.33 2.96.43.19.88.25 1.33.34.45.06.9.21 1.35.23 1.17.1 2.32.08 3.53.41.38.11.38.53.09 1.05-.29.5-.89 1.19-1.67 1.4-1.36.12-2.78.19-4.13-.12-.68-.11-1.34-.34-1.99-.58l-.97-.37c-.31-.15-.61-.32-.92-.49-.36-.2-.73-.38-1.11-.55l-1.11-.58c-.76-.36-1.48-.8-2.16-1.29-.77-.5-1.42-1.17-2.12-1.77-.64-.66-1.27-1.33-1.84-2.05l-.99-1.38c-.3-.47-.56-.98-.85-1.47l-.31-.56-.24-.6-.48-1.19c-.26-.81-.5-1.63-.71-2.45-.12-.65-.28-1.29-.45-1.93-.1-.65-.19-1.31-.26-1.98-.05-.3-.06-.59-.03-.88.1-1.1.39-1.42 1.31-1.46.21 0 .42-.03.63-.02.7.06 1.22.57 1.34 1.23.12 1 .39 1.95.52 2.89.14.46.25.93.34 1.39.12.46.29.91.41 1.37.07.35.23.68.37 1.01l.41 1.01.53.96.26.49.33.45-.07.05ZM422.34 223.11c2.8 2.26 5.34 4.91 7.39 7.92 2.06 3 3.58 6.35 4.6 9.78 1.02 3.46 1.57 6.96 1.76 10.49.18 3.53-.03 7.11-.73 10.6-.48 2.56-1.31 5.04-2.27 7.45-1.05 2.38-2.32 4.67-3.85 6.77-2.73 3.68-6.13 6.82-9.92 9.3-3.82 2.44-8 4.24-12.32 5.44-8.67 2.35-17.82 2.28-26.46.41-3.83-.86-7.63-1.93-11.25-3.63a42.568 42.568 0 0 1-9.89-6.46c-3.78-3.33-7.13-7.27-9.35-11.89-.27-.58-.54-1.16-.79-1.74-.25-.59-.42-1.21-.63-1.81-.45-1.2-.68-2.46-.94-3.71-.16-.62-.19-1.26-.25-1.9-.04-.64-.12-1.27-.14-1.9l.07-1.9c.04-.63-.01-1.27.25-1.88.46-1.53.66-2.16.7-2.11.05.05-.02.81.14 2.12.29 2.61 1.22 7.19 3.57 11.97 3.98 8.59 11.66 15.4 20.37 19.09 1.11.41 2.19.87 3.38 1.19l1.75.54 1.77.45c2.36.62 4.76 1.02 7.18 1.36 4.84.56 9.76.58 14.6-.14 5.78-.86 11.51-2.93 16.49-6.23 4.95-3.31 9.03-7.91 11.59-13.22 2.84-5.83 3.84-12.5 3.18-19.04-.32-3.28-.91-6.53-2-9.6a31.44 31.44 0 0 0-4.55-8.56c-2.4-3.2-5.44-5.91-8.82-8.16-3.39-2.25-7.1-4.06-10.92-5.65-2.9-1.21-5.87-2.31-8.84-3.53-1.49-.62-2.98-1.26-4.45-2.04-1.47-.81-2.91-1.64-4.2-3.16-1.2-1.64-1.5-3.39-1.78-5.01-.25-1.63-.39-3.22-.56-4.79-.32-3.13-.75-6.19-1.7-9.05-.72-2.23-1.79-4.3-3.16-6.12-1.39-1.81-3.08-3.35-4.98-4.62l-1.46-.9-1.52-.8c-1.02-.46-2.06-.88-3.16-1.2-2.18-.65-4.46-1.03-6.73-1.15-2.01-.13-3.97.04-5.93.37-3.64.62-5.8 1.68-7.32 2.4-.8.31-1.36.67-1.93.85-.59.17-1.05.33-1.54.42-.44.08-.98.26-1.32.26-.57 0-.4-.68.49-2.01.92-1.26 2.8-3.05 5.75-4.33 4.37-1.87 9.25-2.44 13.99-1.91 2.38.26 4.74.77 7.07 1.6 2.37.85 4.52 2.04 6.56 3.49 2.03 1.46 3.9 3.25 5.42 5.32 1.5 2.08 2.68 4.4 3.48 6.78 1.65 4.76 1.87 9.73 2.41 14.01.2 1.55.55 3.07 1 3.76.05.09.1.17.15.22.02.03.05.06.07.09.03.04.1.09.15.14.22.2.43.4.72.59.25.2.55.39.86.58.29.19.63.37.96.55 2.71 1.43 5.93 2.6 9.11 3.86 6.39 2.48 13.02 5.37 18.75 9.89l-.05.09ZM420.02 340.53l2.78 5.26 1.37 2.64 1.26 2.69 2.52 5.38c.82 1.8 1.54 3.64 2.32 5.46l1.72 3.97c.54 1.34 1.05 2.69 1.55 4.04l1.31 3.58.65 1.79.58 1.82 2.31 7.26c1.35 4.9 2.7 9.78 3.76 14.74l.77 3.29c.26 1.09.45 2.21.69 3.31.45 2.2.89 4.4 1.34 6.59.44 2.83.95 5.66 1.31 8.51.18 1.42.27 2.86.39 4.29l.15 2.14c.04.72.02 1.44.03 2.15-.02 1.79-.11 1.56-.66.1-.61-1.45-1.57-4.11-2.17-7.32-2.31-11.35-4.7-22.62-7.82-33.86-.81-3.4-2.06-6.73-3.19-10.13-.55-1.7-1.24-3.36-1.9-5.03-.65-1.67-1.3-3.34-1.95-5-.72-1.82-1.54-3.6-2.31-5.41l-1.16-2.7c-.38-.91-.78-1.8-1.22-2.68-1.74-3.52-3.32-7.11-5.26-10.53-1.16-2.12-2.24-4.29-3.47-6.36l-3.73-6.22c-.46-.79-.95-1.56-1.47-2.32l-1.53-2.29-3.05-4.57c-1.1-1.47-2.19-2.93-3.28-4.39-1.12-1.44-2.15-2.95-3.35-4.31-1.83-2.15-3.69-4.24-5.55-6.31-1.97-1.97-3.93-3.94-5.89-5.91-.44-.43-.86-.87-1.31-1.28-.45-.41-.9-.82-1.36-1.23-3.37-3.1-4.15-4.39-4.2-5.8-.01-.32-.08-.69-.03-.94.09-.42.57-.42 1.38-.05.81.37 1.97 1.07 3.28 2.18 3.97 3.2 7.59 6.97 11.26 10.8 1.73 2.01 3.47 4.03 5.22 6.06.89 1 1.68 2.09 2.5 3.16l2.44 3.22 1.8 2.4c.58.82 1.13 1.66 1.69 2.48l3.35 4.99c1.12 1.66 2.09 3.42 3.15 5.12 1.02 1.73 2.11 3.41 3.06 5.17l-.08.06ZM348.91 450.31c4.21 1.08 8.47 1.95 12.71 2.46 2.11.22 4.24.36 6.22.23.99-.05 2.03-.28 3.04-.41 1.01-.23 2.02-.47 3.02-.75 2.92-.87 5.68-2.3 8.37-3.81 2.4-1.32 4.63-2.96 6.85-4.61 2.16-1.74 4.31-3.52 6.3-5.48 4.05-3.86 7.73-8.13 11.17-12.6 3.05-3.97 5.78-8.22 8.3-12.5 1.62-2.75 3.14-5.57 4.58-8.41.73-1.42 1.51-2.81 2.22-4.24.69-1.42 1.54-2.8 2.13-4.24.39-.89.48-1.22.63-1.21.12.02.26.51.26 1.43 0 .9-.09 2.19-.3 3.71-.24 1.52-.73 3.21-1.42 4.98-2.76 6.1-6.05 11.92-9.84 17.44-3.77 5.52-7.96 10.8-12.72 15.6-2.84 2.87-5.82 5.73-9.05 8.37-3.24 2.62-6.74 5.02-10.54 6.87-4.17 2.05-8.72 3.38-13.48 3.7-2.37.1-4.66-.09-6.93-.36-2.27-.26-4.5-.66-6.72-1.09-5.46-1.09-10.8-2.57-16.07-4.23-7.98-2.55-15.79-5.71-23.29-9.3-5.83-2.79-11.5-5.73-16.81-9.48-1.15-.86-2.31-1.64-3.41-2.59-2.07-1.72-3.27-3.07-3.96-4.14-.72-1.03-.89-1.85-.88-2.59 0-.34-.03-.74.05-.99.14-.42.67-.32 1.48.19.8.53 1.95 1.41 3.37 2.58 4.17 3.52 8.96 6.57 14 9.35 5.02 2.82 10.33 5.35 15.76 7.65 8.08 3.38 16.45 6.27 24.97 8.37v.1ZM253.71 378.2c-.17-.48-.22-1.05-.32-1.57-.01-.57-.09-1.12.04-1.73.07-.64.25-1.09.41-1.57.16-.48.41-.92.61-1.37.35-.63.64-1.28 1.07-1.84 1.49-1.98 3.34-3.5 5.28-4.76.85-.57 1.7-1.14 2.55-1.7.55-.35 1.1-.7 1.69-.97.58-.29 1.2-.52 1.89-.58.42-.05.46.17.31.64-.07.23-.19.54-.33.87-.15.32-.37.6-.65.81-.97.81-2.01 1.45-2.99 2.2-.99.73-1.96 1.47-2.93 2.22-1.2.87-2.08 2.13-2.82 3.35-.39.68-.76 1.37-.99 2.1l-.19.54-.09.47c-.05.15-.03.34-.03.51 0 .18-.02.35.02.54.06.91.46 1.84.92 2.71.72 1.31 1.68 2.57 2.87 3.49.93.69 2.02 1.11 3.01 1.27l.63.05c.73.03.89.27 1.23 1.09.07.19.17.37.24.56.11.31.09.61-.1.88-.19.25-.57.56-1.07.64-1.52.24-3.01-.18-4.25-.82-1.26-.65-2.3-1.6-3.18-2.63a14.118 14.118 0 0 1-2.87-5.38l.07-.02Z" class="cls-4"/><path d="M247.12 373.3c.02-1.09.19-2.12.44-3.1.25-.97.52-1.88.93-2.87.3-.7.62-1.47 1.18-2.13.64-.73 1.14-.96 1.68-1.32.53-.32 1.07-.63 1.6-.91 1.08-.58 2.16-1.12 3.26-1.61.98-.43 1.95-.91 2.95-1.29 1.26-.5 2.66-1.01 4.12-.67.44.13.36.25.03.57-.34.36-.85.88-1.49 1.16-2.34.88-4.62 2.18-6.96 3.44-.7.38-1.37.84-1.99 1.35-.31.25-.6.53-.86.75l-.05.06-.03.03h-.01v.02c-.01 0 .03.03-.07-.05l-.1-.08-.05-.04h-.01c.45.36.12.09.22.18s0 .01 0 .01l-.02.02-.04.05-.07.09c-.1.13-.19.27-.28.4-.39.62-.68 1.4-.93 2.24-.25.84-.45 1.68-.55 2.52-.13 1.03-.11 2.05.16 3 .39 1.44 1.35 2.71 2.65 3.7.99.78 2.17 1.25 3.31 1.62.25.08.51.13.76.2.92.28 1.14.51 1.16 1.39 0 .2.03.4.02.59-.03.65-.62 1.09-1.53.97-1.34-.17-2.62-.67-3.8-1.36-1.18-.7-2.29-1.54-3.28-2.61a9.134 9.134 0 0 1-1.84-2.95c-.43-1.11-.59-2.28-.6-3.38h.07ZM229.62 306.11c0-.07 0-.17-.02-.27l-.16-.59-.22-.69c-.15-.46-.28-.92-.45-1.39-.31-.92-.64-1.85-.97-2.79l-1.61-4.42c-.3-.85-.5-1.63-.76-2.45-.15-.43-.17-.72-.23-1.07l-.18-1c-.07-.35-.02-.53-.04-.81 0-.25-.02-.52 0-.74.1-.35.13-.78.3-1.05.12-.32.31-.59.55-.89.17-.16.49-.33.73-.38.24-.01.49-.09.71-.05.94.08 1.76.51 2.57 1.09.3.19.6.5.91.75.31.31.62.63.93.99.63.78 1.29 1.67 1.91 2.74.31.54.63 1.06.91 1.64l.44.85c.14.26.31.65.37.76.32.68.62 1.36.91 2.04 1.01 2.42 1.91 4.84 2.8 7.25.9 2.39 1.76 4.84 2.8 7.01.13.27.27.52.4.76.14.22.26.42.47.66.37.46.73.93 1.17 1.38.82.92 1.74 1.79 2.65 2.67 1.85 1.73 3.78 3.4 5.76 5.01 3.5 2.87 7.25 5.49 10.97 8 2.41 1.6 4.86 3.13 7.37 4.55s5 2.88 7.64 4c1.63.72 1.36.88-.21.7-.39-.05-.87-.1-1.42-.2-.53-.12-1.14-.26-1.79-.43-.67-.16-1.36-.38-2.1-.64-.37-.13-.75-.27-1.13-.4-.38-.16-.76-.33-1.14-.53-5.4-2.7-10.61-5.73-15.43-9.33-2.44-1.76-4.81-3.62-7.12-5.56-2.31-1.95-4.57-3.97-6.67-6.32l-.93-1.14c-.15-.17-.31-.41-.47-.65-.16-.24-.27-.45-.4-.68-.48-.88-.86-1.74-1.24-2.6-.74-1.72-1.4-3.43-2.08-5.14-.68-1.71-1.36-3.4-2.07-5.08-.36-.84-.72-1.67-1.09-2.49l-.86-1.85c-.29-.61-.62-1.26-1.12-1.86-.25-.3-.55-.59-.94-.72-.09-.05-.21-.01-.26.06-.05.08-.02.17-.04.25 0 .17.02.34.05.52.13.7.38 1.42.64 2.21l.74 2.13c.33.96.66 1.93.97 2.9l.47 1.56c.1.41.41 1.38.56 2.11.15.76.33 1.54.45 2.28.07.7.15 1.39.2 2.08l-.11 1.07-.03.27c-.02.07-.04.13-.07.2l-.14.4-.14.4c-.04.12-.11.28-.33.33-.35.04-.57-.1-.82-.19-.49-.24-1.01-.53-1.64-1.06-.63-.52-1.34-1.34-2.02-2.12l-2.26-2.61-1.71-1.91a64.037 64.037 0 0 0-3.57-3.61c-.62-.57-1.25-1.12-1.91-1.64-.33-.26-.66-.51-.99-.75l-.39-.28-.3-.2c-.82-.53-1.72-.98-2.67-1.14-.34-.06-.69-.07-1.02-.04-.1 0-.21.01-.27.1-.05.09-.01.21.03.3.09.19.22.36.35.53.27.33.56.64.85.93l.87.83.88.82c1.03 1 2.08 2 3.08 3.13.89 1 1.91 1.93 2.96 2.89.93.85 1.88 1.67 2.8 2.64 1.71 1.78 2.62 3.28 3.04 4.39.21.56.3 1.03.32 1.44.03.4-.03.75-.15 1.08-.11.29-.19.65-.33.83-.53.62-1.47-1.03-3.45-3.44-1.2-1.48-2.68-2.79-4.26-4.2-.79-.7-1.6-1.44-2.41-2.24-.4-.4-.8-.83-1.19-1.27a34.1 34.1 0 0 0-1.02-1.1c-.85-.85-1.7-1.69-2.55-2.55-1.47-1.48-3.08-3.07-4.1-4.48-.97-1.41-.97-2.26-.81-2.99.05-.19.11-.38.28-.67.2-.33.36-.47.55-.64.38-.32.9-.53 1.5-.62 1.16-.11 2.43-.04 3.99.43 1.54.44 3.36 1.4 5.02 2.55 3.48 2.47 6.16 5.33 8.77 8.27l.83.95s.02.03.03.05l.06.1s.06.1.1.11c.01-.02.02-.06.02-.09V306l.1.09Z" class="cls-4"/><path d="M200.85 311.59c-.39-.22-.77-.45-1.16-.69-.63-.41-1.31-.85-1.86-1.33-.31-.23-.52-.49-.78-.73-.25-.24-.38-.52-.58-.77-.26-.53-.45-1.05-.46-1.63.02-.59.26-1.21.62-1.66.21-.2.4-.43.65-.59l.35-.27.42-.21c.26-.15.6-.24.92-.34.31-.11.67-.16 1.03-.22l.53-.08h.54l.54-.02H202.05c1.36.08 2.65.19 3.91.48 4.42 1.03 8.5 2.82 12.29 5.06 1.67 1.01 3.37 2 4.89 3.21 1.93 1.55 3.9 3.21 5.06 5.47.31.74.25.64-.38.32-.32-.15-.73-.4-1.26-.64-.53-.25-1.1-.55-1.61-.98-1.88-1.49-3.98-2.63-6-3.86-2.06-1.2-4.21-2.26-6.41-3.26-2.62-1.23-5.61-1.92-8.46-2.3-.76-.11-1.62-.17-2.26-.19-.35-.02-.64-.02-.99.06-.16.05-.34.1-.47.23-.15.11-.18.31-.11.46.14.3.42.53.71.76l.28.2.58.35c.43.25.87.49 1.31.73.89.47 1.81.91 2.74 1.33a99.67 99.67 0 0 0 8.7 3.46c1.37.52 2.37 1.26 3.4 1.97 1.02.73 1.99 1.49 2.92 2.34.41.38.82.73 1.2 1.14 1.41 1.55 1.57 2.36 1.04 3.18-.11.19-.21.39-.35.53-.45.44-1.35.13-2.3-.79a53.515 53.515 0 0 0-4.72-3.94c-.8-.59-1.73-1.21-2.28-1.39-1.06-.38-2.11-.76-3.18-1.13-3.2-1.2-6.37-2.51-9.52-4.19l.03-.07ZM286.29 432.54c.73.97 1.51 1.93 2.35 2.83.3.34.68.59.98.93 1.07 1.19 2.18 2.37 3.39 3.43.53.49 1.14.86 1.7 1.31.74.53 1.51 1.02 2.15 1.73.2.22-.04.53-.47.75-.42.22-1.07.39-1.59.18-.88-.41-1.81-.76-2.57-1.36-.77-.59-1.5-1.23-2.17-1.95-.8-.86-1.82-1.52-2.69-2.34-.94-.91-1.83-1.89-2.68-2.88-.52-.62-1.03-1.25-1.53-1.89-.77-.96-1.43-1.99-2.17-2.97-.55-.77-1.25-1.44-1.8-2.23-.13-.17-.28-.32-.38-.51-.38-.7-.3-1.02.36-1.49.15-.11.29-.22.45-.32.53-.31 1.13-.25 1.53.13 1.2 1.1 2.05 2.39 3 3.7.71.97 1.4 1.96 2.19 2.9l-.05.05ZM240.13 461.52l-42.93-.66c-5.22-.04-10.44-.09-15.66-.13l-55.18-.92c-8.16-.11-16.37-.14-24.47-.13-10.41 0-20.85.25-31.25-.42-3.24-.44-2.81-.54-.06-1.2 2.74-.7 7.8-1.46 13.8-1.61 21.26-.16 42.5-.11 63.92.44 12.81.33 26.15.24 39.26.37l43.24.45c8.87.07 17.75.13 26.61.2 13.43.06 26.93.19 40.26.08 10.37-.07 20.52-.4 30.77-.63l6.74-.18c8.43-.13 11.12.11 12.94 1.13.41.23.96.47 1.2.7.82.8-2.62 1.49-8.79 1.77-18.32.85-37.64 1.05-57.04 1.08-7.2-.02-14.43-.03-21.65-.05l-21.68-.21-.02-.09ZM473.21 438.3c2.13-12.18 3.95-24.44 5.13-36.72.42-4.48.65-8.97.8-13.44.14-3.93.18-7.88-.22-11.7-.2-1.89-.52-3.79-1.14-5.38-.31-.77-.74-1.46-1.13-1.71-.15-.14-.47-.24-.66-.29-.21-.01-.41 0-.66.09-.51.21-1.12.76-1.65 1.44-.53.68-1.01 1.48-1.45 2.3-.88 1.67-1.6 3.48-2.26 5.32-1.31 3.69-2.35 7.52-3.33 11.36-1.7 6.84-3.01 13.83-4.25 20.74-1.61 8.87-2.82 17.88-5.66 26.58-.52 1.34-.85 1.88-.93 1.8-.09-.08.03-.77.11-1.97.09-1.24.21-2.93.35-4.94.12-2.05.31-4.44.69-7l.49-3.42.56-3.41 1.13-6.83c.77-4.55 1.57-9.11 2.47-13.67.9-4.55 1.9-9.11 3.13-13.64.63-2.26 1.32-4.52 2.13-6.77.82-2.24 1.72-4.48 3.01-6.66.4-.65.81-1.3 1.34-1.94.51-.63 1.1-1.27 1.91-1.81.79-.54 1.91-.97 3.08-.88.57.04 1.11.2 1.59.41.48.22 1 .55 1.35.9.75.71 1.23 1.5 1.57 2.26.37.76.6 1.52.83 2.27.42 1.5.66 2.97.84 4.45.68 5.88.55 11.68.23 17.4-.79 12.58-2.48 25.02-4.42 37.4-1.22 7.62-2.53 15.22-4.1 22.8l-.41 1.84c-.11.45-.21.89-.35 1.32-.07.21-.2.38-.3.56-.11.17-.2.38-.4.47-.42.2-.87.31-1.32.43-.22.06-.47.09-.7.12l-.55.07c-.68.08-1.34.13-2 .18-1.32.09-2.63.16-3.94.21-2.62.11-5.23.17-7.84.22-5.21.07-10.42.14-15.59.22-9 .11-17.82.37-26.72.51-1.96.03-3.88.1-5.85.11-7.32.03-9.65-.26-11.21-1.32-.36-.24-.82-.49-1.03-.73-.69-.82 2.3-1.45 7.65-1.64 15.89-.55 32.64-.55 49.42-.82 3.13-.06 6.26-.12 9.38-.23 1.56-.06 3.12-.12 4.65-.22 1.39-.06 3.63-.33 3.03-.26 0 0 0-.01.01-.02s.1-.46.1-.46l.48-2.23.9-4.54c.58-3.04 1.12-6.1 1.64-9.15h.09ZM460.9 248c3.16-4.49 6.13-9.1 8.93-13.82 1.15-1.94-1.87-3.7-3.02-1.77-2.8 4.72-5.76 9.33-8.93 13.82-.54.77-.14 1.95.63 2.39.88.51 1.85.15 2.39-.63ZM114.26 218.83c-2.33-4.97-4.86-9.83-7.57-14.61-1.11-1.96-4.14-.2-3.02 1.77 2.71 4.78 5.24 9.63 7.57 14.61.4.86 1.63 1.07 2.39.63.88-.51 1.03-1.54.63-2.39ZM396.65 95.43c3.59-6.24 6.91-12.61 10-19.11.43-.91.25-2.02-.67-2.57-.82-.48-2.13-.25-2.57.67-3.09 6.5-6.4 12.87-10 19.11-1.21 2.1 2.03 3.99 3.24 1.89Z" class="cls-4"/><path d="M98.93 212.52c-.6-1-.97-2.11-1.58-3.11l-.63 2.39c3.76-2.17 7.62-4.17 11.51-6.08 1.5-.73 3.01-1.46 4.53-2.14.29-.13.58-.26.87-.38.21-.09-.25.1.05-.02.11-.05.23-.09.34-.14.14-.06.3-.1.44-.16.51-.22-.32.02-.59-.07l-.77-.45c-.06-.05-.11-.21.08.16.14.27.29.53.43.79.28.53.55 1.06.81 1.59 1.01 2.02 4.03.24 3.02-1.77-.76-1.51-1.62-4.23-3.79-3.67-1.44.37-2.85 1.17-4.19 1.79-4.94 2.3-9.8 4.79-14.52 7.52-.81.47-1.12 1.59-.63 2.39.6 1 .97 2.11 1.58 3.11 1.17 1.92 4.19.17 3.02-1.77ZM109.59 223.39c1.42-.5 2.83-1.02 4.19-1.64 1.26-.58 2.45-1.28 3.63-2 .78-.48 1.15-1.59.63-2.39s-1.56-1.14-2.39-.63c-1.15.7-2.32 1.39-3.54 1.96l-.39.18c-.06.03-.12.05-.18.08-.26.11-.01 0 .1-.04-.28.11-.57.23-.85.34-.7.27-1.42.53-2.13.78-.86.3-1.53 1.21-1.22 2.15.28.85 1.23 1.55 2.15 1.22ZM391.9 74.23c.62-1.4 1.54-2.63 2.16-4.03l-2.57.67c5.92 2.75 11.7 5.81 17.38 9.02 1.81 1.03 3.64 2.05 5.39 3.19.22.15.45.36.69.48-.53-.26-.25-.24-.16-.11.18.27 0-1.93-.5-1.39s-1.14 2.22-1.62 3.12c-1.15 2.12 2.09 4.02 3.24 1.89.91-1.68 3.28-4.7 1.39-6.4-1.42-1.28-3.31-2.17-4.95-3.12-6.17-3.56-12.49-6.9-18.95-9.91-.84-.39-2.13-.32-2.57.67-.62 1.4-1.54 2.63-2.16 4.03-.41.93-.27 2 .67 2.57.79.47 2.16.25 2.57-.67ZM389.23 93.71c1.46 1.04 2.92 2.08 4.47 2.98s3.18 1.65 4.82 2.36c.48.21.92.33 1.44.19.43-.12.91-.46 1.12-.86.43-.81.29-2.15-.67-2.57-1.64-.71-3.27-1.46-4.82-2.36s-3.01-1.94-4.47-2.98c-.8-.57-2.12-.17-2.57.67-.51.97-.18 1.95.67 2.57ZM458.77 231.56c.57-1.02 1.35-1.89 1.92-2.91l-2.39.63c3.76 2.19 7.41 4.55 11.01 6.99 1.4.95 2.78 1.91 4.15 2.9.24.18.48.35.72.53.3.22 0 0 .08.06s.15.12.23.18c.13.11.26.24.4.34.43.31-.19-.28-.25-.54v-.93c-.04.17.07-.17.08-.18-.06.07-.1.19-.15.27-.16.27-.33.54-.5.81-.32.51-.65 1-.98 1.5-1.25 1.88 1.78 3.63 3.02 1.77.94-1.41 2.9-3.55 1.29-5.14-1.06-1.05-2.42-1.88-3.63-2.74-4.44-3.13-9.01-6.12-13.71-8.85-.8-.47-1.93-.2-2.39.63-.57 1.02-1.35 1.89-1.92 2.91-1.09 1.97 1.93 3.74 3.02 1.77ZM454.63 246.2c1.13.98 2.28 1.95 3.51 2.83 1.12.8 2.32 1.49 3.53 2.16.8.44 1.94.22 2.39-.63s.23-1.92-.63-2.39c-1.18-.65-2.36-1.33-3.46-2.11-.23-.17-.47-.34-.7-.51-.27-.2.11.05.11.09 0-.01-.2-.16-.21-.17-.12-.1-.24-.19-.36-.29-.58-.47-1.14-.96-1.71-1.45-.69-.6-1.8-.73-2.47 0-.6.66-.74 1.83 0 2.47ZM243.76 215.68c.48-4.83 2.26-9.37 4.67-13.4.92-1.45 1.8-2.93 2.93-4.23 1.95-2.31 4.21-4.36 6.69-6.06 2.47-1.72 5.2-3.07 8.08-3.94 2.54-.78 5.18-1.36 7.83-1.41 1.69.02 3.41.02 5.07.43l1.23.32 1.19.44c.39.16.79.28 1.17.48.38.19.74.42 1.1.62.9.55.68.66-.27.77-.47.06-1.13.14-1.88.19-.76.1-1.59.08-2.48.1-1.56 0-3.05-.16-4.57-.02-1.5.12-2.99.32-4.47.63-2.95.64-5.81 1.77-8.56 3.28-3.31 1.79-6.12 4.71-8.39 7.82-2.55 3.41-4.4 7.37-5.31 11.54-.54 2.57-.71 5.22-.41 7.82.09.99.31 1.96.51 2.94.28.95.54 1.95.92 2.73.86 1.66 2.23 3.15 3.77 4.34 1.19.94 2.54 1.65 3.92 2.12 1.37.48 2.8.73 4.13.61.15 0 .29 0 .44-.02l.41-.1c.27-.08.56-.1.82-.19.99-.31 1.56-.65 2.11-.72.49-.17.91-.13 1.45.06.24.09.52.14.74.25.36.18.45.55.23 1.11-.11.28-.31.6-.58.96-.29.34-.71.65-1.2.99-1.49.88-3.32 1.45-5.1 1.39-1.77-.02-3.53-.36-5.1-1.03-1.59-.64-3.09-1.48-4.43-2.53-1.36-1.03-2.6-2.23-3.65-3.68-.42-.5-.75-1.13-1.1-1.71-.17-.3-.31-.65-.46-.98-.15-.34-.29-.67-.36-.95l-.54-1.79-.39-1.82c-.42-2.45-.5-4.93-.29-7.37h.09Z" class="cls-4"/><path d="M296.13 239.23c-2.85 1.52-5.91 2.65-9.08 3.29-.57.15-1.16.21-1.74.33l-.87.15-.9.07c-4.24.21-8.47-.91-11.98-3.19-1.57-.99-2.96-2.29-4.05-3.78-.7-.95-1.33-1.98-1.71-3.1-.21-.55-.27-1.15-.4-1.72-.07-.28-.08-.58-.07-.87 0-.29 0-.58.01-.87.07-.73.15-.62.56-.1.25.32.53.67.82 1.03.34.41.71.85.99 1.36l.44.63.36.66c.3.4.57.81.88 1.2.65.74 1.34 1.44 2.13 2.03a18.36 18.36 0 0 0 5.28 2.95c1.18.42 2.46.66 3.76.71 1.3.09 2.59-.01 3.88-.19 2.86-.39 5.69-1.27 8.35-2.54 1.65-.76 3.21-1.72 4.72-2.75 2.26-1.6 4.39-3.45 6.15-5.59 1.35-1.67 2.39-3.52 3.3-5.4.2-.41.34-.85.55-1.26.39-.76.64-1.26.96-1.55.33-.28.7-.37 1.21-.36.23 0 .48-.02.7.02.73.11 1.01 1.04.62 2.4-1.27 3.96-3.82 7.66-6.97 10.69-2.33 2.28-4.99 4.22-7.83 5.81l-.05-.07ZM300.89 163.75c1.07-.59 2.22-1 3.32-1.5 1.12-.47 2.29-.79 3.43-1.19 1.15-.37 2.34-.59 3.5-.89.57-.16 1.18-.25 1.8-.33l1.84-.25 2.69-.14c.9-.05 1.79.06 2.68.12 3.12.41 6.15 1.23 8.97 2.5 2.8 1.28 5.46 2.85 7.83 4.77 2.06 1.75 4.05 3.6 5.72 5.71 2.1 2.7 3.83 5.84 4.32 9.25.19 1.04.07.91-.43.14-.29-.44-.64-.96-1.03-1.54-.24-.3-.53-.61-.78-.96-.24-.35-.48-.72-.71-1.12l-1.42-1.99c-.53-.62-1.08-1.22-1.58-1.85-.54-.6-1.11-1.18-1.65-1.77-.57-.57-1.19-1.09-1.78-1.64-1.23-1.04-2.51-2.04-3.87-2.92-.65-.49-1.35-.89-2.04-1.32l-1.04-.64-1.09-.56c-3.47-1.84-7.57-2.63-11.5-2.73-.54 0-1.08.03-1.63.04-.54.03-1.09 0-1.62.1-1.07.17-2.15.25-3.23.57-2.18.49-4.31 1.17-6.37 2.04l-1.89.83c-.62.3-1.21.65-1.81.98-1.24.62-2.33 1.46-3.48 2.21a36.577 36.577 0 0 0-8.65 9.03c-1.82 2.7-3.13 5.63-4.3 8.62-.25.66-.46 1.32-.73 1.99-.92 2.48-1.46 3.18-2.58 3.39-.25.05-.52.14-.76.14-.4 0-.64-.31-.74-.88-.09-.56-.08-1.39.2-2.37 1.52-5.85 4.52-11.79 8.84-16.79 3.21-3.71 7.17-6.85 11.53-9.14l.05.08ZM348.23 232.92c.74.65 1.36 1.43 1.84 2.25.26.43.43.8.6 1.17.17.38.36.74.49 1.13.63 1.52 1.07 3.14 1.28 4.79.15 1.2.29 2.43.14 3.66-.21 2.16-.97 4.23-2.06 6.03-1.1 1.81-2.57 3.32-4.21 4.54-1.46 1.07-3.04 1.99-4.73 2.62-1.09.37-2.23.64-3.39.73-1.16.06-2.33-.12-3.42-.47-.68-.24-.52-.4.09-.6.61-.17 1.64-.6 2.72-.96.98-.24 1.92-.56 2.82-.99.9-.4 1.81-.81 2.64-1.35 1.67-1.07 3.18-2.39 4.38-3.99 1.5-1.9 2.08-4.45 2-6.87-.03-1.34-.27-2.69-.69-4.01-.2-.66-.47-1.31-.75-1.95-.31-.62-.63-1.3-.95-1.79-.85-1.27-2.17-2.16-3.73-2.5-2.36-.52-5.09 0-7.3 1.29-1.73 1.01-3.03 2.57-3.89 4.2-.18.36-.33.74-.47 1.11-.56 1.36-.8 1.74-1.91 1.89-.24.03-.49.1-.73.12-.77.07-1.4-.84-1.1-2.38.44-2.25 1.71-4.35 3.4-6 1.69-1.66 3.8-2.87 6.12-3.58 1.72-.52 3.58-.77 5.48-.5 1.88.25 3.84 1 5.36 2.34l-.05.07ZM331.81 305.99c-.07-3.13.89-6.23 2.59-8.65.59-.91 1.2-1.78 1.92-2.55 1.28-1.35 2.73-2.46 4.21-3.47 1.48-1.02 3.08-1.79 4.64-2.57 1.42-.64 2.79-1.37 4.22-1.92 1.82-.72 3.64-1.52 5.65-1.65.62-.07.59.12.21.59-.19.23-.46.55-.8.9-.17.17-.34.38-.55.55-.21.16-.43.3-.68.43-3.43 1.86-6.79 3.58-10.05 5.52-1.99 1.11-3.66 2.81-5.03 4.55-1.54 1.9-2.61 4.13-2.88 6.51-.16 1.46-.05 2.97.39 4.41.68 2.18 1.96 4.24 3.66 5.84 1.34 1.23 2.96 2.06 4.6 2.71.36.15.72.27 1.09.4.67.27 1.09.49 1.36.73.27.26.37.59.41 1.07.02.22.06.44.05.65-.03.7-.81 1.07-2.08.89-1.86-.31-3.68-1.07-5.35-2.14a16.964 16.964 0 0 1-4.43-4.12c-1.85-2.43-3.06-5.49-3.22-8.66h.09Z" class="cls-4"/><path d="M335.14 336.39c1.53-2.5 3.08-5 4.69-7.46.59-.9 1.08-1.85 1.68-2.74 2.12-3.14 4.32-6.23 6.66-9.21.52-.66 1.03-1.33 1.52-2.01.52-.67 1.03-1.33 1.54-1.99 1.34-1.67 2.72-3.35 4.47-4.65.56-.39.6-.21.45.42-.12.67-.47 1.71-1.16 2.7-1.18 1.79-2.36 3.55-3.58 5.31-.6.88-1.2 1.77-1.81 2.66-.6.89-1.2 1.79-1.87 2.64-1.55 2.09-2.81 4.49-4.16 6.78l-4.47 7.57c-.92 1.55-1.83 3.12-2.72 4.69-1.35 2.39-2.74 4.76-3.99 7.18-.97 1.88-1.73 3.83-2.64 5.73-.2.42-.36.85-.58 1.26-.86 1.5-1.37 1.85-2.32 1.73-.22-.03-.45-.03-.64-.09-.67-.19-.82-1.09-.44-2.31.57-1.81 1.32-3.58 2.15-5.34.85-1.75 1.78-3.48 2.74-5.21 1.41-2.57 2.92-5.12 4.4-7.68l.08.04ZM277.85 381.18c-.72-1.03-1.29-2.19-1.74-3.15-.23-.46-.45-.89-.61-1.07-.16-.2-.27-.29-.48-.38-.05 0-.08-.03-.19-.02-.12.02-.27.03-.45.1-.34.1-.74.28-1.12.51-.77.45-1.5 1.09-1.97 1.72-.11.16-.22.36-.25.43-.04.07-.02.14-.05.22.06.45.34 1.15.81 1.89.22.35.4.66.69 1.1.43.65.8 1.31 1.06 1.96.21.65.3 1.29.14 1.92-.15.64-.61 1.19-1.12 1.56-.33.2-.66.33-1 .46-.32.17-.71.17-1.09.22-.37.08-.77-.01-1.16-.05a4.21 4.21 0 0 1-1.17-.27l-.49-.18c-.14-.05-.26-.13-.39-.19-.25-.13-.52-.25-.75-.4-.47-.3-.94-.6-1.35-.95a13 13 0 0 1-2.27-2.3c-.67-.84-1.23-1.79-1.65-2.82-.27-.67-.47-1.38-.54-2.14-.1-.79 0-1.45.04-2.16.2-1.39.64-2.75 1.29-3.98 1.78-3.11 4.81-5.31 8.21-5.93.54-.08.84.02.82.14 0 .14-.24.31-.56.65-.66.67-1.7 1.88-2.91 3.02-.53.52-1.04 1.04-1.49 1.58-.45.54-.84 1.12-1.16 1.71a8.13 8.13 0 0 0-1.2 3.73l-.04.5c.02.13.03.26.03.39-.01.26.12.55.15.83.21.58.45 1.18.83 1.76.73 1.16 1.73 2.26 2.88 3.07.28.2.57.39.86.53.15.08.29.16.44.2.07.03.08.05.15.08.23.08.52.11.77-.01.18-.07.3-.27.25-.46-.05-.19-.16-.35-.27-.51l-.35-.49c-.18-.25-.37-.53-.54-.81-.35-.59-.68-1.23-.92-1.97-.14-.5-.24-.99-.26-1.6-.03-.83.39-1.73.74-2.24.37-.57.79-1 1.23-1.42.89-.8 1.84-1.45 2.96-1.92.56-.24 1.18-.42 1.89-.49.19 0 .38-.01.58 0 .2.03.4.06.6.1.38.13.7.22 1.02.43.67.36 1.15.95 1.48 1.46.35.53.56 1 .81 1.46.6 1.21 1.23 2.29 2.05 3.27.81.98 1.79 1.84 2.84 2.62.8.61 1.62 1.12 2.48 1.55.87.41 1.77.72 2.71.9.94.18 1.91.23 2.91.21 1-.02 2.05-.13 3.2-.08l.69.06c.27.06.56.14.83.23.47.22.93.46 1.28.75.76.56 1.34 1.18 1.92 1.81 1.12 1.27 2.08 2.6 2.98 3.97.39.6.79 1.18 1.16 1.8 1.31 2.32 1.48 3.16.88 4.1-.13.21-.23.45-.37.61-.46.54-1.59-.12-2.62-1.71-1.58-2.32-3.12-4.78-4.82-6.77-.42-.46-.86-.94-1.24-1.2-.2-.18-.33-.2-.44-.29l-.01.01c0-.02-.01.04 0-.05.02-.08.03-.16.04-.25v-.08c.01-.09-.1.68-.06.36h-.15l-.19-.03c-1.08-.07-2.72.13-4.43.05-2.59-.09-5.31-1-7.4-2.44-2.06-1.35-3.97-3.02-5.46-5.14l.06-.05Z" class="cls-4"/><path d="M280.65 356.87c-2.91-1.83-5.96-3.5-9.08-4.3-3.1-.81-6.54-.69-9.88-.11-2.46.43-4.86 1.2-7.23 2.04-.99.35-1.97.74-2.94 1.15-.94.4-1.86.86-2.76 1.36-1.78 1.02-3.48 2.22-4.97 3.63-1.49 1.41-2.82 3-3.85 4.73-.5.87-.94 1.77-1.23 2.67l-.09.31-.04.17c-.02.12-.05.24-.06.36-.02.24 0 .5.1.74.09.22.33.38.57.32.23-.03.45-.14.66-.27.23-.15.32-.21.77-.57.75-.61 1.47-1.3 2.19-2 1.44-1.41 2.81-2.91 4.32-4.34.49-.46.99-.92 1.56-1.36.56-.45 1.32-.84 1.95-1.08 1.3-.51 2.59-.86 3.9-1.16 1.31-.29 2.63-.51 3.98-.61.67-.05 1.35-.07 2.04-.05.69.05 1.38.22 2.05.46.42.15.7.32.87.45.17.13.23.2.19.23-.03.04-.15.04-.35.03a3.15 3.15 0 0 0-.82.05c-.69.08-1.61.52-2.69.81-1.09.33-2.34.75-3.72 1.13-.86.25-1.71.51-2.53.82-.81.3-1.65.65-2.25 1-.49.27-1.13.8-1.76 1.4-.64.59-1.28 1.24-1.92 1.9-1.3 1.32-2.6 2.7-4.07 4.04-.37.33-.76.67-1.17 1l-.44.34c-.18.14-.37.25-.56.38-.37.27-.76.44-1.14.64-.78.35-1.53.45-2.25.35-.35-.08-.72-.18-1.04-.39-.32-.21-.59-.47-.84-.74-.75-.99-.99-2.37-.79-3.81.07-.35.14-.74.21-1.05.07-.24.13-.47.21-.68.15-.44.32-.86.51-1.27.77-1.62 1.77-3.01 2.86-4.31 1.12-1.3 2.33-2.51 3.65-3.61 1.3-1.12 2.69-2.14 4.16-3.04 1.46-.9 3.05-1.69 4.59-2.33 1.56-.66 3.14-1.25 4.76-1.74 3.55-1.07 7.25-1.78 11.05-1.73 1.89.03 3.82.24 5.68.77 1.84.53 3.57 1.27 5.23 2.09 4.08 2.06 7.75 4.65 11.35 7.27 5.43 4.02 10.59 8.36 15.85 12.41 4.09 3.14 8.27 6 12.58 8.59.95.58 1.91 1.08 2.87 1.63 3.58 2 4.64 2.67 5.07 3.95.1.28.27.59.3.83.14.78-1.8.83-4.74-.46-4.34-1.91-8.39-4.53-12.33-7.31-3.93-2.8-7.74-5.82-11.52-8.83-5.6-4.48-11.12-9.09-17.03-12.82l.04-.08Z" class="cls-4"/><path d="M302.68 398.98c3.52-5.81 6.67-11.84 9.97-17.94l.84-1.51c.34-.57.69-1.15 1.1-1.54.2-.19.41-.35.63-.46.19-.11.5-.22.71-.17l.33.03.39.17c.26.11.53.24.79.33l3.1 2.37c3.47 2.7 6.98 5.33 10.56 7.84 3.58 2.5 7.26 4.86 11.13 6.85 3.44 1.74 7.06 3.17 10.72 4.22 1.18.33 2.36.64 3.57.85l1.8.35 1.82.23c.61.07 1.21.2 1.82.24l1.83.16c1.22.15 2.45.14 3.69.19 1.54.06 1.38.43.07.92-.65.24-1.59.54-2.75.78-1.15.16-2.54.38-4.02.31-5.26-.29-10.5-1.47-15.39-3.4-4.89-1.98-9.46-4.57-13.78-7.48-1.29-.87-2.59-1.76-3.89-2.64-1.29-.91-2.61-1.79-3.89-2.72-1.3-.92-2.6-1.83-3.88-2.78l-1.92-1.41-.89-.67-.31-.25s0-.01 0 0c-.11-.11-.23-.19-.35-.28-.13.02-.19.19-.28.3l-.23.38-.21.38-.3.56-2.4 4.57c-1.6 3.06-3.23 6.13-4.93 9.16-2.09 3.74-4.28 7.43-6.69 11.01-1.53 2.25-3.16 4.45-5.09 6.48-.97 1.01-2.02 1.98-3.31 2.77-.65.39-1.36.74-2.2.92-.81.19-1.88.13-2.72-.28-.71-.35-1.25-.94-1.59-1.64-.36-.72-.46-1.3-.57-1.92-.35-2.79.06-5.3.5-7.8.48-2.49 1.14-4.92 1.97-7.32.37-1.05.73-2.09 1.19-3.13 1.75-3.83 2.96-4.78 4.25-4.94.3-.03.63-.11.88-.07.41.07.49.53.32 1.26-.16.74-.51 1.79-1.08 3.09-1.41 3.37-2.64 6.98-3.49 10.66-.42 1.83-.75 3.7-.87 5.46-.05.87-.04 1.74.09 2.38.19.79.14.49.16.55.01 0 .06 0 .1-.01.17-.02.47-.12.81-.31 1.01-.55 2.17-1.62 3.22-2.78 1.06-1.17 2.08-2.48 3.05-3.83 1.96-2.7 3.78-5.59 5.51-8.53l.09.04ZM241.64 408.18c.38.65.72 1.48.71 2.45 0 .47-.07 1.09-.47 1.77-.47.71-1.28 1.08-1.81 1.13-.79.1-1.33.04-1.82-.11-.83-.28-1.47-.71-2.1-1.17-.16-.13-.31-.23-.47-.38-.17-.15-.29-.25-.53-.51-.29-.38-.42-.63-.62-.93-.33-.5-.68-.99-1.02-1.48l-.34-.47c-.07-.19-.15-.37-.15-.61 0-.12-.01-.22-.02-.34l-.09-.29c-.05-.21-.1-.4-.12-.68.02-.26.11-.24.19-.24s.11.1.25.13c.27.07.68.19 1.19.33.12.03.28.02.41.04l.33.1c.22.06.29.23.44.35.26.25.52.51.77.78.21.3.42.6.61.9l.13.22.06.1.02.04v.01s.02-.01-.07.07c-.13.13-.21.2-.29.28-.17.16-.34.34-.49.52l-.06.07v.02c.37-.45-.9 1.02.85-1s.02.03.02.03l.03.06.12.16c.47.55 1.41.75 1.94.89.05 0 .15.04.17.04.02 0 .03 0 .05.01.03.02-.02-.05.02.12.1.28.11.34.19.45.04.04 0 0 0 0s-.06-.04-.09-.05c-.07-.04-.14-.05-.21-.06-.02 0-.13-.04-.19-.05s.01-.02.03-.03v-.08c.02-.11-.01-.24-.04-.39-.1-.36-.38-.81-.76-1.19a6.49 6.49 0 0 0-2.11-1.49c-.64-.28-1.36-.3-2.03-.37-.15-.02-.3 0-.44-.03-.52-.14-.62-.42-.57-1.28 0-.19 0-.36.02-.52.04-.51.42-1.13.97-1.25 1.6-.3 3.14.25 4.55 1.1 1.04.66 2.05 1.46 2.9 2.77l-.07.05ZM196.71 418.25c-2.42 1.01-4.65 2.44-6.76 4.02l-2.16 1.92c-2.48 2.33-4.64 5.02-6.44 7.96-.71 1.35-1.49 2.69-1.98 4.14-.33.92-.71 1.82-.98 2.76-.28.94-.6 1.86-1.02 2.76-.53 1.13-2.29-.98-1.58-3.28 1.35-3.97 3.3-7.8 6.01-11.08.87-.93 1.61-1.99 2.49-2.95.91-.93 1.71-1.97 2.73-2.78l1.62-1.39c.57-.43 1.16-.82 1.74-1.24 1.13-.87 2.42-1.48 3.64-2.21 1.58-.75 3.15-1.51 4.81-2.03 2.47-.92 5.08-1.38 7.64-1.83 1-.12 2-.25 2.99-.4.99-.13 1.99-.16 3-.23.44-.03.88-.07 1.32-.04 1.66.08 2.17.28 2.45.94.06.15.15.3.18.45.1.5-.6.86-1.75.92-3.42.2-6.97.37-10.44 1.15-2.55.6-5.12 1.3-7.49 2.47l-.03-.05ZM149.54 408.8c.97 3.14 1.97 6.29 3.03 9.41.39 1.14.85 2.25 1.23 3.39 1.35 4.03 2.7 8.06 4.11 12.06.6 1.79 1.22 3.58 1.86 5.34.82 2.26 1.65 4.53 2.09 6.93.14.75.07.66-.33.13-.2-.27-.49-.64-.85-1.08-.34-.45-.69-1-1.01-1.62-1.15-2.18-2.11-4.43-3.13-6.68l-.73-1.69-.62-1.74c-.4-1.16-.8-2.34-1.17-3.52-.9-2.83-2.13-5.65-3.18-8.5-1.15-3.13-2.25-6.28-3.33-9.43l-1.94-5.85c-.97-2.96-1.85-5.96-2.75-8.93-.69-2.32-1.51-4.55-2.03-6.98-.11-.54-.24-1.07-.28-1.65-.09-1.07 0-1.88.33-2.46.38-.56.89-.83 1.36-.77.21.02.44.08.56.19.2.2.21.49.37.73.14.24.36.55.37 1.1.1.84.32 1.81.56 2.8.24.99.51 2 .79 3.03a347.7 347.7 0 0 0 1.81 6.29c.94 3.14 1.91 6.32 2.96 9.47l-.07.03ZM258.83 447.11l3.72.75c.45.09.92.11 1.37.21 1.59.36 3.18.87 4.74 1.49.32.15.65.27.98.38l.5.16c.21.05.45.14.7.22.15.05.32.08.45.13.07.03.13.06.19.09.07.03.12.1.08.1-.08.05-.04.15.04.49.01.08-.03.22-.04.33-.05.12-.13.26-.2.39-.09.1-.19.18-.29.27-.08.08-.04.1-.07.16-.05.2-.04.4-.09.64-.19.32-.07.27-.35.08-.15-.09-.29-.25-.46-.46-.08-.11-.15-.24-.22-.39-.04-.07-.06-.09-.06-.08 0 0 .04 0-.13-.02a8.62 8.62 0 0 1-.73-.06c-.47-.06-.99-.12-1.39-.26-.41-.13-.83-.26-1.25-.4-1.03-.32-2.18-.4-3.29-.59l-3.68-.63-2.28-.35c-1.15-.16-2.31-.36-3.46-.41-.9-.04-1.78.09-2.66.15-.19.01-.38.06-.58.06-.72 0-.93-.19-1.09-.87-.03-.16-.08-.31-.1-.47-.07-.52.23-.96.79-1.13 1.65-.48 3.36-.49 5.07-.41 1.27.07 2.54.17 3.79.37v.07ZM190.13 405.57c.27-.17.55-.32.84-.46.02 0 .23-.1.14-.07.06-.02.12-.05.18-.07a6.57 6.57 0 0 1 1.35-.38c.08-.02.17-.03.25-.04-.11.02.07 0 .09-.01.17-.02.34-.03.51-.04.33-.02.64-.28.62-.62-.01-.33-.28-.64-.62-.62-1.41.07-2.79.48-3.99 1.23-.28.17-.41.57-.22.86s.56.41.86.22Z" class="cls-4"/><path d="M144.55 407.75c-1.14-3.22-2.28-6.44-3.36-9.7l-1.6-4.92-.39-1.25-.41-1.39c-.2-.73-.4-1.47-.53-2.19-.14-.72-.18-1.41-.07-1.98.08-.45.26-.78.42-1.19.04-.07.1-.14.16-.21l.05-.05h.01c.08.06.03 0 .05.01l.03-.02s.08-.06.11-.08c.15-.1.28-.18.42-.26.27-.17.59-.27.98-.3.76-.09 1.69.06 2.61.24.46.09.92.2 1.38.31l.87.22c.54.14 1.07.29 1.6.46l1.6.51.8.27.89.32c.81.32 1.85.61 2.11 1.54.1.2.23.38.31.61l.23.59.29.77 2.29 6.15c1.53 4.1 3.08 8.19 4.67 12.26 1.41 3.61 2.96 7.19 4.47 10.73 1.97 4.54 4.07 9.02 5.58 13.76.23 1.59.1 1.43-1.05.53-1.14-.91-2.93-2.75-4.26-5.29-4.68-9.04-8.38-18.47-11.83-28.08-1.02-2.88-2.17-5.77-3.36-8.66l-.37-.9c-.07-.1-.05-.27-.19-.3-.14-.06-.17-.07-.46-.16l-1.08-.34-2.2-.64-1.88-.51c-.19-.05-.39-.11-.6-.15-.1-.02-.21-.04-.32-.05-.1-.01-.25-.02-.26.11-.04.23.01.48.05.72l.08.37c.01.06.03.13.04.19l.13.5c.35 1.33.73 2.68 1.16 4.01.86 2.67 1.79 5.33 2.73 7.99 1.41 3.97 2.86 7.93 4.34 11.88 2.24 5.98 4.47 12.01 6.79 17.91 1.8 4.59 3.76 9.03 5.58 13.57.4 1 .82 1.97 1.2 2.99.69 1.9 1.09 3.17 1.18 4.13.03.98-.11 1.59-.42 2.14-.14.25-.26.56-.42.73-.27.28-.66.08-1.16-.52-.49-.6-1.21-1.56-1.73-2.92-3.43-7.96-6.82-16.48-10.13-25.09-2.46-6.39-4.87-12.84-7.26-19.3l.08-.04ZM235.42 426.96c-1.11-1.27-2.4-2.34-3.63-3.48-.65-.52-1.33-1.02-1.99-1.53-.34-.25-.66-.52-1.01-.75l-1.06-.67c-2.79-1.88-5.89-3.23-9.07-4.24-2.34-.71-4.77-1.06-7.2-1.28-8.58-.95-17.28 2.31-24.01 7.94-3 2.49-5.6 5.51-7.73 8.75-2.72 4.2-4.58 8.85-6.26 13.54-.54 1.45-1.39 1.07-1.88-.48-.23-.77-.43-1.86-.34-3.11.05-.62.15-1.29.3-1.98.14-.7.36-1.42.69-2.12a46.95 46.95 0 0 1 9.05-13.75c3.81-3.99 8.45-7.26 13.59-9.39 3.09-1.21 6.33-2.28 9.74-2.7.84-.17 1.7-.15 2.56-.24l1.28-.09 1.27.04 2.54.1c.85.04 1.68.23 2.51.34 1.85.21 3.63.78 5.42 1.26.89.26 1.74.64 2.6.96l1.29.5c.42.18.83.41 1.24.61.82.42 1.66.82 2.46 1.26l2.34 1.46c.8.46 1.51 1.05 2.24 1.6.72.56 1.49 1.08 2.15 1.71 3.43 2.93 6.42 6.35 8.85 10.13.68 1.11 1.34 2.23 1.97 3.36.54 1.18 1.19 2.32 1.65 3.54.47 1.22.98 2.41 1.3 3.68.17.63.38 1.24.53 1.88l.31 1.6.06.33c.01.05.02.11.04.16.03.05.09.07.14.09.21.07.44.1.66.12l.36.03.56.03 1.14.05c2.53.07 5.07.01 7.61.02 2.55.02 5.09.03 7.76.42.59.09 1.18.2 1.8.36.62.19 1.24.34 2.08.93.34.26.64.56.84.9.2.32.36.74.43.91.18.44.32.85.43 1.23.22.75.33 1.38.37 1.91.06 1.06-.16 1.72-.6 2.22-.2.23-.41.51-.62.63-.76.34-1.21-1.12-2.31-3.7l-.29-.65-.15-.32c-.05-.11-.11-.22-.12-.22-.08-.13-.2-.17-.33-.21-.56-.22-1.56-.41-2.5-.52-1.94-.22-4.04-.28-6.15-.32l-6.47-.06c-1.1-.02-2.21-.03-3.38-.1l-.45-.03c-.22-.01-.53-.05-.79-.08-.54-.07-1.08-.16-1.55-.34-.47-.18-.89-.44-1.21-.82l-.21-.27c-.05-.11-.09-.24-.14-.35l-.27-.72-.36-1.77c-.08-.35-.12-.7-.23-1.04-.81-3.18-2.19-6.26-3.86-9.17-.8-1.48-1.81-2.84-2.77-4.23-1.08-1.3-2.09-2.66-3.3-3.84l.06-.07ZM192.78 407.57c.09.3.2.63.32.95.04.12.15.19.18.32.1.46.13.94.19 1.37.02.19.12.34.17.52.07.22.14.44-.02.73-.05.09-.37.18-.74.25-.36.07-.82.13-.96.07-.55-.19-.56-.51-.54-.94.04-.27-.22-.38-.32-.57-.12-.24-.24-.48-.35-.72a5.65 5.65 0 0 0-.26-.48c-.15-.24-.27-.51-.49-.72-.17-.16-.48-.23-.73-.35-.06-.03-.14-.04-.18-.08-.17-.14 0-.31.72-.74l.48-.29c.54-.31 1.07-.52 1.28-.53.61-.01.78.17.95.45.12.2.21.46.35.73l-.05.05ZM215.15 404.32c-.15.31-.3.63-.42.98-.04.12 0 .26-.06.39-.19.46-.44.93-.64 1.37-.09.2-.1.41-.16.6-.03.13-.02.26-.07.39-.04.13-.12.24-.38.31-.15.05-.5-.06-.95-.23-.23-.09-.48-.2-.73-.31-.22-.1-.35-.19-.38-.26-.07-.24-.15-.47-.11-.68.08-.2.2-.4.39-.6.23-.25.1-.54.14-.82.05-.31.12-.65.19-1 .05-.22.09-.44.14-.65.06-.34.18-.67.17-1.01-.01-.27-.2-.56-.32-.85-.02-.06-.07-.13-.07-.19 0-.22.24-.25 1.11-.1l.6.1c.67.13 1.21.33 1.39.49.56.5.52.84.47 1.21-.05.27-.15.55-.24.85h-.08Z" class="cls-4"/><path d="M249.58 429.26c-.35.14-.7.3-1.03.48-.12.06-.2.18-.32.24-.44.22-.9.44-1.31.69-.18.11-.33.27-.47.42-.2.18-.37.4-.69.45-.1.02-.31-.21-.49-.5-.18-.28-.35-.64-.29-.79.2-.56.61-.9 1.13-1.17.32-.15.47-.48.72-.72.27-.26.57-.5.86-.74.18-.15.37-.29.55-.44.27-.23.58-.42.81-.7.18-.21.27-.54.42-.82.03-.06.06-.12.11-.16.2-.13.38-.01.83.53l.3.37c.32.42.52.84.53 1.09.04.4-.04.65-.17.84-.11.21-.3.33-.5.45-.29.18-.63.33-.94.51l-.04-.04ZM193.07 407.81c-1.24.59-2.54.94-3.85 1.11-.55.07-1.35.25-2 .16-.59-.05-1.09-.27-1.53-.55-.44-.29-.79-.75-.9-1.27-.16-.49-.06-1.04.05-1.53.07-.26.21-.5.36-.74s.29-.47.47-.69c.29-.39.73-.73 1.05-.99.29-.23.59-.44.91-.63.78-.51 2.02-.68 2.91-.08.27.2.08.39-.21.61-.31.22-.61.63-.83.85-.11.09-.21.2-.3.31-.05.06-.1.12-.14.18l-.17.12c-.12.09-.23.17-.35.27l-.17.15c-.06.05-.12.11-.13.11-.09.02-.27-.01-.56.29-.17.18-.12.41.04.46.16.07.33.03.49.04.08 0 .19 0 .42-.03a9.014 9.014 0 0 0 2.13-.63c.56-.24 1.11-.55 1.6-.92.14-.11.25-.21.32-.3.03-.04.05-.07.07-.09 0-.02 0-.01.09-.01.04 0 .04-.01-.03.02-.05.04 0 0-.05-.01a.685.685 0 0 0-.32-.14c-.54-.12-1.26.12-1.72.41-.11.06-.2.16-.3.22-.36.21-.54.07-1.18-.67l-.45-.5c-.5-.56-.6-1.28-.05-1.79.79-.72 1.86-1.13 2.97-1.18.58-.02 1.07 0 1.77.21.66.22 1.54.58 2.24 1.66.52.81.59 1.98.32 2.74-.26.79-.67 1.27-1.04 1.64-.19.19-.4.35-.56.47-.15.1-.29.2-.44.29-.29.19-.59.36-.9.53l-.04-.07ZM219.82 400.26c.26.61.37 1.49.05 2.3-.31.81-.97 1.34-1.48 1.57-1.04.49-1.92.4-2.55.37-.49-.04-.98-.02-1.45-.12-.83-.18-1.64-.44-2.42-.79-.39-.18-.77-.41-1.14-.66-.39-.26-.77-.59-1.08-.99-.28-.35-.54-.82-.58-1.41-.04-.61.22-1.18.69-1.52.61-.44 1.23-.38 1.7-.29.49.08.92.27 1.3.51.24.16.13.28-.14.4-.27.11-.73.31-1.12.4-.17.03-.33.11-.42.21-.04.05-.08.1-.08.15-.01.02 0 .05 0 .06l-.06-.11c-.09-.13-.08-.05.14.02-.24-.09-.14-.04-.16-.05.03 0 .09 0 .2-.03.1-.03.23-.08.38-.16.02-.01.02 0 .03.03.03.05.09.12.17.2.14.15.39.33.69.53.72.49 1.73.56 2.65.66.26.03.51.05.76.06.26 0 .51.01.66 0 .17-.01.32-.06.39-.08h.03l.04.04.07.06.07.05s.01 0 0 0h-.01c-.02 0 .14.03.07.02s-.06-.01-.12 0h-.09c0-.02 0-.07-.03-.12-.08-.13-.31-.37-.52-.54-.69-.54-1.61-1-2.57-1.14-.74-.1-1.49.08-2.07.31-.13.04-.24.13-.35.18-.41.12-.6-.12-1.15-.7l-.36-.38a1.06 1.06 0 0 1-.29-.74c0-.29.12-.68.42-.91.85-.77 1.94-1 2.93-1.08 1.01-.08 1.99.15 2.92.48.69.26 1.36.6 2.01 1.06.32.23.65.5.96.8l.46.51c.21.26.39.55.54.87l-.07.04Z" class="cls-4"/><path d="M257.52 426.65c.09.53.05 1.04-.05 1.53-.13.49-.33.94-.61 1.35-.58.8-1.48 1.33-2.43 1.44-.69.1-1.43.05-2.13-.26-.31-.12-.6-.29-.87-.47-.28-.19-.4-.29-.59-.45-.35-.3-.65-.61-.94-.93a12.04 12.04 0 0 1-1.47-2.05c-.35-.66-.72-1.29-.95-2.08-.13-.49-.22-1.14.2-1.81.22-.32.63-.47.93-.51.3-.06.71 0 .92.25.13.16.1.29.04.33-.07.05-.18.05-.31.1s-.25.13-.28.29c-.02.08-.04.14-.02.22 0 .05.06.12-.01.02l-.04-.05-.02-.03h-.01v-.02c.06.06-.14-.15.14.15s.06.05.12.05c.07.03.14.05.21.06.04 0 .04.01.07.02.05.02.16.11.22.2.11.21.29.49.48.77.42.55.84 1.16 1.27 1.79.26.37.62.68 1 .9.09.06.19.11.28.15l.14.07.24.11c.19.09.43.14.66.05.22-.09.42-.29.47-.55.03-.16.02-.33-.02-.49-.06-.19-.07-.29-.25-.56-.25-.37-.55-.75-.88-1.05-.35-.32-.76-.6-1.19-.8-.68-.31-1.47-.32-2.16-.28-.15 0-.31.06-.45.06a.57.57 0 0 1-.56-.27c-.13-.24-.22-.53-.31-.94-.04-.18-.1-.36-.13-.53-.05-.29-.02-.55.11-.84.13-.28.37-.61.69-.71 1.93-.59 4.01.1 5.65 1.29a7.24 7.24 0 0 1 1.68 1.68c.38.52 1.09 1.71 1.26 2.77h-.08ZM109.37 281.58s5.34-1.79 3.18-5.89c-1.11-2.1 6.32-3.62 6.32-3.62l-1.57 6.63s-5.78 3.9-7.93 2.88ZM98.61 296.93c.93-.4 1.87-.79 2.78-1.26.88-.5 1.81-.95 2.64-1.55.61-.42 1.22-.86 1.79-1.33a26.49 26.49 0 0 0 5.65-5.54c.36-.47.72-.94.99-1.47.3-.51.61-1.01.91-1.52l.97-2.05c.09-.17.15-.35.22-.52l.28-.5c.18-.34.39-.67.65-.98.33-.4.28-.35.35.1.08.45.36 1.36.18 2.29-.26.78-.56 1.54-.86 2.32-.33.75-.7 1.5-1.12 2.21-.9 1.39-1.93 2.7-3.11 3.86-.67.73-1.44 1.38-2.12 2.12-.73.69-1.5 1.36-2.28 2-1.8 1.29-3.67 2.48-5.69 3.37-1.21.62-2.51 1.02-3.76 1.51-.99.27-1.96.6-2.95.81-1.01.18-1.98.47-2.99.59-.78.12-1.54.29-2.31.39l-2.33.25c-.34.05-.68.04-1.03.04-1.29-.03-1.7-.21-1.93-.79-.05-.13-.12-.27-.15-.4-.08-.44.45-.8 1.34-.92 2.65-.32 5.33-.77 8.01-1.32 1.99-.39 3.94-1.03 5.84-1.77l.03.05Z" class="cls-4"/><path d="M88.51 268.84c1.82 2.44 3.93 4.7 6.3 6.63.43.36.88.69 1.35.98.47.3.92.63 1.38.93 1.62 1.12 3.3 2.03 5.15 2.67 1.83.65 3.75 1.05 5.68 1.04 1.7-.02 3.41-.36 4.89-1.13 1.9-1.03 3.29-2.62 4.66-4.43.55-.52.57-.44.66.29.04.36.08.89-.03 1.49-.11.59-.22 1.37-.72 1.95-1.62 2.18-4.15 3.74-6.79 4.32-1.32.32-2.68.35-3.99.26-1.32-.07-2.6-.37-3.84-.72-1.47-.48-2.93-.94-4.37-1.6-1.42-.66-2.8-1.38-4.06-2.25-2.77-1.92-5.22-4.22-7.38-6.75-1.34-1.55-2.53-3.22-3.64-4.92a52.411 52.411 0 0 1-4.18-8.21c-.91-2.19-1.83-4.34-2.52-6.61-.16-.5-.36-.97-.45-1.49-.41-1.9-.28-2.56.53-3.09.18-.12.36-.27.55-.35.64-.27 1.35.4 1.79 1.68 1.28 3.8 2.53 7.71 4.33 11.43a41.1 41.1 0 0 0 4.78 7.84l-.06.05Z" class="cls-4"/><path d="M99.05 300.78c-6.28 1.92-12.81 2.38-19.21 1.78-2.35-.25-4.75-.56-7.01-1.34-4.02-1.28-7.69-3.37-10.97-5.83-3.29-2.47-6.21-5.32-8.93-8.3-2.43-2.64-4.69-5.43-6.88-8.21-1.37-1.81-2.78-3.61-4.06-5.49a50.945 50.945 0 0 1-3.45-5.89c-.48-1.38-.48-1.14.51-.37.51.38 1.15.96 1.94 1.66.76.71 1.61 1.58 2.46 2.55 2.76 3.66 5.63 7.2 8.64 10.6 3.03 3.37 6.09 6.72 9.55 9.63 2.05 1.76 4.36 3.27 6.79 4.53 2.44 1.24 5.05 2.11 7.69 2.69 2.89.62 5.95.81 8.99.78 3.04-.05 6.08-.39 9.05-1.03 3.65-.77 7.21-2.05 10.38-3.94 2.4-1.43 4.53-3.26 6.43-5.37 1.88-2.09 3.47-4.43 4.51-6.99.42-.99.73-2.02 1-3.05.11-.52.24-1.04.33-1.57l.12-.76c.02-.15.03-.28.04-.42.04-.53.05-1.01.02-1.42l-.02-.3c.02-.07-.09-.03-.14 0l-.17.11-.62.42-.49.34-.23.15c-.06.03-.05.04-.16.08l-.37.16c-1.86.78-3.32.97-4.33.84-1.02-.14-1.59-.55-1.91-1.13-.15-.26-.33-.56-.36-.8-.05-.43.32-.68.89-.88.58-.21 1.37-.41 2.44-.78.39-.13.79-.3 1.19-.48l.6-.29.8-.42c.79-.41 1.62-.92 2.46-1.43.86-.55 1.67-.82 2.23-.83.61-.05.95.01 1.39.25.37.38.61.8.93 1.19.03.06.08.09.1.16v.32l.01.64v1.29c0 .89-.2 1.92-.3 2.88-.03.24-.07.5-.12.74l-.11.58-.16.83-.41 1.65c-.32 1.09-.68 2.18-1.14 3.25-.9 2.13-2.09 4.15-3.48 5.97-2.1 2.69-4.47 5.02-7.33 7-2.82 1.95-5.93 3.3-9.08 4.32l-.04-.08ZM65.16 259.04c-2.09.8-4.22 1.47-6.36 2.03-.78.2-1.53.5-2.32.65-2.77.61-5.56 1-8.32 1.39-1.23.18-2.45.37-3.66.6l-2.32.43c-.77.15-1.57.13-2.37.11-.5-.03-.5-.46-.18-1.01.33-.53.98-1.29 1.85-1.54 1.56-.35 3.12-.67 4.69-.95 1.56-.28 3.15-.45 4.73-.64 1.91-.2 3.79-.82 5.66-1.32 2.04-.59 4.09-1.18 6.06-1.98.62-.22 1.22-.47 1.82-.74.59-.27 1.21-.51 1.78-.82 1.76-.9 3.54-1.83 5.12-3.01 1.25-.88 2.28-2.02 3.36-3.07.23-.24.43-.51.67-.74.88-.87 1.35-.93 2.15-.46.18.11.38.21.55.33.56.43.56 1.2-.02 1.99-1.73 2.33-4.18 4.19-6.78 5.78l-1.47.86-1.52.77c-1.01.53-2.06.95-3.09 1.41l-.03-.07Z" class="cls-4"/><path d="m64.21 271.69-2.89 1.1c-.36.13-.7.31-1.07.42-1.31.37-2.67.61-4.04.71-.6.05-1.21.08-1.82.08-.77.02-1.59-.1-2.24-.62-.19-.18-.15-.2.09-.33.25-.17.65-.41 1.04-.46.35-.07.69-.06 1.02-.07.34-.01.68-.04 1.02-.08.68-.07 1.37-.18 2.08-.29.86-.12 1.66-.57 2.5-.89.92-.36 1.83-.77 2.76-1.19l1.73-.78c.88-.4 1.79-.75 2.69-1.12.7-.29 1.37-.68 2.12-.93.16-.06.32-.13.49-.17.63-.15.87.02 1.06.6.04.13.09.27.12.41.09.46-.11.88-.47 1.07-.55.29-1.09.57-1.66.8-.59.22-1.17.44-1.76.67-.89.34-1.82.7-2.75 1.11l-.02-.05ZM67.47 279.92c-.74.18-1.49.33-2.23.47-.27.06-.53.15-.8.19a28 28 0 0 1-2.89.29c-.43.03-.85.08-1.27.13-.27.02-.53.08-.81.08-.28-.03-.55-.02-.83-.14-.17-.07-.15-.1-.03-.26.13-.17.36-.46.64-.59 1.04-.32 2.07-.54 3.14-.65.65-.03 1.28-.27 1.92-.43.7-.18 1.4-.36 2.09-.57.43-.13.85-.26 1.27-.42.63-.23 1.27-.47 1.87-.79.46-.25.84-.63 1.25-.94.09-.07.17-.15.26-.22.35-.23.53-.18.88.24.08.09.16.18.23.28.24.33.26.71.03.98-.65.82-1.59 1.28-2.55 1.67-.71.29-1.46.5-2.19.72l-.02-.04ZM74.5 286.36c-.52.14-1.04.27-1.55.38-.19.05-.35.14-.54.17-.67.1-1.34.18-2.01.19-.29.02-.58.07-.86.13-.35.14-.75 0-1.13-.13-.12-.05-.12-.18-.05-.39.07-.2.19-.55.35-.73l.22-.23c.07-.07.16-.07.24-.11.16-.05.32-.11.49-.16.33-.09.66-.16 1.02-.16.44.02.82-.22 1.22-.35.44-.14.89-.28 1.33-.45.27-.1.54-.2.81-.33.4-.19.8-.37 1.16-.63.27-.21.46-.53.66-.8.05-.06.08-.14.13-.19.19-.19.35-.12.78.31l.29.3c.32.35.47.72.38.98-.27.74-.82 1.24-1.43 1.62-.47.26-.99.44-1.49.63l-.03-.05ZM131.87 156.11c-1.59.59-3.19 1.09-4.8 1.55-.59.17-1.16.37-1.75.52-2.09.52-4.2.93-6.31 1.26-.94.15-1.88.29-2.81.44-.6.09-1.2.18-1.8.24-.61.01-1.21.05-1.83-.08-.38-.08-.33-.07-.03-.23.3-.19.85-.52 1.51-.73 2.39-.42 4.73-.98 7.14-1.39 1.44-.26 2.89-.76 4.31-1.21a69.17 69.17 0 0 0 4.65-1.63c.93-.38 1.87-.77 2.77-1.22 1.37-.67 2.72-1.39 3.9-2.31a9.54 9.54 0 0 0 2.22-2.47l.31-.59c.39-.7.53-.85 1.16-.9.14-.01.29-.04.43-.04.23 0 .42.11.52.35.12.25.14.62.02 1.04-.34 1.28-1.17 2.27-2.04 3.11-.88.84-1.87 1.51-2.88 2.11-1.51.88-3.09 1.58-4.68 2.21l-.02-.04Z" class="cls-4"/><path d="M141.68 149.86a8.461 8.461 0 0 1-3.24-1.05c-.36-.22-.73-.4-1.06-.64a8.26 8.26 0 0 1-2.41-3.4c-.19-.56-.44-1.09-.56-1.65-.27-.69-.23-1.44-.19-2.16.02-.22.13-.21.33-.05.19.16.54.43.73.77.15.31.37.59.5.88.16.28.27.58.46.83.18.25.3.54.48.78.19.23.32.5.47.77.41.6 1.06 1.02 1.72 1.31.7.39 1.49.6 2.31.8l.78.11c.26.01.53 0 .8.01.41 0 .81-.07 1.22-.11.4-.09.81-.18 1.19-.33.29-.13.57-.3.83-.48l.73-.62c.11-.08.19-.2.3-.29.41-.28.66-.19 1.18.35.12.12.24.24.36.37.37.43.45.95.17 1.36-.84 1.21-2.25 1.89-3.71 2.24-.54.16-1.12.19-1.67.27-.58 0-1.14.05-1.72-.02v-.07Z" class="cls-4"/><path d="M135.09 149.31c-.51-.82-.97-1.64-1.34-2.5-.15-.3-.35-.57-.46-.9-.42-1.12-.67-2.31-.75-3.49-.06-.52-.09-1.04-.13-1.55-.05-.66.1-1.37.58-1.91.14-.17.19-.12.34.08.08.1.19.24.33.39.16.16.29.31.32.47.13.28.25.54.26.8.07.26.13.52.18.77.14.52.27 1.03.38 1.59.09.68.55 1.27.89 1.87.4.66.81 1.32 1.29 1.94.3.38.6.76.95 1.09.52.51 1.04 1.04 1.67 1.38.5.25 1.08.3 1.6.33h.34c.39.04.44.3.31 1.23l-.08.64c-.11.72-.46 1.24-.95 1.3-1.45.18-2.78-.48-3.82-1.29-.8-.6-1.4-1.41-1.98-2.18l.06-.05ZM104.76 127.25c-.58 1.05-1.14 2.1-1.85 3.09-.35.49-.64 1.01-1.03 1.48l-1.15 1.39c-.53.69-1.16 1.32-1.77 1.95a25.82 25.82 0 0 1-7.74 4.88l-1.91.64-.94.34-.96.23c-1.63.45-3.32.79-5.03.39-.53-.11-.45-.06-.04-.32.2-.13.49-.35.82-.66.33-.26.73-.45 1.17-.61l.58-.19c.19-.07.37-.18.56-.23l1.13-.39 1.13-.38 1.08-.49 1.09-.46c.37-.13.69-.38 1.05-.53.7-.36 1.46-.62 2.12-1.06.82-.47 1.65-1.01 2.33-1.71.35-.34.72-.66 1.06-1.01.32-.38.64-.75.97-1.11.77-.76 1.33-1.7 2.02-2.53.32-.44.59-.91.89-1.37.29-.46.61-.91.85-1.41l.95-1.8.81-1.88c.41-.95.71-1.95 1.06-2.92.3-1 .56-2 .78-3.01.14-.79.22-1.59.29-2.38l.1-2.39c.02-.35 0-.7.03-1.05.14-1.3.43-1.68 1.33-1.88.2-.05.41-.11.61-.13.68-.07 1.18.53 1.31 1.55.39 3.03-.15 6.19-1.02 9.28-.29 1.15-.75 2.28-1.13 3.41-.49 1.11-.91 2.23-1.48 3.31l-.07-.03Z" class="cls-4"/><path d="M127.41 111.7c2.69-.11 5.41-.3 8.11-.63.99-.12 1.96-.34 2.94-.48 3.47-.48 6.94-1.12 10.33-2 1.51-.38 3-.87 4.43-1.42.92-.36 1.82-.76 2.69-1.18.87-.44 1.78-.75 2.57-1.23.48-.28.71-.05.56.62-.16.66-.75 1.78-1.79 2.44-3.78 2.11-7.75 3.45-11.9 4.18-2.47.45-4.97 1.16-7.5 1.6-2.77.48-5.56.85-8.37 1.06-1.73.13-3.46.21-5.2.25-2.63.06-5.28-.07-7.9-.31-2.04-.19-4.09-.32-6.15-.91-.45-.15-.91-.27-1.36-.44-1.68-.73-1.97-1.48-1.76-2.31.05-.2.08-.41.17-.58.3-.58 1.11-.6 2.12-.33 2.92.99 6.37 1.41 9.93 1.62 2.65.13 5.36.13 8.07-.03v.08ZM99.04 145.81c1.49.06 2.99 0 4.49-.08 1.5-.02 3-.24 4.5-.37 1.1-.11 2.16-.41 3.26-.55 3.84-.58 7.69-1.34 11.48-2.35a43.08 43.08 0 0 0 4.9-1.73c1-.44 2.01-.88 3.02-1.32l1.49-.65c.44-.24 1.08-.32 1.48-.52.62-.16.83 0 .68.8-.03.2-.11.45-.22.72-.1.24-.22.51-.37.79-.33.55-.81 1-1.39 1.35-.52.32-1.04.62-1.57.88-.52.28-1.05.55-1.6.78-1.09.43-2.18.9-3.3 1.26-2.22.76-4.49 1.39-6.81 1.81-1.39.24-2.78.58-4.19.87-1.4.34-2.82.63-4.24.85-3.12.52-6.28.76-9.44.9h-2.93c-.49 0-.97.01-1.46 0l-1.46-.09-2.21-.14c-.74-.06-1.47-.2-2.21-.29-.73-.11-1.47-.19-2.2-.3-.73-.15-1.45-.3-2.17-.45-2.26-.36-4.5-.86-6.71-1.67-.48-.18-.97-.34-1.44-.58-1.75-.87-2.1-1.52-1.87-2.53.05-.23.08-.47.17-.68.29-.67 1.24-.77 2.4-.33 1.72.66 3.49 1.23 5.33 1.72l1.39.35 1.44.27 1.44.29.72.15.74.09c1.46.16 2.91.44 4.4.48l2.23.14c.75.02 1.5 0 2.25 0v.09Z" class="cls-4"/><path d="M144.4 152.38c-.68.51-1.33 1.05-2.08 1.48l-1.09.68-.55.34-.62.31c-1.63.78-3.17 1.28-4.74 1.77-3.13.96-6.26 1.7-9.41 2.37-2.3.48-4.59.99-6.9 1.35-4.09.62-8.19 1.08-12.33 1.31-4.13.23-8.28.27-12.44-.15-1.84-.18-3.69-.45-5.53-.89-1.83-.45-3.66-1.04-5.35-2.08-.53-.36-1.08-.71-1.51-1.12-.46-.39-.91-.8-1.33-1.23-.86-.85-1.66-1.79-2.34-2.8-.35-.5-.65-1.04-.95-1.57-.26-.56-.49-1.13-.69-1.7-.19-.58-.35-1.16-.48-1.75-.12-.59-.14-1.19-.2-1.76-.06-.72-.14-.97-.07-.99.06-.02.29.25.62.81.31.55.87 1.3 1.42 2.15.29.42.61.86.96 1.3.18.22.36.45.55.67.16.24.35.47.52.72 1.26 1.7 2.93 3.2 4.66 4.4 1.53 1.1 3.6 1.83 5.75 2.28 4.35.92 9.03 1.02 13.69.97 5.61-.09 11.43-1.05 17.08-2.12 3.11-.58 6.21-1.26 9.27-2.05 1.52-.41 3.05-.82 4.53-1.32 1.47-.49 2.97-1.03 4.22-1.7 3.25-1.85 6.11-4.47 8.55-7.42 1.89-2.21 3.46-4.7 4.93-7.23.68-1.3 1.4-2.57 1.97-3.92.29-.67.61-1.33.88-2.01l.77-2.05c1.53-4.27 2.38-8.66 2.87-13.07.11-.97.19-1.93.24-2.91.29-3.64.51-4.78 1.49-5.57.21-.18.42-.42.62-.53.65-.36 1.28 1.18 1.44 4.02.05 8.39-2.08 17.24-6.04 25.26a56.083 56.083 0 0 1-5.26 8.53c-2.04 2.68-4.39 5.16-7.08 7.29l-.06-.06Z" class="cls-4"/><path d="M132.02 124.07c-1.58.19-3.16.37-4.76.47-.58.05-1.16.13-1.74.13a42.4 42.4 0 0 1-6.17-.35c-.91-.07-1.81-.26-2.7-.38l-1.71-.35c-.55-.22-1.09-.44-1.59-.78-.31-.22-.26-.22.09-.32.35-.13.98-.38 1.63-.41 1.13.08 2.24.2 3.36.24 1.11.11 2.23.22 3.37.33 1.36.15 2.79-.06 4.18-.18 1.54-.14 3.09-.27 4.63-.5.95-.13 1.9-.27 2.85-.44 1.44-.26 2.89-.51 4.3-.88 1.1-.27 2.14-.72 3.21-1.04.24-.07.46-.17.71-.23.9-.22 1.22-.13 1.55.43.07.13.16.25.22.38.19.44-.1.9-.72 1.2-1.84.92-3.88 1.43-5.97 1.88-1.55.34-3.13.6-4.71.85v-.06ZM124.84 132.39c-1.21.1-2.42.16-3.63.15-.44.01-.88.05-1.32.03-1.56-.06-3.11-.2-4.64-.42-.68-.08-1.36-.17-2.04-.25l-1.29-.24c-.43-.11-.85-.24-1.26-.4-.25-.11-.16-.32.12-.52.28-.19.74-.4 1.22-.35 1.73.08 3.4.36 5.13.56 1.03.15 2.12.04 3.18 0 1.17-.04 2.34-.12 3.52-.22.72-.06 1.44-.14 2.16-.25 1.09-.16 2.18-.33 3.24-.6.82-.22 1.6-.55 2.39-.85.17-.06.34-.15.52-.21.65-.22.9-.16 1.19.29.07.1.14.2.19.31.18.36 0 .75-.48 1-1.39.73-2.96 1.17-4.57 1.48-1.19.24-2.41.4-3.62.54v-.04ZM253.71 99.57c-1.36.31-2.74.52-4.12.7-.5.06-1 .16-1.51.2-1.79.12-3.58.03-5.35-.13-.78-.09-1.57-.13-2.33-.27-.49-.09-.99-.13-1.47-.27-.48-.16-.95-.35-1.41-.54-.29-.12-.24-.15.04-.22.28-.06.8-.25 1.37-.33 1.01-.09 1.98-.04 2.95-.06.97.07 1.94.1 2.92.16.59.03 1.19 0 1.79-.07.6-.05 1.2-.14 1.8-.23 1.31-.16 2.62-.41 3.92-.71.8-.2 1.6-.39 2.38-.65 1.19-.36 2.39-.77 3.53-1.27.88-.4 1.69-.93 2.52-1.42.18-.11.35-.23.54-.34.7-.38.99-.34 1.41.16.1.11.2.22.29.35.28.41.15.92-.33 1.28-1.42 1.09-3.11 1.86-4.88 2.49-1.31.47-2.66.86-4.03 1.2l-.02-.05Z" class="cls-4"/><path d="M262.32 95.84c-1.07-.57-1.88-1.36-2.53-2.13-.25-.29-.5-.51-.73-.82-.82-1.09-1.29-2.34-1.64-3.54-.16-.53-.31-1.06-.47-1.59-.24-.66-.22-1.39-.19-2.09.02-.22.11-.21.3-.06.17.15.51.42.73.75.44.59.57 1.22.85 1.82.25.58.49 1.16.75 1.77.32.71.84 1.29 1.39 1.84.62.66 1.23 1.23 1.92 1.64.43.24.87.44 1.35.51.72.14 1.51.11 2.25-.16.58-.2 1.06-.64 1.53-1.04.11-.09.2-.18.31-.27.41-.3.64-.23 1.13.3.11.12.23.24.33.36.35.42.4.92.11 1.3-.84 1.11-2.22 1.79-3.82 2.03-1.18.18-2.51-.01-3.61-.56l.02-.06ZM216.26 80.13c.31-.28.63-.56.94-.83.11-.1.2-.22.31-.31.39-.35.78-.68 1.15-1.05.16-.16.3-.34.43-.52.16-.23.25-.35.5-.71.1-.15.12.11.04.46-.21.58-.48 1.15-.88 1.62-.25.27-.45.59-.67.89-.25.31-.51.62-.76.93-.15.19-.31.38-.44.57-.21.3-.42.59-.56.92-.1.26-.11.55-.11.81v.18c-.02.21-.13.24-.56.18l-.29-.04c-.33-.06-.57-.22-.59-.43-.07-.64.23-1.23.59-1.71.27-.36.58-.68.88-.98l.02.02Z" class="cls-4"/><path d="M257.98 95.45c-.5-.77-.94-1.56-1.3-2.38-.13-.3-.33-.56-.42-.88a9.554 9.554 0 0 1-.52-3.38c-.01-.5.06-1 .08-1.49.06-.31.11-.63.19-.93.08-.31.34-.56.53-.81.14-.15.29-.04.47.19.16.23.48.62.49.9-.06 1.02.24 1.9.26 2.95.03.63.43 1.19.73 1.76.36.62.73 1.24 1.19 1.81.27.36.58.69.89 1.02.48.49 1 .96 1.6 1.28.48.22 1.03.27 1.54.3.11.01.23 0 .33.02.37.09.43.34.33 1.13l-.06.54c-.09.6-.41 1.04-.86 1.12-1.34.24-2.57-.38-3.56-1.13a9.886 9.886 0 0 1-1.96-1.97l.05-.05Z" class="cls-4"/><path d="M256.68 101.38c-5.7.73-11.29.63-16.86.32-2.03-.12-4.06-.2-6.08-.44-3.56-.41-7.1-.98-10.6-1.76s-6.98-1.74-10.34-3.12c-1.49-.6-2.97-1.31-4.38-2.16-1.41-.83-2.77-1.95-3.84-3.19-1.39-1.63-2.41-3.63-2.95-5.64-.28-1.01-.43-2.03-.57-3.03l-.18-1.51c-.05-.5-.03-1.02-.05-1.52 0-1.27.07-1.11.61-.14.61.95 1.58 2.77 2.39 4.81.65 1.83 1.45 3.39 2.65 4.7 1.2 1.39 2.44 2.48 4.11 3.37 3.29 1.81 7.14 3.01 11.02 4.06 4.67 1.25 9.73 1.73 14.68 2.1 5.44.4 10.94.53 16.35.08 1.67-.13 3.32-.34 4.94-.64 1.63-.29 3.18-.72 4.59-1.36 4.37-2.1 8.09-5.8 11.07-9.78 2.31-3.14 4.03-6.59 5.48-10.11.32-.78.55-1.57.87-2.35 1.06-2.93 1.5-3.81 2.73-4.18.27-.09.56-.22.81-.25.82-.11 1.19 1.39.59 3.8-1.8 7.14-5.8 14.02-11.26 19.7-2.05 2.1-4.35 4.02-7.02 5.57-.7.36-1.38.73-2.11 1.05-.75.27-1.51.62-2.25.8-1.49.42-2.94.7-4.38.9l-.02-.09Z" class="cls-4"/><path d="M216.25 77.02c.43-.3.8-.68 1.21-1.02.38-.38.75-.77 1.1-1.18.24-.31.42-.67.67-.98.84-1.13 1.62-2.35 2.21-3.67.25-.59.46-1.2.57-1.82.1-.39.13-.8.19-1.19.12-.39.22-.77.41-1.18.21-.25.36-.23.73 0 .35.23.86.71.97 1.26 0 1.91-.41 3.78-1.42 5.37-.59.95-.96 2.04-1.57 3-.33.53-.68 1.04-1.08 1.53-.37.5-.8.96-1.23 1.42-.52.57-1.12 1.06-1.71 1.56-.93.72-1.93 1.33-2.95 1.9-.41.21-.77.49-1.17.72-.4.22-.81.46-1.24.67-.19.1-.38.18-.58.24-.76.19-1.04 0-1.3-.82-.06-.19-.12-.38-.17-.57-.13-.65.06-1.25.45-1.53 1.16-.77 2.26-1.29 3.39-1.99l.63-.38.61-.44c.43-.26.79-.64 1.2-.95l.06.05Z" class="cls-4"/><path d="M223.03 84.34c2.79.68 5.66 1.18 8.55 1.5 1.06.12 2.12.11 3.18.2 3.74.33 7.52.55 11.3.39 1.68-.07 3.35-.27 4.99-.5 1.05-.15 2.1-.36 3.15-.56.53-.09 1.06-.13 1.59-.19l.8-.07c.27-.03.57.07.84.04.67-.06.68.24.23.78-.23.24-.51.8-.95 1.12-.43.36-.95.75-1.55.98-2.19.65-4.42 1.12-6.68 1.39-2.26.23-4.53.3-6.8.19-2.72-.13-5.53.07-8.31-.15-3.04-.22-6.08-.63-9.08-1.22-1.85-.35-3.68-.81-5.5-1.3a52.52 52.52 0 0 1-8.04-3c-2.01-.94-4.03-1.88-5.87-3.23-.4-.31-.82-.57-1.2-.92-.68-.66-1.11-1.13-1.24-1.59-.13-.47-.06-.84.15-1.25.1-.19.17-.39.29-.54.2-.25.51-.32.91-.25.41.06.88.26 1.35.62 2.83 2.09 6.14 3.68 9.67 5.03 2.62 1 5.38 1.84 8.21 2.45v.09ZM254.51 73.49c-3.48-.21-6.96-.54-10.41-1.01-1.26-.18-2.53-.28-3.78-.51-4.41-.83-8.78-1.95-13.01-3.49-1.86-.74-3.74-1.44-5.51-2.36-1.15-.56-2.28-1.18-3.29-1.99-1.04-.76-1.98-1.67-2.71-2.74-.46-.66-.35-.6.3-.33.64.29 1.93.57 3.14 1.18 1.11.52 2.24.95 3.33 1.47l1.69.68 1.72.62c2.33.75 4.67 1.53 7.08 2.24 2.88.86 6.03 1.18 9.09 1.54 3.37.4 6.77.75 10.18.91 2.1.12 4.21.17 6.31.17 3.19-.02 6.4-.08 9.54-.45 2.44-.29 4.79-.89 7.1-1.5.5-.14 1-.28 1.51-.42 1.89-.44 2.5-.35 3.22.51.16.2.36.38.49.58.22.35.19.73-.09 1.13-.28.41-.8.82-1.52 1.14-1.07.49-2.18.86-3.3 1.2-1.13.3-2.28.55-3.44.74-2.32.4-4.69.61-7.06.75-3.52.19-7.05.15-10.57.02v-.09ZM243.9 79.3a60.09 60.09 0 0 1-3.25-.63c-.39-.08-.79-.12-1.18-.24-1.36-.39-2.7-.83-4.02-1.29-.59-.21-1.17-.41-1.75-.62-.74-.28-1.5-.49-2.17-.96-.21-.14-.16-.17.07-.21.23-.04.68-.16 1.11-.05 1.56.32 3.11.56 4.62 1.07.91.29 1.9.37 2.85.53 1.05.19 2.1.36 3.16.49.65.08 1.31.15 1.96.2.99.07 1.99.13 2.98.08.77-.05 1.51-.24 2.26-.39.17-.02.32-.07.49-.09.62-.07.83.06 1.01.59.04.12.1.24.13.36.1.41-.12.78-.58.96-1.36.6-2.88.59-4.38.56-1.12-.04-2.23-.17-3.34-.31v-.05ZM359.3 355.67c.03.2 0 .36-.07.49-.05.08-.06.18-.1.28-.02.07-.04.16-.08.21-.11.17-.17.39-.21.61-.13.38-1.28 1.85-1.38 2.01-.17.23-.67.93-.67 1.12 0 .19-.43.75-.44.98 0 .09-.05.15-.1.21-.21.26-.02.77-.2 1.04-.06.08-.1.17-.14.27l-.06.14-.03.07-.72-.43h.02l.04.03.07.04s.07.03.14.07c.06.01-.41-.14-.8-.12-.19 0-.35.05-.41.09-.06.04-.01.03.01-.09l-1.43-1.44c.09-.13.2-.25.31-.35.07-.05.14-.11.21-.16.04-.04.1-.05.11-.12.08-.36.32-.52.63-.65.04-.02.11-.01.1-.07-.05-.33.28-.34.36-.57.02-.07.1-.11.15-.16.04-.04.11-.06.12-.12.03-.28.24-.43.31-.68 0-.02.02-.02.02-.05-.1-.35.23-.45.54-.61.19-.09.36-.2.2-.44-.03-.05-.05-.09 0-.1.24-.08.27-.24.38-.38h.05c.04-.01.93.22 1.12.27.19.05 2.41.87 2.46.93.05.05.12.11.13.14.02.12.13.26.48.47.18.11.21.2.16.25-.41.39-.37.95-.73 1.35-.15.16-.18.39-.3.57-.55.93-1.21 1.77-1.95 2.54-.13.14-.29.24-.51.28-.2.04-.36.12-.5.22-.24.17-.45.37-.7.53-.21.14-.44.26-.67.39l-.92.51-.7-.2c-.37-.1-.79-.31-1.12-.68-.32-.34-.49-.76-.54-1.05-.13-.68-.01-1.02.08-1.36.1-.32.23-.58.41-.87.22-.28.39-.49.6-.74.01-.02.04-.03.04-.05 0-.44.84-1.24.89-1.3.21-.26.41-.52.64-.76.23-.24.42-.51.68-.72.23-.18.4-.41.6-.62.03-.03.05-.07.08-.09.2-.14.65-.53 1.09-.89.44-.35.97-.58 1.06-.66.05-.03.11-.03.19-.02.07.01.13 0 .2 0s.14.04.2.04.11-.03.16-.05c.05-.01.12.02.17.08.05.06.22.26.27.31ZM395.79 339.66c-.2.01-.36-.02-.48-.11-.08-.05-.18-.08-.27-.12-.07-.03-.15-.05-.21-.09-.16-.13-.37-.2-.59-.26-.36-.16-1.75-1.42-1.89-1.54-.22-.18-.88-.75-1.06-.75-.19-.01-.71-.49-.94-.52-.09-.01-.15-.06-.21-.12-.24-.23-.77-.08-1.02-.28-.08-.06-.17-.12-.26-.17l-.14-.07-.07-.04.49-.68v.02l-.04.03-.05.07s-.04.07-.08.13c-.02.06.17-.4.18-.78a.944.944 0 0 0-.06-.41c-.04-.06-.03-.01.09.02l1.55-1.31c.12.1.23.21.32.34.05.07.1.15.14.22.03.04.05.11.11.12.35.11.5.36.59.68.02.04 0 .11.06.11.34-.02.32.31.54.41.07.03.1.1.14.16.03.04.05.12.11.13.28.05.41.27.65.37.02 0 .02.02.04.02.36-.07.43.27.56.59.07.2.17.37.42.23.05-.03.09-.04.1 0 .06.24.22.29.35.41v.05c0 .04-.29.91-.36 1.09-.06.18-1.05 2.33-1.13 2.38-.05.05-.11.11-.15.11-.13.01-.27.11-.51.45-.12.18-.21.2-.26.14-.35-.44-.92-.45-1.28-.84-.15-.16-.37-.21-.55-.34a13.9 13.9 0 0 1-2.38-2.15.931.931 0 0 1-.24-.53 1.19 1.19 0 0 0-.18-.52c-.15-.26-.34-.48-.47-.74-.13-.22-.23-.46-.33-.7l-.43-.96.25-.68c.13-.36.37-.76.76-1.06.37-.29.79-.42 1.09-.46.69-.08 1.02.07 1.35.19.31.13.56.27.83.48.27.24.46.43.69.65.02.01.02.04.05.04.44.03 1.17.94 1.23.99.24.23.49.45.7.7.22.25.47.46.66.74.17.24.38.43.57.65.03.03.07.05.09.09.12.21.48.69.8 1.15.32.47.51 1.02.57 1.11.03.05.02.11 0 .19-.02.07 0 .13-.02.2-.01.07-.05.14-.06.19 0 .06.03.11.04.16.01.06-.03.12-.09.16-.07.05-.27.2-.33.24ZM375.41 437.04c-.03-.18 0-.34.07-.47.04-.08.06-.18.09-.28.02-.07.04-.15.07-.21.11-.17.16-.39.2-.61.12-.37 1.21-1.91 1.3-2.07.16-.24.63-.97.63-1.15 0-.19.4-.77.41-.99 0-.09.05-.15.09-.22.2-.27.02-.76.19-1.04.05-.09.09-.18.13-.28l.06-.14.03-.07.55.29h-.02l-.04-.03-.08-.04-.14-.06c-.06-.01.42.12.8.08.19-.01.35-.07.4-.11.06-.04 0-.03 0 .09l1.35 1.19c-.09.14-.2.26-.31.37-.07.06-.14.12-.2.18-.04.04-.1.06-.11.13-.09.35-.32.54-.62.69-.04.02-.1.02-.1.08.04.32-.27.37-.35.59-.02.07-.09.12-.14.17-.04.04-.11.07-.11.13-.03.28-.23.45-.3.7 0 .02-.02.03-.01.05.09.34-.22.48-.5.66-.18.11-.33.24-.18.46.03.04.05.08 0 .1-.22.1-.25.27-.34.42 0 0-.04 0-.05.01-.04.02-.84-.15-1.02-.19-.17-.03-2.2-.69-2.25-.75-.05-.04-.11-.09-.12-.13-.02-.12-.13-.25-.45-.43-.17-.09-.2-.18-.15-.23.36-.41.32-.95.64-1.36.13-.17.16-.39.26-.58.49-.93 1.1-1.8 1.78-2.59.12-.14.27-.25.48-.31.19-.05.34-.15.47-.26.23-.18.43-.39.66-.56.2-.15.42-.28.63-.42l.79-.5.65.15c.34.08.74.25 1.05.57.3.3.48.67.55.93.15.62.06.95 0 1.27-.08.31-.19.56-.35.84l-.55.76s-.04.03-.04.05c0 .43-.77 1.28-.82 1.34-.19.27-.38.54-.6.79-.22.25-.39.53-.64.75-.21.2-.38.43-.56.65-.03.03-.05.07-.08.1-.19.15-.61.57-1.02.96-.42.38-.92.65-1 .73-.04.03-.1.04-.18.04-.07 0-.13.02-.19.01-.06 0-.13-.03-.19-.02-.06 0-.1.04-.15.06-.05.02-.11 0-.16-.06-.05-.05-.21-.22-.25-.27ZM402.06 375.99c.2.01.35.07.46.17.07.06.17.1.25.15.07.04.14.07.19.12.14.15.34.25.55.34.34.21 1.54 1.64 1.66 1.78.19.21.77.86.95.89.19.04.64.58.86.64.09.02.14.08.19.14.21.26.75.19.98.42.07.07.15.14.23.2l.12.09.06.04-.57.61v-.02l.04-.03.05-.06s.05-.06.09-.12c.03-.06-.23.37-.29.75-.04.19-.02.35 0 .42.03.07.03.02-.08-.03l-1.71 1.09c-.11-.12-.2-.24-.27-.38-.04-.08-.08-.16-.11-.24-.03-.05-.03-.11-.09-.14-.33-.16-.44-.42-.5-.76-.01-.04.01-.11-.05-.11-.34-.03-.27-.35-.48-.48-.06-.04-.08-.12-.12-.18-.03-.05-.03-.12-.09-.14-.27-.09-.37-.33-.59-.45-.01 0-.02-.03-.04-.03-.36.02-.39-.32-.48-.66-.04-.21-.12-.39-.39-.28-.05.02-.1.03-.1-.02-.03-.25-.18-.32-.29-.45v-.05c0-.05.41-.86.51-1.03.09-.17 1.36-2.17 1.44-2.21.06-.04.13-.09.17-.09.13 0 .29-.07.56-.37.15-.16.24-.17.28-.11.29.48.85.57 1.16 1 .13.18.34.26.5.41.79.73 1.47 1.56 2.06 2.45.1.16.17.34.17.56 0 .21.04.38.11.54.11.27.27.52.37.8.09.24.16.49.23.73l.3 1.01-.34.64c-.18.34-.48.71-.9.95-.4.24-.84.31-1.14.31-.69-.02-1-.21-1.31-.37-.29-.17-.52-.35-.76-.59-.23-.27-.39-.49-.59-.74-.01-.02-.02-.04-.04-.05-.43-.09-1.03-1.09-1.08-1.15-.21-.26-.42-.51-.6-.79s-.41-.52-.55-.82c-.13-.26-.32-.48-.47-.72-.02-.04-.06-.06-.07-.1-.09-.22-.38-.75-.64-1.25-.25-.51-.36-1.08-.42-1.18-.02-.05 0-.11.02-.19.03-.07.03-.13.05-.19.02-.06.07-.13.08-.19.01-.06-.01-.11-.01-.17 0-.06.04-.11.11-.15.07-.04.3-.16.36-.19ZM330.27 417.57c.17.02.29.08.38.18.05.06.13.1.2.15.05.04.11.07.15.12.12.14.27.25.44.33.08.04.21.14.38.27.04.03.08.07.13.1.03.02.02.02.03.03.01.02.04.04.04.05.03.06.1.17.11.19.03.04.23.26.18.15-.07-.13.14.1.07-.02-.03-.05-.01-.03.02 0 .16.15-.4-.51-.33-.42.06.06.04.04.05.04 0 0-.05-.04-.02-.02.35.26-.05-.06.09.03l.1.04s.08.03.03 0c-.3-.13 0-.01.14 0 .02 0 .1.02.04 0-.35-.09-.02-.04-.13-.07-.03 0 0 0 .02-.02 0 0 .06 0 .02-.01-.15-.02-.07-.04-.14-.05-.2.04 0-.02.03-.14.03-.06 0-.14-.1-.04-.01.02-.05.03-.07-.01-.1-.19-.26-.29-.4-.41 0 0 0-.03-.01-.04-.02-.03.19-.49.24-.58.05-.09.76-1.17.81-1.2.04-.02.08-.05.11-.05.1 0 .21-.03.37-.2.09-.09.15-.1.19-.06.04.04.06.06.13.1.1 0 .19.05.28.09.17.08.35.16.53.23.33.19.65.4.96.61.26.17.57.33.81.52.33.23.53.48.79.72l.36.36.27.36c.16.24.35.47.43.7.09.22.21.46.33.69.04.16.01.29-.05.41-.06.11-.05.24-.04.38.03.24.08.49.05.72-.03.32-.1.66-.35.99-.43.61-.98.77-1.38.81h-.04c0 .16-.24.18-.49.2-.24.02-.58-.1-.6-.09l-.48-.09c-.2-.09-.4-.17-.61-.29-.23-.14-.45-.28-.68-.42-.23-.17-.47-.33-.71-.55-.42-.37-.8-.68-1.19-1.05-.06-.05-.11-.1-.16-.16-.29-.35-1.06-1.27-1.22-1.6-.29-.46-.53-.91-.58-1-.03-.05-.03-.1-.01-.16.02-.06 0-.11.02-.17.01-.06.06-.11.06-.17 0-.05-.02-.1-.02-.15 0-.05.04-.11.1-.14.07-.04.28-.15.34-.19ZM425.43 421.89c.19 0 .35.05.46.16.07.07.17.11.24.17.06.04.13.08.18.14.13.16.31.29.49.41.44.18 1.36 1.88 1.45 2.05.15.25.54 1.05.68 1.15.16.1.43.78.59.94.07.06.1.14.12.21.1.33.58.53.7.88.07.22.17.43.26.66.02.06.06.11.07.17.04.33.16.62.25 1.15.03.1.03.35.03.53 0 .08-.04.33-.08.48-.03.09-.05.16-.09.27-.07.16-.17.32-.29.47-.12.15-.24.28-.4.4-.18.13-.39.24-.61.32-.11.04-.23.07-.34.09l-.16.02h-.1c-.13 0-.26 0-.39-.02a2.7 2.7 0 0 1-.39-.08c-.1-.03-.13-.05-.19-.07-.12-.05-.23-.1-.34-.16-.15-.09-.21-.14-.31-.22-.1-.08-.17-.14-.23-.19-.08-.07-.14-.15-.23-.2l-.35-.44h-.01c-.34-.3-.39-.7-.49-1.09-.01-.05 0-.12-.05-.15-.31-.16-.26-.51-.43-.74-.06-.07-.07-.17-.1-.26-.02-.07-.02-.15-.07-.21-.23-.25-.29-.57-.45-.86-.01-.02-.01-.04-.03-.06-.33-.24-.25-.66-.21-1.06.02-.24.03-.48-.21-.63-.05-.03-.08-.07-.07-.13.07-.26 0-.49 0-.76 0-.01.02-.03.03-.04.02-.05.69-.21.83-.24.15-.02 1.93-.23 1.98-.24.05 0 .12.01.13.03.06.05.18.08.48.05.16-.02.21 0 .2.05-.1.33.18.6.24.93.04.14.14.26.2.4.3.69.64 1.39 1.01 2.08.06.12.11.25.1.41 0 .15.04.27.1.38.04.06.07.12.11.18l-.31-.39.08.07c0 .08.11-.18-.24.39-.13.26-.22.31-.3.49-.04.08-.07.16-.09.25-.02.08-.05.09-.06.15-.01.3.04.13-.1.12a.632.632 0 0 0-.38-.09c-.19-.04-.39-.05-.59-.04-.64.04-.37 0-.41-.01.03-.28-.06-.83-.17-1.32 0-.02 0-.04-.01-.05-.29-.21-.46-1.19-.49-1.25-.1-.27-.21-.53-.29-.81-.08-.28-.22-.53-.29-.82-.06-.25-.18-.47-.28-.7-.01-.03-.04-.06-.05-.1-.11-.4-.69-1.99-.8-2.15-.02-.04-.02-.09 0-.16.02-.06.01-.11.03-.17.01-.06.05-.12.06-.17 0-.05-.02-.1-.03-.15 0-.05.03-.12.09-.16.06-.05.26-.21.32-.25ZM283.55 244.59c-1.23-.09-2.47.02-3.67.29s-2.65.69-3.21 1.89c-.38.82-.38 1.74.19 2.48.47.61 1.16.88 1.92.91 1.06.04 2.21-.45 3.18-.83 1.27-.5 2.49-1.08 3.65-1.79.67-.41.98-1.36.54-2.05s-1.34-.98-2.05-.54c-.49.3-.99.58-1.5.84-.26.13-.51.25-.77.37-.13.06-.26.12-.39.17-.1.04-.08.03.08-.03-.08.03-.15.06-.23.09-.53.21-1.07.4-1.62.57-.23.07-.46.14-.69.19-.37.08.29 0 0 0-.05 0-.45 0-.15.01.14.02.15.02.03 0 .23.11.27.13.14.05.18.12.33.27.39.49.04.14.04.28 0 .42.04-.16.03-.13-.05.08.13-.25-.23.18 0-.01-.32.25.05-.01.13-.06.26-.15-.27.08.04-.01.28-.08.55-.18.83-.25s.58-.14.87-.19c.12-.02.25-.05.38-.06-.39.04.16-.01.23-.02.59-.05 1.18-.05 1.77 0 .78.06 1.53-.73 1.5-1.5-.04-.86-.66-1.44-1.5-1.5Z" class="cls-4"/><path d="M114 209.96c-.12 8.22-11.77 15.39-19.22 8.15-2.78-2.7-4.02-6.92-3.15-10.72 2.07-9.05 13.98-10.26 19.7-3.99 1.91 2.09 2.7 4.36 2.66 6.55ZM481.66 236.39c-.12 8.22-11.77 15.39-19.22 8.15-2.78-2.7-4.02-6.92-3.15-10.72 2.07-9.05 13.98-10.26 19.7-3.99 1.91 2.09 2.7 4.36 2.66 6.55ZM424.34 78.81c0 2.44-1.1 4.84-2.9 7.89-8.2 13.85-29.3 6.91-29.31-7.91 0-19.94 32.22-18.26 32.21.02Z" class="cls-3"/><path d="M118.04 302.8c-.51.46-1 .92-1.55 1.32-.52.43-1.07.82-1.63 1.19-.39.29-.78.58-1.21.82-1.49.86-3.06 1.53-4.68 2.01-.7.25-1.43.43-2.13.64l-1.38.32c-.47.07-.94.1-1.42.11-.3 0-.27-.19-.06-.44.21-.24.61-.56 1.1-.69 1.76-.52 3.41-1.25 5.08-1.99 1.01-.42 1.93-1.13 2.82-1.8.5-.35.96-.77 1.44-1.14.44-.43.92-.82 1.34-1.27l.78-.83.71-.89c.37-.44.66-.94.99-1.41.3-.49.57-1 .81-1.51.16-.41.27-.84.38-1.26.08-.43.12-.87.19-1.29.04-.18.03-.38.06-.56.09-.69.39-.84 1.18-.83h.55c.6.05 1.02.46 1.07 1.09.07 1.84-.71 3.66-1.74 5.23-.36.6-.82 1.13-1.24 1.69-.48.51-.92 1.05-1.42 1.52l-.04-.04Z" class="cls-4"/><g class="cls-5"><path d="M125.77 308.31c-.85.69-1.72 1.32-2.63 1.89-.32.22-.62.46-.96.65-1.2.66-2.44 1.21-3.69 1.66-.55.22-1.1.43-1.64.65-.35.12-.7.26-1.06.37-.36.09-.74.16-1.12.17-.24 0-.28-.31-.18-.69.1-.37.32-.82.69-.99 1.28-.63 2.52-1.23 3.85-1.76.81-.31 1.47-.93 2.16-1.46.76-.58 1.5-1.19 2.19-1.86.43-.41.84-.83 1.23-1.28.59-.68 1.16-1.38 1.59-2.17.32-.62.43-1.33.61-1.98.04-.14.05-.3.1-.44.17-.52.43-.6 1.23-.42.18.04.37.07.54.12.6.17.99.58.98 1.08 0 .74-.15 1.48-.44 2.16-.3.67-.7 1.31-1.14 1.9-.66.89-1.43 1.69-2.24 2.43l-.05-.04Z" class="cls-4"/></g><path d="M266.14 112.31c-1.29.33-2.58.58-3.87.73-.47.07-.93.18-1.41.19-1.68.04-3.34-.06-4.96-.3-.72-.08-1.44-.19-2.15-.28l-1.36-.24c-.44-.13-.88-.31-1.29-.52-.26-.13-.15-.35.15-.56.3-.2.8-.46 1.3-.44 1.76.19 3.48.25 5.25.36 1.06.09 2.15-.19 3.21-.38.59-.08 1.17-.22 1.75-.32.57-.16 1.16-.27 1.73-.45l1.05-.33 1.03-.41c1.03-.43 2.04-.92 2.95-1.56.34-.26.65-.56.95-.87.29-.32.54-.67.83-.97.13-.13.23-.29.35-.43.47-.5.76-.49 1.45 0 .16.11.32.21.47.33.5.4.64.99.34 1.51-.86 1.58-2.38 2.68-3.98 3.51-.59.33-1.23.57-1.84.84-.64.22-1.26.47-1.91.65l-.02-.06Z" class="cls-4"/><g class="cls-5"><path d="M273.73 117.85c-.88.35-1.78.6-2.66.8-.32.09-.63.2-.95.26-1.15.17-2.3.17-3.42.15-.49 0-.98.03-1.47.06-.62.04-1.25.11-1.86-.12-.19-.07-.14-.47.03-.87.18-.4.47-.82.79-.86 1.17-.15 2.29-.31 3.46-.3.36 0 .7-.07 1.04-.18.35-.09.67-.23 1.01-.32.74-.21 1.47-.47 2.18-.79.43-.2.86-.41 1.26-.67.61-.38 1.21-.8 1.69-1.33.17-.22.31-.46.43-.71l.3-.78c.05-.11.06-.24.11-.35.18-.4.43-.4 1.2-.06.18.08.35.14.53.23.58.28.93.72.87 1.16-.18 1.31-1.01 2.42-2.01 3.26-.75.63-1.63 1.09-2.49 1.49l-.04-.06Z" class="cls-4"/></g><path d="M88.63 123.64c-.74.75-1.52 1.44-2.34 2.05-.29.24-.57.49-.88.7-1.11.72-2.28 1.34-3.5 1.78-.54.21-1.06.43-1.6.64-.34.12-.69.25-1.03.37-.35.1-.73.11-1.1.12-.23 0-.26-.27-.14-.6.12-.32.34-.78.69-.93 1.27-.51 2.45-1.13 3.73-1.67.78-.31 1.42-.91 2.09-1.43.73-.58 1.43-1.2 2.07-1.89.4-.42.78-.86 1.12-1.32.52-.7 1.01-1.44 1.36-2.24.26-.63.35-1.3.44-1.96.03-.14.02-.29.05-.43.11-.52.32-.64.97-.6.15 0 .3 0 .44.03.49.06.82.39.85.86.07 1.41-.5 2.79-1.23 4.01-.54.92-1.22 1.76-1.92 2.54l-.04-.03Z" class="cls-4"/><path d="M83.22 120.29c-.34.32-.7.61-1.07.89-.13.1-.23.24-.37.33-.49.34-.99.65-1.48.95-.21.14-.41.3-.6.46-.23.23-.51.41-.86.46-.11.02-.22-.17-.29-.41-.07-.24-.12-.57-.02-.72.39-.5.89-.84 1.44-1.16.34-.18.56-.52.82-.79.29-.3.59-.6.89-.89.18-.18.36-.37.53-.57.25-.3.52-.6.71-.95.14-.27.18-.59.25-.9.02-.07.01-.14.04-.2.08-.23.23-.24.71-.05l.33.13c.36.16.6.41.6.63 0 .67-.3 1.23-.67 1.74-.27.38-.6.72-.92 1.06l-.03-.03Z" class="cls-4" style="opacity:.55"/><g class="cls-5"><path d="M190.59 440.96c.11-.56.26-1.1.44-1.64.09-.26.18-.51.28-.76-.15.37.04-.08.06-.12.06-.13.13-.27.19-.4.24-.48.52-.95.81-1.41.16-.25.33-.49.51-.72-.15.2-.05.06.05-.05s.19-.23.29-.34c.36-.41.73-.8 1.13-1.17.2-.18.41-.36.62-.53.31-.26-.19.13.11-.09.12-.09.24-.17.36-.26.44-.31.91-.59 1.39-.84.26-.14.53-.26.8-.39.34-.16-.26.09.13-.05l.42-.15c.86-.31 1.53-1.21 1.22-2.15-.27-.85-1.23-1.55-2.15-1.22-5 1.78-8.97 6.13-10.03 11.37-.18.89.26 1.93 1.22 2.15.87.2 1.96-.26 2.15-1.22Z" class="cls-4"/></g></svg>