<svg xmlns="http://www.w3.org/2000/svg" id="Layer_1" width="520" height="520"><defs><style>.cls-1{opacity:.25}.cls-1,.cls-2{fill:#231f20;stroke-width:0}.cls-3{opacity:.45}.cls-5{opacity:.55}</style></defs><path d="M354.28 182s9.58-5.18 10.46-5.36c.89-.19 8.13 10.39 6.53 11.03s-6.91-1.09-7.45-1.43 1.02 2.58-.94 2.45c-1.96-.13-6.88-3.19-6.88-3.19l-1.74-3.49ZM173.34 208.45s-14.15-9.09-19.02 2.61c-4.87 11.7 2.37 18.72 5.94 19.79s6.25 2.8 10.52 1.69c0 0 6.06 16.58 17.71 22.23 11.65 5.65 29.64 10.69 40.28 7.22 10.65-3.47 15.27-18.32 14.64-22.24-.63-3.91-1.71-21.12-1.71-21.12s6.87-7.85 7-11.09c0 0-10.32 3.8-15.57-4.43-5.25-8.24-12.45-28.53-11.37-31.36 1.09-2.83-24.89-9.23-24.89-9.23s1.21 22.18-3.35 24.64-20.2 21.29-20.2 21.29Z" class="cls-1"/><path d="M214.75 345.68s4.41-26.13 3.97-29.94c-.44-3.8-10.4-25.93-9.2-29.47s9.41-17.91 9.41-17.91 23.7-16.64 25.95-16.72c2.25-.08 1.93 5.02.5 6.66-1.44 1.64-10 10.06-10 10.06s9.82-5.81 13.33-3.95c3.51 1.85 5.49 7.47 5.44 9.91s1.72 8.03 1.72 8.03 2.47 8.17 1.53 10.71-5.12 1.69-5.85-2.54-4.18-4.51-6.17-1.98c-1.98 2.53-3.14 4.8-1.96 14.12 1.18 9.32-2.12 12.35-4.94 15.05s-1.22 41.14-1.22 41.14l-22.51-13.17ZM294.37 222.69s18.07-29.71 20.57-38.26c2.5-8.55 10.53-18.77 15.03-21.92 4.5-3.15 12.32-7.25 12.32-7.25s8.11-6.58 12.7-4.16 18.86 13.03 19.27 16.15-6.56 2.69-6.56 2.69-9.41 13.51-17.34 13.51c-3.06 0-4.44 3.93-5.46 6.41s-2.8 7.22-7.65 9.45-9.4 3.87-9.4 3.87l-9.45 17.11-9.85 20.66-14.18-18.27Z" class="cls-1"/><path d="M180.3 248.37s6.84 17.11 19.12 18.81c10.42 1.45 12.08-3.66 12.08-3.66l-17.97-6.51-13.23-8.64ZM453.13 307.93c-.03-3.75-.09-7.49-.21-11.24l-.21-4.09-.27-7.22c-.08-2.41-.18-4.82-.34-7.22l-.13-1.59-.08-.79c-.03-.23-.06-.59-.09-.69-.03-.16-.04-.29-.09-.41-.08-.09-.24-.08-.36-.1l-.56-.03-.78-.02c-2.7-.07-5.43.26-8.18-.22-.86-.18-.74-.12-.04-.4.71-.33 2.01-.97 3.59-1.14 1.4-.11 2.8-.21 4.23-.25.36-.01.72-.02 1.08-.02h.56c.3 0 .68.06 1.01.1.18 0 .33.06.46.14.14.07.29.12.41.21l.19.13c-.02.12.07.14.09.22l.23.4c.19.25.17.59.26.88.07.35.09.48.12.67.42 2.84.57 5.63.69 8.46.12 3.37.42 6.87.59 10.31.16 3.79.27 7.58.34 11.37.03 2.33.07 4.67.1 7 0 3.53 0 7.08.01 10.59.05 2.73.11 5.4.16 8.1 0 .59.03 1.18 0 1.78-.09 2.22-.31 2.92-.9 3.37-.14.1-.27.24-.4.29-.44.19-.77-.73-.88-2.35-.34-4.8-.35-9.84-.46-14.91-.06-3.77-.13-7.55-.19-11.33h.06ZM366.85 446.72l.25-10.16.03-3.7c.12-4.35.26-8.7.31-13.04.05-1.93.03-3.87 0-5.78-.04-1.23-.06-2.46-.01-3.69.03-1.23.08-2.47.24-3.7.1-.77.09-.67.27-.03.09.32.25.78.46 1.33.18.55.34 1.2.45 1.91l.28 1.88c.09.63.09 1.26.14 1.89.07 1.26.13 2.52.17 3.78.11 2.52.01 5.05-.1 7.59-.15 3.03-.05 6.19-.08 9.29l-.15 10.22-.05 6.29V455.67c0 .06.03.17-.07.16l-.42.08-.84.15-.78.12-1.19.17c-.79.11-1.58.21-2.37.32-2.44.36-4.82.83-7.26 1.09-.54.06-1.06.15-1.61.18-2.02.14-2.7-.06-3.12-.79-.1-.17-.22-.33-.27-.5-.17-.57.62-1.01 2.04-1.21 2.11-.29 4.3-.64 6.52-.83l3.36-.24c1.12-.09 2.24-.26 3.35-.42l.31-.05c.1-.02.02 0 .05 0v-2.02l.03-5.14h.06ZM358.55 181.2c.54-.2 1.07-.41 1.59-.65.19-.09.35-.22.54-.31.66-.32 1.39-.57 2.05-.93.29-.16.56-.36.81-.56.32-.27.69-.49 1.12-.63.14-.04.25.11.31.36.06.24.09.61-.04.85-.22.43-.56.73-.92 1-.35.28-.73.52-1.15.71-.49.23-.91.62-1.39.89-.53.3-1.07.56-1.62.82-.34.16-.68.31-1.01.46-.51.24-1.03.44-1.54.7-.4.2-.77.53-1.27.69-.11.04-.21.09-.33.11-.44.06-.6-.1-.66-.61-.01-.12-.03-.23-.03-.35 0-.4.13-.72.29-.87.25-.21.45-.46.73-.59.27-.15.58-.29.93-.45.52-.22 1.05-.45 1.57-.67l.02.04ZM300.84 234.96c-.77-1-1.54-2-2.23-3.06-.26-.38-.57-.72-.79-1.13-.83-1.41-1.55-2.87-2.21-4.35-.32-.64-.6-1.31-.89-1.95-.17-.43-.36-.84-.51-1.28-.12-.44-.17-.92-.2-1.38-.01-.29.26-.34.65-.22.38.12.96.36 1.27.75.48.74.93 1.47 1.39 2.2.38.77.75 1.55 1.1 2.37.42.98 1.18 1.8 1.82 2.68.72.95 1.41 1.94 2.16 2.89.46.59.93 1.17 1.42 1.72.75.84 1.5 1.7 2.35 2.45.66.57 1.43 1.01 2.13 1.52.15.11.32.2.47.33.55.45.59.74.26 1.37-.08.14-.14.29-.23.42-.29.45-.8.59-1.32.38-.77-.32-1.52-.71-2.2-1.2-.67-.5-1.3-1.06-1.91-1.66-.91-.88-1.75-1.83-2.58-2.79l.05-.05Z" class="cls-2"/><path d="M318.32 172.62c.9-1.75 1.84-3.5 3-5.23.6-.86 1.21-1.72 2.07-2.56.23-.21.4-.42.68-.62.27-.2.55-.4.81-.59.3-.18.72-.47 1.1-.73 3.14-2.17 6.33-4.4 9.6-6.51 2.39-1.54 4.76-3.12 7.3-4.48 2.27-1.17 4.53-2.33 7.29-2.99a8.36 8.36 0 0 1 2.31-.22l.69.09c.22.04.37.09.55.14.36.09.69.21 1.01.33 1.29.48 2.45 1.08 3.57 1.72 4.44 2.59 8.42 5.7 11.98 9.32 1.57 1.62 3.09 3.31 4.33 5.33.59 1.02 1.21 2.13 1.22 3.67.03.36-.1.8-.23 1.18-.09.19-.2.38-.3.57-.11.18-.27.31-.41.47-.58.56-1.25.89-1.99 1.03-.94.19-1.84.02-2.62-.23-.78-.26-1.47-.62-2.12-1.02-1.29-.8-2.4-1.75-3.45-2.73-1.04-.99-1.98-2.07-2.9-3.14a58.27 58.27 0 0 1-2.63-3.29c-1.06-1.38-.81-1.33.52-.55 1.35.74 3.71 2.32 6.16 4.27 1.06.88 2.1 1.76 3.18 2.46 1.05.68 2.22 1.22 2.93 1.24.34 0 .54-.06.7-.21.07-.02 0-.05.04-.04.11.06.02.01.04.03-.12-.04-.02-.01-.06-.15-.03-.23-.13-.7-.41-1.2-.24-.49-.59-1.01-.95-1.53-1.54-2.05-3.56-3.98-5.64-5.79-2.1-1.79-4.25-3.6-6.53-5.19-1.36-.95-2.8-1.83-4.26-2.53-.73-.35-1.48-.65-2.16-.82-.2-.07-.29-.05-.4-.07-.1-.03-.28 0-.42 0-.31.02-.66.07-1.03.16-1.47.35-3.05 1.06-4.57 1.81-1.53.77-3.04 1.62-4.53 2.5-3.28 1.94-6.49 4.06-9.68 6.24l-4.8 3.31-.67.43-.44.32c-.15.09-.29.27-.43.4-.15.14-.29.28-.43.45-.28.33-.56.66-.82 1.04-.27.36-.52.75-.77 1.14-2.43 3.9-4.37 8.3-6.34 12.62-2.95 6.59-5.9 13.24-9.06 19.72-2.46 5.03-4.89 9.99-7.9 14.72-.65 1.05-1.31 2.07-2.03 3.08-.67.94-1.29 1.69-1.8 2.31-.54.6-1 1.07-1.41 1.43-.81.72-1.48.95-2.13 1.01-.3.03-.64.11-.87.06-.38-.07-.36-.54-.01-1.32.16-.4.44-.84.78-1.37.33-.53.74-1.13 1.21-1.78 5.53-7.87 10.09-17.06 14.38-26.48 3.2-7 6.14-14.17 9.63-21.29l.08.03Z" class="cls-2"/><path d="M337.25 150.37s7.6-5.03 8.41-4.1 58.02 61.1 58.02 61.1l-8.55 3.69-30.38-34.42s2.95-3.5 1.31-5.51-8.34-1.64-8.34-1.64l-20.45-19.11ZM301.62 303.94l-5.66 7.68-1.98 2.85c-2.41 3.3-4.73 6.64-6.93 10.07-.98 1.51-1.94 3.06-2.78 4.64-1.16 2-2.02 4.11-3.06 6.19-.33.65-.26.57-.15-.03.13-.59.05-1.83.56-3.09 1.58-4.54 3.65-8.9 6.45-12.79 1.63-2.35 3.14-4.91 4.76-7.34 1.79-2.66 3.61-5.3 5.44-7.93l3.39-4.84c1.69-2.46 3.4-4.91 4.94-7.43.61-.97 1.14-1.98 1.67-2.98.54-1 1.04-2 1.52-3.02.22-.44.42-.88.66-1.32.81-1.64 1.23-2.08 2.03-2.15.18-.02.38-.06.54-.04.56.05.63.93.17 2.28-1.36 4-3.66 7.72-6.03 11.34-1.78 2.69-3.64 5.32-5.49 7.95l-.06-.03ZM296.17 230.46c-1.8-2.93-8.14-4.11-13.51 2.63-5.36 6.74 8.69-10.48 8.69-10.48l4.82 7.85ZM312.97 233.09s10.03 9.65 8.12 12.63-12.54-4.76-12.54-4.76l4.42-7.87ZM175.9 402.94c-1.99-2.16-3.87-4.42-5.7-6.71-.67-.83-1.35-1.66-2-2.51-2.22-3.05-4.28-6.21-6.18-9.45-.84-1.44-1.69-2.88-2.49-4.33-.51-.93-1.05-1.85-1.54-2.79l-.35-.72-.27-.76c-.17-.51-.36-1.01-.5-1.52-.12-.67-.02-.62.51-.26.27.18.61.45 1 .78.19.17.4.35.6.56.11.1.2.21.31.31.08.12.16.25.23.38 1.08 1.84 2.15 3.68 3.28 5.49.28.45.54.92.8 1.39l.82 1.38c.54.92 1.07 1.86 1.63 2.77.66 1.1 1.39 2.2 2.2 3.24.78 1.07 1.61 2.1 2.43 3.13 1.77 2.29 3.65 4.49 5.6 6.65 1.21 1.31 2.43 2.62 3.7 3.88 1.9 1.93 3.86 3.82 5.9 5.58 1.6 1.35 3.27 2.56 4.84 3.89.35.29.7.57 1.05.86 1.3 1.1 1.63 1.56 1.68 2.09.01.12.05.25.04.35-.03.31-.74.09-1.84-.56-1.6-.97-3.27-1.97-4.85-3.12a89.292 89.292 0 0 1-4.56-3.77c-1.11-.97-2.19-1.99-3.27-3-1.06-1.04-2.1-2.09-3.11-3.18l.04-.04ZM133.86 294.13c2.04-2.69 4.33-5.19 6.65-7.62l2.61-2.61c3.19-2.93 6.67-5.53 10.28-7.9 1.6-1.05 3.2-2.11 4.85-3.05 2.12-1.19 4.26-2.39 6.55-3.23.72-.25.66-.13.19.34-.46.5-1.36 1.32-2.54 2.04l-3.08 2.01-1.51 1.05-1.55.98c-1.01.68-2.02 1.37-3.04 2.05-1 .71-2 1.42-3 2.14-2.34 1.78-4.64 3.82-6.77 5.95l-1.77 1.75-1.69 1.82c-1.16 1.19-2.17 2.51-3.26 3.77-.65.79-1.25 1.62-1.87 2.43l-.93 1.22-.86 1.27c-.88 1.28-1.76 2.56-2.55 3.9l-1.21 1.99-1.11 2.04c-1.17 2.09-2.02 4.3-2.99 6.45-.19.49-.38.96-.57 1.45-.75 1.8-1.12 2.31-1.76 2.5-.14.04-.3.12-.43.12-.44.03-.42-.83.04-2.21 1.31-4.11 3.28-8.23 5.54-12.21.88-1.45 1.74-2.93 2.73-4.32l1.44-2.11 1.54-2.05.04.03ZM188.13 293.24c-1.25-1.9-2.55-3.79-4.09-5.47l-.85-.92-.9-.86c-2.04-2.1-4.3-4.06-6.84-5.59-.55-.37-1.13-.68-1.72-.98-.59-.29-1.17-.62-1.77-.87l-2.31-1.04c-.79-.3-1.57-.62-2.36-.94-.49-.21-.4-.27.06-.25.46.02 1.32.06 2.3.27.86.21 1.7.49 2.55.75.85.26 1.62.71 2.44 1.07.82.35 1.56.84 2.34 1.29.78.43 1.49.97 2.21 1.5 1.72 1.27 3.49 2.61 5.06 4.14 1.67 1.72 3.25 3.54 4.61 5.51.88 1.18 1.62 2.45 2.41 3.69.54.97 1.09 1.94 1.59 2.93.46 1.01.99 1.98 1.43 2.99.35.78.73 1.54 1.1 2.3l1.03 2.32c.15.34.29.68.41 1.04.45 1.32.46 1.79.05 2.22-.09.1-.18.22-.28.29-.34.24-.84-.19-1.27-1.1-1.29-2.68-2.49-5.51-3.89-8.27a68.132 68.132 0 0 0-3.36-6.01l.04-.03ZM212.6 447.77l.06-1.81c0-.22-.04-.44-.03-.66 0-.77.08-1.55.12-2.33.01-.34 0-.69-.03-1.02-.07-.43 0-.87.09-1.31.03-.14.09-.12.2-.01.1.11.32.31.46.55.13.21.18.43.22.65.05.22.09.44.13.66.07.44.12.88.11 1.32 0 .53.1 1.08.15 1.62.03.6.07 1.2.1 1.8.02.37.03.74.05 1.11.02.56.02 1.12.1 1.67.07.43.2.83.26 1.26.02.09.04.18.05.28.02.35-.07.47-.41.59-.08.03-.15.06-.23.08-.26.07-.5-.05-.63-.29-.2-.36-.37-.74-.5-1.12-.09-.39-.14-.8-.18-1.2-.05-.6-.11-1.21-.1-1.82h.04ZM233.87 432.37c-1.19.14-2.37.32-3.56.31-.6 0-1.19.06-1.78.03l-1.77-.12c-.86-.02-1.71-.16-2.56-.28a38.87 38.87 0 0 1-8.6-2.6c-.62-.23-1.2-.55-1.8-.82-.59-.29-1.2-.54-1.76-.87-.73-.41-1.48-.79-2.19-1.23-.69-.47-1.37-.98-2.04-1.47-.42-.31-.32-.32.11-.19.43.14 1.24.36 2.11.75 1.53.69 3.05 1.39 4.62 1.93.39.14.77.31 1.15.47l1.17.41c.78.29 1.56.58 2.36.81.48.15.96.29 1.45.42.49.12 1 .18 1.5.27.51.07 1.01.18 1.52.22l1.52.12.83.08h.84l1.67.04 1.67-.09c.56-.03 1.12-.05 1.67-.15.68-.11 1.36-.18 2.04-.31l2.01-.49c1-.28 1.99-.65 2.97-1 .94-.45 1.92-.83 2.81-1.37.69-.43 1.36-.86 2-1.34l1.83-1.53c.28-.21.5-.48.76-.71.97-.87 1.4-1 2.07-.68.15.07.32.13.45.22.45.3.31.98-.37 1.75-.98 1.18-2.21 2.17-3.49 3.12-1.35.85-2.74 1.69-4.26 2.31-1.08.54-2.27.85-3.41 1.25-.57.19-1.18.29-1.77.44-.59.12-1.17.31-1.78.37v-.05ZM210.24 394.8c-.25-.75-4.71-10.4-3.58-12.99s1.05-14.02 1.05-14.02l2.53 27.01ZM218.92 353.13s-6.04-3.13-7.43 6.68c-.9 6.4-1.95-11.69 0-11.87s7.43 5.2 7.43 5.2ZM236.42 350.79s11.53 2.34 13.73 6.36c2.36 4.31-11.7 2.07-11.7 2.07l-2.03-8.43Z" class="cls-2"/><path d="M229.86 356.69c-1.44-.64-2.85-1.36-4.26-2.07-.51-.26-1.06-.45-1.56-.74-1.78-1-3.55-2.02-5.19-3.26-.74-.54-1.49-1.06-2.21-1.63-.47-.36-.9-.79-1.29-1.26-.19-.23-.38-.49-.51-.77-.11-.31-.22-.6-.27-.92-.06-.4.08-.37.44-.22.17.07.42.16.71.23.14.04.29.07.44.12.13.06.26.13.36.21.42.3.86.56 1.32.83.43.3.88.59 1.34.88.91.59 1.88 1.13 2.79 1.83 1.11.8 2.45 1.3 3.71 1.9 1.39.66 2.8 1.31 4.22 1.93.87.39 1.75.77 2.64 1.12 1.35.54 2.69 1.09 4.07 1.51 1.07.33 2.18.46 3.26.68.24.05.48.07.72.14.88.24 1.1.5 1.08 1.24 0 .17 0 .34-.01.51-.07.55-.56.89-1.26.87-2.09-.02-4.12-.65-6.13-1.34-1.49-.52-2.97-1.13-4.43-1.73l.02-.06ZM234.63 261.77c-.79.57-1.61 1.1-2.46 1.57-.3.18-.6.36-.92.51-1.14.51-2.3.93-3.48 1.26l-1.55.48c-.66.18-1.35.32-2.04.31-.22 0-.22-.18-.08-.4.14-.22.41-.53.76-.67.62-.28 1.24-.5 1.87-.71.62-.21 1.24-.43 1.89-.65.77-.25 1.47-.73 2.17-1.15.77-.46 1.55-.93 2.27-1.48.45-.33.89-.68 1.31-1.05.63-.56 1.24-1.16 1.76-1.83.39-.53.67-1.12.95-1.69.06-.13.12-.26.18-.38.25-.46.44-.54.93-.39.11.03.22.06.33.1.35.14.5.49.38.91-.34 1.25-1.14 2.35-2.04 3.32-.67.73-1.42 1.38-2.2 1.99l-.03-.03ZM242.62 167.98c21.74-9.04 21.91-43.69 10.16-54.21-6.81-6.1-11.66-7.34-20.35-8.97 0 0-20.32-3.74-30.19 3.6-9.87 7.34-15.69 11.59-18.58 15.57s-8.39 11.74-8.62 15.87c-.23 4.13-1.62 9.82-1.62 9.82s-9.93-4.57-19.18-4.4c-15.53.28-36.4 12.63-37.83 38.2 0 0-.37 15.56 8.39 25.31 8.75 9.75 18.69 16.65 22.67 17.91 3.99 1.26 7.06 0 7.06 0s-4.24-7.73-1.83-12.46 4.47-9.73 9.07-9.63 11.55 3.86 11.55 3.86 12.93-4.46 15.88-8.38 7.26-12.7 7.87-16.61c.62-3.91 1.26-14.52-.13-17.92-1.39-3.4 11.45 3.76 13.55 4.28s18.14 1.75 22.63 1.3 9.48-3.15 9.48-3.15ZM282.04 236.49c-1.51 1.97-2.97 4-4.35 6.08-.51.75-.91 1.58-1.41 2.34-1.76 2.69-3.45 5.44-5.07 8.24-.72 1.24-1.33 2.55-1.95 3.83-.38.83-.74 1.67-1.14 2.5-.2.41-.38.83-.62 1.23-.25.39-.51.78-.77 1.16-.35.47-.64.26-.87-.36-.11-.31-.22-.73-.28-1.22-.08-.49-.06-1.02.13-1.52 1.26-3.57 2.78-7.06 4.84-10.29 1.25-1.92 2.24-4.08 3.43-6.09 1.31-2.21 2.72-4.36 4.17-6.48.9-1.3 1.82-2.59 2.76-3.86 1.4-1.95 2.95-3.79 4.39-5.68 1.15-1.45 2.12-3.01 3.26-4.48.25-.33.46-.67.74-.98 1.02-1.14 1.57-1.28 2.49-.8.21.11.44.2.62.34.63.45.66 1.34.1 2.27-1.72 2.72-3.81 5.24-5.85 7.89-.75.99-1.52 1.96-2.29 2.94-.75 1-1.53 1.97-2.25 3l-.08-.05ZM366.44 188.92c-1.05-.39-2.05-1.15-2.71-1.85-.25-.27-.54-.49-.75-.79-.76-1.04-1.25-2.15-1.71-3.2-.19-.48-.41-.93-.62-1.38-.14-.29-.28-.57-.4-.86-.1-.3-.18-.61-.22-.95.04-.24.14-.26.45-.24.31.03.77.13 1.05.39.85 1 1.61 1.95 2.08 3.05.3.66.89 1.12 1.39 1.56.28.25.56.49.86.71.3.24.55.38.88.53.39.18.83.3 1.26.36.64.06 1.35.1 1.82-.23.38-.25.48-.68.5-1.06 0-.08-.03-.19-.01-.27.05-.3.24-.38 1.08-.37h.57c.64 0 1.13.29 1.22.84.1.79-.11 1.76-.75 2.55-.63.79-1.55 1.3-2.41 1.52-1.31.38-2.52.1-3.6-.25l.02-.07Z" class="cls-2"/><path d="M365.56 187.89c-.07.47-.28.92-.59 1.28-.33.35-.71.61-1.17.77-.86.35-2.11.22-2.88.05-.56-.15-1.03-.27-1.47-.5-1.51-.82-2.64-1.9-3.66-3.07-.45-.52-.92-1-1.36-1.52-.55-.65-1.23-1.33-1.2-2.39.04-.33.22-.32.63-.26.45.05 1.03.1 1.35.36.97 1.1 2.16 2.13 3.25 3.22.64.7 1.55 1.09 2.34 1.38.23.1.41.15.61.2.18.05.23.06.36.09.22.02.53.05.73-.13.24-.25.13-.61.01-.95-.04-.11-.16-.36-.27-.58l-.36-.68a18.8 18.8 0 0 0-.83-1.35c-.46-.7-1.07-1.3-1.55-2.14-.11-.18-.23-.38-.31-.6-.29-.87-.01-1.4.76-1.43.18-.01.35-.02.52 0 .29.04.54.16.75.23.2.08.37.13.47.24.62.67 1.5 1.87 2.32 3.18.31.49.62 1.02.91 1.61.19.4.45.96.58 1.47.15.52.18 1.03.12 1.52l-.07-.02ZM250.53 273.26c-.87-.37-2.32-.45-3.71-.1-.52.09-1.01.38-1.53.52-1.85.63-3.71 1.54-5.48 2.6-.8.45-1.55 1.01-2.28 1.56-.92.74-1.84 1.51-3.16 1.79-.47-.02-.44-.1-.41-.61.01-.27.06-.56.12-.92.06-.37.18-.71.41-.97.37-.5.84-.89 1.32-1.28.48-.39.96-.77 1.47-1.14.99-.75 2.12-1.35 3.29-1.87 1.4-.62 2.74-1.5 4.26-2.05 1.66-.59 3.52-1.01 5.46-.68 1.2.17 2.42.84 3.22 1.71 1.26 1.33 1.84 2.93 2.35 4.45.39 1.19.81 2.34 1.07 3.56.06.27.13.53.17.8.1 1.02-.18 1.36-.87 1.58-.16.05-.32.11-.48.14-.54.09-.99-.29-1.27-.93-.69-1.91-1.11-3.91-1.87-5.59-.28-.62-.61-1.15-.95-1.6-.36-.44-.74-.71-1.15-.89l.02-.07Z" class="cls-2"/><path d="M248.32 266.17c-1.51-.53-3.2-.46-5 .17-.65.2-1.27.55-1.92.82-2.29 1.01-4.52 2.31-6.65 3.76-.95.65-1.83 1.39-2.68 2.14-1.16.9-2.16 1.95-3.45 2.74-.43.22-.43.15-.35-.3.05-.22.05-.6.18-.95s.31-.74.57-1.1c.47-.62.96-1.23 1.47-1.82.53-.57 1.12-1.07 1.72-1.57 1.19-.99 2.45-1.91 3.81-2.69 1.63-.92 3.22-2.06 5-2.88.97-.47 2.01-.83 3.08-1.12.56-.1 1.11-.25 1.7-.26l.87-.05c.29.01.58.05.87.07 1.41.15 2.8.62 3.97 1.41 1.82 1.13 3.1 2.91 3.92 4.8.63 1.48 1.07 3.09.94 4.81-.03.37-.02.75-.15 1.12-.1.34-.19.62-.29.85-.12.22-.26.37-.39.48-.28.22-.58.26-.98.18-.18-.04-.38-.06-.55-.13-.57-.24-.79-.91-.65-1.59.28-2.11-.14-4.21-1.34-6.03-.92-1.29-2.19-2.4-3.72-2.82l.02-.07Z" class="cls-2"/><path d="M210.21 293.64c-.56-1.91-1.13-3.83-1.43-5.92-.1-.51-.14-1.05-.18-1.6l-.06-.81c0-.28.02-.57.03-.86.02-.58.05-1.15.18-1.7l.16-.83.23-.79c.63-2.11 1.62-3.97 2.72-5.7 1.11-1.73 2.36-3.32 3.69-4.82 1.93-2.2 3.95-4.28 6.14-6.17.93-.81 1.89-1.58 2.87-2.34.2-.16.6-.47.95-.66.36-.2.72-.36 1.05-.49.67-.26 1.25-.41 1.76-.59 1.03-.35 1.76-.76 2.65-1.48.87-.69 1.74-1.49 2.65-2.3.91-.81 1.85-1.65 2.97-2.41.27-.19.59-.38.87-.54l.8-.45 1.63-.87c1.1-.56 2.22-1.1 3.41-1.57l.46-.17.23-.08.33-.1c.44-.15.89-.25 1.33-.33.89-.13 1.75-.03 2.41.54.15.17.3.33.44.51l.36.56c.33.72.41 1.52.31 2.33-.11.4-.17.81-.34 1.2-.19.44-.29.67-.45.95-.6 1.1-1.31 2.02-2.04 2.91-1.47 1.76-3.04 3.35-4.61 4.91-4.02 4.01-8.09 7.8-12.17 11.56-1.38 1.11-1.17 1.03-.71-.49.41-1.55 1.57-4.34 3.78-6.8 1.36-1.46 2.72-2.91 4.12-4.29 1.4-1.37 2.8-2.73 4.14-4.11 1.32-1.37 2.64-2.77 3.64-4.18.26-.35.48-.7.67-1.03.09-.16.2-.34.25-.48.02-.03.02-.01.03-.04.04-.05.07-.16.02-.24-.05-.09-.14-.07-.26-.07.04-.02-.27.09-.42.14-.19.06-.38.14-.57.21-.39.15-.78.31-1.17.49-.79.35-1.58.72-2.37 1.12-.77.4-1.65.83-2.23 1.19-1.26.8-2.53 1.99-3.87 3.17-.68.6-1.37 1.21-2.17 1.8-.8.6-1.81 1.14-2.73 1.47-.93.35-1.79.58-2.33.86-.4.18-1.19.89-1.84 1.41a80.249 80.249 0 0 0-3.9 3.46c-2.76 2.6-5.31 5.45-7.29 8.58-.97 1.57-1.78 3.23-2.2 4.92-.07.42-.17.85-.23 1.27l-.06 1.28.1 1.34c.05.45.14.91.21 1.36.88 4.52 2.61 9.03 4.17 13.56 1.18 3.45 2.36 6.94 3.02 10.64.15.93.3 1.86.33 2.82.11.94.03 1.95-.03 2.85-.14 1.84-.34 3.64-.53 5.44-.6 5.58-1.2 11.05-1.79 16.57-.14 1.21-.25 2.4-.41 3.62-.58 4.52-1.09 5.91-2.08 6.76-.22.19-.45.46-.64.56-.62.35-1.03-1.58-.79-4.92.38-4.95.91-10 1.48-15.12.3-2.55.6-5.12.9-7.7.14-1.28.27-2.56.41-3.84.1-1.26.25-2.56.19-3.6-.16-3.42-1.25-7.1-2.44-10.73-1.19-3.65-2.58-7.31-3.8-11.12l.08-.03ZM156.52 237.46c-.35.47-.82.89-1.23 1.32-.46.4-.92.79-1.44 1.11-.38.23-.66.58-1.07.75-1.39.72-2.91 1.01-4.33 1.09-.32.01-.63.05-.94.09-.31.04-.61.04-.92.07-.79.08-1.57-.05-2.31-.38-.23-.11-.16-.49.06-.93.22-.43.58-1 .96-1.15.34-.1.67-.26.98-.38.31-.07.65-.08.95-.16.3-.07.61-.12.93-.14.3-.06.6-.12.94-.12.39-.02.74-.2 1.08-.36l.94-.66c.68-.48 1.34-1.05 1.94-1.71.36-.42.73-.85 1.01-1.35.46-.73.87-1.53 1.11-2.38.16-.67.08-1.39.06-2.09 0-.15-.04-.31-.03-.46.02-.28.09-.45.31-.54.24-.09.58-.1 1.08-.08.23.01.46.01.68.03.37.04.7.14.98.3.27.16.52.39.57.63.41 1.47.1 2.98-.46 4.43a15.15 15.15 0 0 1-1.76 3.09l-.08-.05ZM229.54 193.02c.36 1.16.64 2.13 1.07 3.13.2.5.41.99.67 1.47.24.49.49.96.79 1.42.39.69.95 1.25 1.4 1.9 1.71 2.15 3.72 4.22 6.32 5.33 1.12.55 2.37.79 3.59.94.79.03 1.58.03 2.39.03h.61c.21.04.42.08.63.08.42.03.82-.06 1.24-.08.52-.03.53.21.17.6-.18.2-.46.44-.81.7-.35.26-.76.76-1.29.86l-.69.22c-.23.08-.47.15-.71.15l-1.45.07c-.96-.06-1.95-.1-2.89-.36a13.1 13.1 0 0 1-5.19-2.49c-1.81-1.38-3.63-2.87-5.01-4.71-1.52-2-2.7-4.23-3.54-6.56-.5-1.4-.94-2.75-1.42-4.14-.72-2.09-1.32-4.23-2-6.34-.51-1.64-1.17-3.22-1.62-4.93-.1-.38-.21-.75-.29-1.14-.23-1.47.04-2 1-2.3.22-.07.44-.16.66-.19.76-.11 1.36.42 1.64 1.3.88 2.75 1.78 5.57 2.69 8.42.71 2.17 1.4 4.38 2.16 6.61l-.08.03Z" class="cls-2"/><path d="M210.62 260.72c5.38.85 10.98.64 15.98-1.34 1.83-.7 3.46-1.79 5.07-2.88 1.36-1.06 2.68-2.15 3.79-3.48 1.11-1.31 2.08-2.76 2.89-4.31 1.64-3.1 2.62-6.58 3.2-10.14.51-3.16.57-6.42.42-9.62-.11-2.06-.33-4.11-.52-6.18-.08-1.03-.25-2.06-.26-3.11v-1.58c.01-.53.07-1.07.1-1.61.16-1.37.22-1.16.79-.13.28.52.81 1.23 1.29 2.12.24.45.54.93.74 1.46.17.54.31 1.11.41 1.72.78 4.29.96 8.72.71 13.15-.28 4.43-1.14 8.93-3.02 13.1-1.13 2.48-2.5 4.94-4.28 7.15-1.8 2.19-3.96 4.07-6.35 5.55-5.3 3.25-11.6 4.3-17.56 3.96-3.69-.18-7.31-.9-10.81-1.93-5.31-1.55-10.32-3.97-14.99-6.8-3.62-2.22-7.08-4.61-10.12-7.65-.65-.69-1.33-1.33-1.92-2.1-1.09-1.42-1.63-2.52-1.88-3.33-.28-.8-.18-1.39.03-1.89.1-.23.18-.5.31-.65.22-.26.6-.12 1.06.31.45.43 1.05 1.13 1.78 2.02 4.43 5.29 10.63 9.73 17.33 13.04 4.98 2.46 10.34 4.26 15.79 5.06v.09ZM188.85 196.09c1.93-2.23 3.5-4.85 4.71-7.65.24-.51.4-1.04.57-1.57.18-.53.35-1.06.51-1.59 1.28-3.74 1.96-7.72 2.13-11.73.06-1.78-.1-3.57-.37-5.31-.3-2.27-1.02-4.34-1.37-6.67-.13-.73-.03-.7.55-.3.29.2.75.48 1.25.87.48.4.92.95 1.25 1.6 1.04 2.35 1.72 4.84 1.86 7.36.19 2.51.12 5.04-.37 7.51-.54 2.95-.98 6.03-1.96 8.95-1.08 3.19-2.58 6.27-4.52 9.05-1.21 1.7-2.6 3.27-4.11 4.71-2.32 2.16-5.06 3.84-7.9 5.13-.56.24-1.11.49-1.66.75l-1.69.65c-.56.24-1.14.4-1.71.58-.58.17-1.16.38-1.75.46-.52.09-1.03.22-1.57.29-1.98.24-2.64-.15-3.07-1.01-.1-.19-.23-.35-.28-.51-.1-.27.05-.52.37-.87.32-.36.83-.64 1.47-.81 3.82-1.13 7.58-2.23 10.95-4.24 2.49-1.49 4.74-3.41 6.62-5.7l.08.05ZM115.01 190.42a50.728 50.728 0 0 1 1.95-24.52c.91-2.88 2.18-5.65 3.65-8.3 2.75-4.59 6.38-8.64 10.66-11.81 1.03-.84 2.18-1.52 3.31-2.22 1.1-.75 2.33-1.26 3.5-1.89 2.4-1.15 4.99-2.06 7.61-2.5.58-.13 1.16-.23 1.75-.29l1.76-.22c1.18-.05 2.35-.17 3.53-.12l1.76.04c.59.02 1.17.1 1.75.14 1.17.07 2.32.31 3.48.48 2.94.58 5.84 1.52 8.53 2.94.67.36 1.35.71 1.96 1.17.61.46 1.31.8 1.81 1.42.55.55 1.09 1.09 1.5 1.75.44.63.89 1.24 1.23 1.93.87 1.68.6 1.47-.64.53-.58-.5-1.63-.99-2.81-1.48-1.25-.42-2.5-1.01-3.83-1.74-2.38-1.26-5.01-2.09-7.7-2.63-2.68-.57-5.43-.83-8.18-.78-2.75.05-5.48.43-8.1 1.18-.33.09-.66.17-.99.28l-.95.36c-.64.23-1.28.46-1.91.79l-1.91.91c-.65.29-1.22.7-1.85 1.04-1.5.8-2.84 1.88-4.2 2.93-.64.58-1.28 1.17-1.92 1.75-.64.59-1.18 1.27-1.78 1.91-2.29 2.64-4.2 5.61-5.75 8.74-3.34 6.93-4.74 14.8-4.35 22.58.26 4.79 1.24 9.51 3.06 13.97 1.43 3.34 3.16 6.57 5.29 9.55.51.76 1.12 1.44 1.67 2.17l.85 1.07c.29.35.62.67.92 1.01l1.87 1.99 2.02 1.83c4.26 3.7 9.13 6.49 14.31 8.39 1.16.38 2.3.71 3.45 1.11 4.37 1.19 5.77 1.44 6.61 2.58.19.24.47.48.57.69.18.35-.21.57-1.11.73-.45.09-1.02.1-1.71.08-.68-.02-1.48-.07-2.34-.27-5.19-.93-10.37-2.91-15.1-5.77-4.74-2.85-9.06-6.56-12.67-10.89-2.74-3.17-4.96-6.79-6.79-10.57-1.86-3.78-3.12-7.86-3.86-12.02l.09-.03ZM105.48 375.43c2.36-10.68 4.81-21.34 7.51-31.95l1.47-5.81c.5-1.94 1.05-3.87 1.59-5.79 3.99-13.51 9.16-26.94 17.3-38.67 3.6-5.18 7.76-10.05 12.47-14.21 6.05-5.3 13.01-9.91 20.81-12.05 1.24-.26 1.79-.32 1.79-.21 0 .11-.52.44-1.37 1.15-.84.72-2.09 1.54-3.53 2.63-1.41 1.14-3.19 2.17-5.05 3.39-6.77 4.03-12.79 9.18-17.93 15.16-5.13 6.01-9.29 12.87-12.86 20.09a41.28 41.28 0 0 0-1.53 3.3c-.48 1.12-.99 2.23-1.44 3.38-.87 2.3-1.79 4.6-2.55 6.97-1.64 4.7-2.95 9.54-4.29 14.33-2.86 10.57-5.34 21.28-7.74 32-1.48 6.6-2.9 13.22-4.26 19.84-2.08 10.03-4.13 20.12-5.95 30.12-1.43 7.78-2.6 15.44-3.82 23.16-.26 1.7-.52 3.36-.79 5.08-1.05 6.34-1.59 8.32-2.7 9.53-.24.28-.49.66-.7.82-.65.54-.96-2.2-.33-6.88 1.81-13.89 4.41-28.41 7.21-42.95 2.08-10.8 4.3-21.63 6.62-32.42h.08ZM192.2 291.09c2.23 3.6 3.91 7.43 5.35 11.26.51 1.41 1.09 2.82 1.5 4.27 1.43 5.12 2.27 10.29 2.93 15.43.31 2.28.69 4.55 1.09 6.78.25 1.43.51 2.87.76 4.3l.18 1.08.1 1.09c.06.73.13 1.46.14 2.2 0 .93-.22.86-.8.2-.57-.66-1.66-1.89-2.18-3.52-.38-1.46-.75-2.92-1.08-4.38-.32-1.46-.59-2.93-.86-4.4-.52-2.94-1.02-5.86-1.44-8.79-.49-3.52-1.6-7.04-2.75-10.42-1.32-3.7-2.81-7.42-4.7-10.85-1.19-2.1-2.47-4.16-4.04-5.99-2.3-2.83-5.08-5.31-8.15-7.29-2.38-1.57-4.99-2.63-7.59-3.71-.58-.23-1.16-.41-1.72-.68-.52-.25-.96-.45-1.32-.65-.35-.21-.6-.46-.8-.67-.41-.43-.58-.83-.66-1.3-.04-.22-.11-.44-.11-.62 0-.6 1.1-.76 2.93-.55 2.59.6 5.11 1.67 7.6 2.93 2.49 1.24 4.89 2.84 7.15 4.63 3.34 2.69 6.28 5.99 8.57 9.6l-.07.06ZM234.9 346.64l.17-5.64c.02-.68-.03-1.37.01-2.05.12-2.41.45-4.81.67-7.2l.24-3.18.19-2.03c.05-.68.3-1.34.46-2 .12-.41.22-.35.4.02.09.19.21.45.34.76.06.16.13.33.19.51.03.09.05.18.09.28l.02.29c.19 2.76.17 5.48-.05 8.23-.13 1.65.05 3.37.05 5.05.02 1.85.03 3.71.09 5.57.03 1.14.07 2.29.13 3.43.11 1.73.15 3.48.38 5.19.17 1.33.54 2.61.82 3.91.06.29.15.56.19.85.04.27.06.49.06.69-.02.19-.09.36-.16.49-.15.27-.39.45-.74.61-.16.07-.31.16-.47.22-.51.17-1.06-.21-1.5-.97-.93-2.29-1.21-4.81-1.44-7.34-.18-1.88-.19-3.78-.22-5.68h.07ZM211.17 365.91c-.25 2.49-.47 5-.54 7.51-.04.92.02 1.83-.01 2.75-.12 3.24-.16 6.5 0 9.75.05 1.45.19 2.89.33 4.32.1.92.21 1.83.31 2.75.07.92.05 1.86.04 2.79-.02.58-.22.53-.56.09-.33-.45-.91-1.28-1.25-2.31-.79-3.72-1.4-7.49-1.41-11.34-.03-2.3-.33-4.67-.41-7.02-.06-2.58 0-5.17.14-7.76.07-1.59.21-3.18.33-4.76.09-1.2.24-2.4.36-3.6l.42-3.58c.11-.92.17-1.84.22-2.77l.2-2.76c.03-.41.04-.81.11-1.21.25-1.5.61-1.92 1.55-2.06.21-.03.43-.08.64-.08.7 0 1.15.72 1.19 1.82.02 3.27-.39 6.6-.72 9.96-.33 2.48-.64 4.99-.84 7.5h-.08Z" class="cls-2"/><path d="M203.24 422.37c3.86 2.47 7.96 4.55 12.25 6.08 4.29 1.53 8.81 2.39 13.37 2.5.83 0 1.67.06 2.5 0l2.49-.17 2.35-.39 2.25-.68c2.6-.95 4.91-2.62 6.8-4.75 1.9-2.13 3.39-4.67 4.59-7.35 2.41-5.4 3.66-11.35 4.46-17.32.69-5.32.94-10.73.91-16.08 0-3.43-.18-6.87-.26-10.32l-.17-5.17-.08-2.59c-.01-.86.11-1.74.15-2.61.21-2.18.1-1.87.59-.08.22.9.81 2.15 1.09 3.7.34 1.55.67 3.37.87 5.36.39 3.53.56 7.08.63 10.64.07 3.56.03 7.13-.17 10.71-.19 3.58-.55 7.16-1.18 10.72-.62 3.56-1.46 7.11-2.7 10.57-1.5 4.11-3.45 8.27-6.46 11.83-1.55 1.73-3.33 3.32-5.39 4.51-2.08 1.12-4.32 2.02-6.65 2.31-9.91 1.48-19.97-.76-28.68-5.18-2.67-1.39-5.27-2.91-7.71-4.65-2.47-1.69-4.81-3.56-7.07-5.5-6.84-5.92-12.74-12.82-18.09-19.94-4.14-5.55-8.04-11.12-11.61-16.98-.78-1.29-1.57-2.54-2.31-3.87-2.75-4.93-3.28-6.68-2.95-8.19.08-.34.12-.77.24-1.01.45-.82 2 .96 4.08 4.45 6.21 10.33 13.04 21.04 21.22 30.67 6.07 7.11 12.85 13.74 20.68 18.69l-.04.08ZM390.2 203.76l2.67 3.02 1.33 1.54.67.79.33.41c.08.09.31.4.26.34.02.04.04.05.1.08l.75.36 1.57.73 3.18 1.46 2.57 1.2.6.32c.13.11.05-.07.05-.13l-.06-.25-.08-.26-.04-.14-.11-.34c-.6-1.72-1.22-3.44-1.85-5.15l-.44-1.19s-.03-.05-.05-.07l-.16-.16-.53-.54-2.13-2.13-4.23-4.28c-9.85-10.16-19.67-20.36-29.39-30.65-2.17-2.27-4.34-4.55-6.51-6.82-1.09-1.13-2.18-2.27-3.26-3.4l-3.18-3.45c-2.74-2.93-5.37-5.96-8.18-8.86-.69-.74-1.38-1.46-2.04-2.28-.15-.22-.24-.33-.39-.49-.19.05-.37.13-.55.22-.72.39-1.61.92-2.42 1.44-.83.52-1.64 1.11-2.51 1.64-1.1.65-1.67.82-1.71.68-.05-.15.37-.62 1.01-1.51.65-.88 1.57-2.09 2.9-3.5.33-.37.73-.68 1.17-1.02l.18-.13c.07-.05.18-.14.28-.18l.63-.34c.43-.19.88-.35 1.34-.52l.35-.12.09-.03s.04.04.07.05l.13.12.52.5c.36.31.69.78 1.04 1.2.18.23.36.46.55.69.15.21.34.43.52.65 1.3 1.54 2.5 3.18 3.96 4.61l4.31 4.33 4.36 4.3 4.22 4.45c5.62 5.94 11.28 11.87 16.86 17.93 6.69 7.23 13.98 14.45 21.01 21.67l3.22 3.3 1 1.02c.13.26.25.63.32.82l.2.54.8 2.17.78 2.18.89 2.55c.4 1.17.79 2.37 1 3.4l.34 1.54.16.79c.09.34-.01.37-.03.54-1.73-.86-3.5-1.75-5.17-2.53l-3.62-1.63-3.2-1.41-1.61-.72-.82-.38c-.37-.22-.81-.41-1.07-.78l-.29-.37-.26-.31c-4.44-5.07-9.15-10.06-13.79-15.04-5.4-5.76-10.81-11.54-16.17-17.27-.12-.18-.31-.33-.39-.53l-.17-.28-.09-.32c-.09-.43-.07-.87.02-1.31.21-.96.48-1.45.72-2.06l.26-.64c.06-.17.12-.33.16-.5.1-.32.05-.76-.29-.92-.36-.17-.76-.19-1.14-.22-.55-.03-1.3-.03-1.97-.03-.69 0-1.39 0-2.15-.07-.66-.06-1.87-.22-2.54-.97-3.67-3.71-7.28-7.37-10.91-11.04-1.22-1.24-2.4-2.46-3.59-3.74-2.2-2.39-3.61-4-4.49-5.24-.85-1.26-1.23-2.1-1.41-2.88-.08-.36-.23-.79-.21-1.03.05-.38.5-.19 1.48.5.97.69 2.45 1.84 4.15 3.49 2.9 2.77 5.9 5.54 8.77 8.49 1.45 1.47 2.9 2.95 4.37 4.43l4.27 4.39h.04c-.14-.04.2.03.39.05.48.05 1.09.06 1.72.07.63 0 1.31 0 2.03.04.13 0 .48.01.8.06l.95.12c.31.06.6.16.9.24.3.09.53.24.8.36.46.32.95.64 1.21 1.17.17.24.27.5.4.76.06.28.17.54.16.84.03.29.03.58-.02.88-.02.3-.09.6-.18.91-.07.31-.19.61-.3.92-.11.3-.25.66-.3.75l-.36.86c-.06.14-.1.25-.13.36-.02.04 0 .02 0 .03l2.12 2.24c7.64 8.03 15.09 16.29 22.56 24.55l-.05.07ZM313.3 227.32c.81-1.68 1.66-3.35 2.54-5.02.31-.61.56-1.26.9-1.86 1.19-2.13 2.47-4.22 3.85-6.23l.89-1.35c.29-.45.57-.92.89-1.34.8-1.11 1.46-2.35 2.82-3.02.4-.23.39-.16.38.29-.03.43.21 1.43-.16 2.1-1.3 2.4-2.74 4.62-4.26 6.91-.93 1.35-1.51 2.98-2.22 4.5l-2.31 5.09-1.44 3.16c-.72 1.6-1.49 3.19-2.18 4.8-.52 1.26-.9 2.55-1.36 3.83-.1.28-.19.56-.31.84-.47 1.01-.83 1.22-1.7 1.03-.2-.04-.4-.07-.59-.14-.64-.22-.92-.88-.73-1.67.55-2.35 1.57-4.58 2.58-6.85.77-1.69 1.55-3.38 2.33-5.07l.07.03Z" class="cls-2"/><path d="M305.05 236.67c2.03 1.91 4.21 3.68 6.57 5.08.86.52 1.78.87 2.67 1.29 1.56.72 3.19 1.17 4.78 1.33.4.05.8 0 1.17.01.29-.02.48-.08.63-.16.29-.12.52-.73.55-1.53.05-1.42-.44-3.02-1-4.5-.76-1.91-1.64-3.81-2.32-5.84-.21-.64.07-.69.67-.37.59.32 1.59.96 2.3 2 .62.93 1.23 1.88 1.71 2.91.5 1.02.96 2.09 1.31 3.25.32 1.17.66 2.43.34 4.07-.17.8-.62 1.79-1.46 2.45-.81.67-1.82.88-2.5.9-3.14.21-6.07-.64-8.64-1.83-2.8-1.38-5.28-3.18-7.58-5.13-1.42-1.2-2.74-2.49-4.03-3.81-1.95-2-3.71-4.18-5.4-6.39-1.29-1.73-2.67-3.38-3.73-5.37-.24-.44-.49-.86-.67-1.35-.64-1.81-.38-2.65.49-3.07.2-.1.4-.22.6-.26.34-.08.67.06.95.29.27.23.54.59.77 1.07.75 1.42 1.67 2.91 2.71 4.39 1.03 1.48 2.16 2.97 3.36 4.41 1.79 2.14 3.71 4.23 5.81 6.1l-.05.07ZM311.85 288.13c-1.21 2.35-2.46 4.68-3.76 6.98-1.27 2.31-2.6 4.59-3.93 6.86-.95 1.67-1.87 3.35-2.86 4.99-3.52 5.77-7.14 11.46-10.74 17.16-1.6 2.53-3.13 5.11-4.62 7.67-.94 1.65-1.88 3.31-2.9 4.92-.49.81-1 1.62-1.51 2.43-.52.8-1.01 1.62-1.65 2.35-.93.84-.8.73-.73-.38.06-1.12.47-3.01 1.41-5.01 1.65-3.55 3.65-6.9 5.59-10.28.98-1.69 1.98-3.36 3-5.03 1.04-1.66 2.09-3.3 3.16-4.94 2.57-3.92 4.87-8.22 7.24-12.37 1.32-2.27 2.57-4.58 3.87-6.87 1.24-2.32 2.51-4.61 3.7-6.95l2.2-4.32 2.07-4.38c1.07-2.2 1.96-4.48 2.94-6.72.92-2.26 1.75-4.56 2.56-6.84.55-1.8 1.05-3.6 1.53-5.39.44-1.81.78-3.63 1.19-5.43.19-.79.31-1.59.45-2.4.59-2.99 1.07-3.87 2.16-4.34.25-.1.51-.26.74-.3.79-.15 1.14 1.2.9 3.5-.77 6.8-2.78 13.78-5.41 20.49-.93 2.51-2.05 4.95-3.09 7.42-1.16 2.41-2.24 4.87-3.46 7.24l-.08-.03ZM453.62 363.65c.07-13.49.09-26.99.05-40.49-.06-4.93-.13-9.85-.19-14.77l-.12-26.03-.06-6.44v-.65c-.01-.1.03-.24-.03-.32-.1-.03-.21-.03-.32-.04l-.67-.04-1.51-.04c-4.32-.08-8.66-.08-13-.09-3.06.01-6.12.03-9.17.04-1.53.01-3.06.03-4.59.04h-1.15c-.5 0-1.13 0-1.68-.02-.28-.01-.56-.04-.76-.16l-.54-.36s-.02-.01-.03-.03l-.02-.02c-.07.07.15-.16-.15.15s0-.02 0-.02l-.03-.09-.05-.17-.1-.35-.21-.7c-.02-.6-.05-1.2-.07-1.8l-.03-1.21c-.01-.8-.03-1.6-.04-2.4-.09-9.9.32-19.72.78-29.48.13-3.04.48-2.68 1.21-.1.36 1.29.76 3.13 1.13 5.37.18 1.12.37 2.34.48 3.63.08 1.29.13 2.66.12 4.08-.01 3.56-.07 7.11-.13 10.64-.02 1.77-.04 3.53-.03 5.28l.07 4.16s0 .03.01.03H424.32l4.85-.04 9.74-.15c3.25-.04 6.51-.07 9.78-.05l2.46.02 1.33.02c.7.02 1.47.01 2.17.09.35.04.7.08.95.24l.18.12.13.16.25.3.06.08.03.04.02.02c.1-.08-.21.23.23-.18l.1.18.19.37c.06.12.13.24.18.37l.05.52c.08.68.08 1.42.1 2.14v.27l.01.17V276.86c0 12.12.39 24.7.43 37.08.03 13.61 0 27.23-.15 40.84l-.18 12.51-.14 6.26-.08 3.45c-.03.77-.06 1.6-.37 2.12-.1.11-.17.22-.29.33h-.01c.03.05-.09-.08.08.11s-.03 0-.03 0h-.06l-.12.04-.24.05-.97.21h-.18l-5.24.1c-1.59.04-3.17.06-4.76.07-3.17.03-6.35.07-9.52.1-6.35.08-12.68.15-18.97.23-9.79.13-19.39.45-29.08.54-2.13.02-4.22.07-6.38.04-7.99-.11-10.54-.55-12.18-1.88-.37-.29-.87-.58-1.08-.85-.71-.89 2.56-1.59 8.36-1.64 17.23-.26 35.43-.55 53.73-.59l12.35-.06c2.06 0 4.12-.04 6.19 0l3.1.05 1.55.03H453.31s.04.01.04-.01v-.05l.02-.29c.1-1.32.13-2.66.13-4l.04-8.06.09-.02Z" class="cls-2"/><path d="M370.91 428.13c-.07 6.52-.11 13.03-.12 19.55 0 1.19.03 2.38.05 3.57l.03 1.79v.89c.01.07 0 .15 0 .22v.31c0 .26-.03.52-.05.77l-.03.8-.34 1.05c-.38.15-.35.61-.76.7-.69.3-1.67.33-2.5.38l-.92.04-.78.02-1.56.02h-6.19l-12.35-.07c-3.72-.03-7.46.06-11.15.12-4.74.06-9.49.25-14.23.02-1.48-.2-1.3-.59-.06-1.26 1.23-.66 3.53-1.36 6.26-1.51 9.69-.58 19.37-.47 29.13-.28 2.4.05 4.83.03 7.28-.04 1.22-.04 2.45-.08 3.65-.15l.6-.04.3-.03c.09-.02.21 0 .28-.07l-.02-.31c.02-.08.03-.16 0-.25v-.25c-.03-.13-.02-.27-.03-.4l-.02-1.59c-.04-6.57-.08-13.14-.11-19.71v-12.14c.02-6.13.03-12.28.05-18.36-.02-4.73-.22-9.37-.27-14.06 0-1.03-.05-2.04-.03-3.09.07-3.86.4-5.08 1.46-5.86.24-.18.48-.41.71-.51.76-.33 1.4 1.27 1.49 4.07.36 8.32.46 17.09.42 25.91-.03 6.55-.05 13.14-.08 19.71h-.09ZM427.32 228.39v4.14h-12.48v-4.14zM314.51 464.76h-4.14v-12.48h4.14zM411.81 308.23l-11.1-.05c-1.35 0-2.7.08-4.05.07l-14.29-.24c-2.11-.05-4.24-.03-6.33 0-2.69.03-5.4.07-8.09-.26-.84-.27-.73-.4-.02-.88.71-.46 2.01-.98 3.56-1.11 2.74-.25 5.48-.37 8.22-.46l4.12-.09c1.38 0 2.76.05 4.14.09 3.31.12 6.75-.15 10.14-.23 3.72-.1 7.45-.13 11.18-.16 2.3-.02 4.59-.03 6.89-.05 3.48-.04 6.97 0 10.42-.1 2.68-.07 5.31-.33 7.97-.48.59-.04 1.16-.09 1.75-.09 2.19-.02 2.88.23 3.34 1.14.1.21.24.41.3.62.2.7-.7 1.27-2.29 1.48-4.72.64-9.69.69-14.69.78-3.71.03-7.45.07-11.17.1v-.08Z" class="cls-2"/><g class="cls-3"><path d="m420.8 406.74-9.09-.2c-1.11-.02-2.21.07-3.31.04-3.9-.08-7.81-.11-11.72-.13-1.73-.01-3.47.06-5.19.14-2.21.11-4.42.24-6.64.02-.7-.24-.62-.38-.06-.88.56-.49 1.6-1.05 2.87-1.25 2.24-.34 4.49-.54 6.75-.69 1.13-.07 2.26-.14 3.39-.17 1.13-.01 2.27 0 3.41.04 2.73.09 5.56-.2 8.35-.26 3.07-.08 6.14-.07 9.21-.03l5.66.08c2.86.04 5.73.13 8.56.1 2.2-.03 4.36-.25 6.54-.39.48-.03.95-.08 1.43-.08 1.79-.01 2.36.23 2.73 1.15.08.21.2.41.25.62.16.7-.58 1.27-1.89 1.48-3.89.64-7.98.62-12.09.62l-9.16-.12v-.08Z" class="cls-2"/></g><g class="cls-3"><path d="m414.4 333.58-7.42-.16c-.9-.01-1.8.08-2.7.06-3.19-.06-6.37-.12-9.56-.19-1.41-.01-2.83.07-4.23.15-.9.06-1.8.08-2.7.09-.45 0-.9 0-1.36-.03-.45 0-.91-.18-1.37-.26-.57-.15-.51-.34-.05-.76.23-.21.55-.5.94-.82.39-.28.86-.47 1.37-.58.91-.16 1.82-.35 2.74-.47.92-.08 1.83-.15 2.75-.21 1.84-.1 3.68-.17 5.55-.08 2.23.11 4.52-.18 6.79-.25 2.5-.07 4.99-.12 7.49-.12h4.61c2.33-.03 4.67 0 6.98-.08 1.8-.04 3.55-.31 5.33-.42.39-.01.77-.05 1.17-.04 1.46.04 1.93.29 2.24 1.08.07.18.17.36.21.53.14.59-.45 1.11-1.52 1.39-.79.2-1.59.39-2.39.57-.81.13-1.62.24-2.44.33-1.64.18-3.3.33-4.97.33-2.48.04-4.97 0-7.46.03v-.09Z" class="cls-2"/></g><path d="M412.58 346.79c-1.36-.03-2.73-.04-4.11-.02-.5 0-1 .11-1.51.11-1.79-.01-3.59-.06-5.38-.15-.8-.04-1.59.02-2.38.05-.51.03-1.01.03-1.52 0-.51-.06-1.02-.21-1.52-.38-.31-.12-.27-.44 0-.87.27-.41.74-1.03 1.31-1.26.5-.12 1-.25 1.49-.33l1.5-.08c1-.02 2.01-.04 3.04.08 1.23.14 2.49-.12 3.74-.2 1.38-.08 2.77-.13 4.17-.18l2.59-.06c1.31-.04 2.63 0 3.93-.06 1.01-.03 2.02-.24 3.04-.32.22-.02.45-.07.67-.06.84.04 1.08.33 1.18 1.18.02.2.06.39.06.59.01.65-.36 1.17-.96 1.38-.87.26-1.75.41-2.62.5-.88.12-1.77.13-2.66.13-1.33.02-2.68-.02-4.05.03v-.08ZM416.01 421.7c-.97-.11-1.95-.22-2.92-.29-.36-.03-.71.04-1.06 0-1.25-.1-2.52-.32-3.78-.41-.56-.04-1.12-.05-1.67-.02-.35.02-.71.06-1.06.06-.36-.03-.72-.16-1.09-.29-.23-.1-.22-.41-.07-.82.16-.4.46-1.01.86-1.26.72-.23 1.44-.37 2.17-.47.73-.1 1.47 0 2.22.1.89.14 1.8-.02 2.71-.01.99.02 1.99.08 2.98.13l1.83.09c.92.03 1.85.11 2.77.05.71-.05 1.41-.29 2.12-.45.16-.04.31-.1.46-.12.58-.06.77.17.88 1.1.03.21.06.42.08.64.05.72-.19 1.32-.61 1.52-1.25.6-2.55.66-3.87.65-.98 0-1.96-.09-2.94-.13v-.08ZM43.58 195.83c-.5-.29-1-.58-1.51-.88-.56-.33-1.11-.66-1.67-.99-.47-.28-.9-.56-1.48-.82-.53-.24-1.21-.7-1.75-1.07-.54-.38-.96-.68-1.2-.76-.02 0-.11-.03-.09-.04.02-.01.05-.03.08-.05.08-.04.19-.08.33-.14.29-.11.72-.26 1.24-.43 1.07-.34 2.43-.77 3.82-1.21 1.2-.37 2.41-.74 3.36-1.04.55-.17.95-.28 1.04-.32.18-.08.37-.12.56-.19.18-.07.38-.16.55-.23.15-.05.3-.09.46-.12.16-.03.32-.03.47-.09.16-.06.63-.2 1.11-.34.24-.07.48-.15.68-.21.28-.09.13-.06.15-.08-.01-.01 0 .02.01.04.02.03.01.04.06.06.05.02.11.03.17.05.06.02.14.04.09 0-.02-.03-.06-.08-.08-.12-.02-.02-.03-.04-.04-.06-.03-.04.02.01-.08-.11-.08-.1-.18-.21-.28-.27-.22-.14-1.16-1.21-2.11-2.22-.95-1-1.9-1.94-1.99-1.95-.06 0-.15-.09-.21-.15-.12-.11-.23-.23-.33-.34-.09-.1-.17-.17-.28-.25-.25-.19-.45-.44-.65-.69-.04-.05-.05-.14-.04-.18l.38-.83s.01 0 .02-.01c.17-.16.57-.18.9.14.28.26 2.18 1.6 2.34 1.76.27.26 2.04 1.5 2.6 1.93.05.04.6.49 1.3 1.07.11.07.11.15.38.26l.53.44c.35.29.72.61 1.09.94.35.31.76.66 1.16.99.41.34.81.68 1.19.99-.42.23-.97.41-1.35.56-.39.15-.69.27-.84.34-.79.36-3.46 1.14-3.18 1.06-.12.04-4.84 1.66-5.22 1.79h-.05c-.1.09-.11.09-.33.12h-.02c.08.04.07.05.03.06.01.02 0 .03.05.05.13.07.26.1.36.13.19.13.39.26.58.39.31.2.62.42 1 .5.07.01.13.04.18.09.26.24.62.3.91.48l1.14.65s.09.06.14.08c.54.26 1.1.52 1.63.78.15.08.28.2.41.33.17.18.38.29.61.38.29.15.36.4.27.78-.07.25-.13.45-.31.64-.21.22-.41.48-.62.72-.24.26-.94 1.15-1.29 1.17a.33.33 0 0 1-.22-.08c-.39-.42-.91-.6-1.38-.89-.42-.26-.86-.46-1.26-.77-.26-.2-.56-.37-.88-.45-.29-.07-2.31-1.23-2.59-1.39Z" class="cls-2"/><g class="cls-5"><path d="M66.86 288.36s.04 0 .07-.02c0 0 .07-.02-.02 0-.12.03.1-.03.24-.08.09-.04.14-.07.05-.03-.25.08-.28.09-.3.08-.01 0-.03-.01-.05-.02.12-.02-.4.02-.43.03-.14.03-.3.03-.45.05-.15.02-.3.06-.46.08-.12.01-.25.01-.37.01s-.26-.03-.38-.02c-.13.01-.53.03-.94.03-.61-.01-1.18-.03-1.49-.03-.11 0-.21-.05-.32-.08-.2-.06-.74-.14-1.36-.29-.6-.15-1.56-.29-2.05-.56.09-.18.29-.39.48-.59.18-.2.37-.4.54-.6.31-.35.61-.68.89-.98.47-.56.8-.99 1.01-1.19.12-.15.15-.18.21-.29.17-.38 2.91-3.33 2.97-3.43 0-.05.06-.12.11-.17.09-.09.18-.17.27-.25.08-.07.14-.13.2-.21.15-.2.36-.34.56-.48.04-.03.12-.03.15-.02l.7.36.01.01c.14.15.18.47-.07.72-.21.2-1.14 1.69-1.26 1.8-.2.2-1.06 1.57-1.33 2.01-.03.04-.31.45-.67.99-.21.25-.18.26-.43.48v.06s.05.01.07.02c.05 0 .09.01.12 0 .07-.01.15 0 .22 0 .05 0 .19.02.19.02.02 0 .22-.01.51-.03.37-.02.86-.07 1.38-.12.6-.06 1.2-.13 1.68-.18.77-.08 1.33-.1 1.46-.1H69c1.26-.07 2.32.1 3.23.31.03 0 .05.02.09.02.37.03.7.07 1.02.13l1.01.2c-.13.11-.21.2-.31.29-.73.74-1.55 1.64-2.63 2.67-.3.29-.71.56-1.05.84-.43.35-.84.66-1.16 1.1-.07.09-.07.1-.13.13-.24.12-.35.37-.54.54l-.71.66s-.06.05-.09.08c-.29.34-.61.65-.92.97-.09.09-.22.15-.34.2-.17.08-.31.19-.4.35-.13.21-.31.23-.6.06-.18-.11-.35-.22-.47-.41-.15-.23-.33-.45-.49-.67-.18-.25-.77-1.01-.69-1.25.02-.06.05-.13.1-.16.38-.22.6-.6.9-.9.27-.28.5-.58.83-.79.21-.14.4-.33.53-.56.03-.05.13-.17.28-.32l.24-.24c.07-.07.24-.22.19-.19 0-.02-.01-.03-.01-.03Z" class="cls-2"/></g><path d="M312.95 65.75c-.07 0-.1.05-.13.05s.02.01-.02 0c-.06 0 .12.02.33 0 .21-.01.44-.05.31-.03-.1.02-.21.02-.25.02-.05 0-.03-.02-.05-.02h-.09l-.53-.15c-.17-.05-.29-.08-.34-.09-.19-.03-.36-.09-.55-.13-.18-.03-.39-.07-.56-.1-.15-.03-.29-.08-.43-.14-.14-.05-.28-.14-.42-.18-.26-.07-.99-.27-1.73-.47-.9-.25-1.82-.49-2.18-.56-.16-.03-.25-.1-.35-.15-.19-.1-.74-.3-1.47-.55-.37-.12-.77-.26-1.2-.41l-.16-.05s.09-.07.13-.11l.28-.22c.19-.15.38-.3.58-.45.78-.6 1.52-1.21 2.22-1.72.78-.5 1.42-.91 1.77-1.13.21-.13.43-.27.6-.43.04-.04.12-.1.22-.17.08-.06.17-.12.28-.2.16-.1.35-.22.58-.37.46-.27 1.03-.62 1.6-.95 1.13-.67 2.22-1.33 2.24-1.43.01-.06.1-.13.17-.18.13-.08.26-.16.41-.2.12-.04.22-.1.32-.17.24-.18.56-.25.86-.33.07-.02.17.01.2.05l.82.76s0 .01.01.02c.14.24.11.68-.26.91-.17.08-.61.56-1.12.92-.5.37-.98.74-1.07.79-.32.17-1.88 1.48-2.4 1.9-.03.02-.3.22-.7.52-.05.04-.1.07-.15.11-.05.04-.05.02-.08.03-.04 0-.09.02-.13.03-.1.02-.2.05-.3.08-.23.15-.47.43-.13.35.13 0 .24 0 .34.01.07.02.12.06.13.06 0 0 .07.02.16.05.4.09.93.22 1.47.35l3.59.85c.19.04.36.11.55.14.42.09.82.17 1.22.26s.84.18 1.16.3c.69.22 1.35.46 1.97.7.04.01.06.03.11.04.31.07.6.15.88.23.14.04.27.09.4.13l.19.07s-.09.08-.13.13c-.41.35-.86.7-1.24 1.04l-.92.82-.46.41-.58.44-2.36 1.78c-.22.17-.46.33-.69.48-.15.09-.29.18-.44.27-.3.19-.61.37-.8.71-.03.06-.08.11-.14.13-.32.11-.49.44-.75.63l-1 .75s-.09.05-.12.09c-.42.39-.84.79-1.27 1.17-.13.1-.3.14-.47.19-.24.06-.43.17-.58.36-.2.26-.44.22-.82-.12-.23-.21-.45-.44-.6-.75-.18-.38-.41-.75-.6-1.13-.21-.42-.94-1.7-.82-2 .03-.08.08-.16.15-.18.53-.15.86-.58 1.31-.85.4-.25.74-.57 1.18-.77.29-.13.55-.33.73-.6.08-.12.58-.5 1.08-.88.25-.19.51-.37.71-.52.19-.14.42-.3.34-.25Z" class="cls-2"/><path d="M472.76 215.05c-.2.57-.15.29-.2.35-.02 0-.03 0 .05-.02.06-.02.03-.03-.08.03-.15.09-.18.12-.2.14-.02.02-.02.03 0 0 .14-.08.17-.1.19-.1.02 0 .03 0 .04.01s.08-.02.11-.03c.08-.02.15-.04.21-.06.12-.03.21-.06.24-.07.12-.05.25-.08.38-.12.12-.04.27-.1.38-.14.1-.03.21-.05.31-.06.11-.01.22 0 .32-.03.22-.07 1.31-.23 1.53-.31.05-.02.11 0 .16.01.09.01.31 0 .59-.02.38-.03.82-.06 1.29-.1l.94-.03c.29 0 .58.02.84.02.51.01.96.02 1.18.08-.04.14-.06.23-.08.31-.05.18-.1.35-.1.49 0 .15-.11.68-.31 1.37-.09.35-.23.72-.37 1.11l-.11.29-.07.17-.15.32c-.4.86-.87 1.63-.85 1.7.02.04-.02.12-.05.17-.06.09-.12.18-.19.27-.06.07-.09.14-.13.22-.07.2-.24.35-.45.47-.04.03-.13.03-.17.01l-.84-.34s-.01 0-.02-.01c-.18-.14-.35-.45-.21-.68.18-.16.64-1.47.69-1.59.06-.1.17-.46.25-.84l.06-.29c.02-.09.03-.22.04-.2v-.08s.05-.12.11-.27c.02-.1-.15-.05-.24-.07-.06 0-.09 0-.16.01-.17.02-.29.05-.36.07-.33.09-1.15.21-1.21.23-.04 0-.83.18-1.63.43-.41.12-.78.25-1.13.37-.6.2-1.06.4-1.17.44-.12.05-.24.08-.35.12-.26.09-.51.18-.75.26-.21.03-.41.04-.61.05-.39.02-.67-.09-.98-.27-.02-.01-.03-.03-.05-.04-.27-.09-.53-.37-.65-.6-.07-.11-.09-.23-.12-.34-.01-.02-.02-.05-.03-.08l-.08-.05c-.03-.05-.04-.12-.06-.18-.1-.4-.02-1 .23-1.63l.59-1.78c.06-.18.15-.35.23-.53.09-.22.2-.43.17-.69 0-.04 0-.09.03-.12.14-.18.1-.42.18-.63l.27-.78c.01-.03.03-.06.03-.1.08-.37.15-.75.25-1.12.03-.11.1-.2.18-.28.11-.12.15-.26.17-.42.09-.19.3-.24.65-.19.24.04.41.07.62.19.23.13.5.25.75.39.28.15 1.22.59 1.36.84.02.06.02.11-.01.15-.26.27-.28.63-.42.95-.12.29-.18.6-.35.87-.11.18-.17.39-.16.61.01.2-.47 1.59-.54 1.78Z" class="cls-2" style="opacity:.6"/><path d="M216.08 447.52c-.18 1.01-.35 2.02-.45 3.04-.04.37 0 .74-.03 1.12-.14 1.32-.26 2.64-.26 3.97-.02.59.1 1.17.13 1.75.06.75.22 1.48.04 2.27-.08.25-.31.26-.68.11-.39-.14-.88-.44-1.04-.86-.62-1.5-.76-3.08-.64-4.68.08-.95-.12-1.93-.15-2.9-.02-1.06 0-2.13.06-3.19.04-.65.07-1.31.13-1.96.08-.99.23-1.97.25-2.96.03-.76-.16-1.53-.18-2.3 0-.17-.03-.34-.01-.5.07-.62.32-.79 1.13-.82.18 0 .37-.02.55-.01.61.03 1.09.34 1.26.8.58 1.38.4 2.71.32 4.08-.1 1.01-.2 2.02-.34 3.04h-.08ZM157.64 319.94c-.15-.13-.25-.31-.39-.46-.06-.06-.09-.15-.2-.16-.2 0-.15-.62-.27-.54-.24.15-1.31-1.16-1.46-1.18-.07-.01-.1-.06-.16-.09-.06-.02-.13-.03-.18-.06a.318.318 0 0 1-.1-.1c-.03-.04-.04-.12-.08-.14-.09-.05-.48-.38-.61-.38-.03 0-.02-.06-.03-.09-.05-.26-1.11-.91-1.3-1.11-.03-.03-.07-.06-.12-.04-.2.05-1.48-1.12-1.62-.92-.04.06-.08.05-.1.04a.234.234 0 0 1-.12-.1c-.03-.04-.07-.04-.12-.03-.12.04-.18-.1-.23-.26-.01-.03.01-.17.04-.26l.59-2.03.02-.04c.19-.53.47-1.04.58-.82.09.17.93.38.99.46.1.12.9.27 1.15.34.03.01.48.22.94.47.45.26.93.54 1.07.57.23.03.65.33.68.35.05 0 1.79.97 1.93 1.05.04.02.06.06.1.07.34.12.65.29.88.55 0 0 0 .02.02.02.31.04.44.28.66.43.33.25.65.51.95.79.09.08.13.2.19.3.08.12.14.26.36.25.04 0 .06.01.06.05 0 .17.22.16.3.26l.33.39c.01.02.02.04.04.05.19.14.4.27.58.43.05.05.05.14.04.23-.01.13.03.21.15.23.16.04.07.2-.31.53-.23.21-.48.41-.77.6-.35.24-.72.49-1.08.73-.4.27-1.62 1.12-1.8 1.15-.05 0-.09 0-.08-.02.06-.26-.15-.31-.24-.44-.08-.13-.23-.19-.26-.37-.02-.11-.1-.18-.26-.17-.14 0-.65-.48-.73-.54Z" class="cls-2"/><g class="cls-5"><path d="M135.06 380.44c-.16.11-.36.15-.54.23-.08.03-.17.04-.2.14-.05.19-.66-.03-.6.11.12.29-1.42.95-1.48 1.08-.03.06-.09.08-.12.13-.04.05-.06.11-.1.16a.4.4 0 0 1-.13.07c-.05.01-.13 0-.16.03-.06.08-.51.32-.56.43 0 .02-.06 0-.1 0-.27-.05-1.29.63-1.55.73-.04.01-.08.04-.08.09-.02.2-1.58.92-1.46 1.1.03.05.01.08 0 .1-.04.03-.08.06-.14.07-.05.01-.07.04-.07.09-.02.11-.17.11-.32.11-.03 0-.14-.07-.2-.12l-1.42-1.14-.03-.03c-.36-.33-.67-.73-.47-.75.17-.02.59-.68.67-.71.13-.05.48-.71.61-.91.02-.06 1.24-1.28 1.36-1.53.07-.2.41-.52.44-.54 0-.05 1.24-1.37 1.32-1.5.02-.03.06-.04.08-.07.16-.3.37-.54.64-.69 0 0 .02 0 .02-.01.07-.29.32-.35.49-.52.27-.26.53-.53.82-.78.08-.07.2-.09.29-.13.12-.05.25-.09.25-.32 0-.04.01-.06.04-.06.16.03.16-.19.26-.26l.38-.26c.02-.01.04-.01.05-.03.12-.2.29-.33.48-.42.05-.03.15.01.24.05.13.06.22.05.26-.05.05-.14.21 0 .52.47.19.29.37.57.53.9.21.4.43.83.64 1.24.23.46.99 1.88 1.02 2.1 0 .05 0 .11-.02.1-.23-.08-.27.18-.4.28-.1.11-.21.21-.39.21-.12-.01-.2.06-.21.22 0 .16-.59.52-.66.57Z" class="cls-2"/></g><path d="M154.81 439.13c-.15-.09-.27-.22-.39-.34-.05-.05-.09-.13-.18-.11-.17.03-.18-.55-.28-.46-.22.21-1.19-.91-1.3-.93-.06 0-.09-.06-.13-.08-.05-.02-.11-.02-.16-.05-.04-.02-.06-.06-.08-.09-.02-.04-.02-.11-.06-.13-.08-.04-.37-.36-.49-.37-.02 0-.01-.05-.01-.08-.03-.22-.76-.96-.86-1.18-.02-.03-.04-.06-.09-.05-.21.03-.88-1.25-1.04-1.12-.05.04-.08.02-.09 0a.228.228 0 0 1-.06-.12c0-.04-.04-.06-.08-.06-.11 0-.1-.14-.08-.28 0-.03.07-.14.13-.2l1.19-1.46.03-.03c.34-.38.72-.71.71-.53-.01.15.47.44.49.5.02.12.53.3.68.38.04.02.98.8 1.19.82.15.02.4.23.42.24.02.02 1.16.58 1.27.59.03 0 .04.04.06.04.25.02.45.09.61.25 0 0 0 .01.01.01.23-.06.31.11.46.17.24.09.49.18.72.29.07.03.1.11.15.17.06.07.11.15.28.05.03-.02.05-.02.05 0 .01.13.17.03.24.07.08.06.18.1.27.15.01 0 .02.02.03.02.16.01.32.02.46.04.04 0 .05.08.05.15 0 .1.05.14.14.1.12-.06.07.11-.16.58-.15.29-.3.59-.49.89-.23.38-.47.77-.7 1.16-.26.42-1.06 1.75-1.21 1.86-.04.03-.08.05-.08.01-.01-.26-.21-.21-.32-.31-.1-.09-.24-.09-.31-.24-.04-.1-.13-.13-.26-.07-.12.06-.66-.25-.73-.29Z" class="cls-2"/><g class="cls-3"><path d="M233.3 408.1c-.15.11-.33.17-.5.26-.07.04-.16.05-.18.15-.04.18-.61 0-.56.14.12.28-1.34.92-1.4 1.04-.03.05-.09.07-.12.12-.04.04-.06.11-.1.15-.03.03-.08.05-.12.06-.05.01-.12 0-.15.02-.07.07-.49.29-.53.4 0 .02-.06 0-.09 0-.24-.04-1.18.59-1.43.65-.04.01-.07.03-.08.09 0 .12-.38.29-.74.47-.34.2-.77.27-.71.38.03.06 0 .08-.02.09-.04.02-.09.03-.15.02-.05 0-.07.02-.09.06-.04.1-.18.06-.33 0a.67.67 0 0 1-.18-.17l-1.23-1.5-.03-.03c-.31-.41-.57-.89-.38-.86.15.03.56-.52.63-.53.11-.03.51-.5.65-.65.03-.04 1.26-.82 1.37-1.04.08-.16.4-.38.42-.4.03-.02 1.09-1.1 1.15-1.2.02-.03.06-.03.07-.06.13-.25.3-.46.53-.57 0 0 .02 0 .02-.01.04-.26.26-.3.39-.44.21-.23.42-.46.64-.67.06-.06.16-.08.24-.11.1-.05.21-.08.18-.28 0-.03 0-.06.03-.05.14.03.11-.18.19-.23.1-.07.19-.16.28-.24.01-.01.03-.01.04-.03.09-.16.17-.34.27-.49.03-.04.1-.02.18 0 .11.03.17 0 .17-.12 0-.16.15-.04.51.37.22.26.44.53.66.84.27.38.55.77.82 1.16.3.43 1.25 1.74 1.29 1.92 0 .05.01.09-.02.08-.27-.09-.3.12-.44.19-.13.06-.2.2-.37.2-.11 0-.18.07-.18.23 0 .14-.52.54-.59.6Z" class="cls-2"/></g><path d="M271.72 314.37c-.17-.08-.31-.23-.46-.35-.07-.05-.11-.13-.22-.1-.19.06-.25-.6-.36-.48-.23.27-1.42-.87-1.55-.87-.06 0-.1-.05-.16-.07-.06-.02-.13 0-.18-.03a.195.195 0 0 1-.1-.1c-.03-.04-.03-.13-.07-.15-.09-.04-.44-.38-.57-.38-.03 0-.02-.06-.02-.1-.03-.27-.94-.98-1.07-1.21-.02-.04-.05-.06-.11-.05-.23.07-1.12-1.28-1.29-1.1-.05.05-.09.04-.11.03-.04-.03-.06-.07-.08-.13-.01-.05-.05-.06-.1-.05-.12.02-.13-.14-.12-.3 0-.04.07-.17.13-.26l1.27-1.92.03-.04c.36-.5.78-.96.77-.74 0 .19.56.45.58.53.03.14.61.28.79.35.04.01 1.15.81 1.39.81.18 0 .48.2.51.21.04 0 1.37.48 1.48.5.03 0 .04.04.08.04.28-.01.51.05.7.21 0 0 0 .02.02.01.25-.09.36.09.53.14.28.07.55.15.83.24.08.02.12.11.18.16.08.07.14.15.32.02.03-.02.05-.03.06 0 .03.15.2 0 .28.05.1.07.2.11.3.16.01 0 .02.02.04.02.17 0 .34 0 .5.03.05 0 .06.09.07.18.01.12.06.17.16.11.13-.08.09.13-.13.68-.13.35-.28.69-.46 1.06-.22.45-.45.92-.67 1.38-.25.51-1.01 2.09-1.17 2.23-.04.04-.08.07-.09.03-.04-.28-.26-.19-.4-.28-.12-.08-.29-.05-.38-.21-.06-.1-.16-.12-.31-.02-.14.09-.75-.21-.83-.25Z" class="cls-2"/><g class="cls-5"><path d="M293.71 280.98c-.19.04-.38.02-.57.03-.08 0-.17-.02-.23.05-.12.13-.55-.2-.57-.08-.03.25-1.64.31-1.74.39-.05.04-.11.03-.16.06-.05.02-.1.07-.16.09a.22.22 0 0 1-.14.01c-.05 0-.11-.04-.15-.02-.09.04-.57.1-.66.18-.02.02-.05-.02-.08-.03-.2-.11-1.34.17-1.59.17-.04 0-.08 0-.11.05-.06.08-.46.18-.89.19-.44-.03-.86-.03-.86.05 0 .05-.03.06-.06.06-.05 0-.1 0-.16-.02-.05-.01-.08 0-.11.02-.08.06-.2 0-.32-.07a.4.4 0 0 1-.1-.16l-.55-1.3v-.03c-.13-.35-.18-.76-.02-.73.13.03.74-.41.81-.41.12 0 .66-.47.88-.52.05-.03 1.6-.4 1.81-.53.15-.11.57-.21.6-.21.04-.02 1.59-.59 1.71-.65.03-.02.07 0 .1-.03.25-.16.52-.27.81-.29h.03c.18-.19.4-.15.61-.22.32-.11.65-.22.97-.31.09-.03.19 0 .29 0 .12 0 .24.01.33-.15.02-.03.04-.04.06-.03.12.07.2-.1.31-.11.14-.03.27-.05.41-.08h.05c.18-.09.35-.19.54-.27.05-.02.11.02.17.07.09.06.16.06.23-.02.09-.12.17.03.26.48.06.28.11.56.13.88.03.39.07.79.1 1.18.04.43.17 1.78.11 1.93-.02.04-.04.07-.06.05-.18-.17-.32-.03-.49-.03-.14 0-.28.08-.43.01-.1-.04-.2-.01-.27.11-.07.11-.73.22-.82.24Z" class="cls-2"/></g><path d="M241.7 104.56c5.7 2.04 11.08 4.93 15.81 8.75 4.69 3.83 8.81 8.62 11.2 14.38.85 2.09 1.53 4.28 1.89 6.52.16 1.12.32 2.26.32 3.37l.05 1.67.02.83-.07.84c-.1.98-.13 1.97-.28 2.94l-.56 2.91-.88 2.84c-.35.92-.78 1.82-1.17 2.73-1.74 3.56-4.23 6.7-7.15 9.25-5.89 5.13-13.18 8.07-20.54 9.7-6.57 1.39-13.35 1.84-19.97 1.29-4.26-.34-8.5-1.13-12.59-2.49-4.04-1.39-8.09-3.24-11.19-6.29-.88-1.04-1.22-1.5-1.13-1.54.09-.05.65.31 1.67.8 2.04.99 5.72 2.47 10.11 3.94 3.92 1.31 8.04 1.97 12.16 2.41 4.13.4 8.31.39 12.45 0 8.25-.82 16.51-3.05 23.43-7.55l.78-.5.73-.56 1.47-1.13 1.36-1.27.68-.64.61-.7c1.72-1.8 3-3.96 4.09-6.18 2.01-4.54 2.67-9.68 2.06-14.66-.6-5.4-3.11-10.49-6.7-14.7-3.6-4.23-8.22-7.63-13.21-10.23-6.18-3.15-13.03-5.21-19.94-5.47-10.49-.13-21.27 2.78-30.23 8.3-6.97 4.29-12.69 10.26-16.3 17.33-.81 1.55-1.43 3.14-2.05 4.78-1.11 3.06-1.53 5.16-2.02 6.6-.25.72-.49 1.3-.74 1.77-.22.48-.47.85-.74 1.19-.25.31-.5.73-.72.9-.37.3-.63-.24-.83-1.54-.21-1.29-.25-3.35.27-5.92.79-3.8 2.16-7.55 4.08-11.07 1.95-3.49 4.38-6.78 7.23-9.66 5.7-5.81 12.85-10.19 20.52-13.03 5.7-2.11 11.72-3.41 17.83-3.76 3.08-.19 6.27-.01 9.3.49 3.05.49 6.04 1.25 8.93 2.25l-.02.1ZM151.86 223.08c-1.34-3.55-1.46-7.68-.03-11.29.53-1.31 1.16-2.59 2.06-3.69 1.63-1.9 3.72-3.35 6.01-4.13.58-.19 1.16-.4 1.78-.49.6-.15 1.22-.19 1.84-.22 1.24-.03 2.49.14 3.64.54 2.06.68 3.93 1.87 5.31 3.45 1.84 1.98 2.79 4.62 2.9 7.16-.17.84-.12.7-.67.17-.52-.54-1.35-1.5-2.14-2.52-.67-.94-1.43-1.74-2.17-2.48-.37-.38-.79-.67-1.16-1.03-.41-.29-.8-.62-1.25-.84-1.72-1.03-3.7-1.3-5.79-1.04-1.24.19-2.54.77-3.63 1.56-1.1.79-2.02 1.81-2.74 2.93-1.61 2.48-2.1 5.71-1.43 8.74.4 1.86 1.2 3.73 2.28 5.34 1.63 2.45 4.02 4.49 6.81 5.45 2.16.77 4.47.84 6.64.46.47-.11.94-.21 1.42-.32 1.76-.4 2.38-.36 3.07.28.16.15.35.28.47.43.41.5-.15 1.33-1.61 2.07-2.18.98-4.74 1.33-7.3 1.08-2.56-.25-5.1-1.16-7.31-2.6-1.64-1.06-3.11-2.4-4.28-3.95-1.18-1.54-2.15-3.24-2.8-5.03l.08-.04ZM252.85 294.17c-1.06-1.09-1.56-2.35-1.96-3.4l-.49-1.4c0-.08-.04-.18-.13-.21a.585.585 0 0 0-.13-.02h-.07l-.27.07a9.9 9.9 0 0 0-1.29.49c-.89.4-1.78.91-2.65 1.45-.63.4-1.25.84-1.83 1.3-.27.21-.62.49-.8.65-.06.06-.17.11-.17.21v.13c0 .04 0 .07.03.26.05.31.11.63.18.96l.43 2.02c.29 1.37.56 2.77.74 4.19.38 2.83.44 5.76-.09 8.63-.48 2.53-1.43 5.03-2.87 7.17-.89 1.39-2.04 2.62-3.33 3.63-1.27 1.03-2.7 1.85-4.2 2.41-.98.28-.86.2-.32-.51.26-.37.67-.81 1.09-1.41.44-.58.93-1.23 1.54-1.82.51-.55 1.02-1.09 1.45-1.69.22-.29.45-.58.63-.89.21-.29.46-.56.64-.87.81-1.18 1.46-2.46 1.92-3.82.91-2.71 1.25-5.69 1.09-8.77-.08-1.84-.44-3.72-.9-5.62-.22-.96-.48-1.91-.69-2.95l-.08-.43c-.04-.19-.05-.41-.06-.61-.01-.2-.04-.41 0-.61l.04-.3c.07-.08.07-.19.12-.27.16-.36.46-.65.76-.93l.23-.2.16-.14.31-.25c1.82-1.39 3.67-2.6 5.81-3.55.55-.23 1.09-.45 1.75-.6.84-.19 1.73-.22 2.45.2.36.21.63.53.8.91l.25.58.18.48c.18.51.36 1.02.55 1.49.26.67.55 1.26.91 1.74.1.11.19.23.29.34.11.11.22.21.28.26.14.12.3.21.47.3.13.06.26.13.41.16.15.02.29-.05.38-.17.17-.23.22-.53.26-.82l.02-.21.02-.35c.01-.23.01-.47.01-.71 0-.48-.02-.97-.06-1.45-.07-.97-.2-1.96-.37-2.92-.09-.48-.19-.96-.32-1.4-.11-.42-.36-.81-.53-1.22-.2-.39-.5-.71-.75-1.05-.34-.24-.6-.6-1.01-.75-1.15-.65-2.58-.72-3.97-.49-1.39.23-2.76.72-4.07 1.36-.57.29-1.12.59-1.67.93-2.06 1.21-2.7 1.56-3.58 1.35-.2-.05-.43-.06-.6-.14-.55-.21-.1-1.36 1.46-2.63 1.14-.94 2.43-1.71 3.83-2.35 1.4-.63 2.89-1.16 4.56-1.35 1.65-.19 3.55-.08 5.3.87.22.12.44.23.64.36l.58.47.56.49c.16.18.3.38.45.57.65.76.97 1.6 1.36 2.46.38 1.15.53 2.07.69 3.08.15.99.26 1.99.31 3.01.02.51.03 1.03.01 1.57l-.02.41c0 .12-.03.42-.06.63-.05.46-.14.91-.28 1.32-.27.84-.73 1.5-1.42 1.9-.35.21-.75.31-1.12.33-.38.01-.78-.1-1.18-.17l-.74-.31-.72-.4c-.24-.14-.46-.31-.68-.48-.21-.17-.32-.28-.48-.43l.04-.06ZM229.98 355.63c2.64 1.06 5.37 1.89 8.13 2.49 1.01.22 2.03.3 3.04.43 1.77.24 3.56.33 5.27.11.83-.15 1.68-.3 2.4-.65.2-.07.37-.16.53-.27.15-.1.38-.2.48-.29.26-.18.45-.38.56-.62.2-.42.16-1.08-.11-1.75-.24-.67-.69-1.32-1.12-1.97-.56-.85-1.31-1.57-1.91-2.44-.64-.84-1.3-1.7-2.06-2.46-.46-.48-.37-.48.21-.3.29.1.69.24 1.18.43.49.18 1.1.39 1.67.72.5.3 1.05.57 1.49.96.44.39.87.8 1.29 1.24.85.88 1.56 1.93 2.05 3.33.23.7.39 1.54.24 2.48-.13.94-.68 1.87-1.32 2.45-.15.14-.33.29-.49.4l-.44.28c-.3.19-.59.37-.9.49-.61.3-1.23.48-1.85.65-2.95.65-5.87.82-8.7.52-3.1-.32-6.08-1.15-8.97-2.11-1.78-.6-3.52-1.3-5.24-2.04-2.6-1.12-5.1-2.48-7.55-3.89-1.89-1.11-3.84-2.11-5.6-3.54-.39-.32-.8-.59-1.15-.97-1.37-1.33-1.38-2.18-.86-2.97.12-.19.23-.39.38-.54.52-.5 1.34-.25 2.32.4 1.34 1.07 2.85 2.02 4.39 3.01 1.55.98 3.17 1.94 4.86 2.83 2.5 1.32 5.1 2.54 7.8 3.52l-.03.09ZM363.66 178.63c-1.74 1.48-3.59 2.62-5.51 3.62s-3.9 1.82-5.96 2.47c-.75.23-1.5.47-2.27.67-.39.09-.77.2-1.16.27l-.59.11-.3.04h-.09s-.08 0-.11.02c-.08 0-.18-.02-.26.01-.03.07-.05.15-.07.24l-.03.13-.02.08-.04.22c-.06.33-.12.67-.19 1-.28 1.34-.7 2.67-1.25 3.93-1.09 2.54-2.82 4.78-4.9 6.51-1.89 1.59-4.02 2.85-6.23 3.79-1.41.63-2.89 1.08-4.38 1.41-.75.16-1.5.29-2.25.39-.75.11-1.53.06-2.28.05-.95-.04-.84-.25-.12-.73.42-.29.92-.62 1.46-.98.6-.37 1.31-.68 2.09-.95.69-.23 1.37-.49 2.03-.76.33-.14.66-.28.98-.43.33-.12.66-.27.99-.4 1.29-.56 2.54-1.21 3.68-1.98 2.31-1.51 4.19-3.5 5.6-5.88.68-1.15 1.15-2.46 1.45-3.82.07-.34.14-.69.19-1.04.06-.37.08-.59.16-1.34.05-.64.15-1.29.42-1.73.07-.11.13-.23.25-.32l.39-.15.78-.3c1.43-.19 1.76-.29 2.49-.44 3.76-.88 7.48-2.53 10.72-4.73.99-.69 1.94-1.43 2.74-2.25.2-.21.39-.41.57-.63.18-.2.35-.46.42-.56.18-.26.33-.57.33-.9 0-.27-.14-.54-.35-.7-.17-.14-.38-.21-.59-.26-.11-.01-.22-.04-.33-.04-.11 0-.2-.01-.4 0-.7.05-1.46.23-2.22.44a56.87 56.87 0 0 0-4.58 1.61c-2.76 1.07-5.43 2.37-8.5 3.08-.67.16-1.35.31-2.07.38-1.34.13-2.28-.06-2.88-.36-.3-.16-.52-.33-.68-.53-.16-.22-.26-.47-.32-.72-.06-.23-.15-.46-.16-.65 0-.62 1.07-.99 2.52-1.19 2.22-.23 4.56-1.01 6.99-1.94 2.45-.91 4.92-2.03 7.73-2.94 1.01-.3 2.06-.58 3.29-.73.32-.04.6-.06 1.01-.07.48 0 .98 0 1.44.12.47.07.92.21 1.34.4.4.22.78.46 1.14.74.32.37.69.71.9 1.16.25.43.36.92.43 1.4.13.98-.15 1.99-.63 2.92-.55 1.08-.95 1.42-1.38 1.96-.44.48-.88.92-1.34 1.32l-.06-.06ZM366.16 169.74c-.89-.74-1.66-1.55-2.43-2.34-.28-.28-.59-.53-.85-.83-.91-1.06-1.79-2.1-2.63-3.18-.38-.47-.79-.91-1.2-1.33-.55-.52-1.05-1.1-1.5-1.74-.14-.2-.07-.24.17-.21.23.03.69.07 1.13.25.73.37 1.37.84 2.01 1.3.64.46 1.24.97 1.73 1.59.6.73 1.4 1.28 2.12 1.88.78.67 1.56 1.32 2.38 1.91.51.35 1.01.72 1.54 1.01.8.47 1.64.87 2.52 1.08.35.05.7.06 1.05.06l1.03-.14c.15 0 .29-.07.44-.1.54-.08.71.16.89.99.04.19.09.37.12.56.1.62-.13 1.19-.64 1.38-1.51.56-3.28.31-4.8-.31-1.14-.45-2.18-1.08-3.11-1.78l.04-.06ZM208.98 196.02c1.23 2.14 2.58 4.28 4.35 6.03 1.35 1.34 3.11 2.64 5.03 3 2.71.51 5.81-.32 7.02-3.03 1.01-2.26.6-4.82-.1-7.11-.28-.9-1.22-1.48-2.15-1.22s-1.5 1.25-1.22 2.15c.16.52.31 1.04.42 1.58.05.24.09.47.13.71-.04-.3.02.24.03.35.03.39 0 .77 0 1.15 0 .11-.07.32.02-.08-.02.08-.02.16-.04.24-.04.15-.07.3-.11.45-.06.2-.19.43-.01.09-.06.12-.12.25-.19.36s-.14.22-.22.33c.18-.28.13-.16-.03 0-.02.02-.26.26-.27.25 0 0 .38-.26 0-.01-.1.06-.2.12-.31.18-.37.21.3-.09-.02.02-.21.07-.41.14-.63.18-.07.01-.28.09-.34.06-.02 0 .5-.03.21-.03-.07 0-.14.01-.21.02-.21.01-.42.02-.63 0-.11 0-.21-.02-.32-.02-.43-.02.37.08.04 0-.18-.04-.35-.07-.53-.11-.09-.02-.17-.05-.25-.08-.2-.07-.09-.03-.2-.08-.96-.43-1.65-.94-2.33-1.58-1.72-1.61-2.89-3.51-4.08-5.59-1.12-1.95-4.15-.19-3.02 1.77ZM224.24 232.22c1.06 2.1 3.12 3.74 5.41 4.29 2.65.63 5.34-.11 7.42-1.82.76-.63.7-2.01 0-2.65-.81-.74-1.84-.67-2.65 0-.14.12-.13.09 0 0-.11.07-.22.15-.33.22-.18.11-.36.21-.55.31-.16.08-.3.13-.05.04-.1.04-.2.07-.29.11-.22.08-.45.14-.68.19l-.31.06c-.27.07.44-.03-.05 0-.21.02-.42.03-.63.03h-.31s-.49-.04-.22-.01c.24.03-.09-.02-.14-.03-.12-.02-.24-.05-.36-.08-.19-.05-.37-.11-.55-.17-.34-.11.18.1-.02 0-.09-.04-.18-.08-.26-.13-.19-.1-.38-.21-.57-.33-.08-.05-.16-.11-.24-.16-.18-.12-.08-.07.03.03-.33-.3-.62-.6-.93-.92.1.11.15.21.03.03-.05-.08-.11-.16-.16-.24-.13-.2-.25-.42-.36-.63-.44-.88-1.75-1.2-2.57-.67-.9.58-1.15 1.63-.67 2.57ZM206.15 182.05c.05-.15.1-.29.16-.43.14-.38-.12.25 0 .01.13-.25.25-.51.39-.75.13-.22.26-.44.41-.65.07-.11.15-.21.22-.31.15-.21-.26.31 0 0 .37-.43.75-.84 1.18-1.21.1-.08.2-.16.29-.25.19-.17-.33.23 0 0 .23-.17.46-.33.7-.48.22-.14.44-.26.67-.39.18-.09.65-.22.76-.37-.1.14-.34.14 0 .01.12-.05.24-.09.36-.13.27-.09.54-.17.81-.24s.55-.12.83-.17c.3-.05-.01.05-.11.01.09.03.36-.03.46-.04.56-.04 1.13-.02 1.69.04 1.11.12 2.17-1.06 2.13-2.13-.06-1.26-.94-1.99-2.13-2.13-5.61-.61-11.09 3.2-12.88 8.44-.36 1.05.41 2.37 1.48 2.61 1.18.27 2.23-.36 2.61-1.48ZM406.09 142.7c.31.24-.16.53-1.09.87-.3.11-1.24.23-1.38.17-.28-.12-.55-.23-.74-.37-.12-.08-.77-1.53-1.02-2.02-.25-.48-.34-.98-.41-1.48-.13-1.03-.31-2.07-.42-3.14-.02-.24 0-.48.07-.73.24-.84.21-1.66.11-2.47-.02-.14 0-.27-.14-.4-.25-.22-.25-2.38-.13-2.65.29-.68.47-1.36.7-2.04.03-.1-.02-.2.15-.29.4-.2.34-.41.37-.62.05-.29.11-.58.25-.87.07-.14.29-.28.48-.42.16-.13.75-.05.82 0 .18.13.46.03.71.02h.26c.15.02 1.16 1.7 1.15 1.88 0 .02.08.64.16 1.29.09.65.19 1.32.23 1.45.04.14-.05.29-.11.43-.03.07.34 1.96.35 2.02-.03.38.14.76-.19 1.15-.07.08-.04.15-.03.23.11.65.03 1.31.01 1.98 0 .34.08.68.12 1.02 0 .06-.04.13-.06.19-.02.08-.06.16-.05.24.15.81.07 1.66.36 2.46.07.18-.23 1.15-.14 1.37.05.12-.52.61-.4.71ZM413.53 151.03c-.11.38-.58.17-1.29-.36-.23-.17-.72-.83-.71-.98.01-.29.04-.58.1-.82.03-.15 1.36-1.56 1.85-2.02.45-.47.99-.81 1.54-1.12 1.13-.61 2.27-1.23 3.46-1.72.26-.11.54-.19.84-.22 1-.11 1.92-.42 2.83-.76.15-.06.32-.08.43-.25.18-.31 2.78-.91 3.14-.86.93.07 1.74.13 2.61.2.12 0 .25-.05.37.09.29.32.54.24.79.24.36 0 .72.04 1.08.14.18.05.36.24.54.38.16.13.09.66.04.71-.15.17-.01.41 0 .62 0 .07.02.17.01.23-.03.12-1.85 1.14-2.03 1.18-.01 0-.19.03-.45.1-.26.06-.6.15-.95.24-.7.2-1.42.42-1.56.49-.15.07-.32.02-.49 0-.09-.04-2.09.82-2.16.85-.44.08-.81.36-1.33.21-.1-.03-.18.02-.26.05-.7.32-1.45.49-2.19.73-.38.12-.71.34-1.07.5-.06.03-.15.02-.22.03-.09.02-.19.02-.27.06-.81.46-1.72.76-2.42 1.4-.17.13-1.23.38-1.41.58-.1.1-.8-.09-.84.06Z" class="cls-2"/></svg>