<svg xmlns="http://www.w3.org/2000/svg" id="Layer_1" width="520" height="520"><defs><style>.cls-1{opacity:.2}.cls-1,.cls-2{fill:#231f20;stroke-width:0}.cls-3{opacity:.45}</style></defs><path d="M484.7 269.77c.31-.24.59.2.79 1.05.06.27.03 1.1-.05 1.22-.16.23-.31.45-.46.6-.1.08-1.54.52-1.98.78-.44.21-.89.33-1.34.42-.92.22-1.82.52-2.69.9-.19.08-.41.12-.63.15-.77.07-1.44.4-2.03.85-.1.07-.22.12-.25.29-.03.13-.44.48-.88.81-.42.34-.86.68-.99.72-.31.12-.61.27-.92.42l-.87.51c-.09.05-.11.16-.28.12-.39-.07-.48.12-.63.26-.22.19-.42.4-.69.56-.13.08-.38.08-.59.11-.2.03-.58-.32-.6-.39-.05-.21-.32-.25-.5-.36-.06-.04-.14-.09-.19-.12-.05-.04.01-.57.12-1.13.11-.55.31-1.1.37-1.19.01 0 .11-.17.28-.39l.64-.83c.5-.59 1.03-1.2 1.15-1.32.11-.14.3-.19.46-.26.04-.07 1.77-1.65 1.87-1.67.42-.24.78-.59 1.35-.55.11 0 .19-.05.27-.11.71-.43 1.51-.67 2.3-.89.4-.12.79-.29 1.18-.42.07-.02.16 0 .23 0 .1 0 .2.02.29-.01.94-.31 1.93-.37 2.89-.65.23-.09 1.34.19 1.59.13.15-.05.64.49.76.4Z" class="cls-2"/><path d="M404.72 259.31s-5.94 8.14-6.51 9.6-8.45 3.52-8.28 6.22-.31 8.06-.31 8.06-2.72 4.13-3.39 9.38c-.68 5.25 1.54 14.64 4.42 17.62 2.87 2.99 7.14 6.72 10.7 8.35 5.49 2.51 10.81 2.86 14.53 2.47.91-.1 8.18-.76 9.04-1.08l18.7-8.4s11.21-2.82 10.98-10.14c-.22-7.32-13.49-4.24-13.38-8.45.11-4.2 12.69-14.93 12.69-14.93l-37.35-14.79-11.83-3.91Z" class="cls-1"/><path d="M416.64 356.02s-2.76-23.35-1.73-26.96 3.46-7.48 10.95-9.41c7.49-1.93 24.94-10.18 25-9 .05 1.17 8.53 3.17 10.2 3.61 1.67.43 2.88 5.52 2.88 5.52s-1 5.6-6.93 9.36c-5.93 3.75-20.68 6.11-20.68 6.11l-6.18 2.67s-.74 4.56-.14 6.96c.6 2.4 3.84 12.15 3.84 12.15l-14.67 1.27-2.53-2.28ZM325.81 225.71s.9-17.17-1.83-18.94c-2.73-1.77-7.51-8.69-10.04-9.97-2.53-1.28-13.14-3.57-13.3-5.4-.16-1.83-.08-3.16 3.34-2.83 3.42.33 10.62 1.02 10.62 1.02l-4.89-6.89s-11.07 5.4-13.22 4.38c-2.15-1.02.2-5.21 1.52-6.26 1.32-1.05-5.53-1.47-3.28-3.88 2.25-2.42 8.45-5.74 8.45-5.74l7.56-2.91s-3.91-1.53-6.76-1.53-6.7 1.01-4.91-2.05c1.79-3.07 10.64-2.77 10.64-2.77l5.73 1.96 5.17 5.51 2.43 5.67s11.84 8.93 13.57 12.64c1.73 3.7 5.88 18.03 5.88 18.03l2.11 18.73s-3.97 1.67-7.86 2.25-10.93-1.02-10.93-1.02Z" class="cls-1"/><path d="M419.99 396.83c-.57-.34-1.12-.7-1.67-1.08-.27-.19-.54-.38-.8-.58-.06-.04-.12-.09-.18-.13-.24-.18.18.14.02.02-.13-.1-.26-.21-.39-.31-1.03-.84-1.99-1.74-2.9-2.71-.58-.62-1.72-.63-2.3 0-.61.67-.62 1.63 0 2.3 1.93 2.06 4.15 3.85 6.57 5.31.73.44 1.82.19 2.22-.58s.2-1.75-.58-2.22ZM421.44 406.17c-2.04 1.92-4.08 3.83-6.12 5.75-.72.67-.73 1.98 0 2.65.77.7 1.89.72 2.65 0 2.04-1.92 4.08-3.83 6.12-5.75.72-.67.73-1.98 0-2.65-.77-.7-1.89-.72-2.65 0ZM442.6 440.63c-1.28 2-2.57 4-3.85 5.99-.46.72-.17 1.83.58 2.22.81.43 1.73.18 2.22-.58 1.28-2 2.57-4 3.85-5.99.46-.72.17-1.83-.58-2.22-.81-.43-1.73-.18-2.22.58ZM457.35 411.73l4.75 4.84c.69.7 1.97.74 2.65 0s.73-1.9 0-2.65l-4.75-4.84c-.69-.7-1.97-.74-2.65 0s-.73 1.9 0 2.65ZM343.96 262.87c.78.56 1.57 1.11 2.39 1.62.54.34 1.07.7 1.57 1.09l-.33-.25c.33.26.66.52.98.78.34.28.69.48 1.15.48.4 0 .87-.18 1.15-.48s.5-.72.48-1.15c-.02-.41-.15-.88-.48-1.15-.83-.68-1.68-1.36-2.58-1.94s-1.81-1.18-2.68-1.81c-.32-.23-.88-.27-1.25-.16s-.79.4-.97.75c-.2.38-.3.83-.16 1.25s.39.71.75.97ZM346.28 277.01c1.92-1.62 3.84-3.25 5.76-4.87.4-.33.62-1 .62-1.5s-.23-1.14-.62-1.5-.94-.65-1.5-.62-1.05.24-1.5.62c-1.92 1.62-3.84 3.25-5.76 4.87-.4.33-.62 1-.62 1.5s.23 1.14.62 1.5.94.65 1.5.62 1.05-.24 1.5-.62ZM463.69 437.38c-.34.42-.68.85-.99 1.29-.11.16-.19.34-.3.5-.4.57-.82 1.14-1.18 1.73-.16.26-.29.54-.42.82-.16.36-.3.73-.54 1.05-.14.21-.59-.31-.5-.77.21-.79.47-1.57.89-2.27.25-.42.41-.91.62-1.37.24-.5.5-.98.77-1.46.17-.29.34-.59.5-.88.25-.45.53-.88.74-1.34.17-.36.2-.79.34-1.17.03-.08.05-.17.09-.25.16-.28.46-.22.87-.05l.27.11c.14.07.25.16.35.29.1.13.22.31.23.45.11.87-.36 1.41-.75 2.02-.32.43-.64.87-.96 1.31l-.04-.02ZM401.17 258.51l.24-.06c.18-.04.23.03-.04 0 .14.02.31-.03.46-.02.13 0 .34.06.47.03-.22-.03-.26-.04-.11-.01l.09.02.26.06c.17.04.34.1.51.16.07.03.14.05.21.08.1.04.06.02-.12-.05l.12.06c.32.15.63.33.93.53.08.05.15.11.23.16.21.15-.15-.12-.02-.01s.26.22.39.34c.14.13.27.26.39.4l.18.21.06.07c.09.12.08.1-.04-.06.11.06.22.31.28.41.09.14.17.28.25.42l.12.24c.13.27-.1-.3 0 0 .05.16.11.32.15.48.18.7.99 1.19 1.69.96s1.15-.95.96-1.69c-.46-1.79-1.75-3.27-3.25-4.29s-3.39-1.54-5.14-1.05c-.69.19-1.19.98-.96 1.69s.95 1.17 1.69.96ZM425.5 273.01c.01-2.33-1.48-4.52-3.04-6.12-1.68-1.71-3.94-3.16-6.4-3.26-.72-.03-1.41.65-1.38 1.38.03.77.6 1.35 1.38 1.38.03 0 .36.03.36.02-.21-.03-.24-.03-.09-.01l.18.03c.22.04.44.1.65.17.09.03.19.06.28.1.06.02.12.05.19.07-.17-.08-.19-.08-.05-.02.22.1.43.21.65.32s.43.25.63.38l.36.24c.05.04.43.33.16.11.4.32.78.66 1.14 1.03.18.18.35.37.52.56.09.11.19.22.28.33.23.28-.16-.23.05.06.31.42.59.85.83 1.3.05.09.09.17.13.26.04.08.26.43.06.11.1.17.16.42.22.6s.1.39.14.59c.05.25-.03-.35 0 .04v.32c0 .72.63 1.41 1.38 1.38s1.37-.6 1.38-1.38ZM400.78 262.56c-.87.61-1.7 1.31-2.41 2.11-.79.9-1.49 1.93-1.6 3.15s.58 2.36 1.74 2.71c.99.3 2.11-.04 3.05-.36.56-.19 1.12-.4 1.68-.59.28-.09.55-.18.84-.25.15-.04.3-.07.45-.11l.16-.03c.31-.06-.21.02.03 0 .62-.07 1.23-.5 1.2-1.2-.03-.59-.53-1.28-1.2-1.2-1.01.12-1.96.42-2.92.77-.45.16-.9.33-1.36.47-.2.06-.41.12-.61.16-.08.02-.17.03-.25.05-.26.05.26-.02-.06 0h-.26c-.02 0-.1-.02-.12 0 .02 0 .31.07.14.02-.03 0-.19-.07-.21-.06 0 0 .31.12.14.05-.05-.02-.18-.13-.01 0 .22.18-.04-.05-.04-.05.1 0 .16.24.08.1-.02-.04-.05-.08-.07-.12-.1-.16.04.07.04.1 0-.02-.03-.1-.04-.13-.08-.3-.01.22-.01-.04 0-.06.04-.35 0-.14-.05.23.03-.1.04-.15.02-.08.05-.16.07-.24 0-.02.06-.11.05-.14-.07.16-.08.2-.04.11.02-.04.03-.07.05-.1.09-.18.2-.35.31-.52.06-.09.13-.18.19-.28.09-.14-.14.17-.03.04l.14-.17c.34-.4.71-.78 1.1-1.13.19-.17.39-.34.6-.51.04-.04.18-.1.03-.03-.16.08.02-.02.06-.04.09-.07.19-.14.28-.2.51-.36.8-1.06.43-1.64-.33-.51-1.09-.82-1.64-.43ZM446.24 452.48s13.72 1.07 18.66-1.94c2.61-1.59-10.46-3.45-10.46-3.45l-8.19 5.39ZM312.51 182.96c.46.47.88.96 1.29 1.45.15.18.35.31.49.5.49.67.88 1.43 1.18 2.26.13.37.31.72.42 1.18.07.28.06.67-.12 1.03-.08.18-.23.33-.38.44-.15.11-.36.11-.52.09-.22-.03-.23-.22-.29-.54-.04-.16-.08-.36-.21-.54-.03-.04-.09-.1-.05-.06.02.02.04.03.04.03s.04.03.03.02a.207.207 0 0 0-.06-.02.467.467 0 0 0-.17-.03c-.08-.03-.45.02-.39 0-.02 0-.08-.11-.13-.21-.11-.22-.27-.52-.4-.87-.16-.43-.58-.71-.91-1.05-.36-.38-.74-.77-1.14-1.12-.25-.22-.5-.43-.77-.63-.4-.3-.81-.62-1.27-.78-.36-.13-.78-.05-1.12-.05-.08 0-.15.02-.23 0-.26-.07-.3-.25-.29-.94v-.47c.03-.52.23-.94.57-1.09 1.03-.48 1.99-.14 2.8.23.61.3 1.17.67 1.66 1.11l-.04.06ZM305.61 195.7c.71.88 1.12 1.76 1.5 2.72.13.34.29.67.37 1.03.28 1.27.28 2.51.21 3.71-.03.53-.06 1.05-.08 1.57-.05.66-.18 1.32-.39 1.96-.07.2-.17.16-.29-.03a2.66 2.66 0 0 1-.36-.9c-.04-.33-.1-.66-.13-.99-.01-.32-.02-.64-.04-.97-.03-.62-.06-1.24-.09-1.9-.03-.76-.34-1.49-.64-2.16-.31-.75-.72-1.47-1.24-2.11-.29-.36-.67-.73-1.09-1.08-.64-.53-1.27-1.14-1.93-1.77-.5-.49-1.1-.99-1.51-1.73-.08-.16-.2-.31-.25-.5-.2-.68.03-.94.66-1.07.15-.03.29-.07.44-.08.5-.04.93.15 1.12.37a24.35 24.35 0 0 0 1.82 1.91c.6.53 1.26 1.18 1.96 1.98l-.04.04ZM305.78 165.26c.61.18 1.22.32 1.83.57.22.09.46.09.68.2.77.35 1.53.79 2.21 1.31l.93.63c.4.27.72.67.87 1.15.05.15-.12.25-.38.33-.26.07-.64.19-.86.14-.43-.05-.74-.17-1.07-.3-.34-.12-.67-.25-1.01-.46-.4-.27-.93-.25-1.41-.34-.54-.09-1.08-.24-1.65-.37-.34-.08-.7-.15-1.05-.2-.54-.08-1.09-.18-1.64-.17-.43 0-.86.16-1.29.23-.1.02-.19.06-.29.06-.36 0-.46-.19-.48-.9v-.48c0-.54.17-.98.43-1.15.76-.46 1.55-.64 2.36-.58.6.04 1.21.17 1.83.27v.07ZM192.43 204.17l-.55-7.43c-.06-.91-.18-1.81-.23-2.71-.19-3.2-.23-6.41-.18-9.62l.06-4.26c.05-1.81.15-3.63.57-5.41.16-.55.15-.48.28.01.17.49.4 1.38.44 2.41.14 1.84.12 3.66.16 5.48.04 1.82.07 3.65.11 5.5.03 2.21.29 4.49.5 6.74l.71 7.44.46 4.59.66 6.96c.21 1.78.52 3.49.98 5.14l.33 1.07c.41 1.33.46 1.76.03 2.27-.09.11-.18.25-.28.34-.32.3-.95-.1-1.44-1.14-1.45-3.09-1.8-6.64-2.04-9.92l-.63-7.45h.05ZM53.07 418.79c-.5-2.12-.83-4.26-1.11-6.4-.1-.78-.19-1.56-.27-2.34-.22-2.76-.25-5.53-.17-8.28l.12-3.66c.01-.78.04-1.56.14-2.33.12-.77.27-1.54.41-2.31.1-.48.14-.41.23 0 .09.42.32 1.19.44 2.08.14.79-.02 1.57.03 2.36v2.35c-.05 1.57.07 3.13-.02 4.72 0 1.89.2 3.85.44 5.76.23 2.11.57 4.2 1.02 6.27.12.64.3 1.27.47 1.9.17.63.32 1.26.54 1.88.58 1.88 1.33 3.72 2.26 5.44.77 1.29 1.65 2.5 2.69 3.52a7 7 0 0 0 .69.65c.43.4.69.68.86.9.15.24.18.47.15.74-.01.13-.01.26-.04.37-.08.36-.73.35-1.58-.2-2.39-1.77-4.06-4.41-5.25-7.13-.87-2.04-1.56-4.15-2.08-6.29h.04ZM92.75 425.88c-.26-1.09-.48-2.19-.67-3.29-.08-.4-.2-.79-.26-1.19-.19-1.42-.31-2.85-.39-4.27-.05-.63-.12-1.25-.22-1.87-.07-.8-.24-1.6.01-2.41.09-.25.44-.23.87-.04.45.19.93.54 1.01.97.35 1.54.38 3.1.42 4.7 0 .96.31 1.91.51 2.86.22 1.05.45 2.09.73 3.13.17.64.35 1.28.55 1.9.31.95.63 1.91 1.06 2.81.34.7.84 1.3 1.24 1.94.08.15.19.28.27.42.27.56.19.83-.22 1.21-.09.09-.18.18-.28.26-.32.25-.76.19-1.17-.13-1.21-.97-1.84-2.37-2.43-3.77-.43-1.05-.77-2.13-1.09-3.22l.05-.02ZM169.3 364.89s59.11 2.03 60.54 1.03 11.47-9.47 12.58-9.21 14.93 8.88 14.93 8.88 10.28-1.51 28.92-.56c8.08.41 18.86 1.02 29 1.53 2.2.11-1.29-7.96.07-9.49 1.37-1.53 2.1-2.76 2.1-2.76l-30.77-26.96s-20.9-16.65-31.61-17.91-24.5-2.53-27.25 0-24.12 17.91-24.12 17.91l-30.12 33.51-4.29 4.02Z" class="cls-2"/><path d="M314.94 364.89s4.86 24.33 6.82 31.1c1.97 6.78 21.12 35.31 23.84 37.01s-244.93-.3-244.93-.3-3.43.01-5.25-8.29c-1.81-8.3-6.76-41.69-5.13-49.03s14.07-6.49 14.07-6.49l64.35.48 53.94.92s41.24-.82 51.68-1.25 40.61-4.15 40.61-4.15Z" class="cls-2"/><path d="M319.56 359.04c-1 .65-1.93 1.48-2.44 2.38-.21.34-.28.75-.43 1.13-.45 1.4-.54 3.08-.37 4.75.1.74.22 1.49.36 2.23.08.48.23.95.28 1.44.04.5.04 1.01 0 1.53-.03.32-.18.3-.45.08-.25-.22-.74-.58-1.06-1.07-.49-.9-.78-1.87-1.09-2.87-.18-1.03-.28-2.1-.21-3.19.08-1.29.04-2.7.52-4.05.24-.74.66-1.44 1.13-2.07.48-.6 1.01-1.1 1.57-1.57.69-.57 1.43-1.06 2.2-1.5 1.16-.67 2.41-1.14 3.66-1.55.97-.33 1.92-.68 2.93-.92.22-.04.44-.11.66-.14.84-.07 1.12.16 1.3.75.04.14.09.28.11.41.07.46-.24.87-.77 1.08-1.57.59-3.14.9-4.66 1.51-1.12.44-2.23.96-3.2 1.67l-.04-.05ZM442.97 451.07c-2.65-.18-5.35-1.04-7.56-2.43-.8-.52-1.63-.99-2.34-1.61-2.58-2.11-4.54-4.75-6.27-7.44a52.43 52.43 0 0 1-2.08-3.72c-.41-.8-.8-1.62-1.14-2.47-.29-.86-.55-1.73-.76-2.61-.13-.55-.02-.5.29-.11.3.39.88 1.09 1.44 1.95 1.78 3.13 3.71 6.08 5.82 8.95 1.28 1.71 2.99 3.16 4.75 4.35 1.94 1.33 4.11 2.23 6.41 2.55 1.42.18 2.89.22 4.35.08 2.2-.24 4.42-.75 6.43-1.68 1.56-.72 2.92-1.75 4.09-2.89.25-.26.49-.52.75-.76.92-.95 1.26-1.19 1.98-1.05.16.03.34.04.48.09.48.15.49.91-.13 1.91-.92 1.49-2.27 2.71-3.76 3.68-1.5.97-3.15 1.7-4.85 2.24-2.53.81-5.21 1.14-7.89 1.04v-.06ZM452.64 385.9c-.17-.34-.3-.68-.44-1-.05-.12-.14-.21-.18-.33-.16-.42-.26-.85-.38-1.27-.06-.18-.14-.34-.23-.5-.12-.2-.26-.39-.27-.65 0-.08.17-.18.39-.25.21-.06.49-.1.59 0 .37.34.69.68.85 1.13.08.28.3.48.46.7.16.25.33.51.49.77.11.15.21.31.32.44.18.2.34.42.56.53.17.09.4.05.55 0 .03-.01.07-.04.1-.04.08-.04.07.11.06.68v.39c0 .44-.12.78-.38.87-.75.23-1.41-.13-1.82-.49-.32-.29-.52-.64-.72-.95l.04-.03ZM428.02 358.45c-.98-.02-1.96-.06-2.94-.11-.36-.02-.71.01-1.07-.02-1.26-.14-2.51-.36-3.75-.62-.56-.1-1.11-.21-1.67-.31-.36-.04-.72-.18-1.06-.31-.35-.1-.69-.36-.92-.69-.15-.2-.04-.3.25-.47.2-.11.39-.23.55-.32.2-.1.36-.12.55-.12.64.03 1.26.17 1.91.3.66.11 1.32.24 2 .39.82.19 1.69.1 2.54.11.94.03 1.89.05 2.83.04.58 0 1.17-.03 1.75-.05.88-.06 1.77-.1 2.63-.27.67-.13 1.29-.41 1.9-.66.13-.06.25-.14.39-.18.51-.13.65-.03.98.49.07.12.15.23.22.35.22.4.13.84-.29 1.15-1.18.8-2.51 1.01-3.84 1.18-.99.12-1.98.14-2.97.18v-.05ZM412.16 359.21c1.1-.3 2.18-.44 3.22-.53.38-.03.75-.14 1.12-.15 1.32-.07 2.63.02 3.91.02.57 0 1.14-.05 1.69-.12.35-.05.72-.04 1.08-.05.36-.01.72.01 1.1.09.23.03.22.13.07.34-.16.2-.44.64-.85.82-.36.17-.71.33-1.07.46-.37.09-.74.15-1.11.21-.74.12-1.48.18-2.22.19-.89.02-1.78.2-2.65.34-.95.15-1.91.27-2.8.54a4.5 4.5 0 0 0-.81.26c-.26.1-.55.17-.77.31-.77.34-1.42.86-1.87 1.51-.15.27-.23.58-.32.86-.04.31-.04.62-.08.91-.02.12.01.27 0 .4-.03.5-.22.64-.86.75-.14.02-.29.06-.43.07-.48.05-.86-.2-.99-.71-.44-1.47.16-3.4 1.44-4.68.95-.91 2.07-1.53 3.17-1.88l.02.06ZM329.65 225.33c.46.11.93.2 1.4.25.17.01.35-.01.53.01.63.08 1.3.15 1.97.21.3.03.6.01.9.04.38.02.78.04 1.14.25.11.06.05.27-.08.48-.13.2-.33.44-.53.48-.34.04-.68.15-1.03.15s-.71 0-1.08-.06c-.45-.06-.91.07-1.39.1-.53.02-1.07-.03-1.6-.08-.33-.03-.65-.09-.97-.14-.49-.07-.97-.2-1.45-.26-.38-.05-.77 0-1.17 0-.09 0-.18.01-.26 0-.31-.08-.36-.25-.25-.76.02-.12.04-.23.07-.35.1-.38.32-.66.56-.73.69-.2 1.27-.03 1.88.09.45.1.91.22 1.37.3v.05ZM307.31 228.79c.76-.08 1.41-.08 2.1-.11.25-.01.48-.08.73-.08.87-.01 1.75.11 2.62.17.39.03.77.01 1.16 0 .49.03 1.04.05 1.54.48.15.13.02.28-.18.48-.1.1-.19.22-.3.35-.12.12-.23.29-.34.3l-.64.22c-.21.05-.44.06-.66.08-.45.04-.92.05-1.4 0-.58-.04-1.15.12-1.73.19-.64.07-1.28.12-1.91.2l-.55.08c-.11 0-.29.06-.44.12-.47.18-.95.46-1.32.87-.3.32-.43.77-.66 1.16-.05.08-.08.19-.14.26-.22.3-.42.3-.94.01-.12-.06-.24-.12-.35-.19-.38-.24-.59-.59-.54-.92.11-.99.68-1.83 1.53-2.56.64-.54 1.41-.99 2.39-1.2l.02.06ZM325.2 317.71c1.2 1.85 2.48 3.66 3.89 5.37.53.61 1.08 1.2 1.62 1.8 1.89 2.13 3.95 4.12 6.22 5.84.99.8 2.09 1.43 3.18 2.02.36.17.73.32 1.08.51l.53.28.55.22.55.23.53.3c.37.15.74.31 1.12.47.47.21.41.29-.06.42-.23.07-.57.16-1 .26-.21.05-.45.11-.69.11-.12.01-.24 0-.37.02l-.37-.07c-.9-.18-1.77-.41-2.58-.79-.82-.35-1.57-.82-2.35-1.24-.74-.48-1.47-.96-2.16-1.51-.66-.57-1.31-1.16-1.95-1.75-.72-.76-1.52-1.46-2.28-2.19-.74-.76-1.55-1.47-2.24-2.28-1.54-1.74-2.99-3.57-4.26-5.51-.39-.6-.81-1.17-1.18-1.79l-1.1-1.83c-1.08-1.86-2.06-3.8-2.97-5.73l-.57-1.11-.52-1.12c-.34-.75-.71-1.49-1.02-2.25-.13-.34-.25-.67-.36-1.02-.39-1.3-.38-1.76 0-2.17.09-.09.17-.21.26-.27.31-.22.79.21 1.24 1.07.33.64.67 1.28.97 1.95.34.65.67 1.3.99 1.96.16.33.31.67.46 1.01l.51.99c.33.67.66 1.33.99 2 .53.97 1.07 1.94 1.61 2.92.59.94 1.15 1.9 1.76 2.83l-.05.03ZM373.68 312.23s8.44 4.18 9.65 8.5c.93 3.35.16 3.48.16 4.99 0 4.34 4.23-6.78 4.23-6.78l-14.04-6.71ZM388.5 321.39s2.7-2.29 6.47-3.06c2.76-.56 9.16-.08 11.35 1.01 3.35 1.68-10.97-4.17-10.97-4.17l-6.85 6.22ZM426.36 215.16c-11.67-.19-26.9 15.06-21.63 35.69 2.71 10.63 15.92 16.54 23.63 19.45 10.26 3.87 23.31 7.67 23.31 7.67s-5.91 3.25-10.34 10.76 1.91 5.91 6.31 7.19 7.01 3.98 6.96 5.45c-.05 1.48-3.73 9.27-3.73 9.27l.18 3.83s4.69-1.78 8.19-.28c3.5 1.49 4.7 5.58 4.7 5.58s12.2 1.4 17.24-4.57 9.84-13.07 8.97-19.78c-.87-6.7-5.69-14.67-5.69-14.67l-13.48-5.86s2.24-12.38 1.83-15.49c-.41-3.12-4.96-19.82-7.47-23.74-4.35-6.81-14.75-14.16-22.38-17.4-1.15-.49-2.21-1.17-3.45-1.34l-13.15-1.78ZM219.79 313.43c2.03-1.32 4.2-2.46 6.4-3.53 2.25-1 4.54-1.92 6.96-2.54 2.41-.6 4.9-1.06 7.42-1.05.63-.04 1.25-.02 1.87.02l1.85.09c1.22.16 2.45.23 3.65.48 3.52.59 6.97 1.47 10.27 2.72 5.8 2.23 11.22 5.19 16.37 8.48 5.14 3.31 10.03 6.96 14.76 10.77 4.19 3.39 8.35 6.85 12.4 10.32 2.58 2.25 5.17 4.5 7.72 6.79 1.26 1.16 2.56 2.27 3.77 3.48 1.2 1.21 2.39 2.44 3.54 3.72 1.41 1.62 1.1 1.56-.64.82-.87-.37-2.12-.89-3.52-1.65-.7-.38-1.48-.78-2.22-1.28-.73-.52-1.49-1.1-2.23-1.75-5.27-4.54-10.54-9.07-15.82-13.61-5.3-4.47-10.7-8.84-16.38-12.84-6.78-4.78-14.52-8.86-22.54-11.23-2.2-.7-4.45-1.14-6.7-1.52-2.25-.27-4.56-.52-6.78-.37-2.23.11-4.47.48-6.65 1.15-1.1.28-2.16.72-3.24 1.1-1.05.47-2.12.87-3.14 1.41-2.55 1.23-5 2.73-7.36 4.35-2.37 1.61-4.65 3.38-6.86 5.23-6.7 5.62-12.91 11.93-18.84 18.35-4.62 5-8.92 10.1-13.52 15.07-1.01 1.09-2 2.17-3.06 3.24-3.96 3.94-5.51 4.92-6.99 5.04-.34.03-.73.12-.98.08-.82-.15.48-2.06 3.23-4.98 8.09-8.76 16.31-18.38 25.26-27.6 3.33-3.41 6.77-6.76 10.39-9.95 3.62-3.18 7.44-6.21 11.57-8.85l.06.07Z" class="cls-2"/><path d="M245.78 359.93c-.71-.43-1.44-.8-2.14-1.08-.18-.09-.33-.12-.5-.18-.17-.06-.34-.12-.45-.13-.11-.02-.3-.08-.31-.06-.04 0-.1-.04-.22.01-.3.04-.74.41-1.2.68-.84.55-1.72 1.25-2.61 1.95-.89.7-1.85 1.38-2.79 2.05-.83.61-1.71 1.19-2.59 1.73-.28.18-.58.33-.87.5-.3.15-.58.34-.91.43-.33.1-.64.22-.98.27-.36.01-.7.03-1.03.09-.41.04-.38-.03-.13-.34.12-.16.3-.35.47-.67.1-.17.19-.33.27-.48.11-.15.22-.29.35-.41.45-.44.94-.79 1.4-1.2.45-.42.9-.82 1.34-1.25.92-.81 1.89-1.59 2.93-2.39 1.3-.9 2.34-2.18 3.9-3.23.46-.28.94-.55 1.57-.74.28-.11.7-.13 1.04-.16.33 0 .59.06.89.09 1.06.22 1.96.55 2.81.92 1.07.43 2.06.94 3.06 1.44 1.49.79 2.91 1.69 4.37 2.47 1.13.61 2.35 1.04 3.52 1.58.26.12.53.21.78.35.93.52 1.08.94.7 1.88-.09.21-.16.44-.27.64-.37.68-1.06.97-1.79.75-2.18-.65-4.21-1.78-6.22-2.9-1.47-.84-2.95-1.68-4.43-2.52l.03-.08ZM50.27 414.5c-.39-3.8-.46-7.61-.33-11.41.18-3.8.54-7.61 1.41-11.38.66-2.74 1.34-5.55 3.07-8.17.22-.39.55-.74.85-1.11.28-.37.66-.7 1.04-1.02.35-.34.82-.6 1.27-.86.43-.3.94-.37 1.66-.63.41-.03.84-.04 1.25-.04.4.11.82.19 1.16.45.18.11.36.21.53.34l.45.45c.34.31.49.57.68.84.66 1.09 1.01 2.13 1.33 3.16.58 2.05.93 4.06 1.24 6.06.6 4 .98 7.98 1.5 11.91.28 2.08.6 4.17 1.1 6.15.25.98.57 1.96.98 2.66.12.14.18.29.29.34.06.03.08.08.15.12l.3.16c.41.23.87.41 1.32.59 1.18.45 2.44.79 3.71 1.04 1.27.27 2.56.49 3.86.65 1.3.13 2.6.25 3.91.34.65.02 1.31.06 1.96.04.66.03 1.32.11 1.99.14 1.67.1 1.52.18.19 1.01-.67.37-1.65 1.05-2.93 1.38-.63.18-1.33.35-2.08.45-.75.13-1.55.18-2.37.12-2.92-.15-5.82-.6-8.66-1.69-.71-.27-1.43-.58-2.14-.95l-.54-.31-.31-.18-.4-.32c-.27-.22-.51-.46-.69-.72-.17-.24-.35-.48-.44-.68-.89-1.68-1.17-3.09-1.5-4.52-1.14-5.66-1.5-11.15-2.23-16.6-.26-2-.62-4.01-1.17-5.89-.28-.92-.61-1.85-1.03-2.53-.1-.13-.22-.34-.28-.41-.06-.06-.11-.13-.19-.17a.547.547 0 0 0-.48-.07c-.05 0-.06.03-.14.05-.1.04-.21.04-.31.11-.2.12-.39.24-.6.35-.19.17-.37.33-.57.49-.19.16-.35.4-.53.6-.68.85-1.27 1.89-1.73 3.02-1.37 3.22-1.98 6.89-2.39 10.51-.4 3.65-.46 7.35-.34 11.04.21 4.53.69 9.09 1.91 13.4.47 1.61 1.04 3.23 1.89 4.54.43.63.92 1.21 1.44 1.48.73.3 1.51.66 2.3.9 3.2 1.01 6.64 1.42 10.05 1.61 5.32.27 10.57-.15 15.86-.56 1.17-.1 2.31-.2 3.49-.29 4.38-.29 5.83-.14 6.79.71.22.18.5.35.63.52.41.54-1.33 1.19-4.5 1.5-4.71.52-9.61 1-14.63 1.19-2.51.08-5.05.14-7.63 0-1.28-.03-2.58-.17-3.88-.27-1.31-.18-2.61-.3-3.92-.59-1.95-.34-3.91-.96-5.86-1.78-1.5-.75-2.23-1.81-2.91-2.77-.58-.97-1.05-1.94-1.42-2.91-.74-1.93-1.23-3.85-1.61-5.77-.38-1.92-.68-3.84-.87-5.76l.08-.02Z" class="cls-2"/><path d="m140.34 366.54 43.7 1.42 15.93.36c18.72.5 37.43.81 56.14.54 8.3-.14 16.64-.49 24.85-1.06 10.55-.74 21.09-1.9 31.58-3.12 3.3-.25 2.89-.08.22.91-1.33.51-3.26 1.09-5.6 1.73-2.35.61-5.13 1.16-8.17 1.57-5.39.75-10.8 1.27-16.22 1.68-5.42.41-10.84.72-16.27.95-10.86.44-21.75.6-32.67.44-13.06-.2-26.66-.21-40.01-.53-14.68-.35-29.36-.85-44.03-1.28-9.03-.25-18.06-.5-27.07-.55-6.82-.01-13.68 0-20.43.52-1.68.14-3.36.32-4.99.61-.81.15-1.62.32-2.36.55-.76.22-1.45.54-1.77.92-.35.43-.68 1.14-.88 1.9-.22.75-.38 1.56-.5 2.36-.24 1.63-.36 3.29-.43 4.96-.17 5.2.2 10.4.73 15.55.54 5.15 1.31 10.26 2.25 15.36.42 2.24.88 4.43 1.37 6.67.9 4.16 1.58 6.87 1.96 8.8.38 1.93.47 3.09.36 4.09-.05.46-.06 1.04-.16 1.34-.32 1-2.13-2.14-3.88-8.27-2.55-9.09-4.26-18.63-5.26-28.41-.47-4.9-.8-9.85-.67-14.91.08-2.54.23-5.09.85-7.81.18-.69.36-1.39.7-2.15.12-.35.4-.79.64-1.19.25-.39.75-.93 1.15-1.22.42-.3.87-.57 1.22-.71l.57-.25.53-.18c.72-.26 1.37-.39 2.05-.56 1.96-.42 3.84-.64 5.72-.82 1.88-.18 3.74-.29 5.6-.37 3.72-.16 7.42-.21 11.12-.22 7.39-.01 14.77.13 22.13.3l.02.08ZM475.87 431.34c1.81.05 3.58.15 5.34.23.64.03 1.28-.04 1.92 0 2.26.14 4.52.37 6.77.49.5.03 1 .03 1.5.03.5.02 1 .03 1.49.05 1.27.04 2.55.14 3.83.41.4.09.35.32.02.64-.33.31-.94.8-1.67 1-.65.16-1.29.34-1.94.47-.65.09-1.29.24-1.94.23-1.3.02-2.6-.03-3.91-.16-1.57-.16-3.19.05-4.78.07l-5.25.04c-1.09 0-2.08.07-3.26.12-1.77.02-3.37-.18-5.02-.16-1.27 0-2.52.24-3.78.37-.28.03-.55.06-.83.05-1.03-.05-1.35-.33-1.54-1.26-.04-.21-.1-.42-.13-.63-.08-.7.36-1.28 1.13-1.54.57-.17 1.14-.39 1.72-.46.58-.08 1.16-.14 1.74-.17 1.17-.06 2.35-.04 3.52 0l2.52.1c.4.02.73 0 1.17 0l1.36-.03v.09ZM490.43 304.56c-.97 2.6-2.23 5.09-3.89 7.34a24.49 24.49 0 0 1-6.05 5.75c-1.7 1.1-3.46 2.14-5.36 2.79-3.33 1.23-6.81 1.76-10.24 1.92-.31 0-1.19.08-1.76.04l-1.57-.27-.78-.13c-.12-.03-.28-.02-.36-.08-.09-.07-.14-.23-.15-.32-.06-.41 0-.83.2-1.37.21-.54.6-1.13.95-1.69l.46-.77.28-.5c.09-.17.17-.34.21-.53.06-.2-.07-.4-.27-.44l-.1-.04c-.11-.04-.85-.36-1.36-.64-.53-.29-1.08-.67-1.51-1.01-.2-.12-.34-.15-.73-.15-.36 0-.76.06-1.17.13-.81.15-1.64.38-2.47.62l-1.81.55c-.31.09-.62.17-.97.25-.44.11-.98.1-1.4-.08-.94-.57-1.37-1.32-1.63-1.99-.26-.67-.39-1.2-.66-1.57-.48-.7-1.58-1.21-2.78-1.55-1.12-.32-1-.36.04-.61.53-.11 1.28-.3 2.34-.22.28.01.54.1.83.23.29.11.58.3.86.53.56.47.96 1.16 1.19 1.71.19.44.33.79.47.97.07.11.13.17.21.23.05.02-.03-.02-.02 0-.02 0 .11-.03.16-.04.32-.1.66-.21 1.01-.32.71-.22 1.44-.45 2.19-.67.75-.21 1.53-.41 2.39-.55.21-.04.43-.07.67-.08.23-.02.47-.04.75-.02.14 0 .26 0 .43.02l.54.13c.37.06.67.3.99.47.47.35.8.57 1.23.81.48.25.61.32 1.88.8.58.28.95.65 1.19 1.22.22.55.19 1.15.04 1.76-.13.58-.5 1.3-.63 1.54l-.14.25c-.04.06-.12.21-.11.19l-.05.06c-.08.08-.17.19-.28.33-.02.04-.05.07-.06.12 0 .05.04.03.06.05l.18.05.2.04c.1 0 .1.01.3 0 .57-.03 1.15-.03 1.71-.11.57-.06 1.14-.12 1.71-.2l1.7-.31c2.25-.48 4.44-1.22 6.47-2.2 2.24-1.07 4.29-2.51 6.03-4.27 1.74-1.76 3.18-3.84 4.3-6.09 1.37-2.79 2.28-5.81 2.63-8.9.3-2.34.2-4.71-.22-7.01-.39-2.31-1.31-4.49-2.6-6.38-2.02-2.96-5.07-4.94-8.36-6.12-.7-.32-1.47-.45-2.22-.67-.7-.18-1.26-.41-1.75-.54-.49-.13-.88-.26-1.2-.41-.64-.3-.98-.64-1.23-1.14-.11-.22-.28-.46-.34-.67-.21-.71 1.13-1.03 3.5-.82 3.47.54 7.07 1.84 10.15 4.22 3.09 2.35 5.43 5.83 6.57 9.59 1.68 5.62 1.13 11.54-.75 16.81l-.07-.02Z" class="cls-2"/><path d="M459.08 319.8c.42-.34.81-.7 1.17-1.06.16-.19.35-.38.49-.57l.11-.15s.03-.03.04-.05c.02-.02.03-.04.05-.06a.93.93 0 0 0 .21-.79c0-.09-.08-.02-.11 0l-.14.09c-.09.06-.17.12-.26.16l-.12.06-.07.03s-.04.01-.14.08l-1 .58c-.67.39-1.36.75-2.04 1.12-1.37.73-2.76 1.43-4.18 2.09-1.25.59-2.53 1.15-3.83 1.61-.84.28-1.68.59-2.58.72-.9.1-1.82.1-2.7-.04-.55-.11-.46-.11 0-.21.46-.09 1.26-.48 2.12-.92l.58-.28.59-.22c.39-.16.78-.33 1.17-.51.77-.36 1.53-.75 2.29-1.16 1.54-.75 3.08-1.58 4.64-2.4.94-.49 1.84-1.08 2.75-1.67l1.58-1.06c.76-.49 1.58-1.11 2.27-1.37.36-.12.66-.14.9-.13.11.03.21.06.33.1l.05.02.03.02h.01v.02c.1-.15.03-.04.05-.07s.08.11.08.11l.15.21.15.21.09.27c.05.18.14.35.16.55l.1.57v.6c-.07.81-.26 1.69-.76 2.51-.1.21-.22.42-.35.59-.1.14-.19.28-.29.41-.21.25-.41.52-.64.75-1.09 1.18-2.33 2.11-3.6 2.96-1.94 1.28-4.03 2.26-6.12 3.16-1.63.69-3.22 1.42-4.96 1.92-.38.11-.76.23-1.15.31-1.48.28-2.04 0-2.34-.69-.07-.16-.16-.32-.2-.48-.11-.55.43-.98 1.33-1.26 2.71-.79 5.59-1.87 8.35-3.2 2.03-1.01 4.05-2.12 5.71-3.52l.05.05ZM309.43 203.09l-.07 1.75c-.04.59-.07 1.17-.09 1.76-.02.43.05.85.03 1.28-.07 1.52-.14 3.05-.15 4.57 0 .68.04 1.35.06 2.02.02.43.06.86.06 1.29.04.43-.13.87-.22 1.31-.08.27-.22.25-.47.04-.13-.1-.29-.25-.47-.44-.09-.09-.18-.19-.27-.3-.05-.05-.08-.11-.13-.16-.02-.06-.04-.12-.05-.18-.2-.86-.38-1.72-.52-2.58-.07-.87-.11-1.75-.07-2.63.05-1.06-.2-2.14-.29-3.23-.08-1.19-.17-2.38-.16-3.58v-2.21c0-1.12.05-2.24 0-3.35-.04-.86-.25-1.71-.37-2.57-.03-.19-.08-.37-.09-.57 0-.71.19-.92 1.02-1.04.18-.03.35-.06.51-.08.51-.04 1.15.26 1.3.77.51 1.5.52 3.05.54 4.61 0 1.16-.02 2.33-.03 3.5h-.07ZM299.93 168.09c-.49-.07-1.24-.21-1.93-.88-.34-.32-.57-.75-.68-1.1-.14-.34-.2-.83-.15-1.27.03-.22.08-.45.16-.65.08-.18.17-.36.27-.53.19-.28.42-.55.61-.71.42-.38.79-.57 1.16-.77 1.44-.68 2.72-.92 4.03-1.16.95-.16 1.87-.37 2.82-.42 1.68-.07 3.3-.09 5.08.18.23.04.45.08.73.16.12.03.27.08.44.15.18.07.2.1.31.15l1.08.56c.73.39 1.48.82 2.15 1.35 1.21.92 2.29 1.98 3.21 3.1.6.72 1.18 1.45 1.66 2.24.46.8.85 1.64 1.2 2.49.21.53 0 .57-.5.31-.48-.27-1.34-.75-2.07-1.47-1.23-1.31-2.34-2.65-3.65-3.66-1.29-1.03-2.63-1.76-4.32-2.65-.06-.08-.66-.2-1.13-.22-.51-.03-1.05-.02-1.59 0-1.08.05-2.18.22-3.25.35-1.18.15-2.37.34-3.47.65-.54.15-1.07.34-1.49.56-.21.11-.37.23-.45.3-.01.01-.04.03-.04.04s-.08-.04-.12-.05c-.06-.02-.05-.02-.1-.03h.1l.1-.03c.02 0 0 0 0 0l-.09.05h-.02c-.02.01-.05.03-.07.05.03-.03 0 0 .08-.1l.03-.06s.01 0 .02.01c.08.05.39.09.7.08.65-.02 1.4-.15 2.15-.27 2.28-.37 4.83-.81 7.35 0 .24.07.48.16.72.26l.35.15c.12.06.31.16.4.23.44.29.8.56 1.17.85.73.57 1.44 1.16 2.11 1.81.29.29.6.57.88.89.47.64.69 1.18.72 1.62.04.44-.06.74-.3 1.01-.11.12-.21.24-.32.3-.4.15-.81-.13-1.64-.67-.57-.43-1.11-.94-1.68-1.44-.57-.49-1.17-.99-1.77-1.46-.29-.22-.61-.47-.82-.6-.04-.03-.01 0-.02 0s.11-.19.11-.19l.22-.41.1-.21.02-.05v-.03c.43-.82-.55 1.08-.45.89s-.02-.01-.02-.01l-.2-.08c-.13-.05-.27-.09-.41-.14-.56-.19-1.21-.18-1.89-.17-1.01-.02-2.13.12-3.32.32l-1.88.31c-.68.09-1.36.22-2.4.13v-.08Z" class="cls-2"/><path d="M346.8 248.21c-1.66-11.35-3.18-22.7-5.01-33.98-.67-4.11-1.49-8.2-2.31-12.25-.74-3.56-1.54-7.15-2.71-10.47-.3-.82-.63-1.62-1-2.34-.34-.66-.92-1.41-1.41-2.13-.5-.73-1.1-1.39-1.64-2.09-.58-.67-1.19-1.32-1.79-1.98-2.5-2.55-5.32-4.8-8.35-6.73-3.02-1.93-6.28-3.53-9.67-4.51-1.52-.41-2.98-.63-4.49-.53-1.54.11-3.07.42-4.56.9-.74.24-1.46.53-2.17.86-.35.17-.7.34-1.04.52-.27.14-.37.2-.55.31-.65.4-1.25.86-1.7 1.42-.16.2-.29.42-.35.67-.08.24.05.55.34.61.42.07.83-.13 1.19-.3.36-.18.71-.37 1.04-.56l.49-.26.25-.12.26-.12.33-.14c.87-.37 1.8-.68 2.77-.91 1.03-.21 1.9-.3 2.85-.36.94-.06 1.9-.08 2.89.03 2 .25 3.88 1.38 5.17 2.63.94.94 1.31 1.37 1.24 1.42-.08.05-.64-.26-1.71-.64-2.2-1.12-5.7-.59-9.87.33-.69.18-1.41.49-2.13.8-.09.05-.18.09-.27.13l-.53.24-1.19.6-2.36 1.18c-1.53.7-2.76 1-3.54.92-.38-.04-.73-.1-1.04-.23-.29-.16-.58-.34-1.02-.6-.35-.33-.71-.81-.86-1.28-.17-.46-.21-.87-.19-1.27.04-.8.32-1.61.93-2.51.62-.9 1.58-1.89 2.85-2.82.63-.47 1.33-.91 2.04-1.33.36-.2.73-.43 1.09-.6l.63-.3c1.68-.76 3.43-1.37 5.24-1.77.9-.2 1.82-.35 2.75-.43.47-.04.92-.07 1.41-.07.5.02 1.02.02 1.5.07 3.83.49 7.09 1.93 10.23 3.56 3.12 1.66 6.03 3.66 8.7 5.96 2.02 1.72 3.91 3.63 5.66 5.7.42.53.87 1.04 1.28 1.58l1.19 1.67c.84 1.22 1.4 2.57 1.89 3.84 1.84 5.16 2.89 10.37 3.9 15.55 2.11 11.4 3.69 22.84 5.39 34.26 1.03 7.03 2.07 14.05 3.19 21.06.44 2.65.88 5.3 1.31 7.96l.77 3.92c.27 1.3.64 2.58.96 3.87 1.41 5.13 3.32 10.11 5.76 14.79 1.86 3.65 4.12 7.04 6.67 10.15a44.69 44.69 0 0 0 8.64 8.25c1.38 1.09 2.9 1.88 4.4 2.78.71.4 1.4.66 2.01.96.62.28 1.16.58 1.69.78 1.06.37 1.9.7 2.59 1.01.34.17.66.29.94.39.29.11.54.22.77.33.46.23.81.47 1.13.75.29.25.68.52.84.75.27.38-.28.57-1.57.54-.64-.02-1.47-.06-2.44-.23-.95-.23-2.06-.54-3.3-.92-3.57-1.38-7.02-3.25-10.12-5.64-.78-.59-1.49-1.26-2.25-1.89l-1.11-.97-1.03-1.05c-.68-.71-1.39-1.4-2.05-2.13l-1.89-2.28c-2.44-3.1-4.65-6.43-6.47-9.96-1.91-3.49-3.42-7.19-4.76-10.94-.44-1.41-.95-2.81-1.34-4.23-.37-1.43-.79-2.86-1.11-4.3-.3-1.45-.61-2.91-.89-4.35l-.74-4.29c-.97-5.72-1.88-11.44-2.74-17.17l.08-.03ZM455.75 317.17c.88-.59 1.71-1.28 2.11-1.96.06-.08.1-.17.13-.24.04-.08.08-.16.09-.23.02 0 .04-.09.04-.15 0-.11-.01-.31-.16-.34-.1-.02-.21.01-.31.04-.3.1-.71.25-1.09.39-2.77 1.01-5.63 2.34-8.56 3.39-1.3.47-2.59.93-3.9 1.37l-1.27.4c-.43.11-.87.2-1.32.27-.44.06-.89.14-1.34.13-.45-.02-.91-.05-1.35-.08-.56-.06-.48-.09-.05-.32.21-.12.52-.31.86-.57.18-.12.36-.28.56-.4.2-.11.41-.22.64-.31.4-.17.79-.33 1.18-.52.39-.18.79-.31 1.19-.47l2.4-.99c1.63-.68 3.24-1.23 4.91-1.88 2.02-.73 3.88-1.91 6.14-2.67l.24-.07.34-.09c.24-.07.49-.11.72-.14.48-.06.95-.03 1.36.15.44.16.75.53.91.96l.15.31.09.34c.05.23.13.45.11.69 0 .24.03.48 0 .72l-.08.38c-.03.1-.04.2-.08.29-.14.37-.3.72-.5 1.03a7.43 7.43 0 0 1-1.35 1.57c-1.21 1.09-2.57 1.85-3.92 2.56-2.06 1.05-4.23 1.82-6.36 2.56-1.66.57-3.29 1.19-5 1.65-.38.09-.75.19-1.15.25-.73.11-1.23.09-1.59-.03-.35-.11-.57-.31-.72-.6-.07-.13-.17-.26-.2-.38-.12-.42.42-.79 1.34-1.16 2.78-.95 5.79-1.75 8.69-2.88 2.14-.83 4.3-1.76 6.08-2.99l.04.05ZM431.29 334.57c1.61-.57 3.07-.8 4.54-1.06l4.32-.69c1.04-.17 2.05-.43 3.08-.6 3.58-.68 7.26-1.19 10.43-2.77 1.33-.69 2.66-1.81 3.96-2.76l2.45-1.92c.81-.65 1.55-1.3 2.37-1.91.71-.29.4-.43.43.25.01.35-.1.8-.25 1.35-.19.53-.52 1.04-.95 1.52-1.5 1.71-3.23 3.04-4.9 4.37-.4.31-.95.74-1.44 1.03-.51.33-1.03.59-1.56.85-1.05.51-2.13.89-3.22 1.2-2.59.76-5.24 1.5-7.88 2-2.88.55-5.8.94-8.54 1.58-.71.17-1.42.36-2.03.6-.15.06-.29.13-.42.19-.08.05-.17.09-.24.15-.16.1-.28.28-.29.48l-.04.22c-.02.12-.04.23-.04.35-.2 2.51.17 5.24.72 7.82.46 2.02 1.17 3.93 1.88 5.84.17.42.33.83.5 1.25.29.78.43 1.31.39 1.74-.02.42-.17.71-.45 1.02-.13.14-.25.3-.38.41-.45.35-1.18-.12-1.85-1.24-1.75-3.42-2.91-7.28-3.58-11.32-.16-1.05-.3-2.1-.36-3.2-.04-.54-.04-1.11-.04-1.67l.04-.87c0-.14.03-.3.05-.45l.09-.71c.04-.1.06-.21.09-.31.07-.09.08-.2.13-.3.06-.21.14-.41.29-.58.24-.36.56-.67.9-.94.18-.13.36-.25.55-.37.17-.1.3-.16.44-.23.29-.15.53-.23.79-.35l.03.07Z" class="cls-2"/><path d="M325.43 222.21c.09-.88.13-1.79.14-2.7 0-.33-.08-.66-.08-.99 0-1.18 0-2.37-.09-3.56-.01-.53-.09-1.05-.17-1.57-.08-.67-.33-1.31-.11-2.04.1-.23.29-.23.64-.11.4.12.85.37.98.73.44 1.3.88 2.63.81 4.06-.01.85.24 1.69.34 2.54.11.94.16 1.89.19 2.84 0 .59.02 1.18.01 1.77 0 .9-.08 1.8-.12 2.71 0 .35.01.71.02 1.09.03.37.04.75 0 1.15-.01.17 0 .35-.03.53-.2.65-.53.76-1.32.47-.18-.07-.36-.12-.54-.2-.59-.28-.98-.72-1.05-1.06-.17-1-.01-1.96.11-3.08.09-.82.2-1.7.22-2.59h.07ZM317.52 385.79a148.62 148.62 0 0 1-2.69-10.67c-.75-3.6-1.37-7.24-1.6-11.01-.04-.69-.04-1.39-.06-2.09.05-.73 0-1.41.13-2.17.05-.38.09-.74.17-1.13l.34-1.19c.21-.43.48-1.02.83-1.32.16-.18.33-.37.5-.54l.53-.4c1.25-.88 2.49-1.27 3.7-1.59 1.21-.29 2.4-.54 3.58-.71 2.36-.37 4.7-.61 7.02-.84 4.65-.45 9.26-.86 13.84-1.49 4.06-.57 8.11-1.33 12.01-2.41 5.03-1.37 9.77-3.37 14.54-5.41.86-.14 1.25-.19 1.28-.11.03.09-.28.35-.68 1.03-.82 1.32-2.8 3.29-5.66 4.65-5.07 2.35-10.48 3.69-15.85 4.71-5.4.97-10.84 1.46-16.25 1.86-3.23.25-6.52.56-9.71 1.12-1.59.28-3.18.62-4.56 1.14-.71.23-1.31.54-1.77.85-.08.09-.17.16-.26.24-.07.08-.08.16-.14.23-.1.2-.18.59-.28.87-.32 1.52-.27 3.32-.16 5.05.1 1.76.36 3.53.63 5.3.57 3.54 1.37 7.08 2.29 10.58 1.13 4.31 2.44 8.59 3.9 12.8 2.23 6.38 4.74 12.72 7.79 18.69 2.35 4.64 5.1 8.97 8.21 12.97.72.84 1.4 1.7 2.17 2.49.67.78 1.27 1.37 1.76 1.88.47.53.89.9 1.19 1.26.6.74.91 1.2 1.05 1.81.06.27.19.59.19.82 0 .39-.42.47-1.23.2-.41-.13-.93-.33-1.45-.69-.53-.34-1.18-.74-1.78-1.3-3.72-3.21-6.57-7.26-9.18-11.44-2.56-4.22-4.78-8.68-6.8-13.22-2.98-6.76-5.48-13.73-7.6-20.82l.07-.03ZM238.67 145.93c5.97.15 11.94.28 17.91.31 2.18.02 4.36-.08 6.54-.06l23.08.28c3.41.05 6.85-.07 10.23-.06 4.35-.03 8.72-.15 13.07.47 1.36.24 1.17.44.03.92-1.15.55-3.26 1.28-5.76 1.49-8.87.66-17.74.57-26.69.34-5.36-.16-10.93.12-16.41.13-6.03.01-12.06-.03-18.1-.12-3.71-.07-7.43-.15-11.14-.22-5.62-.18-11.27-.35-16.85-.53-4.34-.11-8.6-.06-12.89-.1-.95-.01-1.87 0-2.82-.04-3.53-.15-4.64-.45-5.33-1.51-.16-.23-.37-.47-.46-.69-.29-.74 1.19-1.36 3.77-1.42 7.67-.21 15.71.02 23.78.25 6 .19 12.02.36 18.04.47v.09ZM193.93 215.51c.07 1.08.13 2.17.27 3.17.03.26.07.5.11.74.04.24.08.49.14.68.14.56.09.42.14.53.03.05.08.07.12.1 0 0 .03.01.07.02l.21.06c.15.04.32.08.48.12.68.14 1.42.27 2.17.36 1.51.19 3.08.32 4.65.42 3.14.21 6.33.31 9.51.39 3.14.07 6.29 0 9.43.04 11.1.15 22.22.25 33.35.26 4.94-.03 9.91-.05 14.81-.08 6.3.02 12.64-.34 18.99 1.13 1 .27 1.42.63 1.32.76-.1.15-.62.16-1.47.31-1.69.32-4.71.95-8.3 1.09-6.37.03-12.78.18-19.2.28-6.43.04-12.87.04-19.35-.07-7.75-.15-15.82.21-23.76.11-4.18-.05-8.37-.13-12.57-.33-2.1-.1-4.21-.23-6.33-.43-1.06-.11-2.13-.23-3.22-.42-.55-.1-1.09-.2-1.69-.38-.69-.19-1.53-.53-2.04-1.13-.34-.46-.55-.98-.77-1.51-.48-1.56-.59-2.9-.72-4.29-.11-1.38-.18-2.74-.22-4.09-.08-2.71-.09-5.4-.09-8.09 0-8.14.15-16.28-.08-24.33-.18-6.25-.68-12.36-1.28-18.5-.15-1.35-.29-2.67-.44-4.03-.52-5.04-.46-6.66.39-7.86.19-.27.37-.63.57-.8.34-.29.72.06 1.12.95.4.89.81 2.32 1.1 4.18 1.78 11.05 2.27 22.83 2.39 34.58.05 4.37.03 8.74.03 13.09s0 8.72.24 12.94l-.09.02Z" class="cls-2"/><path d="m262.92 434.94-59.96-.48c-7.29-.02-14.59-.04-21.87-.05-25.7-.18-51.39-.35-77.09-.53-11.4-.05-22.86 0-34.18.08-7.27.07-14.55.15-21.83.22l-5.46.05h-5.46c-3.64-.02-7.27-.05-10.9-.22-4.53-.2-3.94-.47-.12-1.17 1.91-.32 4.63-.94 7.92-1.22 1.64-.17 3.43-.33 5.33-.46 1.9-.14 3.91-.24 6.01-.26 29.7-.32 59.37-.29 89.3.13 17.9.25 36.53.11 54.84.19l60.41.33c12.39.06 24.79.11 37.17.17 18.76.06 37.62.18 56.24.14 14.48-.04 28.67-.3 42.99-.49 3.15-.05 6.24-.09 9.41-.14 11.78-.09 15.53.15 18.06 1.3.58.26 1.34.52 1.67.78 1.13.89-3.67 1.6-12.3 1.79-25.59.62-52.58.55-79.67.4-20.12-.16-40.33-.31-60.5-.47l-.02-.08ZM306.89 186.9c1.74.24 3.43.53 5.1.79.83.13 1.66.25 2.46.33l.39.05c.08 0 .16.02.25 0 .22-.06.18-.34.09-.5l-.08-.14-.04-.05s-.11-.13-.18-.19c-.3-.27-.61-.53-.97-.77-1.4-.98-3.2-1.59-4.97-2.17-.45-.14-.99-.3-1.37-.44-.05 0-.1-.03-.16-.02h-.07c-.04 0-.11.02-.17.03-.25.05-.57.17-.9.3-.65.27-1.35.63-2.05 1.01-1.4.75-2.84 1.58-4.42 2.27-.4.17-.8.34-1.23.48-.21.07-.43.15-.65.21-.24.08-.6.15-.9.2-1.27.24-2.47.03-3.37-.59-.46-.3-.84-.72-1.04-1.21-.19-.5-.03-.97.17-1.47.21-.5.58-1 .95-1.48.2-.24.39-.48.61-.71.23-.25.32-.34.48-.51 2.31-2.27 4.87-4.21 7.68-5.74.91-.48 1.84-.94 2.83-1.27.49-.17 1-.32 1.5-.44.48-.12.98-.23 1.48-.33 1.01-.19 2.1-.34 3.2-.17 1.1.18 2.1.62 2.96 1.19 1.06.74.76.81-.29.61-.53-.09-1.27-.19-2.09-.11-.82.08-1.64.29-2.62.57-.44.12-.88.27-1.35.43l-.7.25-.64.25c-.42.18-.84.37-1.24.59-.42.19-.83.4-1.24.62-1.64.89-3.21 1.98-4.67 3.19-.73.61-1.44 1.24-2.11 1.9l-.85.84s-.09.06-.15.11c-.05.05-.14.11-.14.2.02.07.06.14.12.19a.5.5 0 0 0 .25.09c.12 0 .1.05.64-.11 1.5-.45 3.08-1.36 4.68-2.28.81-.46 1.63-.95 2.53-1.4.46-.22.93-.44 1.5-.63.51-.17 1.43-.36 2.16-.15.73.2 1.31.35 1.97.56.63.24 1.27.42 1.89.7 1.58.66 3.15 1.47 4.56 2.71.18.15.35.31.51.49.19.21.46.48.62.74.17.27.36.53.51.81.11.28.26.56.34.85.14.57.21 1.15.08 1.7-.08.27-.17.54-.32.79-.18.22-.36.45-.59.58-.64.37-1.46.48-2.36.44-.43 0-.89-.05-1.23-.08l-.86-.1c-1.14-.14-2.25-.32-3.36-.49-1.67-.26-3.32-.52-4.95-.69-.41-.04-.81-.08-1.21-.1l-.6-.03h-.39c-.21 0-.43.01-.64.06-.2.04-.45.15-.47.38-.02.32.06.66.22.95.08.15.18.28.29.41.11.12.35.33.55.47.87.62 2.03 1.03 3.21 1.36 1.19.33 2.43.59 3.68.88 1.26.31 2.54.59 3.85 1.27.26.14.5.28.76.5.27.2.53.52.67.76.27.42.54.79.81 1.17.56.75 1.18 1.44 1.82 2.1 1.31 1.3 2.79 2.39 4.39 3.25.7.4 1.44.65 2.17.98 2.8 1 3.72 1.22 4.27 2.14.13.2.31.39.38.57.12.29-.15.5-.79.65-.32.08-.73.12-1.21.14-.48 0-1.04-.1-1.66-.21-3.67-.77-7.27-2.77-9.98-5.67a24.65 24.65 0 0 1-1.91-2.29c-.29-.4-.58-.82-.82-1.2-.08-.12-.06-.09-.07-.09l-.07-.04s-.09-.06-.16-.1c-.47-.27-1.25-.52-2.05-.74-.82-.21-1.7-.4-2.61-.6-1.35-.3-2.77-.62-4.26-1.2-.74-.29-1.51-.66-2.28-1.21-.66-.42-1.79-1.64-2.18-2.83-.42-1.21-.55-2.48.1-3.45.64-.96 1.81-1.38 3.14-1.48.33-.03.66-.06 1-.05a19.433 19.433 0 0 1 1.73.08c.73.06 1.43.14 2.13.23v.08Z" class="cls-2"/><path d="m319.06 177.91-9.11 5.28c-1.1.65-2.16 1.38-3.26 2.02-3.92 2.24-7.84 4.49-11.8 6.67-1.75.98-3.48 2.02-5.17 3.06-1.09.67-2.18 1.34-3.32 1.94-1.13.6-2.28 1.18-3.53 1.57-.85.12-.79 0-.46-.77.35-.75 1.06-1.98 2.27-2.81 1.05-.77 2.1-1.54 3.21-2.2l3.3-2.06c2.22-1.36 4.45-2.7 6.78-3.91 2.78-1.46 5.45-3.35 8.18-5.04l9.04-5.54 5.58-3.39c2.81-1.72 5.68-3.39 8.43-5.16 2.15-1.37 4.14-2.9 6.22-4.33.46-.32.88-.66 1.36-.96 1.76-1.11 2.46-1.22 3.35-.56.2.15.43.28.6.45.56.58.15 1.57-1.03 2.52-3.52 2.82-7.5 5.32-11.53 7.82-2.99 1.85-6.03 3.66-9.06 5.49l-.05-.07Z" class="cls-2"/><path d="M297.24 185.34c.46-.13.96-.32 1.46-.56.18-.09.33-.22.53-.29.7-.25 1.38-.59 2.12-.86.33-.12.62-.29.93-.45.37-.23.89-.34 1.42-.18.16.06.12.13.03.29-.1.14-.17.48-.26.71-.08.21-.2.35-.33.48-.13.14-.26.29-.4.43-.28.29-.58.56-1 .71-.48.2-.83.64-1.26.96-.48.34-1.04.61-1.61.89-.36.16-.72.31-1.11.45-.59.2-1.25.33-2.03.27-.59-.03-1.31-.22-1.78-.65-.12-.09-.21-.17-.3-.27-.3-.39-.13-.63.42-.99.13-.08.26-.17.39-.24.45-.23.91-.31 1.15-.28.17.01.31.04.41 0 .05-.02.09-.02.12-.06.06-.09-.06.11-.04.06-.03.05 0 0 .03-.15.03-.14 0-.03.02-.07h.06c.17 0 .59-.05 1.02-.23l.03.06ZM308.98 287.99c-2.37-7.99-4.18-16.14-5.45-24.38-.46-3-.95-6.01-1.24-9.03-.5-5.34-.75-10.7-.66-16.06.02-1.34.06-2.68.12-4.02.04-.67.05-1.34.1-2.01l.07-1 .03-.5c.02-.18 0-.3.06-.56l.51-2.77c.04-.11 0-.25.1-.32.08-.09.18-.14.28-.2.19-.1.41-.17.63-.23.45-.11.94-.16 1.45-.2.25-.02.51-.02.77-.01l.57.02 1.01.04 1.99.09c4.69.22 9.37.25 13.99 0 2.96-.16 5.92-.47 8.85-.86 1.47-.19 2.93-.41 4.39-.63.73-.13 1.47-.2 2.21-.26.74-.05 1.51-.03 2.27-.03.96.03 1.39.08 1.39.19s-.41.33-1.1.85c-.7.49-1.67 1.35-2.95 2.01-1.29.64-2.87 1.11-4.61 1.4-6.19 1.01-12.45 1.37-18.67 1.32-3.08-.05-6.27-.25-9.18-.39-.09-.02-.2-.06-.33-.04-.04.12-.07.27-.11.44l-.2 2.19-.17 2.27c-.49 7.28.09 14.89.96 22.32.95 8.17 2.49 16.29 4.55 24.28 1.29 4.91 2.75 9.78 4.48 14.56 2.61 7.23 5.67 14.37 9.49 20.96 2.99 5.09 6.45 9.84 10.61 13.75.92.86 1.87 1.62 2.88 2.34 1.87 1.33 3.15 2.02 4.08 2.49.92.47 1.46.79 1.92 1.2.21.17.51.34.65.49.23.25-.15.48-1.13.59-.98.12-2.54-.11-4.32-.88-2.64-1.15-4.87-2.96-6.91-4.89-2.04-1.95-3.86-4.11-5.56-6.37-3.37-4.54-6.22-9.48-8.73-14.57-3.72-7.57-6.7-15.5-9.16-23.54l.07-.03ZM386.58 323.65l-.7 1.02c-.24.34-.37.73-.57 1.1-.43.73-.6 1.55-.88 2.34-.19.59-.14 1.21-.28 1.82-.31 2.16-.09 4.44.64 6.62.2.47.41.93.63 1.4.12.23.22.47.35.69l.44.63c.39.53.75 1.08 1.16 1.6.41.52.81 1.06 1.16 1.66.15.45.04.5-.46.5-.49 0-1.3-.18-2.01-.67-.67-.4-1.1-1.03-1.6-1.6l-.73-.88c-.21-.32-.4-.65-.59-.98-.84-1.29-1.31-2.81-1.55-4.34-.07-.93-.34-1.83-.35-2.79l-.11-1.42c0-.47.05-.95.09-1.42.05-1.05.37-2.05.65-3.04.13-.5.4-.96.59-1.44.22-.47.39-.96.69-1.38l1.01-1.6 1.21-1.45c.28-.39.67-.67 1.01-1 .35-.31.7-.64 1.06-.94l1.16-.81c.39-.27.75-.57 1.17-.77.64-.34 1.23-.77 1.86-1.13l1.97-.97c.29-.16.59-.25.91-.33 1.17-.29 1.61-.09 1.97.73.08.18.18.36.24.55.18.6-.17 1.31-.84 1.68-.25.14-.51.26-.76.38-.13.06-.26.11-.38.17l-.37.21c-.49.27-.98.51-1.49.73-.93.58-1.92 1.05-2.78 1.74-.71.42-1.24 1.04-1.88 1.56-.3.28-.53.61-.81.92-.26.31-.56.61-.75.97l-.07-.04Z" class="cls-2"/><path d="M387.8 299.69a20.71 20.71 0 0 0 2.57 7.29c.23.42.54.79.81 1.18.28.39.55.78.86 1.15 2.02 2.69 4.62 5.07 7.71 6.66 1.36.72 2.84 1.2 4.31 1.61l1.43.34c.48.11.97.13 1.45.26.96.26 1.94.35 2.93.76.62.43.55.34 0 .77-.54.39-1.63 1.18-2.9 1.15-1.13.07-2.23-.14-3.33-.35-1.12-.14-2.17-.58-3.23-.96-2.05-.91-4.05-2-5.75-3.49-2.04-1.73-4.15-3.55-5.76-5.77a24.368 24.368 0 0 1-3.75-8.11c-.42-1.79-.68-3.6-.73-5.44-.03-2.78.45-5.52 1.28-8.13.63-2.02 1.36-4.03 2.56-5.87.25-.41.51-.81.83-1.19 1.18-1.4 1.89-1.53 2.66-1.12.18.1.38.18.53.3.51.43.29 1.21-.32 2.12-1.89 2.63-3.25 5.78-3.94 9.17-.49 2.53-.6 5.1-.15 7.65l-.08.02Z" class="cls-2"/><path d="M388.56 273.86c.47-.63.86-.88 1.26-1.19.39-.28.78-.52 1.16-.73.77-.44 1.53-.81 2.3-1.15.56-.25 1.08-.57 1.65-.78 2.02-.72 4.05-1.27 6.07-1.84.9-.24 1.79-.52 2.66-.79.56-.17 1.12-.36 1.69-.51.56-.18 1.18-.18 1.77-.25.38-.02.38.18.17.53-.22.33-.62.96-1.22 1.28-2.18.98-4.31 1.96-6.61 2.57-1.37.39-2.65 1.14-3.94 1.75-1.42.65-2.85 1.36-3.99 2.21-.15.13-.34.27-.44.38-.12.12-.18.16-.24.32-.04.15-.15.32-.18.47 0 .15-.07.3-.03.44 0 .43.33.9.8 1.33.46.44 1.07.8 1.71 1.1 1.01.47 2.12.67 3.27 1 .26.08.51.11.77.23.94.39 1.25.89.94 1.65-.07.17-.13.35-.23.5-.17.25-.41.42-.65.53-.12.06-.22.1-.35.12-.14.02-.28.02-.43 0-.91-.11-1.94-.37-3-.73-1.06-.37-2.16-.85-3.28-1.63-.81-.6-1.75-1.37-2.28-2.78-.1-.36-.18-.73-.23-1.1-.01-.36.02-.73.06-1.08.03-.37.17-.63.27-.94l.18-.46.32-.5.06.04ZM441.88 294.44s0 .04.33.07c.27.02.64 0 1.03-.05.78-.08 1.67-.23 2.62-.33.94-.1 1.97-.13 3.03 0 1.06.12 2.15.48 3.11 1.03.36.2.68.43 1 .66.31.25.6.51.9.77.28.29.53.6.79.91.22.34.44.68.62 1.04.63 1.29.84 2.72.74 4.05-.1 1.33-.48 2.58-1.03 3.71a11.188 11.188 0 0 1-5.17 5.2c-.99.48-2.09.82-3.2.89-1.11.09-2.2-.02-3.23-.24-2.62-.7-5-1.93-6.8-3.82-.54-.63-.46-.55.27-.44.35.06.93.04 1.5.16.58.12 1.25.24 1.91.47 1.15.43 2.28.82 3.39 1.01 1.1.22 2.14.33 3.12.16 1.92-.29 3.83-1.68 5.08-3.48a6.842 6.842 0 0 0 1.26-3.73c0-1.3-.41-2.48-1.22-3.37-.9-1.06-2.14-1.65-3.58-1.77-1.47-.14-3.08.21-4.95.44-.6.06-1.18.12-1.97 0-.81-.12-1.6-.49-2.11-1.13-.53-.63-.79-1.42-.91-2.04-.1-.64-.17-1.24-.13-1.83.01-1.82.5-3.59 1.24-5.18.74-1.6 1.76-3.01 2.88-4.3 1.74-2.01 3.75-3.73 6.09-5.03.5-.3 1.03-.55 1.57-.79 2.07-.8 2.86-.64 3.46.12.14.18.3.35.4.53.3.66-.4 1.32-1.63 1.9-1.85.88-3.6 1.98-5.18 3.3-1.56 1.33-2.93 2.89-3.92 4.61-.72 1.28-1.21 2.64-1.36 3.99-.05.65-.1 1.4-.01 1.94l.08.41s.02.04.04.06l-.04.08Z" class="cls-2"/><path d="M436.67 217.04c-.6-.18-1.22-.25-1.83-.36-.61-.09-1.22-.23-1.84-.29-1.24-.09-2.48-.27-3.73-.24-2.5-.09-5 .21-7.46.63-2.46.48-4.86 1.22-7.16 2.17-2.27 1.02-4.46 2.23-6.42 3.74-2.89 2.2-5.09 5.05-6.53 8.31-1.34 2.88-2.13 5.98-2.04 9.09.07 3.11 1.01 6.18 2.57 8.96 1.56 2.79 3.69 5.3 6.08 7.55 2.4 2.24 5.05 4.26 7.86 6.05 4.99 3.19 10.43 5.75 15.92 7.92 7.09 2.76 14.45 4.76 21.76 6.86 1.12.47 1.61.7 1.56.77-.05.08-.63.05-1.69.22-1.06.16-2.54.16-4.33.11-1.78-.11-3.85-.37-6.03-.9-1.94-.44-3.85-1-5.74-1.61-1.89-.6-3.77-1.25-5.64-1.95-3.72-1.4-7.41-2.96-10.96-4.82-3.55-1.86-7.01-3.96-10.25-6.4-3.24-2.44-6.29-5.24-8.81-8.55-1.45-2.03-2.84-4.15-3.79-6.55-.29-.57-.43-1.21-.65-1.82-.2-.62-.41-1.23-.51-1.88-.12-.64-.26-1.28-.37-1.92l-.14-1.96c-.05-2.6.25-5.25 1.11-7.69.76-2.46 1.89-4.78 3.37-6.92 1.61-2.35 3.71-4.28 5.95-5.94 1.11-.86 2.32-1.55 3.51-2.25.61-.33 1.24-.62 1.86-.93.61-.32 1.25-.59 1.9-.83 5.12-2.1 10.66-2.94 16.14-2.79 3.38.15 6.72.73 9.96 1.7 3.22 1 6.29 2.41 9.17 4.11 2.19 1.28 4.27 2.74 6.21 4.37 1.94 1.62 3.8 3.36 5.46 5.27 1.67 1.9 3.21 3.91 4.57 6.05 1.35 2.14 2.47 4.43 3.45 6.71 3.04 7.14 4.93 14.64 5.42 22.35.04.85.09 1.69.13 2.53.01.84.03 1.69.02 2.54-.2 6.36-1 8.32-2.06 9.5-.25.27-.51.63-.73.77-.75.47-.89-2.11-.71-6.55.26-6.59-.29-13.34-1.9-19.93-.8-3.29-1.87-6.54-3.2-9.69-.32-.79-.7-1.56-1.05-2.34-.37-.77-.75-1.49-1.14-2.24-.84-1.45-1.72-2.88-2.74-4.23-2.96-4.06-6.69-7.59-10.84-10.49-4.17-2.87-8.81-5.07-13.69-6.14v-.09ZM415.72 321.88c.32-.3.71-.62 1.04-.85.3-.18.6-.38.9-.55.61-.34 1.23-.64 1.86-.91 1.26-.53 2.53-.92 3.78-1.23 2.5-.63 4.94-.98 7.24-1.52 1.6-.35 3.11-1.07 4.72-1.77 2.81-1.24 5.61-2.68 8.44-4.09l2.15-1.05.6-.29.85-.39c.56-.25 1.13-.49 1.66-.64.53-.15 1.02-.24 1.45-.24.42.03.84 0 1.17.38l.06.07c.08-.04.05.03.08.04l.09.16.17.31c.05.24.14.47.17.71.07.48.08.97-.04 1.46-.17.87-.62 1.77-1.27 2.59l-.51.61-.49.48c-.28.26-.55.51-.84.75-1.14.95-2.35 1.75-3.58 2.48-1.58.93-3.21 1.76-4.88 2.47-1.67.71-3.41 1.33-5.27 1.46-1.18.02-1.02-.08-.24-.75.39-.33.9-.87 1.56-1.38.33-.25.67-.55 1.06-.8.39-.24.81-.47 1.26-.68 1.59-.76 3.15-1.59 4.63-2.5 1.47-.9 2.91-1.87 4.06-2.96.07-.07.15-.13.21-.2.07-.07.15-.16.14-.14l.04-.02s.06-.04.09-.07c.06-.06.15-.17.16-.32 0-.17-.13-.12-.24-.13-.21.05-.03-.11-1.14.4-3.97 1.78-7.86 4.24-12.17 6.03-.6.24-1.2.47-1.84.67-.65.21-1.29.37-1.9.51-1.24.29-2.46.52-3.66.77-2.4.49-4.73 1.01-6.81 1.97-.65.28-1.24.64-1.83 1.01-.45.34-.85.7-1.16 1.27-.66 1.07-1.01 2.49-1.22 3.91-.61 4.37-.26 9.02.3 13.5.45 3.51 1.21 6.9 1.84 10.37.14.77.3 1.51.41 2.3.21 1.45.27 2.44.13 3.16-.15.71-.44 1.14-.86 1.45-.19.14-.38.32-.55.38-.3.11-.55-.15-.8-.61-.27-.49-.55-1.23-.73-2.24-1.23-6.02-2.57-12.59-3.08-19.38-.18-2.53-.32-5.08-.11-7.74.11-1.33.26-2.67.64-4.07.38-1.38.95-2.88 2.21-4.22l.07.05Z" class="cls-2"/><path d="M462.35 437.58c-.3.84-.63 1.68-1.01 2.51-.34.84-.76 1.65-1.18 2.46-.39.82-.92 1.59-1.38 2.39-.55.76-1.03 1.55-1.67 2.26-1.16 1.48-2.66 2.77-4.35 3.8-.44.23-.86.51-1.32.69l-1.41.53c-.97.24-1.96.49-2.97.49-3.86.16-7.57-.92-10.82-2.74-3.24-1.85-5.95-4.39-8.2-7.19-3.3-4.09-5.84-8.65-7.89-13.35-3.59-8.32-5.93-17.03-7.78-25.78-1.82-8.77-3.09-17.62-4-26.5-.39-3.94-.76-7.9-1.03-11.86l-.18-2.98-.03-.75-.03-.92c.01-.36.03-.73.13-1.07l.3-.45.38-.39c.29-.22.59-.44.95-.56l.52-.21.41-.11c.55-.15 1.07-.23 1.58-.3 1.03-.13 2.03-.2 3.02-.25 2.55-.12 5.05-.14 7.55-.25 2.5-.11 4.98-.27 7.44-.56 1.23-.15 2.46-.31 3.67-.54 1.22-.18 2.43-.43 3.64-.69 1.2-.29 2.39-.6 3.56-.98 1.18-.36 2.38-.68 3.54-1.13 2.9-1.12 2.56-.97.39.65-1.1.78-2.68 1.99-4.85 2.93-1.07.5-2.27.96-3.56 1.39-.65.2-1.32.41-2.01.6-.7.16-1.42.31-2.15.43-5.21.9-10.49 1.11-15.58 1.29-1.27.04-2.52.09-3.7.21-.59.05-1.15.14-1.63.25l-.39.1h-.02v.01l.01.42.06 1.89.18 3.82c.6 10.2 1.81 20.4 3.51 30.54 1.04 6.06 2.42 12.2 4.25 18.22 1.84 6.01 4.06 11.96 6.99 17.43 1.6 3.01 3.46 5.87 5.64 8.43 2.2 2.52 4.74 4.76 7.69 6.2 1.47.72 3.02 1.26 4.62 1.57 1.61.29 3.28.4 4.77.17 1.54-.21 2.96-.92 4.24-1.86.66-.44 1.21-1.04 1.8-1.59.52-.64 1.09-1.22 1.54-1.92 1.2-1.65 2.16-3.5 2.97-5.42.84-1.91 1.49-3.91 2.08-5.93 1.13-4.06 1.89-8.24 2.4-12.46.76-6.39.99-12.86.82-19.31-.19-6.45-.75-12.89-1.79-19.2-1.59-9.81-4.54-19.21-9.05-27.81-1.02-1.87-2.08-3.67-3.3-5.41-2.23-3.25-3.98-5.12-5.19-6.45-1.24-1.28-1.88-2.15-2.37-2.97-.22-.38-.56-.83-.66-1.13-.17-.5.51-.44 1.99.16.75.28 1.56.87 2.58 1.54.92.76 2.03 1.65 3.06 2.81 3.18 3.39 5.66 7.38 7.76 11.53 2.09 4.17 3.8 8.55 5.19 13.06 1.38 4.51 2.42 9.17 3.2 13.84.78 4.68 1.33 9.41 1.64 14.16.43 7.06.4 14.16-.24 21.24-.67 7.07-1.81 14.17-4.27 21.01h-.08ZM410.43 269.45c-1.07.64-2 1.62-2.77 2.58-.95 1.19-1.91 2.6-1.98 4.17-.08 1.69 1.26 3.04 2.77 3.57s3.23.24 4.72-.21c1.66-.5 3.23-1.27 4.75-2.09.65-.35.86-1.26.49-1.88-.39-.66-1.23-.85-1.88-.49-.52.28-1.04.56-1.58.81-.28.14-.56.26-.85.39-.03.01-.28.12-.13.06s-.1.04-.13.05l-.54.21c-.64.24-1.3.44-1.97.57-.14.03-.28.05-.43.07-.21.03.22-.02 0 0-.06 0-.12.01-.18.02-.33.03-.65-.01-.97 0-.2 0 .23.06.04 0-.07-.02-.14-.03-.21-.04-.12-.03-.24-.07-.36-.1-.23-.06-.01 0 .04.02-.06-.03-.13-.06-.19-.09s-.12-.07-.18-.1c-.03-.02-.27-.2-.12-.08.13.11-.14-.14-.18-.18-.05-.05-.1-.11-.15-.17.17.21.04.05.01 0-.16-.31.05.13-.03-.04 0-.02-.04-.15-.04-.16 0 0 0 .34.02.12.01-.11.01-.24 0-.35.01.36 0 .05.04-.09.03-.13.08-.25.12-.38 0-.03.07-.19 0-.03-.08.19.04-.09.06-.13.27-.55.61-1.07.98-1.56-.17.22.15-.18.19-.23a13.579 13.579 0 0 1 1.03-1.1c.2-.19.4-.37.61-.54.24-.2-.21.14.07-.05l.27-.18c.64-.38.87-1.24.49-1.88s-1.24-.87-1.88-.49ZM392.39 296.06c2.17 1.21 5.01 1.15 7.08-.26.59-.4.91-1.23.49-1.88-.38-.59-1.25-.93-1.88-.49-.19.13-.4.25-.61.36-.05.03-.11.05-.16.08-.14.06-.11.05.09-.03-.02-.01-.3.11-.33.12-.22.07-.45.13-.68.18-.06.01-.12.02-.17.03.22-.03.25-.03.1-.01-.12 0-.23.02-.35.03-.24.01-.47 0-.71-.01-.06 0-.12-.01-.18-.02.22.03.25.04.1.01-.12-.02-.23-.04-.35-.07-.23-.05-.45-.13-.67-.2-.14-.05-.11-.04.08.04-.05-.02-.11-.05-.16-.07-.11-.05-.21-.11-.31-.16-.63-.35-1.53-.17-1.88.49s-.18 1.51.49 1.88ZM242.43 201.85c-.26-.1-.55-.25-.73-.48-.25-.16-.39-.4-.54-.6-.27-.44-.42-.93-.49-1.51-.09-.56 0-1.28.13-2 .17-.75.39-1.5.63-2.25l.85-2.55c.25-.77.49-1.54.69-2.29.2-.75.37-1.5.45-2.2.09-.69.05-1.36-.06-1.71-.07-.16-.09-.25-.14-.28-.06-.04-.13-.12-.37-.14-.42-.08-1.15.01-1.79.18-.93.24-1.91.77-2.83 1.39-.93.62-1.82 1.34-2.7 2.09-1.55 1.33-2.94 2.87-4.24 4.47-.32.4-.64.82-.93 1.22-.11.14-.21.28-.32.43-.21.3-.43.64-.57 1.05-.03.1-.06.21-.04.31.02.11.11.17.21.18.19.02.37-.05.54-.12.35-.16.7-.39 1.05-.65l.33-.26.6-.49c.4-.33.79-.68 1.18-1.03.78-.7 1.53-1.43 2.27-2.18 2.61-2.67 4.97-5.64 7.01-8.73 2.6-4 4.74-8.26 6.28-12.74.48-1.4.58-1.22.73.12.05.67.18 1.66.01 2.8-.14 1.14-.43 2.47-.95 3.82-.45 1.2-.99 2.36-1.6 3.49-.6 1.13-1.23 2.23-1.9 3.31a62.601 62.601 0 0 1-4.4 6.2 58.241 58.241 0 0 1-5.14 5.64c-.46.44-.94.88-1.42 1.3l-.74.63-.51.43-.67.53c-.89.69-1.82 1.3-2.65 1.66-.84.36-1.52.47-2.13.45a2.73 2.73 0 0 1-1.08-.27c-.17-.11-.38-.25-.52-.43-.14-.2-.21-.39-.28-.56-.25-.68-.17-1.45.14-2.41.32-.97.96-2.08 1.66-3.14.18-.26.35-.54.54-.79l.39-.53.73-.94c.98-1.24 2.04-2.43 3.16-3.55 1.12-1.13 2.29-2.21 3.6-3.16 1.43-1.04 3.03-2.01 4.96-2.45.93-.19 1.96-.37 3.2.02.6.19 1.24.61 1.63 1.17.41.54.62 1.14.72 1.67.21 1.08.13 2.03.01 2.94-.12.9-.31 1.77-.52 2.61-.21.84-.45 1.66-.69 2.47l-.6 1.94c-.13.45-.31.92-.28 1.42 0 .25.22.51.47.43.24-.03.45-.15.66-.28.21-.12.41-.27.62-.42.23-.18.32-.24.79-.63.77-.65 1.54-1.32 2.3-2.01 1.79-1.6 3.58-3.24 5.49-4.78.96-.77 1.95-1.52 3.05-2.18l.42-.24c.13-.08.37-.18.55-.27.38-.21.78-.32 1.18-.46.8-.2 1.59-.19 2.31.13.4.22.79.55.98.97.2.42.28.88.29 1.35 0 .48-.07.97-.2 1.46-.07.24-.13.5-.21.73l-.19.55c-.43 1.19-.91 2.29-1.32 3.39-.2.54-.4 1.09-.54 1.61-.07.26-.14.54-.16.72-.03.21-.04.31-.03.47 0 .29.12.58.38.71.12.07.26.1.4.11h.55l3.53.09c1.04.03 2.06 0 3.09.06 1.91.07 3.12.1 3.97.21.85.14 1.33.33 1.83.69.22.15.51.27.69.42.31.24.12.67-.62 1.12-.73.45-1.94.83-3.45.95-2.05.19-4.07.21-6.08.1l-2.99-.15-.48-.03c-.18-.01-.27 0-.54-.04-.23-.03-.47-.07-.7-.12-.22-.06-.44-.15-.66-.23-.84-.36-1.59-.99-1.95-1.86-.38-.84-.43-1.83-.28-2.81.17-.87.32-1.36.49-1.93.36-1.08.76-2.07 1.14-3l.53-1.36.22-.64c.03-.1.01-.05.02-.06s-.01 0-.01 0l-.35.22c-.29.17-.6.39-.9.6-.61.43-1.23.93-1.84 1.43-1.23 1.02-2.45 2.13-3.69 3.25-1.24 1.13-2.47 2.27-3.8 3.41l-.53.45-.94.76c-.31.26-.65.46-.97.7-.33.25-.65.42-.97.57l-.48.25-.46.15-.45.15-.42.06c-.57.09-1.05.03-1.58-.19l.03-.08ZM316.32 250.67l-5.09-3.95c-.41-.32-.78-.55-1.33-.55-.46 0-1.01.2-1.33.55s-.57.83-.55 1.33c.02.46.17 1.03.55 1.33l5.09 3.95c.41.32.78.55 1.33.55.46 0 1.01-.2 1.33-.55s.57-.83.55-1.33c-.02-.46-.17-1.03-.55-1.33Z" class="cls-2"/><path d="M311.56 257.92c1.32-.85 2.64-1.69 3.95-2.54.35-.23.63-.56.75-.97.11-.39.06-.91-.16-1.25s-.56-.65-.97-.75-.88-.07-1.25.16c-1.32.85-2.64 1.69-3.95 2.54-.35.23-.63.56-.75.97-.11.39-.06.91.16 1.25s.56.65.97.75.88.07 1.25-.16ZM342.62 305.38c2.72 2.65 5.27 5.48 7.63 8.46.53.67 1.75.6 2.3 0 .65-.71.57-1.58 0-2.3a88.682 88.682 0 0 0-7.63-8.46c-.61-.59-1.7-.65-2.3 0s-.65 1.66 0 2.3Z" class="cls-2"/><path d="M346.91 317.52c1.32-1.41 2.63-2.82 3.95-4.24.29-.31.48-.72.48-1.15 0-.4-.18-.87-.48-1.15-.63-.58-1.68-.66-2.3 0-1.32 1.41-2.63 2.82-3.95 4.24-.29.31-.48.72-.48 1.15 0 .4.18.87.48 1.15.63.58 1.68.66 2.3 0ZM344.48 386.39c1.3 1.24 2.6 2.48 3.91 3.72.31.29.72.48 1.15.48.4 0 .87-.18 1.15-.48s.5-.72.48-1.15-.16-.85-.48-1.15c-1.3-1.24-2.6-2.48-3.91-3.72-.31-.29-.72-.48-1.15-.48-.4 0-.87.18-1.15.48s-.5.72-.48 1.15.16.85.48 1.15Z" class="cls-2"/><path d="M341.19 391.43c.39-.62.8-1.23 1.23-1.82.22-.31.45-.61.67-.91.14-.19-.17.21-.02.03l.19-.25c.12-.15.24-.29.36-.44.94-1.15 1.95-2.25 3.02-3.29.61-.59.64-1.71 0-2.3s-1.65-.63-2.3 0c-2.26 2.2-4.27 4.68-5.96 7.34-.46.72-.17 1.82.58 2.22.8.42 1.73.18 2.22-.58ZM383.06 370.4c.33-.34.68-.65 1.05-.94l-.38.29c.69-.53 1.44-.97 2.24-1.31l-.45.19c.39-.16.79-.3 1.19-.42.46-.13.88-.45 1.12-.86s.33-.99.19-1.44c-.31-.96-1.3-1.6-2.31-1.31-2 .57-3.86 1.67-5.32 3.16-.34.35-.55.84-.55 1.33 0 .46.2 1.01.55 1.33.74.68 1.92.75 2.65 0ZM371.55 410.39c1.63 2.01 3.26 4.02 4.89 6.02.32.4 1.01.62 1.5.62.52 0 1.14-.23 1.5-.62s.65-.94.62-1.5c-.03-.6-.25-1.04-.62-1.5-1.63-2.01-3.26-4.02-4.89-6.02-.32-.4-1.01-.62-1.5-.62-.52 0-1.14.23-1.5.62s-.65.94-.62 1.5c.03.6.25 1.04.62 1.5ZM450.29 372.51c.34 2.07.73 4.13 1.2 6.18.18.75.44 1.46.62 2.2.32 1.3.67 2.6 1.06 3.87l.07.24.03.11.06.23.13.44c.1.3.23.63.44.94.05.06.11.13.17.16.26.12.51-.12.55-.38.06-.26.06-.54.04-.8a4.51 4.51 0 0 0-.09-.55l-.06-.25c-.02-.11-.04-.08-.05-.32-.06-.76-.12-1.5-.18-2.28-.03-.47.27-.51.74-.21.45.3 1.14.93 1.49 1.83l.13.36s-.01.16.14.27c.09.12.08.25.13.38.13.52.29 1.02.33 1.56l.11.8c.01.25-.04.44-.05.67-.03.21-.04.46-.09.63l-.16.5c-.24.63-.55 1.03-.96 1.33-.1.08-.21.15-.34.21-.12.08-.25.14-.42.16-.3.08-.68.11-.97.15-.74-.26-1.26-.42-1.84-1.21-.14-.17-.27-.42-.4-.63-.13-.22-.26-.42-.37-.69-.22-.51-.46-1-.61-1.51l-.2-.57c-.06-.18-.15-.4-.17-.49l-.23-.71c-.16-.47-.31-.94-.47-1.42-.32-.94-.64-1.89-.9-2.85-.57-2.1-1.03-4.22-1.45-6.34-.26-1.31-.49-2.62-.72-3.93-.35-1.99-.56-4-.84-5.99-.22-1.54-.52-3.05-.63-4.62-.03-.34-.06-.68-.07-1.03.02-1.3.26-1.72.84-1.95.13-.05.27-.12.4-.15.44-.08.76.44.95 1.32.27 1.32.55 2.65.83 3.99.25 1.36.5 2.74.75 4.12.41 2.05.72 4.14 1.12 6.22l-.07.02ZM391.47 328.65c-.24.45-.37 1-.54 1.57-.04.21 0 .43-.05.64-.14.77-.21 1.6-.17 2.43.02.37.11.72.22 1.07l.12.33c.03.11.04.23.05.35.03.24.03.49-.03.77-.04.18-.18.22-.47.21-.28-.02-.8-.06-1.06-.29-.12-.1-.22-.2-.32-.31-.11-.1-.14-.24-.21-.36-.13-.24-.21-.5-.3-.76-.17-.51-.27-1.05-.22-1.62.05-.66-.18-1.31-.18-2-.03-.74.1-1.51.31-2.24.15-.46.29-.91.52-1.34.28-.68.8-1.26 1.27-1.83.41-.41.74-.97 1.28-1.28.11-.08.22-.16.34-.2.47-.15.69 0 .94.63.06.14.12.28.16.42.15.48.11.96-.02 1.23-.38.84-.64 1.05-.95 1.46-.2.32-.49.65-.63 1.14l-.07-.02ZM398.4 333.39c-.26.48-.43 1.03-.55 1.61-.05.21 0 .43-.05.64-.14.77-.23 1.6-.1 2.41.04.36.19.7.29 1.05.18.43.4.82.48 1.32.02.16-.24.32-.59.38-.34.06-.81.04-1.04-.2-.36-.44-.72-.9-.94-1.43-.19-.54-.31-1.1-.3-1.68 0-.68-.22-1.36-.23-2.06 0-.77.16-1.53.37-2.27.15-.45.31-.9.52-1.33.29-.66.75-1.24 1.16-1.83.18-.22.33-.46.49-.71.18-.23.37-.45.57-.67.09-.1.17-.21.3-.24.47-.15.7-.04 1.02.43.07.11.15.21.21.32.2.36.23.78.15 1.12-.1.54-.28.79-.44 1.08-.06.16-.16.27-.26.39-.09.12-.17.26-.28.38-.27.38-.56.8-.75 1.3l-.06-.02ZM155.5 153.78c-.17.32-.54 0-1.06-.72-.17-.23-.47-1-.44-1.13.07-.27.14-.53.24-.74.05-.13 1.48-1.07 1.98-1.39.47-.32 1-.5 1.53-.65 1.09-.29 2.17-.6 3.28-.8.25-.05.5-.06.76-.02.88.12 1.72.02 2.56-.12.14-.02.29-.01.41-.15.2-.26 2.54-.35 2.84-.24.75.24 1.49.41 2.21.63.1.03.22 0 .31.15.2.36.43.32.65.36.31.05.62.14.91.29.15.07.28.28.41.45.12.16-.01.66-.07.71-.15.15-.07.4-.08.62 0 .07 0 .17-.02.22-.04.12-1.77.87-1.94.87-.05-.03-2.44.21-2.7.32-.14.04-.28-.04-.43-.08-.07-.04-1.94.4-2.01.42-.39 0-.76.19-1.19-.07-.08-.05-.16-.02-.24 0-.66.16-1.34.15-2.02.21-.35.03-.68.16-1.01.23-.06.01-.13-.02-.2-.03-.08 0-.17-.03-.24 0-.78.24-1.63.3-2.36.7-.17.08-1.15.03-1.34.16-.1.07-.68-.31-.75-.18ZM164.13 127.58c-.29-.18.09-.48.88-.84.25-.11 1.06-.28 1.19-.25.25.07.49.15.67.24.11.06.78 1.16 1.06 1.5.26.34.4.71.53 1.09.26.77.57 1.52.88 2.26.07.17.1.35.1.54 0 .67.25 1.25.58 1.78.06.09.08.19.24.23.24.06 1.03 1.53 1.06 1.77.06.59.21 1.14.34 1.7.02.08.1.12.02.27-.2.33-.06.44.02.6.1.22.19.45.23.71.02.13-.07.34-.13.53-.05.17-.51.43-.58.43-.2 0-.34.22-.51.35-.06.05-.13.1-.18.13-.11.08-1.69-.63-1.78-.78-.02-.03-1.42-1.71-1.6-1.93-.1-.1-.09-.25-.11-.39-.02-.05-1.11-1.48-1.13-1.55-.13-.34-.41-.62-.29-1.08.03-.09-.02-.15-.06-.21-.31-.55-.45-1.17-.61-1.78-.09-.31-.24-.59-.35-.89-.02-.05 0-.12 0-.18 0-.08.02-.16-.01-.23-.29-.7-.37-1.46-.73-2.14-.09-.16.06-1.05-.04-1.23-.06-.1.4-.59.28-.66Z" class="cls-2"/><g class="cls-3"><path d="M424.53 163.86c3.22 0 3.22-5 0-5s-3.22 5 0 5Z" class="cls-2"/></g><path d="M385.72 113.81h-.5c-1.89 0-3.5 1.61-3.5 3.5s1.6 3.5 3.5 3.5h.5c1.89 0 3.5-1.61 3.5-3.5s-1.6-3.5-3.5-3.5h-.5c-1.89 0-3.5 1.61-3.5 3.5s1.6 3.5 3.5 3.5h.5c1.89 0 3.5-1.61 3.5-3.5s-1.6-3.5-3.5-3.5ZM232.25 262.96c3.22 0 3.22-5 0-5s-3.22 5 0 5ZM485.52 183.34c3.22 0 3.22-5 0-5s-3.22 5 0 5Z" class="cls-2"/><g class="cls-3"><path d="M199.21 86.78c3.22 0 3.22-5 0-5s-3.22 5 0 5Z" class="cls-2"/></g><path d="M113.66 236.96c1.89 0 3.5-1.61 3.5-3.5s-1.6-3.5-3.5-3.5-3.5 1.61-3.5 3.5 1.6 3.5 3.5 3.5Z" class="cls-2"/><g class="cls-3"><path d="M216.15 246.02c3.22 0 3.22-5 0-5s-3.22 5 0 5Z" class="cls-2"/></g><path d="M224.62 69.83c3.22 0 3.22-5 0-5s-3.22 5 0 5Z" class="cls-2"/></svg>