<svg xmlns="http://www.w3.org/2000/svg" id="Layer_1" width="520" height="520"><defs><style>.cls-1{opacity:.2}.cls-1,.cls-2,.cls-3{fill:#231f20;stroke-width:0}.cls-2{opacity:.55}</style></defs><path d="M364.3 264.27c.56 9.31 21.26 0 25.89-8.55-.01.02-10.97 23.16-22.77 23.38-2.58.05-3.11-14.72-3.12-14.84ZM344.61 266.81s4.46 6.37 12.17-1.79c5.38-5.68-10.99 13.63-10.99 13.63l-1.18-11.84Z" class="cls-2"/><path d="M354.99 314.91s-2.72 3.32-3.27 5.86c-.96 4.49 7.22 22.9-2.97 18.45L335.76 336s-23.8-6.05-25.21-3.63c-1.41 2.41 8.87 7.85 13.72 9.03s5.29 1.76 4.51 4.9 2.03 10.32 4.38 9.77-1.67 5.57.62 7.15 1.27 4.66 3.62 8.36c2.35 3.69 10.39 4.88 14.34 5.82 3.94.94 23.87-1.17 28.87 4.59 4.99 5.76 13.02 8.7 13.02 8.7s8.34-15.51 7.95-19.11-11.38-6.23-16.01-11.5c-4.63-5.27-17.99-17.8-21.21-21.42-3.22-3.62-6.49-22.69-6.49-22.69l-2.85-1.07ZM306.28 172s6.82 25.74 9.17 32.85 15.38 36.13 30.33 39.5c14.95 3.37 30.58-6.97 33.7-12.62 3.11-5.66 11.97-22.38 11.84-26.88-.13-4.5-.48-12.27-.48-12.27s17.9-1.7 18.12-10.06-3.66-16.51-6.51-16.7c-2.85-.19-9.5 12.17-13.62 12.34-4.12.17-1.66-10.43-2.33-18.57-.66-8.14-8.66-19.93-8.66-19.93s-24.81 18.81-30 19.39S306.28 172 306.28 172ZM117.12 234.81s-7.18-5.73-7.01-3.9c.16 1.84 5.71 14.07 5.71 14.07s-2.42 1.6-.87 3.66 5.45 8.31 5.45 8.31-5.9 1.48-3.86 4.27 7.84 7.27 7.84 7.27l-7.27-33.69ZM175.07 249.53s-11.11-14-9.97-17.81c1.15-3.81 2.67-4.26 3.89-3.56s14.97 15.73 16.44 17.35c1.47 1.62 3.61 8.11 4.26 12.83.65 4.72.25 17.99 2.51 19.04 2.26 1.04 18.97 20.77 18.97 20.77l-19.31 15.27s-8.58-12.71-8.9-13.03c-.22-.22-3.52-6.46-9.43-9.06-2.6-1.14-8.89.43-14.59-1.95-5.53-2.32-13.27-4.58-15.52-4.19-3.87.68 35.71-3.6 35.71-3.6l-4.06-32.05Z" class="cls-1"/><path d="M162.68 194.42s-14.4-.33-24.14.69-24.69 7.24-24.69 7.24l12.78 72.28 5.03 13.12s40.47-6.98 47-5.29c0-3.49-2.74-17.44-8.26-37.91-.53-1.98-4.54-8-4.92-10.07-.58-3.15 3.2-5.86 2.62-9.06-1.97-10.77-3.89-21.59-5.43-31Zm-11.44 73.72c-9.13.37-15.56-10.2-17.97-22.41-2.41-12.21.7-24.67 7.71-26.06 7.02-1.38 15.29 8.83 17.7 21.05 2.42 12.21.84 27.08-7.44 27.42Z" class="cls-2"/><path d="M316.35 381.67c.39-1.74.78-3.49 1.12-5.24.14-.64.2-1.29.34-1.92.49-2.25.96-4.5 1.3-6.77.16-1.01.23-2.03.34-3.03l.14-1.94c.09-.64.24-1.29.39-1.93.11-.4.28-.34.53 0 .24.35.65 1 .82 1.77.08 1.35.1 2.71.01 4.05a39.15 39.15 0 0 1-.59 4.01c-.33 1.59-.41 3.27-.65 4.91-.26 1.8-.63 3.58-.97 5.36l-.66 3.28c-.31 1.66-.73 3.31-1.03 4.95-.24 1.28-.34 2.56-.52 3.84-.04.28-.06.56-.11.84-.23 1.03-.47 1.33-1.05 1.44-.13.03-.27.07-.39.07-.42.02-.68-.48-.71-1.27-.04-2.34.28-4.74.61-7.13.11-.89.28-1.78.47-2.66l.54-2.65h.06ZM266.43 394.95c-2.55-.26-5.09-.59-7.57-1.23-.45-.11-.91-.19-1.37-.28-.45-.12-.9-.24-1.35-.38-1.58-.46-3.1-1.1-4.59-1.76l-2.18-1.12c-.72-.37-1.41-.83-2.11-1.23-1.26-.7-2.44-1.54-3.6-2.37-.7-.59-1.46-1.11-2.12-1.75-.59-.73-1.13-1.48-1.77-2.11-.38-.42-.27-.42.18-.22l.92.43c.39.16.9.29 1.39.49.21.1.44.16.65.25l.59.33 1.16.66c.75.47 1.61.75 2.35 1.24.73.49 1.54.86 2.3 1.3.76.46 1.56.83 2.35 1.24 1.9.99 4.06 1.57 6.17 2.14 1.17.29 2.34.56 3.53.79 1.2.18 2.39.42 3.6.5 1.49.18 2.98.22 4.48.25 1.13-.01 2.27-.06 3.41-.11 1.13-.12 2.27-.2 3.38-.41.86-.17 1.71-.37 2.55-.6.83-.27 1.65-.55 2.48-.77.37-.1.71-.25 1.08-.35 1.36-.4 1.86-.32 2.38.32.12.14.26.28.35.43.31.51-.12 1.13-1.12 1.63-1.46.76-3.04 1.36-4.69 1.79-1.66.37-3.36.69-5.1.85-2.56.29-5.17.26-7.75.14v-.07ZM202.85 291.32c.14-.42 10.26-7.42 12.67-5.93 2.41 1.49-4.35 12.74-4.35 12.74l-8.32-6.82ZM187.07 305.16s-10.13 11.75-5.18 13.02c4.95 1.27 9.96-4.77 9.96-4.77l-4.79-8.25Z" class="cls-3"/><path d="M204.96 305.97c-1.1.97-2.22 1.9-3.4 2.78-.42.33-.79.71-1.26.99-1.59 1.02-3.26 1.9-4.96 2.7-.73.39-1.51.7-2.27 1.02-.99.37-1.99.78-3.11.7-.34-.02-.31-.07-.1-.33.1-.13.24-.34.4-.58.17-.22.38-.42.62-.57.42-.31.84-.61 1.27-.86.42-.29.83-.59 1.25-.86.88-.48 1.77-.94 2.68-1.41 1.11-.55 2.04-1.45 3.02-2.23 1.1-.84 2.2-1.7 3.24-2.63.64-.57 1.28-1.15 1.88-1.77.92-.93 1.83-1.88 2.61-2.92.6-.81 1.01-1.73 1.52-2.58l.32-.57c.43-.68.73-.8 1.4-.59.15.05.31.08.45.14.48.2.66.72.48 1.35-.13.47-.3.93-.5 1.38-.19.45-.39.91-.67 1.31-.52.83-1.13 1.62-1.76 2.39-.95 1.13-2 2.18-3.06 3.2l-.05-.05ZM431.35 355.42c-.08-.72-.09-1.48-.21-2.21-.04-.27-.15-.52-.18-.79-.12-.96-.25-1.94-.44-2.91-.06-.44-.18-.86-.31-1.27-.12-.55-.26-1.09-.1-1.73.13-.23.12-.2.39-.13.25.07.75.19 1.02.43l.58.7c.17.24.27.51.39.77.26.52.33 1.1.37 1.69.05.71.38 1.37.55 2.06.18.77.33 1.55.45 2.33.08.48.1.98.16 1.46.07.74.1 1.48.2 2.21.1.56.24 1.11.32 1.68.02.12.05.25.05.37-.05.47-.31.62-.74.72-.1.02-.2.05-.3.06-.31.04-.62-.14-.9-.45-.59-.93-.9-1.86-1.02-2.82-.12-.71-.21-1.43-.35-2.15h.07ZM474.11 412.92c1.49-2.38 2.61-5 3.49-7.71l.42-1.5.35-1.54c.89-3.6 1.39-7.32 1.38-11.06 0-1.66-.14-3.32-.39-4.95-.29-2.09-.67-4.17-.99-6.3-.11-.66-.06-.59.26-.1.28.5 1 1.39 1.47 2.58.35 1.06.68 2.14.92 3.24.18 1.11.33 2.22.42 3.34.18 2.24.16 4.5-.06 6.74-.28 2.68-.53 5.47-1.13 8.16-.64 2.98-1.68 5.88-3.11 8.58-.92 1.64-1.88 3.26-3.07 4.72a27.199 27.199 0 0 1-6.22 5.8c-.44.34-.93.59-1.39.89l-.7.44-.73.38c-.49.24-.96.53-1.48.73-.51.19-1.04.37-1.56.55-.47.14-.93.24-1.41.35-.89.21-1.5.18-1.92.13-.43-.06-.68-.2-.89-.42-.1-.1-.22-.2-.27-.31-.19-.35.48-.77 1.65-1.12 1.73-.59 3.37-1.37 4.98-2.19 1.6-.85 3.17-1.82 4.56-3.07a25.41 25.41 0 0 0 5.36-6.38l.05.03ZM383.79 383.01c-.57.85-6.21 13.13-2.45 14.82 3.26 1.46 12.26-7.13 12.26-7.13l-9.81-7.69ZM396.08 364.81s3.25-4.35 5.08-3.88c1.84.47 0 7.05 0 7.05l-5.08-3.17Z" class="cls-3"/><path d="M395.61 382.85c.31-.69.63-1.38.89-2.09.13-.36.29-.71.43-1.06l.39-1.08c.2-.53.27-1.08.44-1.62.61-1.88 1.09-3.83 1.34-5.81.15-.88.13-1.77.14-2.65-.05-1.13-.24-2.22.13-3.43.17-.39.2-.35.56-.09.43.24 1.04.74 1.29 1.42.35 1.21.42 2.45.47 3.68.03 1.24-.1 2.47-.39 3.68-.33 1.44-.43 2.97-.75 4.45-.18.81-.42 1.6-.64 2.4-.26.79-.54 1.56-.86 2.33-.39.94-.8 1.87-1.24 2.78-.65 1.39-1.45 2.72-2.19 4.05-.63 1.01-1.13 2.08-1.83 3.05-.15.22-.26.45-.45.65-.72.68-1.1.76-1.68.49-.13-.06-.27-.11-.39-.19-.38-.25-.42-.81-.2-1.47.35-.97.79-1.85 1.19-2.77.4-.92.81-1.83 1.32-2.69.69-1.32 1.39-2.66 1.95-4.07l.08.03ZM378.56 380.08l-2.44-4.28-1.19 2.56 3.63 1.72zM342.91 273.69s-.55-4.26-4.95 0c-4.32 4.18 4.15-7.01 5.65-5.39s-.7 5.39-.7 5.39ZM418.87 272.67c-1.77-1.63-3.55-3.26-5.42-4.79-.67-.57-1.4-1.08-2.08-1.63-2.42-1.96-4.83-3.96-7.33-5.84-1.1-.85-2.25-1.64-3.37-2.44-1.42-1.06-2.91-2.03-4.19-3.29-.4-.39-.28-.44.22-.33.25.05.6.14 1.01.25.4.13.84.33 1.28.59 3.15 1.8 6.1 3.9 8.98 6.15 1.72 1.35 3.62 2.61 5.38 4 1.94 1.52 3.84 3.1 5.69 4.74 1.15 1 2.24 2.06 3.33 3.12.83.79 1.62 1.64 2.43 2.46.79.84 1.57 1.68 2.35 2.52.59.66 1.2 1.3 1.81 1.94l1.75 1.98c.26.29.51.57.75.89.87 1.16 1.05 1.61.85 2.13-.05.12-.08.25-.14.35-.22.32-.81.02-1.51-.75-2.09-2.28-4.24-4.68-6.54-6.97-1.69-1.71-3.45-3.39-5.27-4.99l.03-.04ZM375.71 275.33c-1.62.97-3.28 1.85-5.04 2.6l-.48.21-.62.26c-.55.22-1.12.36-1.6.37-.21 0-.41-.03-.59-.1-.09-.04-.2-.08-.27-.15-.05-.07-.09-.16-.13-.24l-.25-.49c-.07-.18-.05-.5-.07-.75 0-.26-.05-.52-.03-.77l-.03-.51-.06-.87c-.09-1.16-.24-2.31-.44-3.46-.18-1.02-.46-2.02-.71-3.02-.34-1.28-.83-2.49-1.09-3.83-.09-.41-.06-.37.21-.1.19.19.39.38.57.55.25.23.5.52.66.87.62 1.25 1.22 2.53 1.6 3.87.39 1.34.68 2.71.85 4.1l.17 1.26.09.64.03.25c.03.12-.02.3.08.37.14 0 .26-.05.39-.09.04 0 .6-.21.98-.38.41-.17.82-.36 1.23-.55.82-.38 1.62-.8 2.42-1.24.98-.54 1.94-1.12 2.87-1.75 1.41-.95 2.8-1.95 4.05-3.08.98-.88 1.81-1.87 2.63-2.86.18-.22.35-.44.54-.65.71-.78 1.03-.94 1.58-.78.12.04.26.06.37.11.37.17.34.73-.08 1.44-1.26 2.11-3.15 3.88-5.12 5.5-1.48 1.2-3.06 2.26-4.67 3.27l-.03-.04ZM345.69 273.27c0-.59 0-1.18-.06-1.78-.02-.22-.11-.41-.13-.63-.1-.76-.23-1.54-.48-2.28-.1-.33-.28-.63-.4-.95-.19-.4-.39-.79-.52-1.23-.04-.14.07-.2.27-.19.19.01.5.07.72.25.35.34.75.67.98 1.09.23.42.43.87.55 1.34.15.56.46 1.08.65 1.64.21.61.36 1.25.48 1.88.08.39.11.79.15 1.19.07.6.07 1.21.15 1.8.05.46.23.92.33 1.4.02.11.07.21.07.32-.02.4-.2.51-.82.52-.14 0-.28.01-.42 0-.47-.02-.85-.2-1-.46-.4-.74-.4-1.46-.46-2.22-.04-.56-.04-1.14-.11-1.71h.05ZM334.18 92.23c-2.91-.89-8.95-.47-11.85-.17-41.79 4.31-63.02 61.98-24.09 77.06 23.34 9.04 45.63-6.7 58.92-16.76 13.29-10.05 19.2-15.29 24.19-10.42s5.39 15.03 5.16 17.64c-.23 2.61-4.19 14.98-3.85 16.6s3.42 3.59 6.18 1.97c2.76-1.62 5.64-7.18 6.87-9.04s3.81-4.76 6.75-3.3c2.94 1.47 6.73 8.35 6.73 8.35s8.09-2.92 12.01-9.38 7.85-20.34 7.37-24.39c-.48-4.05-2.33-14.5-7.42-19.28-5.09-4.78-16.54-11.45-21.64-9.97-5.09 1.48-18.16 11.9-18.16 11.9l-2.79.37s-16.86-20.52-21.4-23.03c-4.54-2.51-22.98-8.15-22.98-8.15Z" class="cls-3"/><path d="M319.49 299.6c-3.85 4.19-7.74 8.34-11.73 12.39-1.47 1.47-2.81 3.05-4.33 4.47-5.21 5.13-10.69 10-16.31 14.69l-3.76 3.1c-1.28 1-2.56 2-3.83 2.99-3.26 2.55-6.73 4.92-10.57 6.58-1.21.49-1.1.32-.37-.58.36-.45.88-1.07 1.51-1.81.64-.72 1.45-1.43 2.34-2.2 6.49-5.18 12.86-10.46 19.25-15.95 1.9-1.66 3.75-3.44 5.59-5.25l5.4-5.58c3.93-4.09 7.83-8.23 11.6-12.48 2.34-2.6 4.64-5.24 6.91-7.9l5.11-6.1c1.68-2.05 3.33-4.12 4.95-6.19 2.48-3.25 4.73-6.59 7.02-9.92.5-.74.99-1.46 1.5-2.2 1.96-2.69 2.89-3.31 4.11-3.3.28 0 .59-.03.82.02.79.19.5 1.66-.7 3.83-3.74 6.27-8.38 12.4-13.23 18.38-1.8 2.22-3.68 4.39-5.53 6.58l-5.68 6.48-.07-.05Z" class="cls-3"/><path d="M345.92 276.22s.02.02.04.03c.05-.06.09-.02.15-.05.1-.06.23-.15.37-.24 0 .01.29-.25.47-.41l.61-.54c.41-.36.8-.73 1.2-1.11.65-.61 1.2-1.31 1.83-1.94 2.2-2.23 4.25-4.63 5.99-7.23.37-.58.71-1.19 1.06-1.79.31-.62.58-1.25.86-1.87.6-1.65 1-3.28 1.57-4.97.29-.53.36-.48.7.01.42.48.99 1.53.81 2.67-.16 2.05-.96 3.9-1.77 5.67a21.71 21.71 0 0 1-3.19 4.86c-1.5 1.75-2.85 3.72-4.45 5.42-.87.94-1.77 1.86-2.71 2.74l-.7.66-1.04.91-1.04.9-1.08.85c-.32.24-.64.51-.94.72l-.89.39-.44.2c-.12.04-.23.04-.34.06l-.34.06-.17.03s-.05.02-.09 0c-.04-.03-.04-.06-.06-.08-.08-.21-.11-.45-.16-.7a6.41 6.41 0 0 1-.1-1.81c.09-.81.25-1.68.35-2.51.25-1.9.31-2.78.36-3.97.07-1.77-.15-3.51-.39-5.23-.05-.38-.14-.74-.19-1.12-.16-1.4.05-1.86.95-2.3.21-.1.41-.22.61-.29.7-.24 1.4.28 1.76 1.38.5 1.63.73 3.36.8 5.1.03.87.03 1.75-.01 2.63-.01.44-.06.88-.11 1.31l-.13 1.13s-.02 0-.06.07a.81.81 0 0 0-.06.13c0 .02.01.03.03.04l-.06.16Z" class="cls-3"/><path d="M350.12 247.62c.03.14 5.49 10.73 13 9.2 15.74-3.22 16.36-25.1 16.36-25.1s-11.49 12.27-15.32 13.83c-3.83 1.56-14.04 2.08-14.04 2.08Z" class="cls-3"/><path d="M329.23 228.28c2.34 3.16 4.97 6.11 7.91 8.65 2.96 2.49 6.23 4.64 9.79 5.92 2.59.97 5.32 1.27 7.95 1.1 4.89-.39 9.74-1.98 13.92-4.69 4.19-2.7 7.77-6.42 10.65-10.64 2.56-3.76 4.55-7.94 6.13-12.2 1.02-2.74 1.82-5.57 2.61-8.4.4-1.41.78-2.84 1.15-4.26.16-.72.4-1.42.61-2.13.23-.71.62-1.39.88-2.09.37-.87.55-1.25.6-1.22.06.04.03.49.16 1.31.09.81.53 2.03.6 3.44.08 1.41-.02 3.04-.35 4.76-.27 1.53-.65 3.04-1.07 4.54-.42 1.5-.89 2.99-1.39 4.47-1.03 2.95-2.22 5.88-3.7 8.68-2.93 5.58-6.85 10.87-12.04 14.8-1.55 1.16-3.17 2.27-4.91 3.21-.85.51-1.76.9-2.64 1.35-.92.37-1.82.8-2.77 1.1-1.87.69-3.81 1.15-5.76 1.5-1.91.34-4.06.49-6.08.28-2.24-.21-4.4-.78-6.44-1.58-2.04-.79-3.99-1.78-5.79-2.96-3.65-2.31-6.78-5.25-9.6-8.39-3.46-3.89-6.32-8.23-8.84-12.71-3.76-6.84-6.58-14.14-8.81-21.5-1.74-5.72-3.27-11.39-4.4-17.19-.25-1.28-.53-2.52-.71-3.83-.37-2.41-.52-4.01-.45-5.15.04-1.14.29-1.81.71-2.38.19-.26.35-.59.54-.74.59-.52 1.53 1.36 2.11 4.8 1.98 10.19 4.38 20.81 8.24 30.95 2.87 7.5 6.47 14.78 11.26 21.13l-.07.07ZM418.44 115.02l1.66 1.48 1.49 1.62c.49.55 1 1.06 1.48 1.64.45.6.95 1.17 1.36 1.8 1.72 2.47 3.03 5.17 3.97 7.96.67 2.04 1.3 4.09 1.58 6.21.96 7.45-.19 15-3.16 21.72a35.356 35.356 0 0 1-5.05 8.35c-1.34 1.6-2.81 3.11-4.51 4.35l-1.3.89-1.37.77c-.45.27-.96.42-1.46.59-.49.18-1 .3-1.5.43-1.26.29-1.12.13-.29-.63l.72-.69c.26-.3.54-.63.84-.98.31-.34.67-.65 1.03-1.01.37-.33.76-.68 1.17-1.04 2.92-2.49 5.29-5.57 7.07-8.98a40.12 40.12 0 0 0 4.04-10.94c1.02-4.63.72-9.68-.37-14.35-1.19-5.15-3.56-9.99-7.44-13.68-1.09-1.26-2.41-2.23-3.63-3.32-1.35-.9-2.65-1.91-4.14-2.56-1.07-.61-2.24-.97-3.39-1.38-.57-.25-1.18-.29-1.77-.43-.6-.1-1.19-.31-1.8-.3l-1.82-.11c-.61-.02-1.21.08-1.82.12l-.91.08c-.3.05-.59.13-.89.19-.59.14-1.19.26-1.77.43-3.62 1.16-6.72 3.43-9.37 6.07-.56.61-1.14 1.17-1.68 1.81-2.06 2.3-2.76 3-4.09 2.89-.29-.02-.6.02-.84-.04-.78-.15-.65-1.73.74-3.84 2.1-3.09 4.91-5.92 8.35-8.08 3.42-2.16 7.56-3.6 11.86-3.73 3.19-.03 6.37.56 9.29 1.73 2.84 1.29 5.52 2.9 7.76 4.9l-.06.08ZM367.96 278.53c.05 0 .12 0 .24-.02l1.85-1.03c.68-.36 1.3-.81 1.96-1.21.65-.42 1.3-.82 1.91-1.3.91-.66 1.75-1.4 2.61-2.13 3.06-2.5 5.95-5.29 8.42-8.47 1.11-1.4 2.06-2.94 3.02-4.45l1.82-2.96.48-.73.58-.67c.38-.45.84-.86 1.27-1.28.56-.51.63-.33.6.39-.02.44-.04.94-.06 1.45-.01.3-.05.61-.1.93-.02.16-.07.31-.08.49-.06.14-.13.3-.2.44-1.08 2.08-2.12 4.26-3.49 6.27-1.35 2.02-2.83 3.99-4.55 5.76-2.03 2.13-4.1 4.39-6.4 6.34-1.31 1.02-2.6 2.05-3.98 2.94-.68.46-1.36.93-2.07 1.34l-2.35 1.4c-1.2.47-2.35.85-3.5 1.29l-.85.32c-.26-.14-.3-.38-.41-.6-.19-.44-.34-1-.38-1.7-.05-1.04 0-2.27.02-3.24l.04-2.23c0-1.48-.03-2.96-.15-4.41-.19-2.26-.71-4.44-1.33-6.52-.14-.46-.32-.89-.46-1.34-.57-1.64-.45-2.22.21-2.96.16-.17.29-.37.46-.5.53-.47 1.48-.02 2.28 1.31 2.04 4.03 2.51 8.62 2.66 13.03.03.82.03 1.64.03 2.46v1.22c0 .07-.01.08-.01.07h-.01s-.09.23 0 .18l-.03.13ZM477.9 407.2c.88-3.48 1.25-7.16 1.31-10.87.08-3.71-.2-7.46-.65-11.2-.92-7.48-2.66-14.9-4.91-22.16-1.62-5.31-3.65-10.49-5.73-15.65-7.43-18.15-17.24-35.38-29.01-51.14a200.916 200.916 0 0 0-17.01-19.86c-3.88-3.98-7.96-7.79-12.15-11.45-1.06-.9-2.09-1.84-3.13-2.76l-3.17-2.72c-.53-.45-1.08-.87-1.59-1.35-.5-.49-1.01-.97-1.53-1.44-1.04-.94-2.05-1.9-3.12-2.8-2.63-2.3-2.23-2.07.45-.73 1.39.67 3.32 1.6 5.63 2.72.62.25 1.14.66 1.75 1.01.59.36 1.19.76 1.81 1.18 1.23.83 2.5 1.75 3.77 2.78 17.75 14.88 32.54 33.04 44.33 53.05 7.03 11.97 13.75 24.81 18.77 38.14 2.75 7.32 5.06 14.82 6.77 22.47 1.7 7.65 2.8 15.5 2.61 23.44-.17 4.87-.8 9.82-2.59 14.52-.9 2.34-2.12 4.59-3.71 6.61-.38.52-.83.97-1.27 1.42-.44.45-.88.92-1.33 1.36l-1.46 1.2-.73.6-.78.52c-3.14 2.17-6.69 3.6-10.29 4.61-3.61.96-7.3 1.48-10.98 1.72-3.68.26-7.36.16-11.01-.11-3.65-.25-7.26-.77-10.84-1.41a129.91 129.91 0 0 1-16.3-4.08c-5.31-1.71-10.51-3.79-15.51-6.39-1.1-.57-2.19-1.13-3.26-1.76-.54-.31-1.07-.62-1.61-.93-.52-.34-1.05-.68-1.58-1.02-3.89-2.59-6.22-4.73-7.62-6.43-1.36-1.76-1.91-2.96-2.04-4.12-.07-.52-.22-1.14-.17-1.49.28-1.21 2.68 1.46 7.79 5.23 3.76 2.85 7.97 5.28 12.38 7.39 4.42 2.12 9.05 3.94 13.8 5.47 9.51 3.05 19.56 5.07 29.59 5.31 3.72.06 7.43-.12 11.04-.68 3.61-.55 7.14-1.48 10.34-2.95l2.34-1.2c.73-.46 1.49-.89 2.21-1.37.66-.54 1.39-1.02 2.02-1.59.59-.6 1.27-1.17 1.81-1.8 2.23-2.47 3.57-5.83 4.46-9.3h.1Z" class="cls-3"/><path d="M380.02 379.72c1.32.73 2.61 1.52 3.88 2.33.47.28.96.52 1.42.84.81.54 1.58 1.14 2.36 1.71.75.62 1.51 1.23 2.23 1.87.66.55 1.32 1.1 1.97 1.65.4.38.84.7 1.19 1.13.35.43.65.9.95 1.36.17.3 0 .4-.4.38-.39-.03-1.03-.11-1.56-.42-.23-.14-.49-.24-.7-.41l-.62-.48-1.26-.94c-.85-.62-1.69-1.25-2.54-1.91-1-.82-2.23-1.37-3.38-2.01-1.27-.7-2.56-1.38-3.86-2.03-.81-.4-1.61-.8-2.44-1.16-1.25-.55-2.5-1.12-3.8-1.55-1.01-.32-2.07-.45-3.11-.63-.23-.04-.46-.07-.68-.14-.83-.23-.97-.66-.89-1.47.02-.19.03-.38.06-.56.12-.6.63-1.01 1.33-1.08 1.01-.03 1.98.16 2.93.44.96.27 1.9.64 2.83 1.03 1.39.59 2.75 1.27 4.1 1.96l-.03.07ZM424.2 361.44c2.35 1.06 4.69 2.16 7.01 3.32.85.42 1.72.79 2.55 1.26 2.91 1.67 5.73 3.54 8.28 5.75 1.15.95 2.27 1.96 3.32 3.01l.99 1.04c.3.37.62.73.9 1.13.52.81.99 1.66 1.33 2.56.22.56-.03.59-.55.33-.26-.13-.59-.33-.95-.57-.37-.24-.8-.51-1.15-.86-2.5-2.57-5.42-4.62-8.49-6.67-1.82-1.27-3.97-2.17-6.05-3.12-2.28-1.06-4.59-2.12-6.94-3.09-1.45-.6-2.9-1.2-4.37-1.76-2.23-.86-4.46-1.76-6.72-2.56-1.76-.62-3.57-1.03-5.37-1.76-.4-.17-.8-.28-1.2-.5-1.43-.82-1.73-1.51-1.31-2.5.09-.23.17-.46.3-.66.21-.33.54-.52.92-.61.19-.04.39-.05.59-.04.22.01.45.05.68.12 1.41.4 2.9.89 4.44 1.41 1.53.55 3.11 1.15 4.7 1.77 2.36.92 4.75 1.91 7.15 2.91l-.03.09ZM432.44 352.5l.89 3c.11.36.29.7.39 1.06.34 1.3.69 2.6 1.03 3.9.14.58.32 1.15.51 1.7.24.72.53 1.42.53 2.21-.09.27-.27.3-.68.22-.4-.08-.88-.3-1.08-.68-.67-1.36-1.42-2.67-1.69-4.19-.2-.9-.68-1.73-1.04-2.59l-1.14-2.87-.71-1.77c-.38-.89-.71-1.8-1.17-2.64-.36-.65-.86-1.23-1.28-1.84-.09-.14-.21-.26-.29-.4-.3-.53-.18-.8.52-1.26.16-.1.31-.22.48-.31.56-.32 1.14-.31 1.5.01.53.48.96 1.02 1.34 1.6.36.59.63 1.23.89 1.87.39.96.71 1.96 1.06 2.94l-.06.03ZM237.18 308.94c2.1 2.9 4.33 5.7 6.64 8.44.87.97 1.81 1.88 2.65 2.88 3.05 3.44 6.27 6.76 9.75 9.79 1.54 1.35 3.21 2.56 4.84 3.78 1.06.76 2.17 1.46 3.24 2.22 1.06.77 2.11 1.56 3.13 2.4.63.53.35.81-.48.84-.82.02-2.27-.1-3.7-.73-1.2-.67-2.37-1.39-3.54-2.1-1.14-.77-2.3-1.51-3.39-2.34-1.07-.87-2.13-1.74-3.17-2.64-1.01-.93-2.01-1.88-3-2.85-2.28-2.38-4.9-4.61-7.18-7.08l-1.86-2.06-1.78-2.12c-1.21-1.4-2.31-2.88-3.47-4.31-1.37-1.81-2.75-3.61-4.06-5.45-1-1.39-2-2.79-2.96-4.21-.97-1.41-1.95-2.81-2.9-4.22-1.51-2.16-3.1-4.22-4.61-6.35-.32-.48-.65-.94-.95-1.43-1.12-1.83-1.24-2.56-.81-3.36.1-.18.18-.39.29-.53.38-.47 1.32-.02 2.36 1.16.77.88 1.53 1.79 2.29 2.7.73.93 1.46 1.88 2.16 2.85 1.42 1.93 2.86 3.89 4.24 5.89 1.04 1.47 2.05 2.97 3.12 4.43l1.58 2.21 1.64 2.16-.07.06ZM223.84 368.16c3.15 2.86 6.37 5.63 9.69 8.27 3.31 2.65 6.71 5.19 10.23 7.49 2.56 1.71 5.26 3.16 7.94 4.6 1.2.59 2.36 1.29 3.58 1.8l1.82.83 1.85.71c1.23.52 2.49.8 3.74 1.21 1.26.23 2.53.57 3.79.62l.95.09c.32.03.64-.01.96-.02l1.92-.07c.64-.09 1.28-.2 1.92-.3l.96-.15.95-.26 1.9-.52 1.87-.7c1.26-.42 2.45-1.08 3.67-1.62 4.28-2.14 8.28-4.97 12.07-7.94 1.22-.95 2.43-1.94 3.62-2.94l3.66-2.92 1.85-1.45 1.91-1.38c1.28-.91 2.57-1.83 3.93-2.63 1.7-1.01 1.47-.85.37.41-.56.62-1.27 1.6-2.18 2.7-.46.56-.95 1.17-1.46 1.81-.26.32-.55.63-.81.98l-.94.94-3.45 3.36c-1.18 1.11-2.41 2.14-3.65 3.18a93.376 93.376 0 0 1-7.79 5.93c-2.7 1.89-5.67 3.46-8.76 4.81-3.1 1.33-6.5 2.21-9.97 2.48-2.08.14-4.24.08-6.3-.3l-1.55-.27c-.52-.09-1.01-.25-1.51-.37-1.01-.26-2.02-.51-2.98-.87-3.91-1.31-7.66-3-11.13-5.05-7.64-4.47-14.59-9.84-21.23-15.51-4.08-3.49-8.02-7.14-11.86-10.87-5.83-5.65-11.39-11.61-16.75-17.61-4.16-4.68-8.32-9.21-12.13-14.15-.84-1.08-1.69-2.13-2.48-3.28-1.49-2.11-2.27-3.65-2.7-4.8-.45-1.13-.41-1.95-.2-2.68.1-.33.14-.72.27-.94.43-.72 2.01.72 4.16 3.61 3.23 4.3 6.75 8.62 10.44 12.92 3.69 4.3 7.52 8.58 11.48 12.78 5.88 6.22 11.98 12.31 18.4 17.99l-.06.09ZM182.61 297.34c1.08 1.27 2.11 2.56 3.09 3.89.37.47.78.92 1.11 1.42 1.2 1.75 2.27 3.58 3.24 5.45.44.82.9 1.64 1.31 2.47.25.54.49 1.09.72 1.64.21.56.35 1.15.47 1.74.07.37-.24.42-.67.25-.42-.17-1.01-.54-1.33-1.09-1.26-1.93-2.4-3.88-3.54-5.92-.68-1.23-1.7-2.29-2.62-3.38-1.01-1.2-2.06-2.39-3.16-3.53-.68-.69-1.34-1.41-2.06-2.07-1.07-1.02-2.17-2.03-3.36-2.88-.46-.33-.97-.6-1.47-.86-.48-.29-.99-.53-1.47-.81-.22-.12-.43-.22-.64-.36-.75-.52-.88-.87-.71-1.56.04-.16.06-.32.12-.47.18-.49.73-.67 1.47-.52.55.11 1.1.25 1.61.47.52.21 1.05.41 1.54.68.96.57 1.85 1.26 2.73 1.97 1.29 1.07 2.49 2.24 3.66 3.44l-.05.06ZM318.21 387.3l-1.41 11.47c-.16 1.4-.29 2.8-.49 4.19-.74 4.91-1.53 9.8-2.39 14.69-.36 2.17-.73 4.35-1.09 6.5-.24 1.38-.49 2.76-.73 4.14s-.73 2.72-1.11 4.07c-.26.84-.38.69-.48-.08-.05-.39-.12-.93-.17-1.58-.03-.33-.05-.68-.07-1.05-.01-.19 0-.38-.02-.57.02-.19.04-.39.07-.59l1.05-8.46c.38-2.82.77-5.64 1.2-8.48.54-3.39.71-6.96 1.02-10.46l1.1-11.54.63-7.12c.29-3.59.64-7.21.85-10.78.17-2.78.13-5.53.2-8.29.01-.61 0-1.21.03-1.82.16-2.27.54-2.96 1.55-3.35.23-.09.47-.21.69-.25.76-.14 1.3.84 1.42 2.51.22 4.94-.1 10.1-.56 15.28-.35 3.85-.78 7.71-1.18 11.58h-.08ZM90.64 361.09c-7.61-1.79-14.92-5.07-21.18-9.75-1.17-.82-2.25-1.75-3.38-2.63-1.06-.95-2.16-1.86-3.13-2.91-6.94-7.22-12.05-15.93-15.37-25.2-1.45-4.12-2.63-8.36-3.45-12.61-.49-2.74-.96-5.5-1.07-8.29l-.09-2.09c0-.7.02-1.4.04-2.09.03-.7.03-1.39.1-2.09.08-.69.27-1.38.4-2.07.4-1.71.7-1.43 1.32.04.72 1.48 1.54 4.07 1.84 7.09l.22 2.01c.07.67.21 1.33.28 2 .1.67.16 1.34.28 2l.36 1.99c.47 2.65 1.15 5.26 1.88 7.85 1.58 5.15 3.47 10.23 5.98 15.08.7 1.48 1.61 2.85 2.47 4.28.96 1.36 1.87 2.76 2.96 4.04 2.08 2.63 4.4 5.08 6.87 7.28 5.42 4.88 11.91 8.57 18.91 10.84 4.3 1.43 8.81 2.27 13.34 2.67 6.88.57 13.91.08 20.62-1.49 5.22-1.21 10.12-3.2 14.83-5.52 1.02-.55 2.03-1.06 3.05-1.64 3.8-2.06 5.04-2.63 6.42-2.23.31.09.68.14.92.28.4.23.32.73-.22 1.41-.53.69-1.5 1.58-2.89 2.49-8.23 5.5-18.36 9.11-28.83 10.42-7.78.98-15.79.66-23.51-1.07v-.1Z" class="cls-3"/><path d="M150.94 343.92s.08-.1 0-.05c0-.08-.07-.12-.2-.15-.02 0-.03-.01-.05-.01h-1.96c-.64.01-1.27.1-1.91.12-2.26.04-4.52.14-6.76.41-1 .12-1.98.33-2.94.56-1.24.29-2.46.64-3.75.77-.45-.1-.44-.25-.23-.73s.7-1.07 1.41-1.35c.63-.25 1.27-.47 1.91-.67.65-.17 1.3-.33 1.96-.46 1.32-.27 2.65-.45 4-.53 1.61-.09 3.25-.44 4.88-.6.9-.09 1.8-.15 2.69-.21l4.01-.28.7-.05c.08.22-.07.62-.13.95l-.23 1.03c-.15.69-.32 1.38-.45 2.07-.36 1.63-.76 3.22-.96 4.83-.14 1.25-.05 2.51.03 3.73.02.27.07.54.07.81 0 1-.28 1.31-1.14 1.53-.2.05-.4.12-.59.15-.66.11-1.22-.33-1.47-1.14-.58-2.4-.29-4.93.15-7.36.16-.91.39-1.8.64-2.67l.09-.33.05-.16v-.02c.02 0 .02-.01.03-.02.02-.02.04-.04.05-.08l.09-.06ZM56.82 354.98c3.34 3.3 7.13 6.21 11.19 8.68.73.47 1.51.86 2.28 1.26.77.41 1.54.79 2.32 1.17 2.72 1.41 5.55 2.62 8.44 3.68 2.89 1.05 5.87 1.93 8.9 2.5 2.69.5 5.44.9 8.16.95 1.75.06 3.5 0 5.25-.09 1.75-.08 3.51-.22 5.26-.44 1.1-.11 1.03.2.18.75-.42.27-1.04.63-1.82.98-.78.31-1.72.66-2.76.87-3.7.68-7.49.83-11.25.6-.94-.09-1.88-.15-2.81-.29l-2.78-.52c-.92-.2-1.83-.44-2.75-.67-.91-.24-1.81-.54-2.71-.82-4.28-1.39-8.72-2.93-12.8-5.07-4.48-2.35-8.71-5.18-12.55-8.47-2.36-2.03-4.55-4.25-6.6-6.59-3.07-3.58-5.65-7.57-7.78-11.73-1.64-3.23-3.2-6.49-4.21-9.98-.27-.76-.45-1.52-.61-2.31-.31-1.47-.34-2.46-.23-3.17.1-.71.36-1.13.8-1.5.2-.16.39-.37.59-.47.68-.34 1.45.76 2.01 2.72 1.01 2.89 1.86 5.82 3.08 8.67 1.22 2.84 2.64 5.64 4.3 8.31 2.5 3.94 5.51 7.61 8.94 10.88l-.06.08ZM200.87 118.17c-3.69-1.91-7.72-3.25-11.85-4.12-.75-.18-1.52-.25-2.29-.36-.76-.11-1.53-.18-2.3-.27-2.7-.35-5.45-.49-8.2-.47-2.75.02-5.51.24-8.24.73-1.21.19-2.41.48-3.61.75-1.18.33-2.38.64-3.53 1.05-2.97 1.03-5.86 2.28-8.75 3.6-.91.39-.97.07-.43-.69.53-.76 1.62-2.06 3.24-3.07 2.89-1.74 6.01-3.12 9.24-4.18 1.61-.56 3.29-.87 4.96-1.16l2.53-.33c.85-.07 1.7-.12 2.55-.17 4.06-.19 8.3-.34 12.44.21 4.53.61 9.01 1.75 13.24 3.49 2.61 1.06 5.11 2.39 7.49 3.89 3.6 2.3 6.83 5.17 9.61 8.38 2.15 2.49 4.12 5.12 5.65 8.06.18.32.35.64.52.96.16.33.28.67.41 1.01.23.64.41 1.18.53 1.64.09.47.12.86.11 1.19-.02.66-.24 1.09-.65 1.49-.19.18-.36.4-.56.52-.67.42-1.6-.42-2.4-2.04-1.37-2.35-2.62-4.71-4.2-6.92a37.725 37.725 0 0 0-5.37-6.16c-2.96-2.82-6.47-5.11-10.22-6.94l.04-.1Z" class="cls-3"/><path d="M169.52 124.6c6.35.23 12.69 1.28 18.68 3.42 2.19.74 4.38 1.54 6.46 2.55 3.68 1.78 7.11 4.07 10.24 6.67 3.13 2.61 5.99 5.54 8.36 8.83 2.11 2.91 4.05 5.97 5.56 9.19l.75 1.54c.25.51.44 1.05.66 1.58.41 1.07.89 2.11 1.18 3.22.59 2.2 1.33 4.39 1.19 6.72-.03 1.44-.4 1.3-1.36.3-.46-.5-1.23-1.17-1.73-2.05-.5-.88-1.16-1.87-1.57-3.02-2.99-8.14-7.54-15.5-13.77-21.64-3.7-3.73-8.61-6.39-13.55-8.49-2.71-1.2-5.57-2.07-8.44-2.84-1.46-.29-2.9-.71-4.38-.9l-2.22-.36c-.74-.09-1.49-.15-2.23-.23-3.67-.34-7.39-.41-11.07-.05-5.58.48-11.17 1.66-16.36 3.73-4.05 1.57-7.72 3.77-11.18 6.24-.78.51-1.48 1.11-2.23 1.68-.7.53-1.29.94-1.8 1.27-.49.36-.91.62-1.28.8-.75.36-1.34.39-2 .21-.3-.08-.65-.13-.89-.25-.84-.42-.16-1.91 1.79-3.84 2.99-2.74 6.42-5.18 10.15-7.22 3.74-2.03 7.79-3.59 11.94-4.77a65.009 65.009 0 0 1 19.08-2.39v.11Z" class="cls-3"/><path d="M118.45 147.13c-.1.13-.22.3-.2.27 0 .02-.05.02-.06.04l-.12.11-.14.15s-.17.17-.04.14c.08.07.17.1.45.13h.23l.35-.02c.39-.02.78-.04 1.18-.03 2.79-.02 5.62-.19 8.43-.51 1.25-.14 2.5-.36 3.72-.59 1.58-.28 3.16-.62 4.8-.63.54.14.49.3.15.8-.34.49-1.03 1.06-1.92 1.32-.8.22-1.59.44-2.39.63-.81.17-1.62.32-2.43.46-1.63.28-3.28.5-4.96.6-2 .12-4.06.52-6.13.65l-.53.03-.77.02c-.52 0-1 .03-1.55.02l-1.62-.03-1.66-.05c.02-.12 0-.21.05-.35l.2-.45.4-.89c.26-.57.53-1.15.87-1.73.25-.45.47-.9.76-1.35l.59-.92 1.14-1.73c1.13-1.74 2.36-3.43 3.36-5.2.78-1.38 1.33-2.85 1.81-4.26.09-.31.15-.62.26-.93.15-.55.37-.86.6-1.06.22-.18.54-.27 1.02-.32.22-.02.44-.08.65-.09.36-.02.66.12.87.44.21.31.35.85.28 1.39-.18 1.67-.77 3.14-1.43 4.53-.68 1.39-1.47 2.72-2.29 3.99-1.2 1.91-2.64 3.66-3.87 5.45l-.07-.04ZM355.93 190.02c-1.17 1.43-2.46 2.06-3.76 2.14-.46-.02-.99.06-1.44-.21-.54-.27-.91-.76-1.08-1.21-.17-.46-.21-.9-.17-1.49.05-.58.2-1.28.56-1.98.21-.46.44-.87.68-1.24l.34-.53.27-.38c.5-.61 1.2-1.13 1.99-1.25.24-.04.24.08.16.32-.1.23-.19.67-.32.99-.13.28-.21.58-.27.88-.02.14-.09.3-.12.4-.01.02-.03.04-.04.04-.06.02-.2.1-.44.47-.11.17-.17.31-.18.46 0 .2.17.31.33.37.29.13.63.02.92-.25.18-.17.36-.39.47-.68.08-.22.16-.46.18-.72 0-.13 0-.26-.04-.39a.425.425 0 0 0-.1-.17c-.06.02.08-.11.05-.08 0 0-.01.01-.01.02-.05.09-.05.11-.08.13-.03.03-.07.07-.1.13-.07.11-.02.21-.08.38-.02.07-.01.17-.05.25-.14.32-.46.39-1.37 0-.21-.08-.41-.16-.61-.25-.66-.32-1.14-.81-1.05-1.37.07-.42.24-.89.61-1.38.33-.47 1.05-1 1.78-1.19.74-.21 1.7-.25 2.7.31a3.358 3.358 0 0 1 1.07.96c.19.26.35.55.46.86.36.91.29 2 .06 3.02-.25 1.02-.7 1.97-1.27 2.72l-.06-.07ZM333.14 192.15c-1.17 1.43-2.46 2.06-3.76 2.14-.46-.02-.99.06-1.44-.21-.54-.27-.91-.76-1.08-1.21-.17-.46-.21-.9-.17-1.49.05-.58.2-1.28.56-1.98.21-.46.44-.87.68-1.24l.34-.53.27-.38c.5-.61 1.2-1.13 1.99-1.25.24-.04.24.08.16.32-.1.23-.19.67-.32.99-.13.28-.21.58-.27.88-.02.14-.09.3-.12.4-.01.02-.03.04-.04.04-.06.02-.2.1-.44.47-.11.17-.17.31-.18.46 0 .2.17.31.33.37.29.13.63.02.92-.25.18-.17.36-.39.47-.68.08-.22.16-.46.18-.72 0-.13 0-.26-.04-.39a.425.425 0 0 0-.1-.17c-.06.02.08-.11.05-.08 0 0-.01.01-.01.02-.05.09-.05.11-.08.13-.03.03-.07.07-.1.13-.07.11-.02.21-.08.38-.02.07-.01.17-.05.25-.14.32-.46.39-1.37 0-.21-.08-.41-.16-.61-.25-.66-.32-1.14-.81-1.05-1.37.07-.42.24-.89.61-1.38.33-.47 1.05-1 1.78-1.19.74-.21 1.7-.25 2.7.31a3.358 3.358 0 0 1 1.07.96c.19.26.35.55.46.86.36.91.29 2 .06 3.02-.25 1.02-.7 1.97-1.27 2.72l-.06-.07ZM346.86 221.23c2.98 1.35 6.29 1.38 9.25-.05 2.53-1.22 4.4-3.54 5.3-6.17.31-.89-.35-2.01-1.26-2.21-1-.23-1.89.3-2.21 1.26-.04.11-.08.22-.12.34-.19.52.07-.14-.06.15-.1.22-.21.43-.33.63-.13.23-.28.45-.43.68-.05.07-.16.22-.04.06-.09.12-.19.23-.29.34-.76.86-1.22 1.23-2.22 1.74-.11.05-.21.11-.32.16.18-.08-.06.02-.11.04-.29.11-.58.2-.87.27-.62.16-.85.19-1.43.21-1.08.03-2.15-.15-3.04-.55s-1.94-.25-2.46.65c-.45.77-.24 2.06.65 2.46ZM372.93 167.71c-4.46-5.47-12.83-5.65-19.16-4.11-2.5.61-1.44 4.47 1.06 3.86.52-.13 1.05-.24 1.58-.33.16-.03.33-.06.49-.08.05 0 .52-.08.25-.04s.22-.03.27-.03l.56-.06c1.49-.14 3-.17 4.49-.03 1.07.1 3.01.52 4.01.95 1.54.65 2.55 1.43 3.6 2.71.68.84 2.12.71 2.83 0 .83-.83.69-1.99 0-2.83ZM341.12 165.08c-2.13-.39-4.27-.79-6.4-1.18-.54-.1-1.05-.08-1.54.2-.41.24-.81.72-.92 1.2-.22.98.3 2.26 1.4 2.46 2.13.39 4.27.79 6.4 1.18.54.1 1.05.08 1.54-.2.41-.24.81-.72.92-1.2.22-.98-.3-2.26-1.4-2.46Z" class="cls-3"/><path d="M285.98 109.69c-5.12 4.83-9.23 10.77-11.5 17.36-2.22 6.57-2.52 13.83-.11 20.29.86 2.35 2.02 4.61 3.51 6.64 1.48 2.04 3.2 3.91 5.07 5.63 6.75 6.04 15.42 10 24.53 10.5 9.13.58 18.35-1.95 26.85-5.76 7.59-3.4 14.72-7.96 21.47-12.8 4.35-3.11 8.54-6.47 12.79-9.77 4.25-3.29 8.55-6.6 13.39-9.17 1.58-.7 2.27-.95 2.29-.84.02.12-.63.65-1.59 1.74-.45.59-1.06 1.2-1.71 1.97-.62.81-1.42 1.57-2.23 2.51-.83.9-1.71 1.92-2.72 2.9-1.03.95-2.14 1.95-3.34 2.93-2.12 1.76-4.27 3.47-6.48 5.15-2.19 1.69-4.41 3.35-6.66 4.97-4.51 3.25-9.15 6.35-14.02 9.15-4.87 2.79-9.96 5.28-15.32 7.21-5.35 1.92-10.99 3.28-16.77 3.64-3.45.16-6.97.13-10.46-.49-1.76-.2-3.46-.71-5.19-1.11-.86-.23-1.68-.56-2.53-.84-.84-.29-1.69-.56-2.49-.95l-2.43-1.1c-.81-.36-1.56-.86-2.34-1.28-.76-.46-1.57-.84-2.29-1.36l-2.18-1.53c-2.88-2.06-5.53-4.54-7.74-7.35-2.43-3.09-4.35-6.62-5.55-10.39-1.18-3.77-1.65-7.75-1.45-11.66.44-7.85 3.49-15.31 7.95-21.55a53.59 53.59 0 0 1 9.71-10.24c3.66-2.95 7.67-5.45 11.88-7.48 6.4-3.07 13.34-4.98 20.38-5.75 7.04-.77 14.18-.32 21.04 1.21 10.66 2.35 20.6 7.37 28.6 14.81 1.74 1.65 3.43 3.31 4.96 5.19 2.86 3.48 4.39 6.04 5.26 7.93.43.95.74 1.71.89 2.39.13.69.16 1.28.13 1.82-.02.49.02 1.1-.07 1.42-.16.54-.78.08-1.81-1.13-.52-.6-1.1-1.42-1.8-2.38-.67-.99-1.49-2.09-2.39-3.35a59.244 59.244 0 0 0-9.35-10.18c-3.52-3.04-7.41-5.7-11.63-7.81a57.68 57.68 0 0 0-13.34-4.85c-4.64-1.11-9.44-1.6-14.24-1.56-14.24.07-28.55 5.59-38.87 15.41l-.08-.06ZM385.25 176.38c.54.16 1.63.08 2.58-.27.98-.34 1.94-.88 2.79-1.56.83-.71 1.53-1.55 2.08-2.48.53-.95.86-1.96 1.06-3.13.06-.24.13-.48.2-.72.06-.24.13-.48.28-.69l.35-.56c.12-.16.24-.29.36-.43l.37-.41.39-.33c.26-.23.53-.43.81-.6.28-.18.56-.36.86-.49 1.16-.6 2.47-.91 3.81-.88 1.18-.02 2.34.34 3.41.81.49.3 1 .58 1.44.92.41.37.85.73 1.21 1.13 1.49 1.61 2.25 3.47 2.93 5.33 1.21 3.86.94 7.9-.27 11.55-1.08 3.23-3.01 6.29-5.84 8.33-.9.65-1.87 1.22-2.91 1.62-1.04.41-2.12.73-3.23.8-2.2.2-4.43-.15-6.29-1.23-1.2-.51-1.02-.46.08-.41.54.07 1.38-.22 2.28-.35.45-.09.94-.21 1.43-.33.48-.09.98-.18 1.51-.28 7.42-.97 11.58-9.32 10.58-16.69-.15-1.11-.47-2.16-.96-3.22-.2-.55-.5-1.02-.79-1.49-.26-.51-.65-.86-.98-1.29-.74-.72-1.57-1.27-2.47-1.5-.9-.24-1.89-.14-2.81.18-.54.22-1.1.48-1.5.85-.23.16-.37.36-.51.52-.04.08-.08.12-.12.18l-.07.2c-.26 2.25-1.29 4.58-2.8 6.34a12.64 12.64 0 0 1-5.7 3.91c-.48.19-1.02.26-1.52.39-.54.04-1.06.16-1.64.1-.29-.02-.56 0-.85-.07-.26-.06-.67-.14-.98-.24l-.9-.47c-.3-.15-.53-.41-.8-.61-.9-.88-.84-2.34-.63-3.45.2-.93.46-1.76.73-2.57.85-2.54 1.73-4.97 2.32-7.48.59-2.49.93-5.04.83-7.54-.13-3.91-1.52-7.54-3.48-10.74-.48-.69-.91-1.37-1.43-2.04-1.75-2.58-2.3-3.46-2.1-4.62.04-.26.05-.56.13-.78.14-.36.54-.39 1.17-.13.63.26 1.49.8 2.42 1.71.71.64 1.37 1.37 2 2.12.58.79 1.2 1.58 1.7 2.45 1.08 1.7 1.92 3.61 2.49 5.61 1.19 4 1.25 8.35.55 12.39-.45 2.7-1.23 5.3-2.07 7.75-.41 1.22-.85 2.43-1.19 3.53-.09.28-.15.53-.22.79-.04.13-.05.24-.07.33v.03s-.03.06 0 .08c0 .02.06.06.05.04l-.02.09ZM328.26 209.84c-.2-.26-.36-.53-.47-.84-.14-.29-.26-.6-.31-.9-.14-.56-.15-.99-.19-1.46 0-.87.08-1.67.21-2.42.26-1.51.68-2.88 1.13-4.23.33-.98.59-1.97.99-2.91 1.36-3.32 2.98-6.46 4.66-9.56.74-1.38 1.44-2.78 2.15-4.15.86-1.8 1.97-3.47 3.2-5.05.39-.49.55-.29.56.31 0 .6-.09 1.65-.47 2.72-.34.95-.68 1.9-1.13 2.79l-1.25 2.72c-.83 1.81-1.67 3.62-2.56 5.42-1.09 2.14-1.83 4.54-2.56 6.84-.4 1.27-.77 2.54-1.05 3.8-.26 1.25-.47 2.55-.36 3.62.02.16.03.32.07.45.03.13.03.21.07.3.05.2.19.34.32.49.33.24.93.39 1.61.34 1.02-.05 2.18-.41 3.29-.87 1.12-.46 2.22-1.04 3.27-1.69 1.65-1.01 3.1-2.28 4.67-3.47.35-.26.67-.55 1.04-.8 1.38-.91 2.05-.95 2.82-.17.18.18.37.35.51.54.45.68.21 1.49-.62 2.24-2.51 2.26-5.48 4.51-9.05 6.29-1.22.6-2.53 1.15-4.07 1.5-.77.17-1.61.29-2.58.23-.97-.09-2.04-.34-3.05-1.1-.33-.3-.69-.57-.95-.95l.07-.06ZM361.71 328.73c.54 2.39 1.27 4.72 2.44 6.61.29.47.6.91.94 1.31.17.2.35.37.53.56.2.19.42.39.66.59l2.92 2.49c1.44 1.22 2.94 2.38 4.34 3.68 1.23 1.15 2.46 2.33 3.62 3.63 1.15 1.29 2.19 2.63 3.2 3.97 2.01 2.67 3.87 5.35 6.1 7.55 1.92 1.84 4.56 3.14 7.13 4.26 1.67.72 3.41 1.25 5.13 1.85 1.73.59 3.47 1.04 5.19 1.84.52.37.74.59.71.7-.03.12-.33.18-.88.48-.56.31-1.32.51-2.27.74-.93.16-2 .14-3.11-.09-1.97-.39-3.88-1.02-5.74-1.79-1.87-.74-3.69-1.66-5.42-2.81-.87-.57-1.73-1.2-2.55-1.94-.87-.77-1.5-1.51-2.18-2.29-1.31-1.56-2.44-3.18-3.53-4.78-1.29-1.91-2.69-3.74-4.24-5.39-1.54-1.63-3.32-3.16-5.06-4.7l-5.89-5.09a13.27 13.27 0 0 1-2.7-3.38c-.7-1.23-1.22-2.5-1.68-3.78-1.11-3.15-1.71-6.35-2.29-9.5l-.63-3.55-.17-.87-.16-.74c-.07-.32-.15-.65-.28-.97-.12-.3-.27-.68-.61-.78-.35-.04-.64.22-.89.43-.26.23-.44.52-.6.83-.08.15-.15.32-.2.46-.1.24-.17.51-.25.77-.44 1.65-.46 3.44-.33 5.19.14 1.76.45 3.5.88 5.21.18.75.43 1.47.66 2.21.77 2.76 1.03 3.51.61 4.49-.08.22-.12.48-.22.65-.16.3-.52.27-1.07-.12-.56-.38-1.17-1.15-1.73-2.22-.85-1.58-1.4-3.28-1.81-5.02-.42-1.74-.68-3.54-.77-5.39-.08-1.86 0-3.77.49-5.79.05-.25.14-.51.21-.77.04-.13.07-.26.13-.39l.23-.61c.36-.78.79-1.52 1.3-2.15.24-.34.55-.55.82-.83.29-.23.6-.43.91-.62.63-.34 1.27-.58 1.94-.54.51.02 1.04.16 1.46.4.21.13.41.25.6.4.18.18.37.33.53.53.69.79 1.08 2.07 1.44 3.28.19.76.23.95.3 1.31l.2 1 .35 1.95c.43 2.57.82 5.07 1.42 7.48l-.08.03ZM347.79 375.34c2.45.51 4.99.85 7.55 1.05.93.05 1.87.01 2.8.05 3.3.16 6.63.18 9.92-.15 1.46-.15 2.93-.37 4.33-.72 1.84-.37 3.62-.87 5.53-1.08.6-.06.66.29.35.9-.16.31-.4.69-.74 1.09-.33.4-.75.83-1.28 1.06-.93.4-1.86.91-2.83 1.21-.98.26-1.96.54-2.96.71l-1.5.26c-.5.07-1.01.08-1.52.12-1.01.07-2.02.09-3.04.06-2.42-.04-4.91.22-7.37.17-2.7-.06-5.4-.3-8.08-.68-1.65-.24-3.3-.54-4.95-.98l-.94-.27-.95-.35c-.63-.25-1.22-.53-1.81-.84-1.18-.61-2.3-1.43-3.26-2.43-.74-.78-1.41-1.67-1.89-2.66-.47-.99-.79-2.05-.89-3.12-.06-.47-.1-.92-.1-1.39.02-.43.06-.78.12-1.07.08-.28.18-.51.3-.68.24-.35.55-.52.98-.62.2-.05.39-.12.58-.13.63-.05 1.04.67 1.27 1.73.22 1.57.61 2.95 1.17 4 .58 1.05 1.45 1.87 2.65 2.59.89.51 1.96.97 2.97 1.27 1.13.28 2.32.59 3.57.8v.1Z" class="cls-3"/><path d="M335.99 361.84c.46.59 1.17 1.13 2.05 1.52.31.16.69.15 1.02.28 1.22.4 2.62.81 4.06.93.64.09 1.29.05 1.92 0 .81-.12 1.65-.09 2.53.06.28.06.29.33.14.72-.15.38-.46.98-.92 1.27-.81.53-1.69.75-2.59.96-.9.22-1.84.2-2.79.03-1.12-.17-2.32-.09-3.5-.39-1.29-.32-2.58-.87-3.72-1.7-.35-.27-.69-.52-.99-.85l-.46-.47-.37-.46c-.74-.93-1.46-2.17-1.67-3.61-.19-1.09-.19-2.22.13-3.2.06-.22.09-.45.23-.62.46-.68.86-.7 1.64-.39.18.07.36.14.53.22.55.29.88.82.96 1.35.08.4.16.76.18 1.04.03.29.13.54.14.72.07.37.14.46.24.72.09.19.25.47.5.82.13.17.28.35.43.55l.34.41-.06.08Z" class="cls-3"/><path d="M331.51 351.91c.58.67 1.62 1.22 2.77 1.66.43.16.88.2 1.34.32 1.61.45 3.36.72 5.13.84.79.04 1.58.06 2.36.03.51 0 1.01-.06 1.52-.04.51.03 1.03.1 1.55.21.32.08.29.34.03.68-.26.33-.71.82-1.28 1.02-1.01.3-2.04.46-3.09.6-1.05.13-2.13.06-3.21-.07-1.29-.19-2.65-.06-4.02-.28-1.49-.24-3.04-.69-4.43-1.62-.44-.24-.82-.65-1.22-.98-.34-.41-.71-.8-.98-1.26-.81-1.4-1.06-2.89-1.15-4.34-.07-1.12-.15-2.28.1-3.47.05-.26.09-.53.22-.77.47-.9.93-1.02 1.71-.69.18.07.36.14.52.23.55.32.79.89.83 1.41.1.81.04 1.44.08 2.14.02.68.13 1.36.22 2.02.08.48.2.94.36 1.32.08.19.15.34.28.5.11.16.21.33.39.46l-.05.07Z" class="cls-3"/><path d="M314.29 340.23c-1.06-.48-1.6-.68-3.62-1.74-1.72-.85-3.11-1.95-3.65-3-.27-.53-.46-1.05-.4-1.73 0-.34.13-.71.3-.98.14-.3.36-.54.59-.76.88-.87 2.26-1.4 3.99-1.57.64-.03 1.28-.12 1.89-.1h1.31l.3.02c.79.03 1.57.09 2.33.19 5.39.75 10.5 2.09 15.62 3.44 2.27.6 4.56 1.12 6.82 1.64 2.93.57 5.8 1.42 8.51 2.81.81.58.67.62-.22.94-.45.17-1.06.32-1.8.48-.37.08-.76.15-1.17.2-.21.03-.41.03-.64.07-.21-.02-.42-.03-.63-.06l-2.26-.31c-.75-.11-1.48-.32-2.22-.48l-4.41-1.06c-2.93-.72-5.86-1.48-8.79-2.27-3.49-.97-7.25-1.45-10.82-1.74l-1.15-.08c-.24-.02-.39-.02-.59-.02-.38 0-.81.02-1.2.22-.09.06-.19.12-.24.2-.06.09-.05.2-.01.29.07.18.22.31.37.44.31.25.68.48 1.08.7.11.07.87.43 1.38.67.56.26 1.13.51 1.71.75 1.15.49 2.32.95 3.49 1.39 3.57 1.33 7.2 2.59 10.86 3.63 2.84.8 5.69 1.36 8.55 1.99.63.14 1.25.24 1.88.39 1.17.28 1.92.53 2.41.87.48.36.71.73.86 1.19.07.21.17.42.19.61.04.31-.21.52-.71.68-.49.15-1.24.27-2.12.15-5.23-.75-10.59-2.19-15.94-3.8-3.98-1.2-7.93-2.55-11.87-4.17l.03-.08ZM138.31 205.55c-.77.63-1.58.74-2.32.66-.27-.04-.55-.03-.82-.16-.46-.22-.88-.61-1.06-1.07-.18-.45-.19-.89-.12-1.25.06-.32.12-.63.29-.89.18-.34.52-.65.94-.65.13 0 .17.17.22.4.04.22.16.52.22.63.05.19.26.34.28.39.03.06.04.07-.05.11-.06.02-.1.08-.08.05.02-.02.03-.06.04-.08 0 0 0-.01.02 0 .03.03.18.06.26.04h.11c.04.01.1-.13-.03-.22-.05-.03-.14-.02-.22.03-.04.02-.08.06-.1.1-.04.07.02-.04.02-.05 0-.03.02-.06.03-.09.01-.06.01-.06.01-.08v-.03c0-.15-.02-.33-.05-.55l-.09-.6c-.13-.65-.04-1.27.42-1.48.66-.22 1.38-.04 1.88.32.52.37.88.91 1.07 1.56.14.48.15 1.04 0 1.59s-.46 1.03-.82 1.38l-.05-.05ZM164.88 245.04c-.35-.61-.7-1.22-.98-1.87-.32-.62-.56-1.29-.8-1.94-.2-.47-.37-.95-.52-1.43a16.66 16.66 0 0 1-.53-5.29c-.01-.39.05-.78.07-1.17.03-.39.02-.78.09-1.15.06-.49.15-.98.28-1.45.17-.47.36-.93.57-1.37.14-.27.29-.18.44.12.14.3.35.82.35 1.35-.04.47.11.95.03 1.39-.06.45-.02.91-.03 1.36-.02.45 0 .9.03 1.35l.02.68.06.68c.02.27.06.55.1.83.06.27.14.55.22.82.13.55.37 1.07.55 1.61.18.6.49 1.15.71 1.73.29.55.56 1.12.9 1.66l.62.99c.22.32.46.63.7.94.72.93 1.53 1.81 2.44 2.56.73.55 1.56.94 2.36 1.34.17.09.36.16.53.25.32.17.51.32.58.53.06.24.03.49-.06.83-.04.15-.07.31-.12.45a.94.94 0 0 1-.48.52c-.23.11-.54.2-.83.1-.9-.22-1.76-.62-2.56-1.13-.38-.27-.76-.56-1.13-.87-.35-.32-.7-.66-1.04-.99-.5-.5-.94-1.07-1.4-1.62-.4-.59-.85-1.14-1.21-1.76l.05-.04Z" class="cls-3"/><path d="m121.81 252.93-4.86-24.35c-.59-2.96-1.25-5.91-1.81-8.88l-1.47-7.77-.7-3.91-.3-1.98-.07-.5-.03-.25v-.38c-.03-.52-.06-1.04.04-1.54.52-.89 1.63-1.62 2.14-1.9.63-.36 1.26-.68 1.89-.98 1.26-.59 2.53-1.1 3.81-1.59 2.56-.96 5.15-1.79 7.77-2.51 4.6-1.26 9.29-2.3 14.01-2.91 1.51-.2 3.04-.35 4.57-.46 1.53-.06 3.07-.08 4.61 0 3.07.13 6.17.67 9.03 1.83 1.73.89 1.45.8-.19.78-.82.02-1.95-.02-3.31.08-.67.01-1.41.11-2.17.12-.76 0-1.57.03-2.4.01-1.48.01-2.96.05-4.44.19-1.48.11-2.97.2-4.45.37-2.97.32-5.93.84-8.87 1.48a98.83 98.83 0 0 0-8.75 2.31c-2.88.9-5.76 1.91-8.43 3.16-.48.23-.96.47-1.39.73l-.4.24c-.07.05-.14.09-.19.17-.04.1 0 .23 0 .36l.16 1.12.39 2.33c.26 1.57.55 3.14.85 4.72.62 3.16 1.24 6.33 1.86 9.47 1.63 8.17 3.27 16.34 4.9 24.51 1.04 5.02 2.07 10.05 3.11 15.07.8 3.8 1.61 7.61 2.41 11.41.41 1.9.83 3.79 1.24 5.68l.64 2.83.65 2.75c.05.19.1.39.16.57.09.18.35.17.53.2.23.01.31.01.7 0 .66-.01 1.35-.08 2.03-.14 1.37-.14 2.74-.34 4.1-.55 2.74-.45 5.47-.9 8.22-1.36 1.29-.21 2.55-.44 3.85-.63 4.85-.69 6.46-.63 7.58.06.25.15.58.29.73.44.48.48-1.41 1.16-4.9 1.78-3.75.68-7.57 1.45-11.49 2.1-1.96.32-3.94.63-5.97.89-1.02.12-2.04.24-3.11.3l-.82.04c-.29 0-.49.01-1.1 0-.25-.01-.49-.06-.73-.09-.25-.02-.48-.08-.69-.17-.11-.04-.23-.07-.33-.12l-.28-.2-.28-.2c-.05-.03-.08-.08-.15-.09l-.11-.11c-.16-.29-.28-.65-.41-.98-.14-.33-.27-.67-.35-1.04l-.28-1.19c-.18-.75-.35-1.51-.53-2.26-.34-1.51-.69-3.03-1.03-4.54-1.82-8.14-3.52-16.33-5.25-24.5l.07-.03ZM177.04 261.45c.23 1.7.51 3.43.81 5.16.11.63.32 1.24.4 1.89.3 2.26.55 4.54.79 6.8.1 1 .27 2 .43 2.99l.17.95a15.567 15.567 0 0 1 .12 1.93v.49c-.02.16-.08.33-.12.5-.13.42-.26.39-.66.11-.46-.27-1.09-.8-1.36-1.49-.52-1.23-.73-2.49-1.02-3.75-.29-1.26-.46-2.54-.57-3.84-.13-1.56-.67-3.1-1.02-4.65-.36-1.72-.7-3.46-1.03-5.21l-.56-3.26c-.23-1.65-.47-3.31-.7-4.95-.21-1.27-.57-2.49-.85-3.74-.06-.28-.14-.54-.18-.82-.11-.52.06-.88.2-1.13.08-.13.19-.23.33-.32.16-.09.35-.17.53-.24.17-.06.32-.14.45-.18.36-.13 1.24.23 1.58.95.9 2.15 1.24 4.43 1.59 6.71.22 1.7.45 3.4.74 5.11l-.08.02Z" class="cls-3"/><path d="M140.72 204.43c-.17.81-.52 1.59-1.09 2.24-.57.66-1.33 1.12-2.07 1.33-.54.16-1.08.31-1.62.27a4.69 4.69 0 0 1-2.53-1.02 3.938 3.938 0 0 1-1.34-2.32c-.18-.84.11-1.68.51-2.26.5-.77 1.29-1.3 2.16-1.31.27 0 .28.29.23.66-.06.37-.08.89-.17 1.15-.21.45-.13.92.04.96.07.02 0 0 .01.11 0 .09.05.25.09.39.13.4.73.45 1.14.39.49-.04.83-.17 1.07-.64.15-.28.21-.67.14-.99a1.22 1.22 0 0 0-.35-.74.9.9 0 0 0-.57-.27c-.41-.03-.74.31-.85.58-.03.06-.03.14-.05.19-.05.08-.11.1-.3.05-.19-.04-.47-.14-.95-.34l-.65-.23c-.72-.24-1.24-.82-.99-1.53.35-1.03 1.34-1.98 2.6-2.24a5.16 5.16 0 0 1 1.92-.03c.63.13 1.25.37 1.79.74.11.07.21.17.33.23.67.6 1.18 1.37 1.44 2.22.26.89.27 1.64.15 2.43h-.09ZM152.03 247.78c-1.13-.57-2.91-.83-4.73-1.03-1.84-.22-3.8-.32-5.87-.78-1.52-.37-3.11-.73-4.65-2-1.31-1.15-2.01-2.6-2.43-4.03-.4-1.44-.49-2.93-.21-4.41.29-1.46.91-3.03 2.27-4.13l.51-.39.47-.26c.32-.16.61-.36.95-.48.33-.13.65-.27.99-.38l1.02-.28c1.22-.24 2.45-.31 3.67-.22 1.21.13 2.4.37 3.51.8 2.88.99 5.46 3.3 6.1 6.28.24.89 0 .84-.78.48-.38-.18-.92-.42-1.59-.62-.31-.12-.68-.2-1.01-.31-.31-.13-.59-.3-.89-.45-.26-.14-.5-.3-.76-.42-.27-.11-.53-.22-.75-.39l-.72-.39-.75-.33a9.436 9.436 0 0 0-3.11-.64c-.26-.03-.52 0-.78.01-.26 0-.51.04-.76.09-.26.02-.51.06-.75.12-.26.04-.5.11-.74.2l-.37.11-.35.16-.36.16c-.08.04-.12.08-.2.11-.25.16-.54.38-.76.78-.57.91-.65 2.42-.26 3.68.18.64.48 1.23.85 1.68.38.46.73.73 1.38 1.06 1.33.67 3.08.97 4.9 1.17 1.83.2 3.75.26 5.77.61 1.24.22 2.56.57 3.81 1.35.62.39 1.2.92 1.65 1.53.47.61.76 1.31.98 2l.19.78.1.77c.03.52.08.98 0 1.55l-.1.82c-.04.27-.16.53-.24.79-.1.26-.17.53-.29.77l-.41.69c-1.16 1.81-2.88 2.95-4.6 3.77-1.36.61-2.74 1.16-4.18 1.41-.71.19-1.45.23-2.18.34-.73.02-1.48.1-2.22.02-.66-.04-1.31-.05-1.96-.23-2.43-.6-3.04-1.38-3.04-2.43 0-.24-.03-.48 0-.69.07-.35.39-.54.85-.66.47-.12 1.04-.06 1.76-.02 1.05.13 2.12.06 3.17.02 1.06-.13 2.11-.26 3.12-.57 1.01-.27 1.98-.61 2.9-1 .9-.41 1.67-.93 2.27-1.48.37-.43.73-.84.84-1.25.03-.1.11-.2.12-.3 0-.11.02-.21.04-.32.01-.06.03-.1.04-.17v-.25c0-.17 0-.34-.02-.49-.05-.63-.19-1.08-.38-1.39-.18-.32-.51-.59-1.07-.85l.04-.09ZM110.31 238.49c-.69-1.46-1.17-2.95-1.56-4.41-.07-.27-.17-.52-.25-.79-.05-.18-.09-.35-.13-.54-.02-.22-.07-.45-.07-.67-.03-.4.02-.79.1-1.16.08-.37.17-.73.34-1.06.17-.33.39-.61.64-.87.28-.23.58-.42.92-.53.66-.24 1.39-.21 2.1.03.36.11.7.22 1.04.4.33.14.52.27.78.43.42.3.86.63 1.16 1.06.29.43.49.85.65 1.25.41 1.01.77 1.86 1.22 2.79.13.29-.03.39-.4.34-.36-.06-1.02-.24-1.5-.72-.8-.85-1.56-1.86-2.05-2-.18-.15-.38-.27-.71-.42.03-.07-.1-.2-.26-.32-.21-.16-.49-.06-.54.15-.03.1-.04.21-.04.31v.16s.02.1.05.22l.25.93c.08.34.19.65.28.98.19.65.42 1.29.67 1.91.32.76.67 1.51 1.12 2.19.67 1.05 1.45 2.06 2.43 2.88.76.64 1.68 1.06 2.56 1.54.2.1.41.18.59.3.66.49.73.85.37 1.66-.08.18-.15.38-.24.55-.31.58-.91.84-1.58.69-.99-.22-1.85-.71-2.72-1.25-.86-.55-1.67-1.24-2.43-2.02-1.13-1.15-2.1-2.54-2.86-3.97l.08-.05Z" class="cls-3"/><path d="M114.62 252.27c-.37-.59-.72-1.22-1.02-1.88-.3-.68-.53-1.28-.81-2.42-.13-.73-.36-1.49-.25-2.17.07-.59.27-1.14.7-1.58.43-.43.94-.61 1.49-.69.3-.01.56-.07.9-.02l.48.05c.16.03.33.1.49.15.33.09.63.26.94.4.29.15.59.18.84.4.76.44 1.33.84 1.91 1.33.73.61 1.35 1.38 1.65 2.27.09.28-.08.33-.41.28-.32-.06-.85-.15-1.26-.36a8.75 8.75 0 0 0-2.16-.8l-.52-.12c-.06 0-.03-.03-.04-.04 0 0-.01 0-.01-.01l-.03-.06c-.05-.08-.14-.18-.3-.31-.2-.14-.45-.21-.59-.09-.13.14-.04.34-.07.5v.3l.02.17c0 .05.06.21.09.32.16.46.37.94.64 1.4.32.57.7 1.15 1.15 1.69.34.43.66.79 1.08 1.27.42.48.82 1.02 1.17 1.57.27.43.51.86.75 1.18.24.32.46.53.68.71.1.08.22.13.32.22.36.33.37.63-.08 1.47-.1.19-.19.39-.3.58-.36.62-.96.95-1.63.72-.49-.17-.98-.47-1.42-.87-.45-.39-.82-.9-1.08-1.27-.26-.38-.44-.61-.6-.8-.14-.2-.26-.38-.43-.57l-1.09-1.23c-.43-.51-.85-1.05-1.26-1.62l.08-.06Z" class="cls-3"/><path d="M116.83 265.36c-.79-.89-1.66-2.05-2.03-3.58-.14-.59-.26-1.18-.18-1.77.15-1.01.64-2.12 1.68-2.72 1-.62 2.14-.6 2.93-.35.72.22 1.29.46 1.83.72.69.33 1.29.68 1.94.95.2.09.19.29-.04.54-.22.25-.7.54-1.22.56-.9.02-1.76-.02-2.36-.13a3.69 3.69 0 0 0-.7-.03c-.11 0-.21.01-.32.02-.16-.01-.31.42-.34.89-.07.46.2 1.23.75 1.93.17.22.35.44.55.66.22.24.47.5.7.76.72.76 1.24 1.73 1.82 2.34.47.48 1 .62 1.57.76.13.03.26.03.38.11.44.28.58.53.57 1.16v.42c-.03.44-.36.79-.93.96-.85.3-1.79.08-2.71-.38-.92-.49-1.57-1.2-2.04-1.68-.36-.37-.66-.69-.93-1.04-.15-.16-.28-.33-.44-.49l-.23-.24-.32-.31.06-.06ZM143.53 239.13c.36 2.6.73 5.19 1.16 7.78.15.95.4 1.87.55 2.81l.41 2.5.33 2.52c.23 1.68.48 3.35.76 5.02.25 1.48.57 2.95.9 4.4.37 1.88.9 3.72.96 5.68.04.6-.03.54-.32.09-.2-.29-.42-.61-.64-.92-.13-.19-.29-.39-.41-.62-.11-.23-.22-.48-.31-.74-1.36-3.69-2.4-7.47-3.15-11.35-.21-1.16-.51-2.33-.8-3.51-.26-1.18-.54-2.37-.77-3.56-.5-2.61-.94-5.23-1.38-7.85l-.78-4.84c-.41-2.44-.73-4.91-1.16-7.32-.34-1.88-.84-3.69-1.26-5.54-.1-.41-.18-.8-.24-1.22-.2-1.54-.05-2.06.64-2.5.16-.1.3-.22.45-.29.5-.22 1.12.33 1.51 1.41.28.81.61 1.62.81 2.46.22.84.41 1.68.6 2.54.37 1.71.68 3.45.98 5.2.46 2.59.8 5.22 1.23 7.83l-.07.02ZM150.42 237.94c.27 2.26.58 4.51.89 6.76.11.82.31 1.63.43 2.45.39 2.9.82 5.8 1.3 8.69.2 1.29.47 2.56.74 3.83.17.81.39 1.61.51 2.44.11.83.17 1.66.24 2.5.03.52-.09.48-.39.1-.29-.38-.86-1.07-1.3-1.95-.09-.2-.19-.39-.27-.59l-.19-.61-.38-1.22c-.25-.81-.49-1.63-.72-2.45-.48-1.63-.81-3.3-1.06-5-.3-2.03-.9-4.08-1.33-6.13-.47-2.25-.86-4.53-1.23-6.8l-.67-4.2c-.34-2.12-.62-4.26-1.02-6.35-.31-1.63-.76-3.2-1.13-4.8-.08-.35-.19-.69-.25-1.05-.24-1.33-.07-1.79.73-2.19.18-.09.36-.2.54-.27.61-.22 1.25.24 1.6 1.18 1 2.79 1.68 5.78 2.09 8.83.32 2.26.64 4.53.95 6.8l-.08.02Z" class="cls-3"/><path d="M112.69 203.19s-.06.04-.08.06v.1l.37 1.78.9 4.26 1.82 8.52 3.65 17.04c.92 4.14 1.84 8.28 2.76 12.41 1.53 7.31 3.09 14.62 4.54 21.95l2.16 11.01 1.04 5.52.13.69.06.38.12.73.03.19v.09h.09l.31-.06.63-.14c3.21-.77 6.42-1.54 9.63-2.3 3.24-.74 6.5-1.43 9.74-2.05 4.17-.79 8.38-1.49 12.64-1.88 2.13-.19 4.29-.17 6.43-.09 2.15.1 4.3.34 6.39.91 1.3.36 1.81.67 1.75.72-.07.09-.72-.05-1.83-.11-1.11-.1-2.69-.01-4.57.16-1.88.19-4.06.54-6.42.91-8.42.96-16.79 2.84-25.13 4.87l-6.27 1.55-1.62.4c-.5.11-1.02.28-1.5.34-.48.07-1.01.2-1.37.08l-.58-.09-.28-.04c-.1-.02-.22 0-.22-.14l-.39-1.22-.78-2.42c-.83-4.25-1.66-8.51-2.49-12.78-2.02-10.2-4.47-20.75-6.75-31.14-2.48-11.44-4.97-22.88-7.45-34.31l-.57-2.64-.28-1.33-.14-.66-.08-.36c-.03-.17-.09-.33-.09-.5l-.02-.96v-.46c-.03-.08.02-.14-.05-.25l.13-.2c.17-.27.32-.54.61-.74.26-.21.49-.45.78-.63.66-.39.98-.57 1.45-.77.44-.21.88-.4 1.31-.56 3.49-1.34 7.01-2.23 10.54-3.08 5.36-1.25 10.77-2.22 16.21-2.97 5.44-.72 10.9-1.31 16.43-1.26 1.08.01 2.15.05 3.25.17 1.09.1 2.19.28 3.34.65.26.12.73.26 1.02.45.29.23.63.42.88.68.11.15.19.31.28.47l.18.53.23.98c.22 1.05.42 2.07.61 3.1.76 4.11 1.42 8.2 2.08 12.32.29 1.81.6 3.58.86 5.41 1.06 6.77.74 9.01.14 10.58-.15.36-.27.82-.42 1.03-.25.36-.59-.13-1.04-1.32-.44-1.19-1.06-3.08-1.53-5.54-1.34-7.31-2.59-14.87-3.9-22.43-.16-.92-.34-1.93-.51-2.72-.01-.02-.01-.04-.03-.04h-.02l.02.02-.17-.07c-1.37-.41-3.25-.56-5.07-.61-3.71-.08-7.58.22-11.42.62-5.71.62-11.45 1.53-17.11 2.68-2.83.58-5.64 1.23-8.4 2-1.36.41-2.73.83-4.01 1.32-.65.23-1.28.5-1.87.77-.27.14-.61.27-.83.42-.17.1-.15.08-.16.09l-.02.02-.07-.06Z" class="cls-3"/><path d="M187.51 259.81c-.24-2.94-.52-5.88-1.2-8.53-.34-1.31-.8-2.56-1.42-3.41-.35-.46-.48-.6-1.24-1.19-.62-.5-1.22-1.01-1.81-1.54-1.71-1.54-3.34-3.13-4.8-4.85-1.81-2.14-3.47-4.38-5.07-6.61-.8-1.11-1.58-2.24-2.38-3.3l-.61-.77-.49-.58c-.17-.17-.38-.5-.67-.38-.47.12-.83.33-1.09 1.16-.24.78-.25 1.78-.14 2.8.15 1.54.61 3.13 1.2 4.65.6 1.54 1.35 2.89 2.25 4.28 2.33 3.51 5.27 6.46 8.28 9.6.83 1.14.66 1.11-.67.96-.67-.07-1.54-.3-2.57-.67a9.87 9.87 0 0 1-3.2-1.8c-.82-.71-1.66-1.42-2.4-2.23-.72-.82-1.41-1.67-2.06-2.56-.64-.89-1.25-1.81-1.8-2.75-.61-1.02-1.03-2.07-1.42-3.12-.75-2.11-1.35-4.27-1.43-6.72 0-1.22.12-2.56.75-3.97.16-.35.37-.7.61-1.03.12-.15.28-.35.45-.54.18-.15.35-.31.52-.46.72-.6 1.59-.92 2.44-1.1.66-.11 1.34.06 1.9.41.56.38 1.07.89 1.51 1.44.92 1.19 1.69 2.29 2.53 3.39.82 1.1 1.66 2.18 2.51 3.25 1.71 2.13 3.5 4.18 5.37 6.09a50.26 50.26 0 0 0 3.19 3.01c.55.47 1.11.93 1.69 1.36.12.09.33.26.52.43.2.16.38.33.54.51.34.35.61.73.88 1.11.97 1.53 1.51 3.11 1.91 4.66.4 1.56.66 3.1.88 4.63.54 3.78.72 7.52 1.08 11.19.3 2.75.59 5.6 1.53 7.96.52 1.11 1.29 2.38 1.99 3.56.72 1.19 1.47 2.37 2.25 3.52 2.41 3.59 5.13 6.86 8.01 9.94.64.68 1.3 1.29 1.96 1.95 2.47 2.4 3.26 3.06 3.43 4.13.04.24.13.51.12.72-.02.34-.38.4-1.05.19a7.42 7.42 0 0 1-1.21-.52c-.45-.27-.95-.6-1.5-1-3.18-2.45-6-5.41-8.64-8.54-2.6-3.18-5.1-6.46-7.36-10.02-.2-.34-.41-.66-.61-1.02-.2-.35-.4-.69-.63-1.16-.41-.87-.71-1.73-.93-2.55-.46-1.65-.71-3.23-.94-4.79-.43-3.12-.7-6.15-1-9.13l.1-.02Z" class="cls-3"/><path d="M213.44 298.92c-2.28 2.78-4.8 5.24-7.46 7.51-.96.83-1.89 1.7-2.91 2.47-3.58 2.7-7.4 5.03-11.43 6.97-1.79.84-3.61 1.66-5.5 2.3-1.22.39-2.45.79-3.76.96-.65.11-1.32.07-1.98.05-.67-.07-1.34-.15-1.95-.48-.77-.37-.58-.48.12-.8.19-.09.39-.19.6-.3.23-.18.47-.25.72-.38.25-.1.52-.22.81-.35.28-.13.57-.19.88-.3 2.22-.45 4.46-1.27 6.64-2.3 2.17-1.03 4.37-2.12 6.54-3.33 2.61-1.44 5-3.45 7.3-5.43 2.55-2.17 4.97-4.49 7.12-7.03 1.31-1.56 2.54-3.2 3.53-4.95.74-1.32 1.38-2.69 1.74-4.1.35-1.38.43-2.88-.18-3.82-.41-.75-1.25-1.13-2.2-1.29-.96-.16-2.03-.06-3.11.08-.48.05-.94.17-1.43.25-.45.05-.84.12-1.16.12-.33 0-.6-.07-.84-.14-.48-.16-.8-.48-1.12-1-.15-.24-.32-.46-.43-.7-.36-.78.28-1.72 1.78-2.35 1.11-.39 2.33-.64 3.61-.79 1.3-.06 2.7 0 4.22.48.38.11.76.27 1.15.47.38.17.77.44 1.14.7.38.26.72.63 1.05.97.29.39.62.77.82 1.21.9 1.74.95 3.57.77 4.97-.26 2.19-1.04 4.04-1.93 5.73-.9 1.68-1.95 3.21-3.06 4.65l-.08-.05ZM359.71 278.12c-.1.92-.49 1.58-1.03 2.09-.2.18-.36.4-.63.53-.45.23-1.04.32-1.53.2-.59-.1-1.04-.54-1.2-.93-.15-.35-.23-.67-.23-1.02 0-.22.03-.47.17-.7.12-.23.41-.42.67-.36.17.02.17.24.22.52.02.07.04.14.07.21.02.06.1.18.08.14-.02-.02 0 0 .04.02.16.13.64.06.54.06-.07-.01-.37.3-.33.32 0-.11.01-.21.02-.31v.02s0-.02-.01-.06c0-.03-.05-.1-.06-.12v-.03c.04-.04.15-.15.2-.26.03-.08.07-.08.06-.13 0-.02-.03 0 .03-.05.08-.07.16-.16.21-.24.05-.08.05-.13.05-.13s.02.1 0 .02c-.02-.03.05.09.28.2.11.06.25.11.42.15.15.04.11.03.17.06.03.02.1.04.11.06.05.08-.19.12-1.12.23l-.64.08c-.72.09-1.34.03-1.56-.24-.3-.4-.56-.93-.18-1.8.18-.42.61-.98 1.25-1.29.59-.3 1.33-.37 2-.17.99.32 1.4.94 1.66 1.41.24.49.34.99.34 1.51h-.07ZM356.09 288.77c-.95.61-1.79.51-2.5.28-.26-.09-.54-.16-.78-.36-.91-.76-.89-1.9-.52-2.5.14-.28.29-.54.47-.75.22-.28.54-.53.92-.53.12 0 .18.24.24.51.05.27.14.56.15.66-.01.4.24.58.06.58-.04 0-.05.02-.06.02l-.16.11c.02-.01.08-.09.13-.19 0 .02.11.06.14.09.06.14.21.21.13.17s.13.03.13.03h.02c.03 0 .02 0 0 0 0 0-.06.01-.11.04-.04.01-.05.03-.09.05-.02.02 0 0-.01 0 0 0-.02-.01-.04-.01-.03 0-.1.07-.11.12.02-.09.05-.24.02-.35 0-.04-.03-.1-.03-.1-.03-.06 0 0 0-.01l.03.03s.09.05-.17-.11c-.17-.11-.34-.21-.52-.3-.59-.29-1.04-.77-.69-1.32a2 2 0 0 1 1.08-.78c.4-.13.8-.13 1.15-.07.7.13 1.28.49 1.76 1.17.35.49.59 1.29.41 2.03-.15.7-.54 1.21-1 1.58l-.05-.05ZM210.71 316.65c-1.35.96-2.73 1.89-4.14 2.75-.51.32-.99.68-1.52.97a83.526 83.526 0 0 1-5.68 2.84c-.84.41-1.69.81-2.53 1.19-.55.24-1.08.49-1.64.71-.56.2-1.1.45-1.77.38-.41-.03-.36-.05-.17-.4.1-.17.2-.48.37-.76.17-.27.41-.48.7-.66 1.02-.61 2.01-1.26 3.05-1.82 1.05-.53 2.12-1.03 3.2-1.53 1.31-.58 2.49-1.5 3.7-2.3 1.33-.89 2.66-1.78 3.95-2.74.79-.59 1.58-1.19 2.33-1.83 1.15-.96 2.29-1.95 3.3-3.04.78-.86 1.41-1.82 2.07-2.74.15-.2.27-.42.43-.62.57-.74.91-.84 1.61-.53.16.07.33.13.48.22.5.29.61.89.28 1.54-.48.98-1.1 1.89-1.78 2.77-.71.85-1.5 1.66-2.32 2.43-1.22 1.15-2.54 2.2-3.87 3.22l-.04-.05ZM409.89 394.55a41.98 41.98 0 0 1-2.09 3.77c-.29.44-.52.92-.81 1.35-1.08 1.52-2.3 2.94-3.64 4.22-.58.58-1.21 1.11-1.83 1.64-.82.65-1.64 1.34-2.7 1.59-.32.1-.37-.11-.29-.49.04-.19.12-.43.22-.68.09-.27.24-.5.46-.67l1.06-1 1-1.05c.3-.38.66-.71 1.01-1.05.33-.36.67-.72 1.02-1.07.81-.88 1.39-2 1.99-3.07.68-1.17 1.29-2.4 1.89-3.63.36-.77.71-1.54 1.03-2.33.48-1.19.96-2.4 1.3-3.64.27-.96.35-1.96.51-2.94.04-.22.05-.43.1-.65.19-.79.44-.99 1.19-.96.17 0 .34 0 .51.02.56.07.92.52.92 1.15.06 1.88-.52 3.7-1.14 5.52-.47 1.35-1.04 2.67-1.64 3.99l-.06-.02ZM390.8 327.95c-.17.11-.38-.09-.58-.38-.06-.09-.12-.39-.07-.45.08-.12.16-.25.24-.36.05-.05.93-.74 1.21-1.06.27-.31.57-.46.87-.63.61-.33 1.22-.7 1.85-.94.14-.06.29-.09.45-.07.54.04 1.03-.13 1.49-.4.08-.04.16-.06.2-.22.07-.27 1.35-.83 1.56-.74.5.12.97.14 1.46.21.07.02.12-.05.23.1.26.35.37.25.51.25.2 0 .4 0 .62.07.11.03.27.2.42.33.13.11.28.63.27.69-.02.19.13.4.22.61.03.07.07.16.09.22.04.11-.72 1.54-.84 1.61 0 .09-1.56.82-1.72.95-.08.07-.21 0-.32-.02-.05 0-1.29.54-1.35.53-.29 0-.53.18-.89-.08-.07-.05-.12-.02-.17 0-.46.13-.96.09-1.45.1-.25 0-.48.1-.73.1-.04 0-.1-.03-.15-.05-.06-.02-.13-.05-.18-.04-.58.06-1.18.02-1.76.09-.14 0-.84-.23-.99-.2-.09 0-.43-.26-.5-.21ZM399.61 292.57c-.23 0-.18-.3.01-.78.06-.15.36-.54.44-.56.16-.05.33-.11.47-.13.08 0 1.09.3 1.45.37.35.07.65.22.93.37.59.31 1.18.62 1.74.97.13.08.23.18.32.3.31.43.72.71 1.18.93.08.04.14.1.27.06.22-.07 1.38.65 1.47.82.24.4.54.75.8 1.12.04.05.12.06.09.19-.08.32.07.35.17.45.14.13.26.27.36.46.05.09.01.29 0 .46-.01.15-.34.51-.39.54-.16.07-.24.29-.35.46-.04.06-.09.13-.12.17-.08.1-1.44.11-1.53.03-.01 0-.37-.2-.75-.4s-.77-.4-.86-.43c-.09-.03-.13-.15-.17-.24-.02-.04-1.18-.6-1.21-.64-.19-.18-.46-.26-.52-.61-.01-.07-.06-.09-.11-.12-.38-.24-.68-.58-1.01-.9-.16-.16-.37-.27-.55-.41-.03-.02-.04-.08-.07-.12-.03-.05-.05-.11-.09-.14-.44-.32-.78-.77-1.26-1.03-.11-.06-.42-.64-.56-.7-.07-.04-.07-.48-.16-.48ZM268.08 370.58c-.1.21-.35-.07-.68-.6-.11-.17-.31-.71-.3-.81.02-.19.05-.38.09-.54.03-.08.7-.84.91-1.15.21-.29.44-.5.71-.63.53-.29 1.05-.61 1.59-.91.12-.07.25-.09.4-.08.51.04.92-.16 1.32-.4.07-.04.15-.05.16-.21.03-.26 1.17-.76 1.36-.72.47.12.89.08 1.36.19.07.02.11-.05.22.09.26.34.35.24.48.23.18 0 .37 0 .58.07.1.03.26.21.4.34.13.12.28.64.28.71 0 .19.14.41.23.62.03.07.07.17.09.22.04.12-.5 1.48-.59 1.54 0 .08-1.24.86-1.37.98-.07.07-.18 0-.28-.02-.05 0-1.02.68-1.06.69-.24.04-.41.26-.77 0-.07-.05-.11-.02-.15 0-.38.16-.82.15-1.25.19-.22.02-.4.12-.61.17-.04 0-.09-.02-.13-.03-.06-.01-.12-.04-.16-.02-.47.17-1 .17-1.45.37-.11.04-.76-.14-.87-.07-.07.03-.46-.31-.5-.23ZM230.62 346.21c-.22.05-.01-.27.43-.81.14-.17.63-.62.73-.67.18-.08.36-.16.49-.2.08-.02.78.18 1.04.23.25.04.43.16.58.3.32.28.66.53.99.8.07.06.11.15.13.26.05.39.27.62.54.8.05.03.07.08.19.04.21-.08.83.53.84.67.02.36.11.66.16.99 0 .05.07.04-.01.17-.2.3-.09.32-.05.4.06.11.1.23.1.4 0 .08-.11.26-.19.41-.07.14-.48.48-.53.51-.16.08-.31.28-.47.43-.05.05-.13.12-.17.16-.1.09-1.23.2-1.27.14 0 0-.23-.14-.46-.3-.23-.15-.48-.3-.54-.32-.06-.02-.05-.12-.05-.2 0-.04-.74-.44-.76-.47-.08-.15-.29-.19-.18-.51.02-.06-.01-.08-.04-.1-.23-.18-.33-.47-.46-.74-.07-.14-.19-.22-.28-.34-.02-.02 0-.07 0-.1 0-.04 0-.09-.02-.12-.24-.24-.35-.62-.66-.8-.07-.04-.08-.56-.17-.6-.05-.02.18-.47.09-.45ZM451.07 406.75c-.03.19-.28-.02-.66-.45-.12-.14-.4-.6-.41-.69-.02-.17-.03-.34-.02-.48 0-.08.46-.79.6-1.07.14-.27.33-.45.52-.61.4-.33.85-.6 1.28-.87.1-.06.21-.09.34-.08.44.02.79-.15 1.11-.38.05-.04.12-.05.13-.19.01-.23.98-.7 1.14-.67.4.08.77.11 1.15.17.05 0 .09-.05.18.08.21.3.28.21.39.2a1 1 0 0 1 .47.07c.08.03.21.21.32.34.1.12.22.65.22.71-.01.18.11.41.18.62.02.07.05.17.07.22.03.14-.42 1.23-.49 1.24 0 0-.25.15-.5.31s-.51.32-.55.37c-.05.05-.14 0-.22-.03-.04-.01-.75.51-.79.52-.18.02-.3.19-.58-.01-.06-.04-.08-.01-.12 0-.27.15-.6.16-.92.21-.16.03-.29.13-.44.18-.03.01-.07-.02-.11-.02-.04 0-.09-.02-.12 0-.33.19-.77.16-1.07.4-.07.05-.61-.04-.68.03-.04.04-.41-.22-.43-.14ZM341.83 401.42c-.22-.03-.08-.35.24-.81.1-.15.51-.49.6-.51.18-.03.36-.06.51-.06.09 0 1 .46 1.35.59.33.13.59.31.84.51l.76.61.7.65c.1.1.18.22.23.37.17.5.49.86.89 1.16.07.05.11.12.25.1.24-.04 1.19.88 1.22 1.08.09.48.26.9.39 1.35.02.06.1.08.02.22-.18.33-.05.39.02.5.09.16.17.33.2.55.02.11-.07.3-.13.47-.05.16-.47.47-.54.48-.18.05-.32.26-.47.41-.05.05-.12.12-.17.15-.1.08-1.48-.1-1.55-.19-.01 0-.32-.25-.65-.5s-.69-.5-.76-.55c-.08-.05-.08-.17-.1-.28-.01-.05-.99-.81-1.01-.86-.13-.22-.38-.34-.32-.73.01-.08-.03-.11-.07-.14-.31-.31-.49-.72-.71-1.11-.11-.2-.28-.34-.42-.52-.03-.03-.02-.09-.03-.14-.01-.06-.01-.12-.04-.16-.32-.41-.52-.94-.91-1.3-.08-.09-.21-.75-.32-.83-.06-.05.08-.51-.01-.53ZM451.15 351.11c.02.22-.26-.05-.73-.59-.15-.17-.54-.74-.57-.84-.06-.19-.11-.38-.14-.53-.02-.09.29-.76.39-1.02.09-.25.24-.4.41-.53.34-.26.67-.56 1.03-.81.08-.06.18-.08.29-.07.39.05.67-.11.93-.33.04-.04.1-.04.09-.19-.02-.24.79-.67.93-.62.36.11.69.16 1.03.28.05.01.07-.05.16.09.21.33.27.24.36.24.13 0 .26.02.41.1.08.04.2.22.3.37.1.13.24.67.25.73 0 .18.13.42.21.64.02.07.06.17.08.23.03.13-.21 1.26-.26 1.29 0 0-.18.16-.36.33-.18.16-.37.31-.4.37-.03.05-.11-.01-.18-.05-.04-.02-.54.51-.57.51-.15.01-.21.19-.49-.05-.05-.05-.07-.02-.1 0-.2.13-.49.11-.75.14-.13.01-.23.1-.35.15-.02 0-.06-.02-.09-.03-.04 0-.09-.03-.11-.02-.25.15-.61.15-.81.4-.05.05-.52-.07-.57 0-.03.04-.42-.28-.41-.19ZM330.37 304.52c-.16-.03.03-.24.39-.55.11-.1.5-.33.57-.34.14-.02.29-.04.4-.04.06 0 .68.3.93.37s.36.22.47.37l.7.92c.05.07.08.15.08.25 0 .34.16.59.37.8.04.04.05.09.16.07.18-.02.64.63.63.75-.02.31.02.59.02.88 0 .04.06.05-.03.15-.2.21-.12.25-.09.33.03.11.05.22.03.37-.01.07-.13.2-.21.32-.08.1-.47.31-.52.32-.14.03-.3.17-.45.27-.05.03-.12.08-.16.1-.1.06-1.05-.1-1.08-.16l-.34-.36c-.17-.18-.35-.37-.4-.4-.05-.03-.02-.12-.01-.18 0-.03-.55-.55-.56-.58-.05-.15-.21-.23-.08-.49.03-.05 0-.07-.02-.09-.16-.21-.21-.48-.29-.74-.04-.13-.13-.23-.2-.35-.01-.02 0-.06 0-.09 0-.04.01-.08 0-.1-.17-.27-.25-.59-.44-.84-.04-.06.06-.53 0-.59-.03-.04.2-.36.14-.37ZM68.23 206.55c-.28.1-.38-.27-.37-.92 0-.21.19-.8.27-.86.17-.13.34-.25.5-.33.1-.04 1.38-.02 1.81-.07.42-.03.82.02 1.22.09.81.14 1.63.22 2.44.3.18.02.36.07.53.14.6.26 1.23.32 1.86.3.1 0 .21.02.32-.08.18-.15 1.86-.14 2.08-.07.54.2 1.1.3 1.65.44.08.02.16-.03.24.1.18.29.35.22.52.24.24.02.48.04.73.12.12.04.25.2.38.33.12.11.1.57.07.62-.1.15.01.36.04.54 0 .06.02.15.02.2 0 .12-1.39.99-1.56.98-.02 0-.56.08-1.14.16-.57.07-1.16.14-1.3.16-.13.03-.26-.05-.38-.09-.06 0-1.8.14-1.87.12-.36-.05-.72.02-1.06-.27-.07-.06-.14-.05-.21-.05-.62-.02-1.22-.2-1.81-.35-.31-.07-.62-.1-.93-.15-.06 0-.1-.06-.16-.08-.07-.03-.13-.08-.2-.09-.73-.11-1.43-.38-2.17-.45-.17-.01-.89-.49-1.09-.51-.11 0-.35-.51-.46-.47ZM77.53 173.07c-.35-.23-.16-.68.33-1.26.16-.19.76-.51.9-.46.27.08.53.17.76.29.13.07 1.48 1.64 1.98 2.14.48.49.86 1.05 1.21 1.61.74 1.14 1.46 2.29 2.14 3.45.15.26.27.54.35.83.29 1.02.79 1.92 1.37 2.77.1.14.16.31.36.38.33.13 1.74 2.54 1.82 2.91.22.9.5 1.78.75 2.67.04.13.15.22.06.4-.2.42-.01.63.1.89.15.36.29.72.36 1.12.04.2-.06.47-.12.71-.05.22-.59.42-.68.4-.24-.07-.41.19-.6.32-.07.04-.15.1-.21.12-.13.05-2.07-1.4-2.19-1.62-.03-.05-1.88-2.7-2.11-3.02-.12-.15-.14-.36-.18-.56-.02-.09-1.53-2.22-1.57-2.31-.22-.49-.59-.9-.56-1.53 0-.12-.06-.21-.12-.3-.49-.79-.81-1.66-1.18-2.51-.19-.43-.45-.83-.67-1.24-.04-.07-.04-.17-.06-.26-.03-.11-.04-.22-.09-.32-.54-.98-.9-2.05-1.52-2.98-.14-.22-.4-1.48-.57-1.72-.1-.14.08-.85-.06-.94ZM436.95 114.91c-.31.17-.6-.13-.87-.68-.09-.17-.1-.71-.02-.8.17-.16.34-.33.52-.45.11-.07 1.85-.54 2.44-.74.57-.2 1.15-.28 1.73-.33l3.54-.38c.26-.03.53-.02.79.02.91.14 1.81.08 2.71-.06.15-.02.3-.02.44-.14.23-.21 2.67-.44 2.99-.37.8.16 1.59.24 2.39.37.11.02.23-.04.34.1.26.33.49.25.74.27.34.03.68.07 1.02.17.17.05.35.24.52.38.16.13.1.64.05.7-.14.17 0 .4.02.61 0 .07.02.16.02.22-.01.11-1.89 1.2-2.11 1.17-.03 0-.74.09-1.49.19s-1.54.2-1.69.24c-.17.04-.34-.03-.51-.08-.08-.02-2.33.32-2.42.31-.47-.02-.94.11-1.42-.16-.09-.05-.19-.03-.28-.03-.8.07-1.62-.01-2.43-.06-.41-.02-.82.03-1.24.04-.07 0-.15-.04-.23-.05-.09-.02-.19-.05-.28-.05-.97.05-1.96-.03-2.93.08-.22.02-1.31-.25-1.57-.21-.14.02-.64-.36-.77-.29ZM429.17 102.35c.1.3-.33.39-1.06.38-.23 0-.88-.21-.95-.31-.14-.2-.28-.39-.37-.58-.05-.11-.05-1.65-.08-2.2-.03-.53.06-1.02.22-1.49.3-.96.6-1.95.94-2.89.08-.21.19-.4.34-.58.52-.59.81-1.27.99-1.96.03-.12.1-.22 0-.38-.13-.26.48-2.05.65-2.25.44-.49.8-1.02 1.2-1.55.06-.08.03-.18.22-.21.44-.06.43-.26.52-.44.12-.25.26-.49.46-.71.1-.11.36-.17.57-.25.19-.07.75.16.8.22.15.17.45.16.69.22.08.02.19.05.25.07.14.05.66 1.9.59 2.07 0 .02-.12.62-.24 1.26-.12.63-.29 1.29-.31 1.43-.02.15-.16.25-.26.36-.04.06-.51 1.96-.56 2.02-.21.34-.24.76-.71.98-.09.04-.11.12-.14.19-.23.62-.62 1.15-.95 1.7-.17.28-.26.59-.39.89-.02.05-.09.09-.13.14-.05.06-.12.11-.15.18-.26.72-.67 1.39-.86 2.15-.04.17-.7.86-.72 1.07-.02.12-.62.33-.57.45ZM401.06 382.13c-1.4 3.17-3.1 6.2-5.18 8.99-.75 1.02-1.49 2.06-2.36 3-1.56 1.64-3.32 3.12-5.33 4.28-2 1.15-4.27 1.99-6.65 2.08-1.01.04-2.19.05-3.35-.43-1.18-.44-2.07-1.52-2.5-2.57-.58-1.37-.61-2.75-.45-4.03.17-1.28.55-2.5 1.08-3.62.41-.68.46-.54.62.16.14.69.41 1.92.61 3.17.08.55.18 1.09.34 1.57.07.25.17.46.27.67.06.22.19.39.27.58.22.31.42.57.64.66.04.04.1.06.16.07.05.03.07.08.13.1.12.03.19.12.35.14.49.16 1.65.15 2.62 0 .99-.19 2.01-.43 3.02-.86 1.21-.5 2.37-1.27 3.41-2.21 1.04-.95 2-2.01 2.91-3.11 2-2.43 3.71-5.17 5.1-8.08.85-1.79 1.6-3.64 2.21-5.54.9-2.88 1.63-5.85 1.84-8.84.18-2.32-.04-4.61-.33-6.84-.06-.49-.13-.97-.17-1.47-.11-.92-.11-1.54-.03-1.99.13-.47.33-.77.63-1.06.14-.13.26-.29.39-.38.22-.15.47-.06.8.23.31.3.77.79 1.01 1.51.42 1.05.77 2.15 1.06 3.28.09.57.18 1.14.27 1.72l.15 1.75c.16 2.34-.07 4.71-.47 7.04-.58 3.46-1.66 6.82-2.97 10.06l-.09-.03Z" class="cls-3"/></svg>