<svg xmlns="http://www.w3.org/2000/svg" id="Layer_1" width="520" height="520"><defs><style>.cls-2,.cls-3,.cls-4{fill:#231f20;stroke-width:0}.cls-2{opacity:.4}.cls-3{opacity:.45}</style></defs><path d="M251.36 295.05s11.98 3.45 8.66 22.45c0 0 14.85 13.9 15.21 22.3.04.87-.75 1.22-1.57 1.5-5.65 1.88-20.22-1.91-22.29-3.81-2.46-2.26-.29 13.43-3.74 16.39-6.68 5.74-17.09-22.99-17.09-22.99s-8.82-4.02-11.95-12.31c-1.78-4.71-.88-12.54 1.8-14.98s3.76-.59 5.18 3.64 13.17 4.33 15.81 2.59c2.64-1.73 10-14.78 10-14.78Z" class="cls-2"/><path d="M75.12 123.24c0 5.69-6.32 7.91-11.09 6.64-6.1-1.63-8.79-9.97-2-12.89 4.95-2.13 13.09-.21 13.09 6.26ZM69.85 284.07c0 6.35-5.3 8.82-9.3 7.4-5.12-1.82-7.38-11.12-1.68-14.38 4.16-2.38 10.98-.24 10.98 6.98ZM464.61 259.93c0 5.93-6.42 8.24-11.27 6.91-6.2-1.7-8.93-10.38-2.03-13.43 5.03-2.22 13.3-.22 13.3 6.51Z" class="cls-3"/><circle cx="186.95" cy="358.85" r="1.37" class="cls-2"/><circle cx="197.16" cy="358.83" r="1.37" class="cls-2"/><circle cx="204.09" cy="355.36" r="1.8" class="cls-2"/><circle cx="212.06" cy="350.88" r="1.8" class="cls-2"/><path d="M226.29 228.25c-1.99.76-4.64 3.36-3.23 4.96.51.58 1.47.77 2.19.48 2.14-.84 2.4-2.3 5.33-2.18 1.65.07 5.36 2.36 5.38.26.01-1.37-.19-3.18-3.29-3.85-1.9-.41-4.28-.46-6.37.33Z" class="cls-4"/><path d="M346.38 154.78c.04 1.01.03 2.01-.02 3.02-.82 17.69-16.14 31.82-33.3 34.14-.18.02-.35.05-.53.07-14.41 1.72-28.45-5.34-36.35-17.37-9.71-14.8-8.38-34.38 5.03-46.45 11.53-10.39 28.99-13.18 43.25-7.1 13.05 5.56 21.42 19.63 21.91 33.7Z" style="fill:#231f20;stroke-width:0;opacity:.35"/><path d="M312.7 199.54c-3.56 1.25-7.26 2.1-11 2.42-1.36.17-2.74.18-4.1.22-4.83-.11-9.59-1.05-14.1-2.63l-2.97-1.14c-.96-.44-1.95-.83-2.89-1.29-1.19-.63-2.4-1.22-3.54-1.95-.56-.37-1.17-.66-1.69-1.11-.51-.44-1.02-.88-1.54-1.32-.63-.55-.54-.48.13-.22.34.13.82.3 1.42.48.61.17 1.27.42 1.94.77l1.79.92 1.83.83c1.2.58 2.44 1.09 3.66 1.6 2.48.98 5.04 1.76 7.65 2.4 3.14.72 6.51.86 9.78.7 3.6-.18 7.19-.81 10.65-1.88 1.06-.35 2.13-.67 3.16-1.12l1.56-.63 1.52-.7c3.03-1.5 5.96-3.29 8.52-5.48 2.01-1.68 3.71-3.62 5.29-5.64.36-.44.66-.91 1-1.36 1.29-1.67 1.78-2.14 2.53-2.19.17-.01.36-.05.5-.03.48.07.32 1.03-.5 2.44-2.48 4.15-6.2 7.83-10.43 10.74-3.14 2.16-6.58 3.9-10.15 5.21l-.02-.05ZM164.39 178.9c.31-1.37.71-2.69 1.17-3.97.17-.47.28-.96.48-1.42.68-1.63 1.57-3.14 2.34-4.61.35-.65.62-1.33.85-2.01.15-.44.24-.89.4-1.33.16-.44.34-.88.51-1.33.12-.28.28-.21.47.07.18.28.45.82.46 1.41-.17 2.06-.93 4.05-1.91 5.7-.58 1.01-.88 2.15-1.21 3.26-.37 1.22-.7 2.46-.93 3.71-.14.77-.26 1.55-.32 2.32-.1 1.17-.13 2.37.1 3.51.18.88.57 1.69 1 2.44.08.17.22.31.29.48.27.64.24.9-.27 1.38-.11.11-.22.23-.34.32-.4.32-.92.25-1.4-.22-1.35-1.43-1.85-3.49-2-5.43-.1-1.46.02-2.9.26-4.29h.06ZM358.52 256.31c1.11-1.68 2.18-3.41 3.19-5.17.37-.64.67-1.32 1.05-1.96 1.29-2.29 2.57-4.58 3.86-6.87.56-1.02 1.07-2.08 1.58-3.12.59-1.36 1.39-2.64 2.22-3.89.26-.39.28-.31.23.1-.06.41-.1 1.19-.3 2.04-.11.37-.17.76-.31 1.11l-.41 1.06-.85 2.12c-.59 1.4-1.21 2.8-1.93 4.15-.9 1.6-1.61 3.38-2.46 5.06-.93 1.85-1.91 3.68-2.93 5.48-.63 1.11-1.29 2.21-1.98 3.29a77.778 77.778 0 0 1-3.33 4.81c-.92 1.21-1.77 2.48-3.03 3.57-.26.25-.57.47-.89.69-.32.18-.62.3-.86.38-.27.06-.5.08-.68.06-.38-.03-.63-.28-.79-.63-.08-.16-.16-.32-.19-.48-.06-.28.04-.55.18-.78.14-.21.33-.43.59-.59 1.56-1.17 3.18-3.28 4.7-5.42 1.14-1.6 2.22-3.31 3.28-5.04l.06.03ZM254.38 223.79c-.72-1.1-1.35-2.23-1.96-3.37-.23-.41-.48-.81-.69-1.23-.72-1.49-1.3-3.03-1.91-4.54-.26-.67-.59-1.32-.85-1.99-.35-.85-.67-1.72-.92-2.61-.08-.28.03-.28.25-.12.22.17.6.48.9.92 1.11 1.55 1.91 3.22 2.66 4.93.44 1.03 1.1 1.99 1.65 2.98.61 1.09 1.26 2.15 1.95 3.18.43.63.87 1.26 1.36 1.85.72.9 1.5 1.77 2.35 2.53.35.28.71.53 1.07.77.37.23.77.43 1.14.65.16.1.33.18.5.27.61.36.72.61.57 1.16-.03.13-.06.26-.1.38-.15.4-.59.54-1.15.36-1.67-.54-3.13-1.69-4.39-2.97-.93-.96-1.74-2.04-2.49-3.13l.04-.03ZM300.84 243.15c-.72.48-1.49.92-2.29 1.29-.3.13-.57.32-.88.42-.55.19-1.11.33-1.69.41-.58.06-1.16.06-1.73 0-.5-.05-1.01-.1-1.5-.2-.62-.17-1.24-.44-1.68-.93-.14-.15 0-.28.24-.39.25-.1.61-.23.9-.22.26.03.52.03.78.02.25.01.49.03.74.04.5.02 1 0 1.53-.03.64 0 1.26-.32 1.86-.61.67-.31 1.34-.69 1.97-1.13.4-.27.78-.57 1.16-.87.58-.46 1.17-.94 1.7-1.48.41-.42.75-.9 1.16-1.34.09-.1.16-.21.26-.29.37-.33.58-.33.96-.02.09.07.18.14.26.21.27.26.31.62.14.93-.51.93-1.12 1.8-1.93 2.56-.59.57-1.22 1.15-1.94 1.66l-.03-.04ZM310.19 245.25c.65-.44 1.31-1.05 1.9-1.71.22-.24.39-.52.6-.76.75-.88 1.53-1.77 2.18-2.75.3-.43.51-.91.78-1.35.17-.28.35-.57.52-.86.2-.27.44-.53.67-.8.15-.16.18-.12.24.09.04.21.22.64.23 1.09-.09 1.53-.96 2.72-1.85 3.84-.55.66-.97 1.45-1.54 2.13-.62.75-1.28 1.46-2.05 2.11-.26.23-.6.48-.68.51l-.17.09c-.05.03-.15.06-.11.13.03.1.07.21.11.32l.19.48c.17.42.33.84.49 1.25.25.65.56 1.28.76 1.98.04.15.1.3.11.47.05.6-.09.81-.53.93-.1.03-.2.07-.3.08-.33.05-.61-.16-.78-.51-.5-1.01-.83-2.04-1.34-3.11l-.24-.52-.19-.44c-.08-.18-.16-.37-.23-.55-.14-.38-.16-.71-.06-1.03.08-.14.2-.26.3-.4.12-.13.16-.27.35-.38.23-.12.43-.27.59-.4l.03.04ZM322.36 259.11c-.84-.48-1.68-.95-2.56-1.38-.32-.16-.66-.27-.98-.43-1.13-.55-2.26-1.12-3.39-1.71-.5-.25-1.03-.46-1.55-.67-.33-.14-.68-.24-1-.41-.31-.19-.62-.4-.92-.61-.19-.14-.13-.19.09-.25.22-.05.65-.18 1.08-.17 1.46.27 2.84.73 4.19 1.35.79.42 1.67.7 2.51 1.07.91.41 1.82.85 2.71 1.32.55.28 1.09.59 1.64.88.81.48 1.62.95 2.43 1.42.63.36 1.3.64 1.94.99.14.07.29.14.42.23.48.35.55.58.35 1.04-.05.1-.08.21-.14.31-.19.33-.57.43-.98.29-1.2-.43-2.25-1.14-3.37-1.78-.82-.49-1.65-.99-2.5-1.44l.02-.04ZM321.87 279.29c-1.1.04-2.19.06-3.29.04-.4 0-.79.05-1.19.03-1.4-.06-2.8-.28-4.17-.51-.61-.09-1.22-.18-1.83-.25-.78-.07-1.55-.31-2.25-.74-.21-.16-.17-.2.07-.34.24-.16.67-.42 1.12-.47.2-.02.4-.05.59-.08.2-.03.38.02.57.02.38.02.75.05 1.13.08.76.05 1.51.12 2.28.22.92.12 1.87 0 2.81-.05 1.03-.05 2.07-.11 3.11-.22.64-.06 1.28-.14 1.92-.24.97-.14 1.94-.28 2.88-.54.73-.21 1.4-.57 2.08-.89.15-.07.29-.16.45-.22.58-.19.82-.07 1.14.53.07.14.15.27.21.41.2.47.08.95-.31 1.25-1.18.86-2.6 1.26-4.04 1.57-1.07.23-2.17.37-3.27.45v-.06Z" class="cls-4"/><path d="M301.55 278.3s5-3.22 6.21-3.42 2.67 3.86 2.67 3.86l-7.04.4-1.84-.83ZM325.2 272.81s14.19.18 15.75 2.07c1.55 1.89-13.61 3.55-13.61 3.55l-2.13-5.62ZM313.82 329.06s4.86-1.27 5.89-.63c1.43.89 2.62 1.57 2.73 1.71.7.92-1.69.95-2.82.71l-5.79-1.8ZM359.89 364.9c-.73 2.87-1.71 5.71-3.19 8.36-.24.49-.55.96-.84 1.44l-.44.71c-.17.23-.35.45-.53.66-.6.79-1.36 1.47-2.11 2.14-.78.61-1.58 1.18-2.44 1.65-1.7.97-3.54 1.63-5.39 2.07-1.65.4-3.33.63-4.99.75-1.07.03-2.14.04-3.2-.07-1.06-.09-2.12-.25-3.13-.62-.61-.34-.53-.29.06-.54.58-.23 1.62-.67 2.77-.73 4.1-.47 8.02-.84 11.7-2.41 1.09-.47 2.13-1.12 3.04-1.93.42-.43.85-.83 1.24-1.29.35-.5.77-.93 1.09-1.46 1.5-2.23 2.56-4.84 3.33-7.53.49-1.66.84-3.36 1.12-5.08.42-2.61.65-5.26.74-7.9.04-2.05-.1-4.06-.26-6.08-.03-.44-.09-.88-.09-1.33-.06-1.67.07-2.21.56-2.61.11-.09.22-.21.33-.27.37-.2.76.46 1.05 1.69.46 1.82.68 3.72.85 5.66.14 1.94.26 3.92.11 5.9-.2 2.94-.64 5.89-1.32 8.81h-.07ZM283.88 342.42c.56.5 2.43.01 4.02 1.71 3.24 3.45 7.68 13.35 7.68 13.35l-11.69-15.06ZM183.54 386.75l-.89-3.15c-.11-.38-.28-.75-.38-1.14-.18-.69-.35-1.38-.5-2.09-.07-.36-.15-.72-.2-1.12-.01-.11-.03-.2-.03-.34 0-.13-.04-.24.07-.6.05-.13.12-.25.22-.35.16-.16.48-.27.7-.25.11.02.22.05.33.09.23.07.34.21.49.34.38.45.45.8.53 1.15.07.35.15.65.15.97.07.77 0 1.63.45 2.15.14.14.12.23-.14.2-.27-.01-.7-.31-1.02-.74-.59-.73-1.17-1.53-1.42-2.08a.651.651 0 0 1-.09-.15v-.05l-.01-.02s-.01.02.07-.03c.12-.08.23-.17.33-.28.06-.04.11-.09.15-.15.05-.1.04-.07.04-.07v-.01c-.03.36.05-.48.04-.4s0-.01 0-.02c.04.08.18.08.51.13.14.01.29.01.43-.01.28-.01.16 0 .19.01-.02.01-.02.09-.02.17 0 .16.01.34.02.53.07.93.49 1.87.76 2.81l.92 3.15.58 1.95c.3.98.6 1.97.9 2.94.24.75.57 1.47.83 2.21.06.16.12.32.16.5.14.64.07.87-.25 1.1-.07.05-.14.11-.22.15-.25.13-.55-.06-.81-.47-.4-.6-.75-1.23-1.07-1.88-.31-.65-.68-1.3-.89-2-.33-1.04-.67-2.08-1.01-3.12l.05-.02ZM239.84 442.29c.89-3.35 1.34-6.86 1.47-10.38.05-1.29 0-2.58.01-3.87-.06-4.55-.24-9.14-.61-13.72-.19-2.03-.37-4.07-.56-6.09-.26-2.59-.5-5.2-.66-7.8-.05-.81 0-.71.17-.04.16.67.52 1.9.84 3.37.54 2.61 1.08 5.22 1.54 7.86.34 2.65.61 5.31.77 8.01.21 3.22.41 6.57.4 9.88-.02 3.64-.33 7.31-1.05 10.9-.46 2.21-1.08 4.4-1.95 6.49-.62 1.61-1.51 3.1-2.47 4.54-1.04 1.38-2.17 2.72-3.55 3.77a19.683 19.683 0 0 1-7.08 3.66c-.58.12-1.14.25-1.72.37-2.19.29-2.9-.05-3.36-.48-.11-.11-.24-.21-.3-.31-.1-.17.06-.34.43-.53.37-.18.94-.4 1.68-.51.55-.06 1.07-.29 1.61-.38.53-.14 1.09-.19 1.6-.39.52-.17 1.04-.34 1.57-.51.51-.2 1-.45 1.5-.67 1.97-.97 3.75-2.32 5.21-4.03l.79-.97c.24-.34.46-.71.69-1.06.24-.35.45-.71.64-1.1l.59-1.13a29.89 29.89 0 0 0 1.75-4.89h.05ZM204.01 368.1c-1.04.34-2.09.64-3.16.88-.39.1-.77.21-1.16.29-1.39.26-2.78.45-4.17.57-.62.04-1.23.14-1.85.15-.39 0-.79 0-1.18-.02-.38-.04-.75-.08-1.18-.12-.24-.03-.21-.04 0-.09.2-.05.58-.2 1.02-.31 1.55-.49 3.07-.61 4.63-.87.93-.13 1.86-.46 2.78-.75 1.01-.31 2.02-.66 3.03-.99.62-.22 1.24-.44 1.85-.69.92-.37 1.85-.75 2.74-1.2.69-.35 1.31-.8 1.96-1.21.14-.09.27-.2.43-.28.56-.3.79-.27 1.12.1.08.09.16.17.22.26.22.31.12.7-.24 1.01-1.08.91-2.39 1.54-3.74 2.13-1 .43-2.03.82-3.07 1.18l-.02-.04Z" class="cls-4"/><path d="M192.48 364.3s-8.86 4.33-6.5 5.38 7.58 0 7.58 0l-1.09-5.38ZM208.75 359.45s7.55-.91 9.69.64c2.14 1.55-8.09 6.69-8.09 6.69l-1.61-7.33ZM222.82 339.98c-.48-1.4-.94-2.8-1.35-4.21-.23-.7-.41-1.41-.61-2.12l-.3-1.06c-.1-.27-.16-.6-.29-.84-.34-.78-.82-1.21-1.63-1.67-.7-.41-1.6-.81-2.46-1.32-.86-.51-1.67-1.12-2.42-1.78a18.272 18.272 0 0 1-3.58-4.62c-.84-1.48-1.53-3.04-2.12-4.62-.39-1.01-.65-2.07-.82-3.14l-.1-.81c-.01-.27 0-.55 0-.82.02-.55.05-1.09.13-1.62.1-.67.1-.57.26-.02.08.27.24.65.46 1.09.11.22.25.45.39.7.07.12.12.25.22.37.05.13.1.27.15.4.17.49.37.96.57 1.43.11.23.2.47.32.7l.26.72c.37.95.78 1.88 1.24 2.79.92 1.82 1.9 3.58 3.23 5.07.8.9 1.75 1.66 2.84 2.23.54.29 1.13.55 1.74.83.62.28 1.31.63 1.94 1.16.7.58 1.23 1.38 1.55 2.16.31.82.49 1.49.7 2.18.39 1.38.87 2.74 1.35 4.1.61 1.66 1.27 3.31 1.98 4.93 1.05 2.47 2.21 4.91 3.61 7.18 1.08 1.77 2.34 3.37 3.65 4.9.3.33.58.66.86 1 1.07 1.25 1.27 1.73 1.28 2.29 0 .13.02.27 0 .38-.03.34-.83.16-1.94-.6-1.56-1.19-2.88-2.67-4.08-4.25-1.21-1.58-2.28-3.27-3.29-5.01-1.47-2.59-2.81-5.28-3.8-8.09l.06-.03Z" class="cls-4"/><path d="M232.15 332.48c1.2-.05 2.42-.23 3.63-.48.44-.09.86-.28 1.3-.38 1.55-.39 3.1-.86 4.59-1.5.33-.13.66-.29.97-.47.32-.17.64-.32.94-.51.39-.23.77-.49 1.17-.71.42-.19.85-.36 1.28-.54.28-.1.38.07.36.44-.03.36-.15 1.01-.52 1.46-.31.44-.77.65-1.16.96-.41.29-.83.55-1.27.78-.89.43-1.81.8-2.77 1.07-1.14.33-2.25.87-3.42 1.21-1.28.38-2.59.65-3.91.84-.82.11-1.64.17-2.47.21-1.26.04-2.52-.05-3.76-.22-.48-.09-.98-.11-1.47-.17l-1.48-.31c-.22-.04-.43-.11-.64-.2-.77-.34-.91-.65-.69-1.31.05-.15.09-.3.16-.44.22-.45.73-.71 1.23-.61.71.2 1.46.28 2.16.48.75.08 1.46.29 2.25.32.29.02.57.07.86.08h.88c.59.05 1.19-.01 1.79-.05v.06ZM273.47 335.18c-.27-.83-.61-1.65-1.01-2.45-.14-.3-.34-.55-.48-.85-.47-1.07-1.05-2.09-1.7-3.07-.31-.42-.64-.82-.99-1.2-.44-.5-.9-.97-1.32-1.5-.13-.17-.03-.25.21-.26.23 0 .63.05.98.26 1.23.75 2.22 1.81 3.01 3 .45.73 1.06 1.38 1.54 2.11.48.83.91 1.7 1.29 2.58.22.56.45 1.1.63 1.67.31.85.48 1.76.67 2.66.06.36.11.72.19 1.08 0 .38.05.77-.03 1.17-.04.18-.06.36-.12.54-.25.65-.58.77-1.02.58-.1-.04-.21-.08-.3-.14-.29-.19-.47-.58-.45-.85.02-.21-.05-.47-.05-.66-.06-.24-.1-.46-.13-.69-.05-.25-.07-.49-.1-.74-.06-.26-.1-.52-.15-.79-.2-.8-.4-1.63-.73-2.45l.04-.02ZM264.12 313.36c-.26.62-.59 1.21-.9 1.8-.11.22-.16.45-.29.66-.22.37-.46.73-.7 1.08-.26.34-.53.67-.79 1.01-.21.31-.43.6-.65.89-.27.38-.57.74-.97 1.04-.12.09-.22 0-.3-.19-.08-.19-.2-.52-.17-.8.06-.49.11-.97.2-1.42.17-.41.37-.8.63-1.17.32-.44.45-.99.65-1.5.24-.55.47-1.11.69-1.68.14-.35.28-.7.39-1.05.17-.54.35-1.09.41-1.65.04-.44-.1-.89-.15-1.32 0-.09-.01-.19 0-.28.1-.34.37-.44.89-.48.12 0 .24-.03.35-.03.38-.01.72.16.98.47.18.22.28.45.38.68.05.22.08.45.08.68.01.45-.04.9-.12 1.35-.12.66-.34 1.31-.55 1.95l-.06-.02Z" class="cls-4"/><path d="M186.97 206.5s13.81-18.36 40.74-10.33c14.21 4.24 24.32 18.56 25.86 26.09.79 3.87 4.39 19.73 5.01 23.44.63 3.7 8.11 19.99 12.79 24.51 4.68 4.52 12.93 16.75 14.42 19.27 1.49 2.52.33 12.6-.52 14.98-.85 2.38-5.79 10.45-5.79 10.45l-16.33-4.93s-2.69-9.87-4.57-11.61c-1.87-1.74-8.47-3.76-6.26-8.59 2.21-4.83 5.53-19.13 3.87-23.83-1.66-4.7-9.43-26.26-9.43-26.26l-6.07-12.26s-15.78 3.88-20.33 3.32-20.14-7.53-20.14-7.53 1.69 8.24-.76 14.03-5.15 13.27-7.86 15.59c-2.71 2.32-7.07 5.5-7.07 5.5s-7.36-4.98-13.01-1.47c-5.65 3.51-5.92 5.57-4.5 9.08 1.43 3.5 5.62 8.57 8.42 9.23 2.8.67 10.53-.3 10.53-.3l8.34 12.39s10.78 11.65 15.87 13.34c5.09 1.69 4.72 1.46 3.26 3.86s-10.32 17.06-10.32 17.06-9.38-2.64-9.56-1.95-8.9-21.65-14.62-23.76c-5.72-2.11-3.7 2.39-3.34 3.2s4.96 12.89 4.96 12.89-1.54-2.59-4.3.19-1.53 3.7-1.53 3.7-6.75-.68-6.46 2.66c.3 3.34 2.05 7.22 2.05 7.22s-6.05-2.29-6 1.2-2.51 6.14 0 7.77 10.73 12.03 10.73 12.03-5.23 4.72-23.58.59c-10.79-2.43-22.83-14.5-26.52-23.73-3.69-9.22-2.67-19.06-1.35-23.04 1.32-3.98 10.41-21.3 11.9-24.93 1.49-3.63 3.37-7.83 3.55-12.08s-1.17-14.41-1.17-14.41-7.83-32.8 28.92-43.47c10.84-3.15 20.17.89 20.17.89Z" class="cls-4"/><path d="M123.27 294.24c2.37-5.4 5.41-10.25 8.07-15.11 1.31-2.44 2.55-4.88 3.53-7.4.26-.62.45-1.27.68-1.9.23-.63.44-1.27.59-1.92l.5-1.94.34-1.96c.64-3.79.2-7.75-.31-11.75-.45-3.53-1.08-7.12-1.52-10.79-.44-3.66-.67-7.46-.16-11.28 1.06-7.51 4.51-14.71 10.01-19.96 4.89-4.65 11.07-7.77 17.55-9.16 4.16-.91 8.51-1.1 12.76-.4.53.09 1.06.16 1.58.3l1.55.43c1.05.25 2.03.72 3.03 1.08 1.98.83 3.73 2.14 5.37 3.45 1.98 1.75 1.55 1.63-.52.87-.26-.09-.55-.19-.85-.3-.32-.08-.67-.17-1.04-.26-.19-.04-.37-.11-.57-.13-.18-.07-.39-.1-.59-.15-.4-.1-.86-.13-1.31-.2-1.75-.39-3.77-.74-5.91-1.12-3.81-.7-7.75-.7-11.59-.04-3.83.68-7.56 2.01-10.97 3.92-3.44 1.9-6.42 4.41-8.84 7.49-2.42 3.07-4.21 6.67-5.36 10.49-.69 2.29-1.08 4.68-1.15 7.1-.07 2.43.14 4.94.47 7.46.66 5.05 1.8 10.18 2.17 15.51.2 2.9.18 5.97-.4 8.89-.2 1.48-.65 2.9-1 4.34-.49 1.39-.91 2.81-1.5 4.15-2.2 5.45-5.28 10.32-7.95 15.27-1.65 3.04-3.17 6.12-4.32 9.31a35.645 35.645 0 0 0-2.05 9.88c-.33 5.11.58 10.29 2.53 15.05 1.92 4.78 4.92 9.11 8.52 12.77 5.5 5.83 13.07 8.86 20.7 10.56 1.7.34 3.37.58 5.09.77 3.2.36 5.3.34 6.78.46.74.04 1.33.12 1.83.24.5.1.91.25 1.29.44.35.17.8.33 1.03.52.38.31-.08.71-1.28 1.16-1.2.47-3.17.77-5.71.83-3.76.02-7.56-.47-11.29-1.36-3.74-.89-7.44-2.16-10.97-3.96-1.77-.89-3.49-1.93-5.14-3.11a38.064 38.064 0 0 1-4.56-3.97 46.045 46.045 0 0 1-7.34-9.55c-3-5.21-4.86-11.18-5.19-17.28-.17-3.05.1-6.1.65-9.1l.49-2.23c.18-.74.42-1.45.63-2.18l.33-1.08.39-1.05c.27-.7.53-1.41.82-2.09l.09.02ZM272.24 232.91c2.12 1.12 4.25 2.24 6.39 3.32.78.4 1.61.68 2.39 1.08 2.73 1.44 5.42 3 8.19 4.36 1.23.61 2.49 1.14 3.74 1.67.81.31 1.61.67 2.39 1.06l.59.3.55.4c.36.27.72.55 1.08.82.44.36.33.46-.22.6-.37.1-.76.2-1.14.3-.24.06-.49.12-.76.17-.14.03-.26.03-.41.08-.12-.02-.25-.03-.38-.06-3.6-.66-6.86-2.19-10.04-3.93-1.89-1.07-4.05-1.73-6.03-2.71-2.19-1.05-4.35-2.15-6.53-3.24l-4-2.01c-2.03-.99-4.04-2.05-6.1-2.94-1.6-.69-3.27-1.16-4.9-1.73-.36-.13-.73-.21-1.08-.36-.66-.27-1.06-.52-1.27-.83-.11-.16-.17-.33-.19-.54 0-.25.03-.52.07-.78.04-.24.04-.46.08-.64.08-.48 1.13-1.34 2.11-.99 3.08.67 6.05 1.95 8.99 3.32 2.19 1.01 4.35 2.12 6.53 3.17l-.04.09Z" class="cls-4"/><path d="M257.24 250.63c-1.38-4.93-2.14-9.9-2.99-14.74-.84-4.84-1.78-9.6-3.28-14.16-1.1-3.32-2.58-6.53-4.21-9.59-1.45-2.7-3.1-5.29-5.05-7.63-1.96-2.33-4.18-4.42-6.65-6.18a33.476 33.476 0 0 0-8.07-4.2c-2.88-1-5.92-1.63-8.97-1.96-5.39-.55-10.95.54-15.87 2.67-3.17 1.37-6.1 3.31-8.59 5.67-.58.63-1.29 1.14-1.84 1.8-.58.64-1.17 1.27-1.71 1.94-.54.67-1.14 1.33-1.58 2.08-.49.73-.98 1.46-1.37 2.25-1.11 1.92-1.04 1.68-.73-.25.11-.99.49-2.33 1-4.01.33-.79.62-1.73 1.11-2.61.26-.43.54-.87.83-1.32.15-.22.3-.45.45-.68.17-.21.35-.42.53-.64 5.32-5.88 12.86-9.46 20.64-10.34.98-.07 1.96-.17 2.94-.21.98.01 1.97-.04 2.95.04 1.98.11 3.88.41 5.79.78 3.8.77 7.52 2.11 10.91 4.04 4.04 2.32 7.75 5.37 10.83 8.96 3.06 3.61 5.53 7.68 7.46 11.9 2.15 4.63 3.61 9.57 4.69 14.5 1.09 4.94 1.77 9.88 2.74 14.71.6 2.97 1.32 5.89 2.25 8.74.93 2.85 2.16 5.58 3.59 8.2l.86 1.46c.28.5.58.97.9 1.41.3.46.64.9.99 1.34.34.44.7.87 1.08 1.3 1.49 1.71 3.12 3.33 4.77 4.94 3.3 3.24 6.79 6.4 9.61 10.27 4.35 6.21 5.63 13.99 4.22 21.31-.34 1.6-.7 3.18-1.31 4.73-1.11 2.88-2.24 4.6-3.16 5.69-.95 1.08-1.7 1.53-2.51 1.69-.36.08-.77.23-1.03.21-.45-.03-.41-.61 0-1.57.21-.48.46-1.1.83-1.77.32-.71.76-1.48 1.17-2.4 1.29-2.68 2.17-5.58 2.59-8.55.42-2.96.4-6.01-.22-8.95-.17-.73-.3-1.47-.55-2.19l-.33-1.08c-.12-.36-.28-.7-.41-1.05-.14-.35-.27-.71-.42-1.05l-.48-.95c-.14-.32-.38-.62-.56-.94-.19-.31-.38-.63-.62-.93-1.74-2.47-4.03-4.78-6.39-7.09-1.76-1.71-3.58-3.43-5.38-5.25-1.79-1.83-3.58-3.75-5.13-6.06-2.92-4.42-4.94-9.31-6.38-14.27l.08-.04Z" class="cls-4"/><path d="m287.17 316.29 8.9 4.34c1.08.53 2.2.93 3.28 1.44 3.81 1.79 7.68 3.43 11.65 4.84 1.77.57 3.57 1.12 5.38 1.53 2.31.6 4.65 1.04 6.93 1.88.71.25.58.47-.1.71-.34.12-.82.25-1.4.37-.29.06-.6.11-.93.15-.17.02-.33.03-.51.06l-.52-.03c-1.25-.09-2.47-.31-3.72-.48-1.25-.14-2.45-.48-3.66-.8-2.42-.61-4.8-1.43-7.1-2.43-1.38-.6-2.81-1.12-4.24-1.68-1.44-.54-2.88-1.08-4.27-1.69-3.08-1.32-6.09-2.76-9.09-4.19-1.85-.88-3.7-1.74-5.56-2.57-2.82-1.24-5.66-2.48-8.56-3.45-1.13-.36-2.26-.7-3.4-.97l-3.42-.77c-.5-.12-1.01-.17-1.51-.31-1.86-.48-2.38-.88-2.57-1.87-.04-.22-.11-.45-.12-.67-.02-.72.89-1.07 2.36-.94 4.34.38 8.69 1.82 12.94 3.44 3.16 1.2 6.22 2.62 9.27 4.01l-.03.08ZM274.46 330.17c.74 1.08 1.44 2.2 2.07 3.4.63 1.2 1.2 2.46 1.54 3.95.13.54.21 1.13.21 1.78-.01.65-.13 1.39-.54 2.09.02.02 0 .02 0 .03-.36.6-.9 1.08-1.51 1.4-.57.28-1.02.42-1.49.54-.93.22-1.81.29-2.66.32-1.71.05-3.36-.08-4.99-.28-1.44-.19-2.89-.32-4.3-.59-1.8-.35-3.68-.56-5.25-1.75-.47-.42-.4-.35.14-.52.56-.21 1.57-.65 2.58-.58 1.78.26 3.56.35 5.32.57 1.76.18 3.53.32 5.28.37.89.03 1.78-.07 2.58-.28.39-.11.76-.25 1.04-.41.22-.12.28-.19.4-.32.02-.1.07-.23.08-.42.06-.69-.23-1.82-.67-2.84-.45-1.05-1.03-2.09-1.68-3.1-.8-1.25-1.68-2.47-2.64-3.63-1.45-1.76-2.99-3.49-4.71-5-1.33-1.17-2.81-2.11-4.28-3.04-.32-.21-.66-.38-.98-.59-1.18-.78-1.42-1.2-1.14-2.2.06-.21.09-.43.16-.62.2-.58 1.15-.92 2.17-.42 3.08 1.39 5.79 3.63 8.27 6.08 1.83 1.84 3.52 3.83 5.08 5.97l-.07.05ZM235.34 354.02c1.05 1.36 2.21 2.62 3.46 3.71.63.53 1.28 1.03 1.95 1.42.65.39 1.38.7 1.93.82.06.02.1.02.15.03.14.03.26-.08.35-.18.01-.01.18-.24.3-.4.13-.2.26-.38.39-.6 1.1-1.77 1.99-3.94 2.74-6.09.74-2.18 1.4-4.4 1.89-6.67.45-2.01.67-4.07.8-6.1.1-1.3.09-2.61.1-3.9 0-.65.03-1.3.02-1.95-.02-.32.04-.66.1-.99.06-.34.09-.68.11-1.01.09-.86.06-.76.53-.13.25.31.59.76 1.11 1.33.41.58.68 1.31.85 2.12.49 2.86.45 5.74.04 8.55-.38 2.81-1.02 5.57-1.96 8.26-.58 1.6-1.12 3.24-1.76 4.89-.32.82-.67 1.65-1.07 2.47-.42.83-.83 1.6-1.58 2.49-.35.39-.74.73-1.17 1-.23.09-.45.24-.71.28-.25.03-.5.1-.75.1-.31-.03-.64-.03-.94-.1-.31-.07-.51-.09-.74-.17-.45-.13-.88-.29-1.29-.47-.81-.37-1.56-.8-2.24-1.28-1.38-.96-2.58-2.07-3.68-3.25-1.63-1.75-3.03-3.65-4.28-5.63-1.89-3.01-3.36-6.26-4.6-9.53-.96-2.54-1.89-5.07-2.53-7.72-.15-.58-.29-1.15-.4-1.75-.17-1.11-.23-1.85-.08-2.38.19-.54.47-.85.87-1.12.19-.12.36-.27.54-.34.3-.12.59.03.91.39.32.36.65.93.83 1.68 1.14 4.42 2.48 8.94 4.47 13.23 1.48 3.17 3.24 6.24 5.4 8.95l-.07.06ZM209.79 315.56c-.52.5-1.11.96-1.63 1.47-.19.18-.31.42-.51.6-.7.64-1.4 1.28-2.04 1.97-.3.29-.54.64-.77.97-.15.22-.27.45-.43.66-.08.1-.2.19-.31.27-.11.09-.23.16-.42.21-.22.06-.34-.04-.55-.34-.24-.31-.55-.81-.52-1.16.36-1.07.8-2.1 1.7-2.83.52-.45.78-1.1 1.18-1.65.45-.6.93-1.17 1.41-1.73l.92-1.02c.45-.53.95-1.02 1.33-1.59.29-.45.46-.98.7-1.48.05-.11.08-.23.15-.33.25-.36.51-.33 1.23.15.16.11.33.21.49.33.53.39.84.88.8 1.25-.11 1.1-.57 1.96-1.21 2.68-.46.55-.98 1.06-1.46 1.6l-.07-.05Z" class="cls-4"/><path d="M261.93 301.77c.91 2.13 1.34 4.36 1.39 6.62.02.41.03.81.03 1.21 0 .4 0 .81-.05 1.2-.16 1.4-.48 2.76-.96 4.05-.45 1.3-1.03 2.54-1.67 3.73-.54 1.07-1.2 2.08-1.88 3.06-.87 1.24-1.95 2.46-3.45 2.99-.48.15-.46.03-.36-.45.09-.51.25-1.34.64-2.01.72-1.17 1.41-2.32 1.95-3.57.58-1.22 1.14-2.46 1.65-3.76.59-1.56.72-3.32.78-4.99.05-.92 0-1.83-.12-2.73-.07-.45-.16-.91-.26-1.36-.13-.44-.22-.9-.39-1.32-.35-1.08-.87-2.1-1.5-3.05-.97-1.43-2.19-2.75-3.69-3.7-1.15-.75-2.47-1.15-3.77-1.53-.28-.09-.58-.13-.86-.23-.52-.2-.85-.36-1.04-.61-.18-.28-.25-.6-.25-1.02 0-.19-.02-.39 0-.57.03-.3.19-.53.48-.72.29-.18.71-.35 1.18-.31 2.8.19 5.63 1.49 8.01 3.49 1.78 1.47 3.23 3.4 4.24 5.52l-.08.04ZM215.91 323c1.78 2.33 4.24 4.15 7.09 5.28.5.25 1.07.34 1.6.5.54.15 1.08.32 1.64.41l1.47.32c.49.11 1 .14 1.5.21 1 .17 2.02.19 3.04.23 1.02.08 2.05-.03 3.08-.04 1.02-.12 2.06-.18 3.08-.38.9-.19 1.82-.33 2.69-.63.88-.26 1.76-.54 2.59-.91 1.11-.37 2.14-.92 3.21-1.39.51-.27 1.06-.49 1.6-.72.28-.1.53-.25.79-.38.27-.13.57-.21.85-.32.74-.24.74-.12.47.58-.14.34-.3.91-.64 1.45a6.82 6.82 0 0 1-1.36 1.59c-.51.44-1.11.71-1.67 1.06-.57.34-1.15.66-1.75.92-1.19.57-2.46.92-3.71 1.29-2.54.63-5.14 1.05-7.77.99-3.12-.04-6.41-.12-9.55-.97-3.43-.94-6.72-2.68-9.28-5.22a19.199 19.199 0 0 1-3.84-5.34c-.73-1.49-1.27-3.09-1.54-4.73-.29-1.63-.4-3.3-.25-4.94.18-2.55.7-5.08 1.86-7.41.27-.5.49-1.02.8-1.5.62-.87 1.05-1.43 1.53-1.65.5-.21.9-.21 1.35-.09.2.06.42.09.58.17.28.14.37.45.35.89-.01.45-.16 1.02-.49 1.58-1.93 3.41-2.97 7.26-2.49 11.12.29 2.85 1.44 5.64 3.26 7.96l-.06.06Z" class="cls-4"/><path d="M218.67 304.13c-.41.26 9.54 12.73 21.75 9.19 14.92-4.33 10.24-21.46 10.24-21.46s-8.37 8.34-12.04 9.75-8.48 2.78-9.07 2.52-10.88 0-10.88 0ZM328.51 267.62c-.34.47-.7.92-1.06 1.36l-.27.33c-.07.09-.21.27-.23.27-.05.04-.13.07-.14.13-.02.04 0 .09 0 .14 0 0 .02.12.03.2l.03.27c.06.65.05 1.34.07 2.03.02.69.08 1.38.17 2.06.09.61.26 1.19.42 1.77.1.38.24.73.33 1.11.09.38.15.77.24 1.16.04.25-.09.29-.36.2-.27-.09-.78-.29-1.13-.66-1.13-1.36-1.78-2.95-2.04-4.61-.07-.5-.21-.99-.36-1.49-.13-.51-.23-1.01-.29-1.56-.05-.4-.08-.89.01-1.3.06-.43.39-.79.63-1.13.34-.43.67-.84.98-1.27.38-.52.76-1.05 1.09-1.61.5-.84.99-1.7 1.25-2.62.21-.71.18-1.47.15-2.16-.01-.15-.05-.31-.04-.46.05-.54.4-.69 1.11-.82.17-.03.33-.07.49-.09.54-.07 1.01.2 1.3.77.55 1.67.05 3.39-.56 4.88-.47 1.12-1.1 2.14-1.74 3.12l-.07-.04ZM167.58 271.86c-1.85-2.53-2.9-5.8-2.5-9.06.09-.59.15-1.18.32-1.75.08-.29.14-.58.24-.86.11-.27.23-.54.35-.81.9-1.86 2.35-3.49 4.14-4.49 1.77-1.02 3.77-1.49 5.72-1.48 1.73 0 3.43.38 4.99 1.02.5.21 1 .43 1.46.72.48.26.94.55 1.32.94.81.72 1.46 1.62 1.87 2.6.27.61.01.64-.62.47-.38-.11-.79-.23-1.19-.35-.49-.11-.94-.3-1.39-.52-.2-.1-.41-.18-.6-.28-.18-.12-.36-.23-.56-.31-.39-.18-.75-.38-1.17-.49l-.59-.21-.61-.14c-.4-.12-.82-.14-1.22-.2-1.63-.18-3.3-.1-4.87.49-.49.14-.89.44-1.33.69-.37.34-.79.64-1.09 1.06-.69.76-1.14 1.74-1.5 2.71-.8 2.15-.48 4.65.63 6.85.69 1.35 1.67 2.59 2.85 3.6 1.78 1.55 4.01 2.59 6.39 2.82 1.84.2 3.68-.18 5.24-.84.35-.14.64-.34.96-.5.54-.35.94-.47 1.25-.54.37-.02.66.02 1.05.14.18.05.37.08.53.14.27.1.38.34.35.77-.03.42-.25 1.05-.79 1.56-1.6 1.52-3.72 2.17-5.77 2.43-2.08.23-4.21.05-6.27-.6-3.11-.98-5.76-2.98-7.66-5.54l.06-.05Z" class="cls-4"/><path d="m200.73 237.71-.48 1.74c-.17.58-.4 1.14-.59 1.71-.37 1.14-.9 2.23-1.37 3.33-.35.8-.72 1.59-1.13 2.36-1.56 2.66-3.54 5.02-5.66 7.17l-1.44 1.4c-.48.47-.91.98-1.45 1.37-1.32 1.06-2.57 2.26-4.34 2.66-.33-.02-.47-.02-.47-.04-.01-.03.09-.11.15-.41.08-.65.36-1.59.98-2.29 2.12-2.56 4.5-4.61 6.67-7.07.64-.73 1.25-1.53 1.71-2.42l.75-1.3c.21-.45.43-.9.66-1.34.54-.96.92-1.99 1.37-2.99.39-1.03.76-2.07 1.06-3.14l.51-1.98c.14-.67.25-1.35.37-2.02.2-1.02.24-2.07.37-3.1.06-1.04.08-2.09.04-3.12-.06-.81-.17-1.6-.3-2.39l-.52-2.34c-.07-.34-.19-.67-.26-1.01-.14-.64-.17-1.07-.04-1.4.15-.33.41-.56.83-.78.19-.1.38-.22.57-.3.32-.13.65-.08.96.11.31.2.63.54.79 1.03 1.1 2.87 1.47 6.12 1.34 9.37 0 1.21-.19 2.42-.3 3.62-.23 1.2-.37 2.41-.68 3.59h-.08ZM180.71 300.04c-.8-.87-1.65-1.69-2.53-2.33l-.57-.42a.792.792 0 0 0-.39-.14c-.22-.04-.3.17-.28.34 0 .14.07.28.12.42l.62 1.43c1.68 3.82 3.78 7.66 5.72 11.53.87 1.72 1.87 3.39 2.72 5.13.55 1.11 1.13 2.23 1.57 3.42.41 1.19.82 2.48.54 3.9-.13.44-.29.61-.37.58-.1-.02-.16-.24-.41-.53-.25-.29-.58-.65-1.03-1.05-.4-.41-.77-.89-1.11-1.47-.6-1.01-1.14-2.09-1.78-3.13l-.93-1.58-.88-1.62c-1.18-2.17-2.37-4.38-3.46-6.67-1.25-2.78-2.97-5.41-4.21-8.45-.91-2.15-1.53-5.11.84-5.86 1.21-.31 2.58-.1 3.88.61.29.14.71.41.88.52l.62.44c.4.31.79.61 1.15.94 1.66 1.48 3.05 3.15 4.33 4.87 1.93 2.62 3.51 5.46 4.95 8.32 1.11 2.23 2.23 4.42 3.07 6.77.19.51.39 1.02.54 1.55.28.99.38 1.67.31 2.17-.1.51-.34.83-.71 1.11-.17.13-.33.29-.49.37-.28.14-.59.04-.92-.26-.34-.3-.67-.78-.92-1.44-1.52-3.89-3.22-7.86-5.37-11.65-1.6-2.79-3.43-5.51-5.58-7.79l.06-.06Z" class="cls-4"/><path d="M178.54 325.71c-1.58-2.16-3.05-4.41-4.2-6.96-.41-.94-.87-1.89-1.07-3.05a6.36 6.36 0 0 1-.09-1.66c.05-.67.26-1.4.66-1.97.39-.58.97-1.02 1.6-1.29.32-.16.63-.16.94-.24.31-.08.61-.08.9-.07 1.17.04 2.16.43 2.98.91.44.22.79.51 1.18.77.35.3.7.59 1.02.9 1.14 1.11 2.15 2.28 3.04 3.52.56.8 1.07 1.64 1.49 2.53.46.86.71 1.84.73 2.85.07.61 0 .54-.4.17-.2-.19-.57-.41-.96-.69-.2-.14-.44-.27-.62-.44-.16-.18-.33-.37-.49-.57-.53-.74-1.12-1.42-1.71-2.09a25.11 25.11 0 0 0-1.78-1.92c-.62-.59-1.27-1.14-1.92-1.61-.64-.48-1.28-.9-1.89-1.14-.35-.12-.71-.18-.96-.13-.28.04-.39.12-.52.28-.1.18-.12.29-.11.74.02.41.13.89.27 1.38.65 2.2 1.95 4.45 3.34 6.55.87 1.3 1.8 2.57 2.81 3.77 1.52 1.82 3.14 3.64 5.01 4.97.11.08.23.16.35.23.09.06.15.09.22.13.14.08.28.14.42.19.26.09.59.16.76-.12.21-.27.29-.58.24-.86-.03-.17-.14-.31-.2-.43-.03-.06-.05-.11-.08-.16s-.1-.2-.13-.29c-.09-.2-.15-.38-.17-.56-.02-.37.09-.69.34-1.06.12-.17.21-.36.34-.51.22-.25.52-.32.9-.23.37.09.83.33 1.22.86.21.26.57.85.78 1.41.21.57.36 1.18.31 1.77-.04.59-.2 1.18-.5 1.7-.31.51-.71.97-1.18 1.36-.68.52-1.49.69-2.34.51-.86-.14-1.75-.7-2.57-1.25-1-.7-1.78-1.41-2.57-2.16-2.02-1.86-3.79-3.88-5.45-6.02l.06-.05Z" class="cls-4"/><path d="M174.17 327.54c1.47 2.12 3.18 4.14 5.09 5.82.71.59 1.48 1.1 2.19 1.6.62.43 1.28.79 1.82.95.14.04.26.09.35.1.12.04.18.03.26.05.09.02.11-.01.2 0 .1-.07.22-.12.29-.19.16-.13.27-.28.33-.53.04-.25 0-.58-.09-.93-.2-.7-.58-1.45-1.03-2.17-.81-1.28-1.8-2.49-2.75-3.73-.61-.8-1.26-1.57-1.79-2.45-.51-.89-.96-1.84-1.17-2.85-.08-.64-.06-.54.16-.06.23.49.94 1.17 1.78 1.93l.55.51.51.54 1.06 1.07c.72.72 1.45 1.44 2.16 2.21.69.79 1.36 1.62 1.96 2.59.29.49.58 1.01.79 1.62.21.61.36 1.33.26 2.15-.05.49-.23.99-.49 1.43-.29.43-.57.76-.97 1.07-.23.15-.47.32-.71.42-.25.09-.51.17-.76.23-.48.05-.97.11-1.38.02-.86-.12-1.57-.39-2.23-.69-.66-.3-1.27-.65-1.84-1.03-2.44-1.75-4.39-3.87-6.17-6.11a38.208 38.208 0 0 1-2.96-4.38c-.67-1.16-1.27-2.38-1.72-3.68-.44-1.3-.79-2.69-.66-4.23.1-.92.32-1.89 1.11-2.78.57-.71 1.52-.97 2.44-.98.84 0 1.51.15 2.19.37.48.16.95.32 1.4.56 1.64.92 1.87 1.67 1.52 2.49-.07.19-.13.38-.22.53-.3.46-1.19.46-2.07.04-.74-.32-1.53-.6-2.24-.69-.18-.03-.34-.03-.49-.04h-.2s-.02.03-.03.03c-.04.03-.05.08-.05.1v.05s-.02.11-.05.18c0 .09-.02.18-.04.26-.01.1 0 .22-.01.33 0 .48.09 1.08.29 1.72.65 2.12 1.96 4.45 3.48 6.52l-.07.05Z" class="cls-4"/><path d="M174.69 346.66c-1.97-1.28-3.96-2.69-5.69-4.61-1.6-1.85-2.96-3.72-4.2-5.84-.88-1.54-1.74-3.21-2.05-5.2-.09-.89-.15-1.82.09-2.78.23-.94.63-1.88 1.28-2.62.34-.44.86-.87 1.41-1.12.56-.23 1.21-.33 1.78-.29 1.1.09 1.92.47 2.67.86 1.47.82 2.66 1.83 3.77 2.9 1.1 1.07 2.1 2.22 3.03 3.42.82 1.07 1.6 2.18 2.3 3.37l.25.46c.1.17.14.27.27.53.22.46.35.91.47 1.37.21.89.19 1.84-.52 2.45-.84.79-2.07.99-3.23.47-.28-.15-.58-.27-.86-.44l-.71-.55c-.34-.3-.67-.61-.97-.93-.59-.65-1.16-1.29-1.62-2.01l-.66-1.09c-.22-.36-.25-.87-.48-1.22-.56-.88-.48-.77.22-.2.78.48 2.64 1.09 3.92 2.3.3.26.61.49.91.7.15.1.3.21.45.3l.11.06c-.02.01 0 0 0 0h.04s-.06-.13-.09-.19c-.16-.32-.35-.64-.54-.96-1.63-2.59-3.81-5.15-6.17-7.13-.7-.58-1.48-1.07-2.18-1.31-.35-.1-.63-.14-.75-.11-.17.04-.29.1-.43.29-.91 1.1-.82 2.78-.21 4.53.66 1.92 1.85 3.82 3.14 5.61.33.45.66.9 1.01 1.33l.52.66.52.58c.7.78 1.54 1.48 2.41 2.16 2.17 1.65 4.59 3.07 7.03 4.52 1.84 1.1 3.71 2.22 5.48 3.53.88.67 1.75 1.35 2.55 2.16.83.75 1.53 1.74 2.1 2.69 1.75 3.02 2.79 6.18 3.73 9.35.2.7.42 1.38.6 2.08.66 2.62.67 3.46.07 4.21-.14.17-.26.38-.41.5-.51.41-1.27-.56-1.88-2.45-.91-2.79-1.68-5.65-2.74-8.35-.52-1.35-1.1-2.66-1.79-3.81-.34-.58-.72-1.1-1.12-1.55-.44-.46-.93-.94-1.47-1.37-1.59-1.32-3.49-2.48-5.44-3.63-1.95-1.15-3.98-2.28-6-3.54l.04-.07ZM185.73 381.79c.17 1.2.35 2.39.57 3.59.08.44.24.85.31 1.29.28 1.55.55 3.1.83 4.65.13.69.33 1.36.52 2.03.25.85.58 1.71.56 2.64 0 .29-.43.34-.9.2-.48-.14-1-.43-1.18-.9-.59-1.67-1.17-3.39-1.46-5.21-.15-1.1-.58-2.16-.86-3.25-.3-1.2-.57-2.41-.82-3.63l-.45-2.25c-.23-1.14-.39-2.29-.62-3.43-.17-.89-.5-1.73-.69-2.64-.04-.2-.11-.39-.12-.59-.05-.77.14-1.02.85-1.18.16-.04.32-.08.48-.11.55-.07 1.02.22 1.23.7.68 1.42.89 2.93 1.23 4.51.19 1.18.38 2.37.57 3.56l-.06.02ZM308.05 376.01c1.37 2.44 2.61 4.96 3.9 7.44 1.22 2.52 2.47 5.02 3.62 7.57.82 1.87 1.79 3.67 2.56 5.56 2.82 6.62 5.18 13.42 7.3 20.27.92 3.04 1.91 6.08 2.76 9.12l.86 2.92c.14.49.29.97.42 1.46l.33 1.49c.44 1.98.83 3.98 1.21 5.96.23 1.24.05 1.11-.47.15-.51-.97-1.49-2.73-2.35-4.9-2.89-7.72-5.42-15.49-8.13-23.29-.8-2.34-1.71-4.69-2.67-7.03-1.03-2.31-2.03-4.66-3.09-6.95-1.16-2.52-2.3-5.06-3.56-7.53-1.2-2.51-2.52-4.96-3.82-7.42-1.64-3-3.29-6.01-5.07-8.94-2.64-4.47-5.42-8.9-8.29-13.19-2.26-3.32-4.66-6.45-7.02-9.65-.52-.7-1.06-1.37-1.57-2.09-1.91-2.65-2.26-3.68-1.92-4.77.08-.25.12-.53.24-.72.36-.62 1.64.11 3.18 1.97 4.52 5.52 8.84 11.66 12.96 18.02 3.03 4.74 5.95 9.58 8.69 14.52l-.07.05Z" class="cls-4"/><path d="M194.66 440.98c3.82 4.5 8.27 8.49 13.32 11.42 5.03 2.92 10.73 4.72 16.46 4.57 2.07 0 4.19-.4 6.11-.91 1.85-.53 3.48-1.58 4.86-2.94 2.42-2.46 3.91-5.96 4.83-9.59.92-3.65 1.34-7.49 1.48-11.35.27-7.73-.46-15.55-1.63-23.27-1.04-6.86-2.53-13.71-4.31-20.37-1.12-4.29-2.4-8.54-3.77-12.76-.68-2.11-1.3-4.24-2.02-6.34-.35-1.05-.72-2.09-1.1-3.13-.38-1.04-.72-2.09-1.14-3.11-.52-1.27-.78-1.81-.7-1.82.08 0 .51.52 1.21 1.49 1.46 1.9 3.88 5.66 5.9 10.45 3.24 8.61 5.71 17.46 7.59 26.46 1.89 9 3.11 18.19 3.23 27.52.03 5.57-.19 11.32-1.52 17.04-.68 2.85-1.67 5.71-3.29 8.32-1.58 2.62-4.01 4.92-6.93 6.18-.79.35-1.63.61-2.45.83-.8.16-1.6.36-2.4.48-.81.09-1.62.24-2.43.28-.82.02-1.63.11-2.44.07-3.26-.04-6.48-.62-9.55-1.61-6.14-1.99-11.59-5.53-16.28-9.75-5.75-5.24-10.4-11.56-14.02-18.36-2.75-5.15-4.88-10.63-6.42-16.25-1.53-5.63-2.42-11.39-2.89-17.13-.69-8.93-.49-17.79 1.01-26.57.33-1.93.68-3.82 1.14-5.74 1.77-7.13 3.11-9.18 4.43-10.32.31-.26.65-.62.89-.75.41-.2.47.43.24 1.72-.22 1.3-.66 3.29-1.34 5.79-3.88 14.89-4.62 31.46-1.38 47.33 2.47 11.68 7.64 22.94 15.36 32.05l-.06.07ZM360.18 333.25c.96 7.51 1.62 15.11 1.33 22.77-.11 2.79-.25 5.61-.76 8.41-.45 2.46-1.07 4.92-2.05 7.29-.95 2.37-2.3 4.65-4.11 6.58-.91.96-1.95 1.79-3.07 2.51-.57.34-1.14.67-1.74.91-.6.25-1.17.56-1.79.75-2.43.88-4.96 1.2-7.45 1.35-4.43.15-8.85-.36-13.05-1.4-5.35-1.4-10.8-3.22-15.09-6.87-1.3-1.16-1.07-1.06.38-.69 1.47.36 4.19.76 7.03 1.79 2.5 1 5.07 1.82 7.68 2.44 2.61.6 5.23 1.18 7.87 1.39 2.63.24 5.28.26 7.84-.1 2.55-.36 5.03-1.18 7.09-2.5 2.48-1.61 4.29-4.33 5.44-7.34 1.16-3.03 1.77-6.34 2.13-9.66.78-7.32.35-14.85-.46-22.29-.52-4.59-1.18-9.17-1.99-13.73-1.22-6.91-2.64-13.83-4.29-20.61-1.28-5.28-2.8-10.38-4.21-15.57-.31-1.14-.64-2.26-.92-3.42-1.05-4.32-1.08-5.79-.31-6.9.17-.25.32-.57.5-.73.59-.53 1.56 1.1 2.44 4.18 2.75 9.15 5.36 18.96 7.55 28.94 1.63 7.41 3.04 14.92 4.1 22.5l-.08.02ZM307.53 297.03c.68 2.02 1.35 4.04 1.95 6.08.23.74.54 1.45.75 2.19.72 2.64 1.5 5.24 2.11 7.91.29 1.17.67 2.32 1.01 3.47.21.74.44 1.47.64 2.22.23.73.24 1.54.36 2.31.05.49-.04.45-.36.13-.22-.22-.46-.44-.68-.65l-.44-.44c-.08-.08-.14-.17-.23-.25l-.16-.29c-.73-1.4-1.47-2.8-2.03-4.26-.57-1.46-1.18-2.9-1.52-4.45-.43-1.84-1.26-3.62-1.91-5.43l-2.11-5.98c-.44-1.23-.87-2.45-1.35-3.66-.72-1.83-1.42-3.68-2.28-5.44-.67-1.36-1.54-2.6-2.32-3.88-.16-.29-.35-.56-.49-.85-.28-.55-.39-.94-.34-1.29.04-.34.21-.61.5-.91.13-.14.25-.29.39-.4.45-.37 1.16-.16 1.88.51.47.53.93 1.07 1.36 1.64.39.59.76 1.19 1.1 1.82.69 1.25 1.31 2.55 1.89 3.88.86 1.97 1.61 3.99 2.37 6l-.08.03ZM191.19 118.49c-3.19 7.26-6.29 14.56-9.32 21.9-1.11 2.68-2.08 5.4-3.18 8.08-3.87 9.44-7.71 18.9-11.38 28.43l-1.2 3.18-1.09 3.03c-.09.26-.19.51-.26.77.16.22.42.35.64.5l1.15.67 1.45.8c2.52 1.34 5.12 2.57 7.7 3.82l1.94.94 1.89 1.02c1.28.62 2.39 1.63 3.6 2.42 1.46 1.02 1.31 1-.39 1.12-.84.03-2.09.17-3.55.17-.73 0-1.44-.19-2.21-.35-.38-.09-.76-.21-1.16-.32-.38-.15-.76-.31-1.14-.49-2.71-1.28-5.37-2.63-8-4.11l-1.97-1.14-.99-.6-.68-.43c-.31-.2-.61-.4-.9-.61-.58-.42-1.12-.89-1.42-1.43-.15-.25-.28-.58-.33-.86l.07-.95c-.04-.61.33-1.32.56-2l.49-1.28c2.14-5.52 4.31-11.04 6.65-16.53 2.79-6.56 5.25-13.56 7.96-20.32 2.98-7.44 6.04-14.85 9.17-22.23 1.92-4.54 3.9-9.07 5.87-13.59 2.99-6.85 6.13-13.67 9.24-20.41 2.42-5.24 4.65-10.46 7.31-15.59.57-1.13 1.16-2.24 1.8-3.36 2.47-4.13 3.91-5.15 5.44-5.17.34 0 .73-.07.99 0 .44.12.47.66.21 1.48-.14.39-.33.91-.58 1.49-.26.57-.61 1.22-1.01 1.94-2.37 4.31-4.62 8.95-6.88 13.68-2.25 4.74-4.5 9.58-6.71 14.45-3.29 7.24-6.55 14.56-9.68 21.92l-.1-.03ZM384.29 212.23c-4.02 8.62-8.13 17.21-12.29 25.76-1.52 3.12-2.94 6.29-4.5 9.39-2 4-4.03 7.99-6.1 11.96-1.04 1.98-2.08 3.96-3.15 5.94l-1.64 2.96-.43.74-.3.52-.35.56c-.46.78-1.04 1.31-1.74 1.56-.56-.07-1.16-.11-1.77-.37-.3-.1-.61-.21-.91-.33l-.62-.24-2.3-.94-4.55-1.92c-4.99-2.13-10.01-4.28-14.97-6.39-3.17-1.38-6.39-2.68-9.51-4.2s-6.27-3-9.13-5.06c-.8-.8-1.13-1.19-1.05-1.26.08-.09.59.08 1.59.14 1 .04 2.3.32 3.88.63 1.55.36 3.3.92 5.13 1.67 10.99 4.74 21.97 9.47 33.05 14.24.14 0 .2-.17.32-.27.36-.59.78-1.29 1.16-1.95 4.19-7.32 7.88-15.39 11.68-23.19 4.17-8.59 8.29-17.23 12.31-25.9 2.48-5.34 4.93-10.69 7.32-16.06 3.62-8.14 7.23-16.33 10.52-24.54 2.58-6.37 4.71-12.77 7.03-19.14.5-1.41.98-2.79 1.48-4.21.48-1.31.89-2.39 1.26-3.29.38-.89.74-1.6 1.05-2.17.32-.57.62-1.01.91-1.35.32-.34.64-.58.95-.79.28-.19.57-.47.77-.57.58-.37.78 2.12-.32 6.1-3.24 11.82-8 23.8-13.02 35.69-3.73 8.83-7.68 17.61-11.66 26.35l-.1-.03ZM295.48 84.06c4.84 2 9.72 3.91 14.53 6.01l7.23 3.08 7.18 3.19 5.26 2.28c1.74.78 3.49 1.56 5.22 2.37 6.12 2.82 12.14 5.83 18.17 8.83l8.96 4.66c2.98 1.56 5.93 3.19 8.9 4.77 2.64 1.4 5.27 2.83 7.89 4.26 2.63 1.42 5.25 2.84 7.86 4.25 3.32 1.85 6.64 3.74 9.94 5.64 3.25 2 6.42 4.13 9.54 6.31 1.94 1.37 1.56 1.38-.39.74-1.94-.66-5.56-1.76-9.49-3.69-3.44-1.78-6.88-3.56-10.29-5.38-3.38-1.88-6.83-3.64-10.23-5.49-3.39-1.86-6.86-3.6-10.28-5.44-3.42-1.84-6.89-3.6-10.34-5.42-8.26-4.35-17.13-8.3-25.83-12.24-4.79-2.15-9.59-4.26-14.41-6.35-4.84-2.03-9.66-4.13-14.54-6.06-3-1.2-5.99-2.44-9-3.6l-9.05-3.48-13.8-5.07c-4.63-1.6-9.24-3.24-13.87-4.73-3.6-1.15-7.18-2.24-10.76-3.3-3.59-1.02-7.17-2.03-10.77-3.05-1.59-.44-3.14-.86-4.74-1.3-5.91-1.7-7.7-2.52-8.66-3.96-.22-.32-.54-.65-.64-.92-.37-.86 2.28-.96 6.67.13 6.53 1.54 13.16 3.42 19.86 5.39 6.68 2.05 13.43 4.2 20.14 6.52 5 1.67 9.96 3.52 14.93 5.31 4.96 1.84 9.9 3.73 14.84 5.64l-.02.1ZM330.45 130.94c.48.65.98 1.3 1.44 1.96l1.29 2.06c.9 1.34 1.59 2.82 2.36 4.23 1.36 2.93 2.61 5.94 3.36 9.11 1.63 6.28 1.79 12.96.44 19.3-.95 4.63-2.68 9.11-5.14 13.14-4.32 7.11-10.77 12.83-18.19 16.38-7.42 3.58-15.85 4.91-23.94 3.91-3.59-.45-7.13-1.25-10.54-2.45-3.4-1.24-6.65-2.9-9.6-4.98-3.79-2.65-7.14-6.01-9.6-9.96a35.25 35.25 0 0 1-4.85-12.85c-.29-2.85-.03-2.46 1.03-.3.14.27.29.57.43.89.17.32.34.66.53 1.03.37.73.75 1.56 1.26 2.42.24.44.48.89.74 1.36.28.46.56.93.85 1.41.54.99 1.23 1.95 1.86 3 1.25 1.78 2.5 3.53 3.95 5.12.37.39.71.8 1.09 1.18l1.17 1.1c.75.77 1.65 1.37 2.47 2.07 3.43 2.59 7.37 4.49 11.51 5.8a43.9 43.9 0 0 0 12.87 2.01c4.36.01 8.73-.73 12.9-2.11 1.26-.37 2.47-.94 3.7-1.44 1.18-.61 2.41-1.16 3.53-1.89 2.32-1.35 4.46-3.03 6.45-4.87 3.96-3.7 7.18-8.22 9.35-13.16 1.23-2.7 2.09-5.56 2.63-8.47.54-2.91.78-5.9.59-8.87-.18-2.96-.61-5.94-1.48-8.8l-.3-1.08-.38-1.06c-.26-.7-.48-1.42-.77-2.11-.62-1.37-1.16-2.77-1.91-4.08-.82-1.67-1.86-3.2-2.84-4.78-1.11-1.48-2.16-3.01-3.43-4.35-2.46-2.74-5.25-5.23-8.42-7.11-2.4-1.41-4.91-2.68-7.59-3.51-1.31-.49-2.69-.77-4.05-1.11-.68-.17-1.38-.23-2.07-.35-.69-.11-1.38-.24-2.09-.27l-2.1-.16c-.7-.04-1.4 0-2.11-.01-1.41-.04-2.81.14-4.21.23-2.78.36-5.58.87-8.21 1.73-4.12 1.3-7.9 3.49-11.3 6.06-3.39 2.6-6.4 5.66-8.78 9.14-.49.79-1 1.55-1.47 2.34-.43.81-.85 1.62-1.29 2.44-.35.78-.68 1.5-.98 2.15-.32.65-.48 1.28-.71 1.84-.2.56-.44 1.05-.58 1.52-.14.47-.28.89-.42 1.27-.28.76-.57 1.35-.78 1.85-.24.5-.51.89-.79 1.25-.26.32-.52.77-.73.96-.37.32-.6-.25-.77-1.65-.09-.7-.16-1.61 0-2.66.12-1.06.27-2.32.69-3.66 1.08-4.04 3.06-7.89 5.61-11.32 2.55-3.44 5.68-6.48 9.19-9.05 3.52-2.55 7.39-4.7 11.65-6.1 4.27-1.36 8.58-2.12 13.04-2.28 3.3-.14 6.62.2 9.88.8 3.26.67 6.43 1.75 9.46 3.15 5.99 2.94 11.26 7.3 15.19 12.57l-.07.07Z" class="cls-4"/><path d="M284.57 145.48c1.43-.27 3.02-.28 4.19.63.61.48 1.08 1.27 1.12 2.11.07 1.28-1.03 2.44-2.11 3.14-1.33.85-2.3 1.13-3.95 1.64-2.81.86-6.34 1.59-8.47 3.77-1.01 1.03-1.42 2.47-.71 3.79.57 1.07 1.68 1.79 2.72 2.34 2.95 1.55 6.53 2.41 9.38 3.71.92.42 2.02.26 2.57-.67.47-.81.25-2.14-.67-2.57-2.82-1.3-5.86-2.06-8.67-3.37-.54-.25-1.07-.53-1.58-.85.02.01-.45-.34-.24-.16.19.16-.17-.17-.17-.17-.16-.18-.11.01.03.06-.24-.08.02-.5-.02.01 0 .07-.02.66-.05.6s-.14.16.06-.08c.08-.09.18-.18.27-.25-.12.1.33-.22.46-.3.37-.22.75-.42 1.14-.59 2.88-1.28 6.1-1.69 8.9-3.16 3.22-1.7 5.91-5.19 4.45-8.96-1.56-4.03-5.73-5.05-9.64-4.3-1 .19-1.56 1.39-1.31 2.31.29 1.04 1.31 1.5 2.31 1.31ZM303.17 174.03c3.67-5.86 6.99-11.92 10.28-18 .91-1.68-.9-3.43-2.57-2.57-4.57 2.37-9.68 3.96-14.64 5.79-.6.22-1.31.41-1.86.75-1.42.87-1.14 2.65.13 3.47.74.48 1.62.79 2.43 1.13 1.23.51 2.47 1 3.71 1.47 3.15 1.2 6.32 2.34 9.5 3.44 2.29.79 3.27-2.83 1-3.62-3.08-1.06-6.14-2.16-9.18-3.32-.71-.27-1.43-.54-2.13-.82-.33-.13-.67-.26-1-.4-.14-.06-.28-.11-.42-.17-.03-.01-.56-.23-.17-.07-.45-.19-.9-.38-1.33-.6l-.39-.21-.16-.1.31.24c-.35-.34-.19.07.49 1.22l-.26.95c.05-.06-.94.85-.56.61.06-.04.29-.16-.06.02-.38.19.2-.07.31-.11.48-.18.97-.36 1.45-.54 1.55-.56 3.1-1.12 4.65-1.69 3.4-1.26 6.86-2.51 10.08-4.18l-2.57-2.57c-3.28 6.08-6.61 12.14-10.28 18-1.28 2.05 1.96 3.94 3.24 1.89ZM259.04 150.64l-.81.55c-.34.24-.67.33-.99.47l-.97.38c-.31.09-.69-.03-.98-.18-.6-.29-1.11-.86-1.53-1.49-.11-.15-.2-.32-.31-.48-.1-.15-.21-.35-.25-.44a9.16 9.16 0 0 1-.31-.63c-.29-.61-.61-1.2-.82-1.82-.73-2.21-1.19-4.46-1.4-6.72-.07-1.01-.17-2.01-.2-3.01-.03-.64-.04-1.28.05-1.92.07-.64.21-1.28.51-1.88.18-.37.29-.3.52.06.16.24.33.49.48.71.18.29.29.6.37.94.28 1.2.38 2.37.62 3.54.11.59.24 1.17.32 1.76.07.6.15 1.2.22 1.8.19 1.46.83 2.86 1.42 4.19.16.37.33.74.5 1.09l.36.72c.08.15.18.32.32.45.07.08.17.06.24 0l.24-.12c.1-.05.2-.12.31-.18.19-.12.41-.27.6-.42.41-.29.79-.61 1.17-.95 1.14-1.01 2.26-2.18 3.45-3.34.93-.89 1.84-1.84 2.88-2.64.23-.17.44-.36.68-.52.47-.26.8-.36 1.11-.3.17.07.31.14.45.24.12.08.25.18.37.31.11.12.23.22.32.34.15.2.17.44.12.72-.04.17-.08.34-.12.52-.04.22-.17.31-.29.46-.73.82-1.56 1.4-2.3 2.09-.76.67-1.48 1.35-2.25 2.14-1.14 1.17-2.53 2.53-4.06 3.62l-.05-.06ZM294.94 247.16c1.27-2.41 2.9-4.37 4.61-6.22 1.75-1.82 3.61-3.5 5.64-5 1.49-1.09 2.91-2.18 4.63-3.06.76-.38 1.55-.74 2.45-1 .9-.24 1.93-.44 3.15-.19.3.05.62.19.91.31.28.17.61.32.83.54.5.38.9.93 1.17 1.5.55 1.15.18 2.69-.21 3.5-.84 1.72-1.93 2.88-3.01 4.08-1.13 1.23-2.43 2.21-3.65 3.19l-1.23.97-.42.34c-.1.08-.19.16-.29.25-.08.07-.16.14-.23.21l-.11.11s0 .1.03.14c.12.17.27.31.41.46l.21.22.43.51c.29.35.56.71.82 1.09 1.09 1.55 1.93 3.42 2.11 5.43.12 1.97-.25 4.08-1.74 5.43-.64.96-.74.69-.74-.3.04-.48-.36-1.31-.55-2.06-.18-.76-.28-1.51-.39-2.29-.1-1.4-.55-2.74-1.37-4-.21-.32-.43-.63-.67-.94-.27-.35-.37-.46-1.12-1.3-.61-.68-1.12-1.41-1.2-2.08-.11-.74.15-1.33.66-1.99.6-.55 1.34-1.14 1.92-1.58l1.08-.77c.7-.5 1.39-.97 2-1.51.62-.53 1.19-1.07 1.72-1.64.56-.61 1.1-1.23 1.57-1.85.29-.38.54-.77.73-1.13.1-.18.16-.36.22-.51.04-.11.06-.2.07-.27.06-.34-.25-.68-.62-.72-.45-.1-1.37.16-2.23.53-.88.38-1.78.88-2.67 1.42-3.94 2.41-7.54 5.56-10.35 9.23-.84 1.14-1.6 2.33-2.12 3.56-.12.31-.22.62-.33.92-.05.3-.17.62-.17.9l-.03.43.05.49.1.99c.39 2.01 1.36 3.97 2.49 5.84 1.14 1.88 2.47 3.67 3.84 5.43 2.11 2.75 4.46 5.3 6.31 8.4.4.69.83 1.34 1.14 2.11.15.35.29.67.41.97.11.3.17.6.24.86.11.53.23.95.19 1.33-.17.78-.43 1.21-.73 1.55-.13.15-.25.34-.35.43-.19.14-.4-.07-.76-.52-.35-.45-.82-1.08-1.15-1.95-1.06-2.56-2.83-4.99-4.74-7.45-1.91-2.47-4.02-4.95-5.97-7.71-1.43-2.06-2.83-4.28-3.72-6.94-.43-1.37-.71-2.71-.67-4.39.13-1.73.71-3.06 1.31-4.31l.08.03Z" class="cls-4"/><path d="M335.05 279.54c-3.13.59-6.25 1-9.38 1.32-1.14.12-2.27.31-3.41.39-4.03.27-8.07.34-12.1.18-1.79-.08-3.59-.11-5.38-.25-1.15-.08-2.3-.18-3.46-.37a12.2 12.2 0 0 1-1.69-.51l-.82-.34c-.27-.12-.51-.36-.76-.53-.59-.51-.44-.56.27-.8.35-.11.85-.37 1.38-.47.53-.12 1.12-.23 1.74-.22 4.28.63 8.81.64 13.38.8 2.74.08 5.58-.33 8.37-.64 3.07-.34 6.13-.75 9.15-1.33 1.86-.35 3.71-.75 5.51-1.28l1.12-.33c.31-.09.54-.18.8-.26.5-.19 1.02-.4 1.46-.75.11-.1.21-.2.28-.33.12-.14-.07-.26-.17-.32-.24-.15-.52-.25-.79-.34-.31-.1-.64-.18-.95-.24l-.46-.07-.22-.03c-.08 0-.11 0-.27-.04-1.07-.17-2.15-.29-3.22-.41-.47-.06-.94-.07-1.4-.13-.86-.12-1.41-.21-1.77-.45-.36-.28-.56-.61-.74-1.08-.08-.21-.2-.42-.26-.62-.11-.34.02-.67.41-.97.38-.29.99-.6 1.72-.59 1.07-.05 2.13-.01 3.18.08 1.05.12 2.1.29 3.15.53.93.23 1.93.51 2.85.83.47.15.91.33 1.34.51.36.21.71.43 1.04.64.31.22.54.45.77.68.18.24.3.48.42.73.05.13.11.25.1.41v.25l-.02.14c.04 0-.09.01.09 0s0 .01 0 .01v.11c0 .16 0 .33-.02.48l-.12.42-.05.08c-.25.41-.41.81-.81 1.2l-.26.29-.13.15-.2.14-.82.54c-.25.19-.59.34-.94.49l-1.02.46c-.67.29-1.32.47-1.97.71-.38.14-.51.16-.72.22l-.59.17c-.4.12-.79.2-1.19.31-.79.2-1.58.37-2.37.54l-.02-.08ZM256.83 285.23a28.069 28.069 0 0 1-6.67 10.78c-2.99 3.02-6.64 5.31-10.52 6.83-2.83 1.1-5.78 1.96-8.79 2.24-.66.1-1.32.14-1.99.15-.67.02-1.33.06-1.99.06-1.33-.07-2.66-.06-3.97-.27-2.64-.26-5.23-.94-7.72-1.79-4.91-1.78-9.58-4.27-13.59-7.59-3.58-2.9-6.8-6.26-9.51-9.93-3.46-4.7-6.24-10-7.53-15.68-.44-1.75-.22-1.56.65-.27.45.64 1 1.57 1.87 2.6.41.52.76 1.12 1.16 1.75.41.62.83 1.27 1.23 1.97.71 1.24 1.53 2.41 2.26 3.62l1.14 1.79c.39.59.81 1.15 1.22 1.73 1.66 2.27 3.45 4.46 5.47 6.41 2.01 1.96 4.13 3.81 6.47 5.36 2.32 1.57 4.75 3.04 7.35 4.18 3.11 1.41 6.42 2.36 9.87 2.67 3.44.32 6.95.08 10.3-.66 3.69-.81 7.24-2.27 10.33-4.4 3.1-2.12 5.73-4.92 7.57-8.21 2.25-4.06 3.35-8.71 3.47-13.44.22-7.18-1.4-14.46-3.7-21.33-1.82-5.35-4.29-10.35-6.76-15.37-.55-1.1-1.12-2.17-1.65-3.29-.51-1.04-.92-1.9-1.24-2.64-.31-.74-.5-1.37-.66-1.89-.3-1.05-.33-1.73-.2-2.36.06-.29.08-.63.17-.83.29-.65 1.67.75 3.62 3.61a149.1 149.1 0 0 1 3.88 6.71c1.26 2.3 2.35 4.71 3.43 7.16 2.13 4.91 3.97 10.06 5.26 15.44.92 4 1.58 8.11 1.71 12.31.05 4.21-.46 8.5-1.83 12.6l-.09-.02Z" class="cls-4"/><path d="M215.08 227.73c2.45.57 4.98.99 7.55 1.16.94.05 1.88 0 2.82.01 3.32.09 6.67-.14 9.98-.69 1.47-.24 2.91-.65 4.27-1.16 1.74-.73 3.44-1.33 5.29-1.94.61-.16.56-.14.35.42-.11.28-.22.77-.5 1.21-.13.23-.27.5-.45.73-.09.12-.19.23-.28.37l-.35.29c-.44.32-.88.63-1.33.92-.45.27-.95.48-1.43.68-.97.4-1.96.74-2.95 1.03-1.99.58-4.03.96-6.1 1.05-2.46.13-4.99.52-7.51.52-2.76 0-5.53-.22-8.26-.7-1.68-.28-3.34-.71-4.98-1.18-2.48-.74-4.88-1.79-7.15-3.04-1.76-.96-3.55-1.93-5.12-3.28-.36-.27-.71-.57-1-.93-1.15-1.27-1.07-2.02-.59-2.75.11-.17.21-.36.34-.5.21-.23.52-.29.91-.23.39.06.87.22 1.27.57 1.37.88 2.54 1.87 3.88 2.73 1.35.84 2.76 1.63 4.25 2.31 2.23.99 4.62 1.78 7.1 2.3v.09ZM204.71 335.46c-.12-2.03-.31-4.05-.64-6.02-.34-1.95-.78-3.89-1.56-5.57-.14-.3-.28-.62-.46-.88l-.26-.42c-.09-.16-.14-.17-.2-.27-.26-.29-.66-.54-1.19-.74-.92-.35-2.12-.47-3.33-.42-1.21.04-2.46.25-3.68.55-1.22.3-2.43.73-3.55 1.27-.56.27-1.1.58-1.6.91-.25.17-.48.34-.7.53-.17.14-.25.21-.37.34-.17.19-.32.41-.35.67-.06.23.09.45.29.55.19.11.42.17.63.22l.16.03c.05 0 .08 0 .21.03.21.02.41.05.63.06.42.03.86.05 1.29.07 1.44.04 2.91-.13 4.37-.26l2.21-.2c.74-.06 1.49-.13 2.2-.3.87-.25.86-.09.24.52-.32.29-.79.72-1.4 1.19-.31.23-.65.49-1.03.71-.38.2-.8.39-1.24.54-.89.34-1.81.52-2.74.66-.93.15-1.88.26-2.85.3-.49.03-.99.02-1.49-.02-.26-.03-.51-.05-.78-.09-.47-.06-.87-.16-1.3-.26-.82-.25-1.56-.63-2.08-1.17-.27-.26-.46-.58-.63-.93-.08-.18-.14-.36-.16-.55-.04-.19-.08-.37-.09-.56l.08-.85c.07-.28.15-.56.26-.83.15-.26.26-.54.45-.79.2-.24.37-.5.59-.73.23-.22.44-.45.68-.66l.5-.39c.33-.23.66-.45.99-.63 1.33-.77 2.69-1.27 4.06-1.69 1.92-.58 3.89-1.05 5.98-1.22 1.04-.08 2.12-.09 3.24.1 1.1.19 2.3.55 3.32 1.42.28.24.54.5.76.81.13.15.22.29.28.41l.23.38c.32.5.55 1.03.81 1.54.45 1.05.83 2.11 1.11 3.18.58 2.13.91 4.27 1.16 6.4.29 2.62.44 5.23.55 7.83.17 3.93.18 7.87.45 11.73.22 2.99.68 5.91 1.31 8.73.15.61.32 1.22.48 1.82.65 2.23.56 2.96.04 3.76-.12.18-.23.4-.36.54-.22.24-.54.18-.97-.16-.43-.33-.95-.95-1.35-1.84-1.1-2.66-1.65-5.49-2.03-8.31-.37-2.83-.54-5.68-.68-8.51-.19-4.21-.29-8.39-.59-12.5h.08Z" class="cls-4"/><path d="M210.79 368.69c-2.83 1.03-5.7 1.88-8.61 2.58-1.06.25-2.11.58-3.19.78-1.9.34-3.83.59-5.79.68-1.95.08-3.94.05-5.95-.37-.89-.19-1.79-.44-2.68-.85-.4-.2-.95-.56-1.43-.95-.42-.44-.83-.93-.92-1.55-.16-.78.13-1.56.58-2.24l.37-.5c.13-.13.26-.24.38-.36.28-.26.46-.4.7-.59.46-.33.89-.68 1.39-.9.5-.23 1-.42 1.53-.57.65-.19.69-.08.54.64-.08.35-.17.91-.36 1.46-.1.28-.18.59-.33.85-.15.24-.34.47-.52.67-.18.18-.33.35-.48.52-.09.1-.13.15-.16.2l-.1.13s-.02 0-.02.03v.02c-.01 0 0 0 .06.03.14.08.31.16.49.25 1.45.67 3.49.93 5.53 1.03 2.48.13 5.08-.5 7.62-1.05 2.8-.63 5.58-1.42 8.3-2.39 1.67-.59 3.33-1.24 4.94-1.99 1.21-.57 2.42-1.16 3.55-1.84.57-.34 1.12-.69 1.63-1.08.26-.19.5-.39.73-.6.16-.14.28-.27.41-.42.18-.23.34-.49.32-.77 0-.3-.3-.49-.53-.61-.12-.07-.24-.12-.36-.16l-.48-.17c-.43-.16-.89-.28-1.34-.4-.4-.11-.8-.16-1.2-.25-1.49-.29-1.86-.54-2.18-1.55-.07-.23-.18-.45-.23-.67-.08-.38.05-.72.42-.99s.96-.46 1.69-.44c1.08.03 2.14.19 3.2.5.53.17 1.05.37 1.58.62.71.39 1.59.89 2.16 1.55.61.63 1 1.42 1.02 2.3.04.86-.27 1.7-.79 2.48-.26.39-.58.76-.93 1.1-.16.17-.36.37-.5.48l-.34.29c-.45.38-.9.7-1.36 1.01-2.7 1.8-5.5 3-8.32 4.13l-.04-.08ZM224.25 246.49c.35.67.72 1.33 1.07 1.99.2.37.39.75.57 1.13.09.18.18.37.26.55.03.06.28.63.18.39.32.77.59 1.57.75 2.39.02.09.03.18.05.27-.05-.31 0-.08 0-.01.01.2.03.4.03.6 0 .17-.01.34-.03.51-.02.23.06-.27 0-.05-.03.1-.04.2-.07.3-.02.08-.05.16-.07.23-.11.37.1-.18-.01.02-.03.06-.27.46-.18.32.12-.17-.05.05-.08.09-.06.06-.12.13-.19.19-.03.03-.24.22-.1.1s-.16.11-.19.13c-.42.27-.5.31-.94.43-.18.05-.36.09-.55.12-.24.04.24-.02 0 0-.12 0-.24.02-.36.02-.22 0-.45 0-.67-.02-.04 0-.35-.04-.17-.01s-.14-.02-.17-.03c-.48-.09-.95-.21-1.41-.37s-.59-.21-1.05-.44c-.48-.24-.95-.5-1.41-.79-1.84-1.17-3.5-2.79-4.62-4.62-1.06-1.72-3.79-.14-2.72 1.59 1.32 2.16 3.14 3.97 5.22 5.4 1.92 1.33 4.2 2.34 6.56 2.44 2.16.1 4.49-.84 5.64-2.74 1.06-1.74.82-3.93.21-5.78-.68-2.09-1.79-4.01-2.81-5.95-.4-.75-1.44-.98-2.15-.57-.76.45-.96 1.4-.57 2.15ZM236.77 242.47c.28.42.54.85.76 1.3.12.23.22.47.33.71.03.07.11.27-.02-.05.02.05.04.11.07.16.06.14.11.29.17.44.2.55.37 1.11.51 1.67.06.26.11.51.16.77.07.4-.01-.21.01.07.01.14.03.28.04.42.02.24.02.49 0 .74v.14c0 .23.04-.11.02-.14.03.06-.05.28-.07.34-.02.09-.06.18-.08.27-.04.18.17-.3.07-.16-.02.03-.03.07-.05.1-.03.05-.22.32-.04.09.15-.21.05-.07 0-.02-.17.17.02-.09.12-.08-.04 0-.22.13-.25.15-.06.03-.13.06-.2.1.24-.12.04-.02-.02 0-.15.05-.29.09-.45.13-.06.01-.13.02-.19.04.33-.08.07-.01-.03 0h-.43c-.29 0-.01 0 .05.01l-.18-.03c-.14-.03-.28-.07-.42-.11a2.25 2.25 0 0 0-.24-.08c-.27-.09.12.07-.04-.02-.31-.18-.62-.33-.91-.54-.08-.05-.15-.11-.22-.16-.2-.15.27.23-.07-.06-.15-.13-.29-.25-.43-.38-.63-.58-1.2-1.23-1.74-1.9-.51-.63-1.67-.57-2.19 0-.62.67-.55 1.52 0 2.19 1.07 1.32 2.31 2.64 3.83 3.44 1.69.88 3.51.97 5.25.16 2.69-1.25 2.16-4.88 1.45-7.18-.44-1.42-1.04-2.84-1.88-4.07-.46-.67-1.38-1.03-2.12-.56-.66.43-1.05 1.41-.56 2.12ZM229.54 277.57c2.61 2.36 6.59 2.85 9.65 1.09.74-.42 1.06-1.49.58-2.22s-1.43-1.04-2.22-.58c-.15.08-.29.16-.44.24-.04.02-.28.12-.06.03s-.02 0-.06.02c-.3.11-.6.2-.91.26-.09.02-.18.03-.27.05-.22.05.32-.03.1-.01-.15.01-.3.03-.44.04-.33.02-.67 0-1-.03-.05 0-.31-.03-.06 0s0 0-.06-.01c-.16-.03-.33-.07-.49-.11-.14-.04-.29-.08-.43-.13-.07-.02-.14-.05-.21-.07-.02 0-.36-.14-.12-.04.22.09-.02-.01-.06-.03-.07-.03-.13-.07-.2-.1-.15-.08-.29-.16-.43-.25-.1-.06-.26-.23-.37-.25.17.13.2.16.11.08-.03-.02-.06-.05-.09-.07l-.21-.18c-.63-.57-1.68-.67-2.3 0-.57.62-.67 1.69 0 2.3ZM203.72 235.83c-1.49 1.52-2.81 4.99-.86 5.85.71.31 1.65.08 2.19-.48 1.59-1.66 1.21-3.09 3.92-4.21 1.53-.63 6.76-.52 5.9-2.44-.56-1.25-2.41-2.38-5.51-1.69-1.9.42-4.08 1.37-5.64 2.96Z" class="cls-4"/><path d="M233.74 248.46c.43.77.92 1.52 1.46 2.23.2.26.47.44.67.7.73.87 1.51 1.74 2.4 2.49.4.31.85.55 1.31.73.3.09.58.23.85.37.28.12.54.29.81.54.17.17.16.38-.06.71-.11.17-.28.38-.51.6-.23.19-.47.28-.73.3-.23 0-.45 0-.66-.02l-.33-.03c-.1-.03-.2-.06-.3-.1-.37-.16-.76-.32-1.09-.53-.69-.4-1.31-.89-1.84-1.48-.61-.71-1.4-1.24-2.02-1.93-.69-.75-1.29-1.57-1.85-2.4-.35-.51-.65-1.05-.98-1.57l-.67-1.22c-.21-.42-.41-.83-.65-1.22-.35-.62-.83-1.17-1.22-1.78-.08-.14-.19-.26-.26-.4-.23-.54-.11-.79.55-1.15.15-.08.3-.17.45-.24.52-.24 1.05-.18 1.38.11.91.89 1.43 1.92 2.01 2.96.42.77.83 1.56 1.32 2.3l-.06.04ZM203.48 389.54c.28-.25.65-.17.91-.51.03-.04.07-.06.11-.08l.53-.28c.11-.06.23-.13.35-.14.23-.01.41-.23.62-.33.33-.18.66-.38 1.02-.42.2-.02.38-.12.61.04.05.03.11 0 .15-.04.3-.25.63-.38.99-.45.45-.1.88-.29 1.34-.39.38-.09.75-.29 1.16-.19.34.08.51-.27.79-.31.15-.02.29-.04.43-.08a.86.86 0 0 0 .35-.19c.37-.38.82-.55 1.28-.67.49-.13.98-.24 1.46-.39.11-.03.2-.14.3-.22.58-.44 1.3-.49 1.97-.7.25-.08.47-.22.68-.37.32-.24.72-.29 1.09-.43.48-.19.99-.34 1.49-.5.3-.1 1.5-.56 1.77-.73.21-.11 1.23-.47 1.44-.69.05-.03 1.85-1.06 1.91-1.09.34.05.5-.19.78-.24.08-.01.15-.05.24-.06.36.05.53.16.77.52.14.21.25.42.35.66.1.25.18.51.2.74.03.25-.1.42-.2.58-.2.33-.32.79-.59 1.03-.01 0-.27.17-.65.4-.38.22-.89.5-1.41.79-1.04.55-2.1 1.07-2.19 1.15-.03.03-.09.02-.14.03-.29.06-.42.43-.71.49-.04 0-.06.08-.08.13-.03.08-1.07.31-1.12.4-.14.23-.35.28-.57.31-.16.02-.29.16-.43.25-.04.03-.06.09-.11.09-.46-.01-.74.38-1.11.56-.23.12-.51.1-.76.17-.11.03-.21.12-.32.17-.17.08-.36.12-.53.2-.08.03-.15.1-.23.14-.09.04-.18.14-.28.1-.28-.1-.46.08-.67.15-.27.1-.56.16-.84.24-.29.09-.58.16-.87.27-.5.19-1.01.38-1.52.56-.48.17-.97.31-1.46.47-.37.12-.73.3-1.12.34-.26.04-.54.02-.78.15-.05.02-.11.03-.17 0-.24-.1-1.34.06-2.42.23-.27.04-.54.08-.8.11h-.73c-.44 0-.76 0-.85-.02-.17-.02-.54.03-.89.03-.37-.1-.71-.3-.78-.4-.12-.21-.22-.38-.28-.53-.04-.09 0-.21 0-.33 0-.11.11-.24.25-.35.09-.07.16-.28.27-.38ZM210.48 402.3c.28-.15.59-.1.85-.38.03-.03.07-.05.11-.07.16-.07.33-.1.49-.15.11-.03.21-.07.32-.05.2.03.38-.1.57-.2.3-.15.6-.31.91-.33.17-.01.33-.11.51.04.04.03.09 0 .13-.04.28-.23.56-.32.87-.37.39-.06.75-.3 1.14-.37.33-.07.64-.25.99-.13.29.1.43-.24.67-.27.12-.02.25-.02.37-.07.1-.04.21-.08.29-.18.31-.37.67-.55 1.06-.64.42-.09.83-.19 1.24-.32.1-.03.16-.14.24-.21.46-.43 1.07-.46 1.64-.65.2-.08.38-.22.54-.38.25-.24.6-.28.89-.43.4-.2.82-.34 1.25-.51.25-.12 1.23-.62 1.44-.79.16-.13 1.01-.53 1.17-.75.02-.02.39-.32.78-.59.2-.14.4-.26.54-.37.14-.11.24-.18.25-.18.36.06.42-.22.66-.3.07-.02.12-.06.2-.08.25-.07.43.04.83.5.47.53.78 1.05.93 1.53.08.24-.03.4-.1.55-.15.29-.13.79-.33 1.05-.01 0-.22.17-.53.42-.32.23-.73.55-1.18.84-.87.59-1.79 1.15-1.86 1.23-.02.04-.08.02-.13.03-.26.07-.32.45-.58.53-.04 0-.04.08-.05.14-.01.08-.96.35-.99.44-.09.24-.28.31-.49.34-.15.03-.25.17-.37.27-.03.03-.04.1-.09.1-.44-.01-.64.41-.97.6-.2.12-.47.11-.7.18-.1.03-.18.13-.28.18-.16.08-.32.14-.48.21-.08.03-.14.1-.21.14-.08.04-.16.14-.26.1-.27-.11-.42.07-.62.14-.25.1-.52.16-.78.23-.27.08-.54.14-.81.23-.47.16-.94.31-1.42.45-.45.14-.92.21-1.37.32-.35.07-.69.23-1.07.16-.25-.03-.5-.07-.73.02-.05.02-.1.01-.15-.02-.22-.14-1.24-.14-2.23-.2-1-.05-1.97-.12-2.14-.2-.3-.07-1.33-.31-1.41-.52a3.08 3.08 0 0 1-.16-.49c-.02-.09.03-.19.06-.3.03-.1.13-.17.27-.22.09-.03.19-.17.29-.21ZM216.88 419.43c.13-.1.29.03.41-.23.01-.03.03-.04.05-.05.08-.05.16-.09.24-.13.05-.02.1-.06.15-.05.1.02.19-.07.28-.15.14-.11.28-.23.45-.21.09.01.17-.05.28.12.02.04.05 0 .07-.02.13-.18.27-.24.44-.25.21-.02.4-.13.6-.17.17-.04.33-.16.54-.03.17.11.22-.18.35-.18.07 0 .14 0 .2-.02s.11-.04.15-.12c.14-.29.33-.38.55-.43.23-.05.46-.09.68-.15.05-.01.08-.1.12-.15.22-.31.59-.24.9-.33.11-.03.2-.12.29-.22.13-.16.33-.14.5-.2.22-.09.48-.09.73-.12.16-.01.73-.17.87-.23.1-.05.61-.13.7-.25-.03-.09 1.06-.2 1.07-.23.23.13.27-.03.42-.03.04 0 .08-.01.12-.01.15 0 .25.09.46.41.24.36.4.71.47 1.01.04.16-.02.25-.07.33-.09.16-.06.54-.16.7 0 0-.11.11-.26.27-.08.08-.16.18-.27.26-.12.06-.24.13-.37.2-.5.28-1.02.52-1.05.59-.01.02-.05 0-.07 0-.15 0-.16.3-.32.31-.02 0-.02.06-.02.1 0 .07-.54.13-.56.18-.04.18-.15.18-.27.17-.09 0-.14.09-.2.15-.02.02-.02.07-.05.06-.26-.09-.36.2-.53.31-.11.07-.27 0-.4.03-.06 0-.1.07-.15.1-.09.04-.18.06-.26.09-.04.02-.07.06-.11.08-.04.02-.08.09-.14.04-.17-.13-.24 0-.35.03-.14.05-.28.06-.43.09-.15.03-.3.06-.44.11-.25.09-.5.2-.75.28-.24.08-.48.15-.73.21-.19.05-.36.15-.57.15-.14 0-.28-.04-.4.05-.02.02-.05.02-.09-.01-.13-.11-.69-.08-1.25-.05-.55.07-1.13-.07-1.23-.1-.09-.03-.28 0-.46-.03-.18.02-.35-.24-.37-.38-.04-.3-.08-.57-.09-.81 0-.15.02-.32.03-.49.01-.16.07-.27.14-.34.05-.06.09-.26.14-.27ZM255.62 385.15c.33-.42.81-.67 1.05-1.21a.7.7 0 0 1 .13-.17l.64-.69c.15-.12.3-.27.47-.34.34-.15.55-.46.81-.72.4-.45.88-.78 1.41-1.01.29-.12.55-.32.91-.24.08.02.16-.05.22-.11.41-.41.9-.68 1.42-.91.67-.29 1.3-.67 1.96-1 .55-.27 1.09-.65 1.71-.69.51-.04.75-.49 1.16-.64.22-.08.44-.15.65-.24.18-.09.37-.18.52-.32.57-.55 1.26-.86 1.97-1.12.75-.26 1.52-.52 2.26-.77.18-.06.33-.2.49-.31.95-.62 2.06-.79 3.12-1.1.39-.12.76-.3 1.12-.5.55-.31 1.18-.39 1.77-.57.8-.24 1.61-.43 2.42-.6.5-.12 2.47-.62 2.95-.77.36-.12 2.04-.43 2.47-.63.04-.02.88-.25 1.73-.46.42-.1.84-.21 1.16-.29.32-.08.54-.12.54-.12.47.18.82-.17 1.28-.05.15.04.25.06.41.1.46.15.6.28.67.73.08.51-.01 1.04-.21 1.65-.1.32-.35.52-.58.63-.46.23-.84.73-1.32.91-.04.01-1.63.43-3.25.86-1.61.44-3.24.93-3.39 1.03-.05.04-.13.02-.2.02-.41.05-.71.46-1.12.51-.06 0-.11.09-.15.15-.06.08-1.56.33-1.65.43-.24.26-.54.32-.87.36-.23.03-.43.19-.65.3-.06.03-.1.11-.17.11-.64 0-1.1.46-1.64.71-.34.15-.73.16-1.09.26-.16.05-.3.16-.46.23l-.77.29c-.12.05-.22.13-.34.19-.13.06-.26.18-.41.15-.38-.08-.64.16-.95.28-.39.16-.8.28-1.19.43-.41.15-.82.3-1.22.49-.7.33-1.41.66-2.12.99-.67.3-1.34.6-2.02.9-.51.24-.99.54-1.53.72-.36.13-.73.23-1.03.48a.35.35 0 0 1-.22.08c-.33 0-1.8.65-3.18 1.42-.34.21-.73.32-1.07.47-.34.15-.66.3-.95.43-.59.22-1.05.35-1.18.39-.46.17-1.99.89-2.27.72-.25-.14-.46-.27-.62-.42-.1-.09-.11-.25-.16-.4-.04-.14.07-.32.23-.5.12-.12.15-.36.28-.51ZM263.8 403.99c.35-.41.88-.61 1.2-1.06.04-.05.1-.1.15-.14l.73-.58c.16-.12.31-.26.48-.34.34-.16.58-.43.85-.68.44-.39.88-.81 1.39-1.09.28-.15.53-.37.86-.37.07 0 .15-.08.21-.14.4-.43.86-.77 1.37-1.04.66-.34 1.27-.78 1.91-1.16.55-.31 1.07-.72 1.68-.84.5-.1.73-.56 1.13-.75.21-.1.43-.19.63-.3.18-.11.36-.22.51-.38.53-.63 1.22-.98 1.92-1.3.74-.33 1.5-.66 2.24-.99.18-.08.32-.23.48-.35.92-.71 2.04-.99 3.08-1.42.39-.16.75-.38 1.1-.62.54-.36 1.17-.52 1.76-.76.8-.32 1.61-.6 2.43-.86.52-.18 2.49-.88 2.97-1.05.36-.15 2.08-.62 2.52-.84a32 32 0 0 1 1.78-.58c.44-.13.88-.25 1.21-.35.33-.09.57-.15.57-.15.5.17.88-.16 1.33-.2.14.02.27.01.41.03.47.08.61.25.69.83.1.67.01 1.31-.2 1.91-.1.34-.39.4-.61.51-.46.19-.83.74-1.3.92-.02 0-.43.12-1.03.29-.6.19-1.4.45-2.21.71-1.61.56-3.24 1.17-3.38 1.29-.05.04-.13.03-.2.04-.42.08-.7.51-1.11.6-.06.01-.1.09-.14.16-.06.08-1.57.48-1.65.58-.23.28-.53.37-.86.44-.24.06-.43.23-.64.36-.06.04-.1.12-.16.13-.65.07-1.09.56-1.64.86-.33.18-.74.23-1.1.37-.16.06-.3.19-.46.27l-.77.36c-.12.06-.22.15-.34.22-.13.07-.26.2-.41.19-.4-.04-.65.21-.96.36-.39.19-.8.36-1.2.54-.41.19-.83.37-1.23.59-.71.39-1.44.74-2.16 1.11-.69.34-1.38.68-2.07 1.01-.53.26-1.03.57-1.58.78-.38.15-.75.28-1.07.52a.49.49 0 0 1-.24.08c-.71.01-6.1 2.76-6.56 3.02-.24.1-.68.44-1.16.65-.47.22-.92.39-1.04.33-.24-.12-.45-.24-.6-.39-.1-.09-.11-.25-.14-.39-.03-.13.09-.3.27-.47.13-.12.18-.34.32-.47ZM275.73 421.41c.33-.38.79-.61 1.06-1.06.03-.05.08-.1.13-.15.22-.19.46-.35.69-.52.15-.11.3-.23.46-.29.32-.13.55-.37.82-.59.42-.34.84-.71 1.33-.94.26-.13.5-.32.81-.31.06 0 .14-.07.2-.12.39-.38.83-.67 1.31-.9.61-.31 1.18-.72 1.77-1.07.51-.29.99-.66 1.55-.78.46-.09.67-.51 1.05-.69.2-.09.4-.17.58-.28.17-.1.33-.2.47-.35.5-.56 1.1-.95 1.76-1.23.68-.31 1.38-.62 2.06-.92.16-.07.29-.22.44-.33.84-.67 1.87-.93 2.83-1.34.35-.15.69-.36 1.01-.59.49-.35 1.07-.5 1.61-.73.73-.31 1.47-.58 2.22-.83.46-.16 2.25-.88 2.69-1.07.33-.15 1.88-.65 2.27-.89.06-.04 3.12-1.26 3.18-1.2.48.17.8-.17 1.21-.22.12-.01.23-.06.35-.07.41-.03.57.14.75.82.21.77.24 1.48.09 2.04-.07.29-.32.42-.52.55-.41.24-.68.87-1.12 1.05-.02 0-.4.13-.96.32-.56.2-1.31.45-2.06.72-1.5.54-3.02 1.13-3.14 1.24-.05.04-.13.03-.19.04-.39.07-.64.49-1.03.57-.06.01-.09.09-.13.15-.05.08-1.46.44-1.54.54-.21.27-.49.35-.8.41-.22.05-.4.21-.6.34-.05.03-.09.11-.15.12-.61.06-1.02.52-1.52.79-.31.17-.69.2-1.03.33-.15.06-.28.17-.43.25l-.72.33c-.11.05-.21.14-.32.2-.12.07-.24.18-.38.17-.37-.04-.61.19-.9.32-.37.17-.75.32-1.12.48-.39.17-.77.34-1.16.51l-2.04.96c-.65.3-1.3.59-1.95.88-.5.23-.98.49-1.49.68-.35.13-.7.25-1.01.45-.06.04-.14.07-.22.08-.32.02-1.73.66-3.11 1.33-.68.34-1.36.69-1.9.96-.53.29-.92.49-1.05.51-.45.16-1.89.86-2.12.76-.2-.09-.37-.17-.49-.26-.07-.06-.07-.19-.09-.3-.02-.1.1-.26.27-.42.12-.11.18-.3.31-.43ZM324.1 352.22c.31-.1.65.06.95-.21.04-.03.08-.04.12-.05.18-.05.37-.09.55-.1.12-.01.24-.04.35 0 .23.07.43-.04.64-.1.34-.1.68-.21 1.03-.18.19.02.38-.04.57.15.04.04.1.01.15-.01.33-.17.66-.22 1-.22.44 0 .88-.12 1.32-.18.37-.05.74-.19 1.12-.07.31.09.51-.21.77-.22.14 0 .28-.01.42-.04.12-.03.24-.06.35-.14.39-.32.83-.42 1.28-.48.47-.08.95-.16 1.41-.24.11-.02.2-.11.3-.18.57-.38 1.27-.35 1.9-.54.23-.06.45-.18.67-.31.32-.2.69-.26 1.05-.37.46-.14.94-.29 1.43-.43.31-.07 1.43-.55 1.7-.69.21-.09 1.17-.48 1.39-.67.03-.01.48-.28.94-.54.23-.14.47-.25.65-.33.18-.09.3-.15.31-.15.35.07.47-.21.73-.29.1-.01.15-.02.25-.03.3 0 .44.08.67.47.26.43.41.88.46 1.36.04.26-.12.38-.23.51-.24.25-.31.74-.58.97a6.7 6.7 0 0 1-.62.37c-.37.21-.86.48-1.37.73-1 .53-2.06.98-2.14 1.07-.03.03-.09.02-.13.03-.28.06-.43.38-.71.44-.04 0-.06.07-.08.12-.03.07-1.04.31-1.1.37-.15.2-.35.25-.57.28-.16.02-.29.15-.43.23-.04.02-.07.09-.11.09-.44-.02-.75.32-1.12.48-.23.1-.5.09-.75.14-.11.02-.21.1-.32.14-.18.05-.35.11-.53.16-.08.03-.16.08-.24.12-.09.04-.18.12-.28.08-.26-.11-.45.04-.67.09-.28.07-.56.11-.84.18-.29.06-.59.1-.88.17-.51.13-1.02.28-1.55.35-.49.08-.99.16-1.48.21-.38.05-.75.14-1.14.13-.26 0-.52-.04-.77.05a.22.22 0 0 1-.16 0c-.44-.18-4.3.1-4.64-.05-.32-.05-1.43.09-1.52-.31-.08-.36-.14-.72-.17-1.07-.02-.22.03-.45.07-.68.03-.21.15-.31.3-.34.1-.02.2-.23.32-.25ZM331.94 321.99c.21-.07.42.09.64-.15.02-.03.05-.03.08-.04.13-.03.25-.07.37-.1.08-.02.16-.05.23-.03.15.05.29-.09.43-.17.22-.14.45-.24.69-.22.13 0 .26-.06.4.11.03.03.07 0 .1-.02.21-.18.43-.23.67-.25.31-.02.6-.17.9-.24.26-.06.5-.23.78-.12.23.09.34-.21.52-.24.1-.02.2-.02.29-.06.08-.03.17-.07.23-.16.23-.34.53-.47.84-.56.33-.1.66-.17.98-.28.08-.03.13-.13.19-.2.36-.42.87-.38 1.33-.5.17-.05.32-.16.46-.28.21-.19.5-.2.75-.28.34-.11.7-.18 1.06-.26.22-.04 1.06-.34 1.24-.45.15-.07.88-.26 1.02-.43.01-.02.36-.17.69-.34.16-.1.35-.14.49-.18.14-.04.24-.06.24-.06.31.18.37-.07.58-.07.06 0 .11-.03.17-.03.21 0 .35.15.66.67.35.6.58 1.16.67 1.62.05.24-.06.35-.13.46-.16.22-.15.72-.33.91 0 .14-2.98 1.25-3.09 1.39-.02.03-.07 0-.1 0-.22 0-.28.34-.49.35-.03 0-.04.07-.05.12-.01.08-.78.15-.81.22-.08.21-.23.23-.4.23-.12 0-.2.12-.29.2-.03.02-.04.09-.07.08-.35-.08-.52.26-.78.4-.16.09-.37.04-.55.07-.08.02-.15.09-.23.11-.13.04-.26.07-.39.1-.06.02-.11.07-.17.1-.07.03-.12.11-.21.05-.22-.14-.34 0-.5.04-.2.05-.42.07-.62.11-.21.04-.43.08-.64.13-.36.1-.75.2-1.11.3-.36.08-.72.14-1.08.21-.27.06-.55.14-.84.13-.2 0-.39-.03-.57.06-.04.02-.08.02-.12 0-.18-.11-.97-.05-1.78-.03-.81 0-1.62-.15-1.75-.17-.24-.03-1.13-.02-1.16-.34-.03-.31-.05-.61-.03-.9 0-.18.07-.38.11-.57.04-.17.13-.25.23-.27.07-.01.15-.18.23-.19ZM329.82 306.12c.17-.18.37-.13.53-.38.02-.03.04-.04.07-.05.11-.05.21-.09.31-.13.07-.02.13-.07.2-.04.14.04.24-.09.36-.19.18-.17.38-.26.59-.22.11.02.22-.03.35.16.03.04.06.01.09-.01.18-.18.37-.23.58-.22.27.02.51-.11.77-.15.22-.04.43-.17.67-.03.2.12.29-.18.45-.18.08 0 .17 0 .25-.01.07-.02.14-.05.2-.13.21-.32.47-.38.74-.41.28-.03.59-.06.86-.09.07 0 .12-.09.17-.15.33-.32.77-.19 1.16-.26.15-.02.28-.11.4-.2.19-.15.43-.11.65-.15.3-.05.6-.07.91-.1.19-.01.91-.16 1.08-.23.13-.04.76-.1.89-.23.01 0 .31-.11.62-.19.3-.08.62-.15.62-.15.24.19.32-.02.49 0h.14c.18.04.28.2.51.74.25.62.4 1.18.44 1.62.02.23-.07.31-.15.39-.15.17-.2.58-.37.7-.01.09-2.56.7-2.66.81-.02.02-.06 0-.09-.01-.18-.03-.26.27-.43.26-.03 0-.04.06-.05.1-.01.07-.65.03-.68.09-.08.18-.21.18-.34.16-.1-.01-.17.09-.26.14-.02.01-.03.07-.06.06-.28-.12-.45.18-.67.28-.14.06-.31 0-.46 0-.07 0-.12.07-.19.09-.11.03-.21.05-.32.08-.05.02-.09.06-.14.08-.05.02-.1.1-.17.04-.17-.15-.28-.02-.4 0-.16.04-.34.05-.5.07-.17.03-.35.05-.52.09-.3.08-.6.17-.91.23-.3.05-.58.1-.88.16-.22.04-.44.12-.68.1-.16-.02-.32-.04-.46.05-.03.02-.06.02-.1-.01-.14-.12-.79-.07-1.43-.03-.65 0-1.29-.09-1.4-.1-.19.09-.89-.21-.96-.5-.07-.3-.12-.57-.16-.83-.02-.16 0-.34 0-.52a.4.4 0 0 1 .15-.33c.06-.04.1-.24.17-.3ZM189.79 358.53c.11.49.12 1.01 0 1.51-.11.5-.37.99-.7 1.35-.24.26-.47.53-.77.69a2.9 2.9 0 0 1-1.74.32c-.59-.08-1.24-.37-1.55-.89-.28-.43-.47-.87-.49-1.33-.06-.56.15-1.26.71-1.53.17-.08.28.13.4.39.11.26.37.54.45.63.11.19.36.29.42.35.13.05-.03 0 .04.2.11.21.41.04.59-.09.23-.15.38-.31.41-.65.01-.2-.04-.43-.15-.6-.17-.26-.41-.44-.71-.35-.24.06-.36.39-.38.55 0 .04.02.08.01.1-.08.04-.26 0-.83 0l-.38.02c-.41.03-.81-.18-.88-.7-.08-.77.39-1.47.98-1.88.6-.42 1.42-.61 2.27-.43 1.29.31 2.05 1.34 2.32 2.31l-.06.02ZM200.52 358.05c.08.54.04 1.11-.15 1.65-.19.54-.54 1.01-.94 1.34-.29.24-.58.48-.92.6-.6.21-1.24.24-1.85.08a2.69 2.69 0 0 1-1.45-1.06c-.26-.43-.46-.87-.5-1.33-.02-.29 0-.59.1-.86s.27-.51.43-.72c.11-.13.23 0 .33.18.05.11.11.22.15.3.06.11.16.23.21.32.19.35.52.52.63.67.19.13.21.22.33.36.17.21.54.08.77-.06.29-.15.48-.32.53-.67.02-.21-.01-.47-.13-.68-.17-.33-.5-.58-.77-.52-.25.04-.43.39-.38.52-.03.01.07.06-.03 0-.12-.05-.11-.03-.12-.04-.13 0-.32.03-.62.1-.14.03-.27.08-.4.12-.42.16-.94.04-1.04-.62-.06-.47.06-.96.28-1.36.25-.37.57-.65.93-.85.36-.2.76-.33 1.2-.37.43-.04.97.04 1.38.21 1.23.51 1.88 1.58 2.1 2.65l-.06.02ZM207.58 355.27c.01 1.28-.63 2.25-1.39 2.91-.28.25-.56.5-.92.65-.63.26-1.37.32-2.01.14-.65-.19-1.13-.61-1.48-1.03-.31-.39-.57-.79-.7-1.24-.19-.56-.2-1.23.15-1.73.1-.15.23-.06.39.11.14.18.38.41.5.58.18.33.48.55.7.73.23.2.44.31.63.44.24.19.52.03.78-.16.31-.2.57-.57.66-.93.06-.22.08-.43-.02-.66-.13-.34-.47-.69-.83-.69-.27 0-.47.28-.56.45-.02.04-.01.1-.05.11-.13.04-.31-.03-.91-.19l-.39-.09c-.39-.07-.8-.44-.7-1.01.1-.86.79-1.5 1.61-1.84.86-.3 1.93-.15 2.67.29 1.13.64 1.86 1.79 1.95 3.13h-.07ZM215.02 349.71c-.05.77-.2 1.51-.58 2.28-.14.27-.25.57-.47.82-.41.46-.93.76-1.48.91-.54.15-1.19.15-1.72-.14-.52-.23-.87-.7-1.02-1.14-.1-.29-.18-.59-.13-.91.04-.32.22-.65.51-.82.19-.11.32.16.48.43.15.29.49.48.57.49.06.03.12.07.19.08.04 0 .08 0 .11-.02.02-.01.02-.01-.01.01l-.06.06c.11-.33-.01-.16.18-.05.11.06.24.02.33-.06.1-.08.14-.17.24-.29.19-.25.35-.67.4-1.15.02-.14.03-.31.03-.4 0-.1-.01-.11.03-.12 0 .02 0-.06-.13-.08-.11-.02-.26 0-.35.08-.15.11-.2.43-.24.74-.01.07 0 .15-.02.22-.08.27-.29.31-.92.14l-.43-.11c-.47-.15-.81-.42-.86-.75-.05-.47.02-1.02.4-1.6.21-.3.4-.55.82-.82.39-.24.81-.36 1.24-.4.63-.05 1.39.07 2.07.65.33.28.6.7.72 1.06.12.36.15.67.15.89h-.06ZM76.68 128.48c-.72.61-1.72.96-2.6 1.03-.76.07-1.43 0-2.07-.11-.63-.12-1.25-.3-1.82-.53-.5-.2-1-.41-1.5-.64-1.98-.91-3.94-2.1-5.58-3.76-.59-.61-1.16-1.26-1.63-1.97l-.69-1.08c-.22-.37-.37-.8-.54-1.2-.53-1.45-.8-3.18-.33-4.79.42-1.6 1.35-2.96 2.45-3.99 1.09-1.06 2.38-1.78 3.68-2.36 1.31-.58 2.69-.94 4.08-1.15 1.24-.21 2.51-.22 3.73-.15 1.23.08 2.47.26 3.67.62.77.22 1.52.53 2.25.88.71.38 1.39.82 2 1.32.62.5 1.2 1.03 1.69 1.64.47.62.91 1.26 1.31 1.91.48.82.24.84-.55.51-.4-.17-.96-.4-1.62-.65-.33-.13-.69-.25-1.03-.41-.33-.18-.66-.35-.99-.56-.58-.35-1.17-.68-1.77-.92-.6-.26-1.18-.51-1.79-.68a14.04 14.04 0 0 0-3.88-.52c-2.62-.09-5.34.48-7.59 1.82-1.32.8-2.41 2.01-2.71 3.38-.31 1.37.09 2.86.93 4.25.85 1.57 2.27 2.78 3.88 3.78.81.49 1.68.92 2.57 1.3.44.18.94.38 1.34.52.41.14.84.24 1.25.28.49.06 1.01.03 1.22-.04.28-.07.54-.27.65-.55.12-.31.1-.6-.05-.97-.17-.43-.5-.86-.86-1.3-2.21-2.51-6.1-3.43-9.52-2.78-2.71.37-4.63 2.31-6.13 4.46-.32.48-.59.97-.85 1.47-.48.92-.75 1.52-1 1.91-.25.4-.56.61-.98.84-.2.1-.39.26-.58.35-.32.15-.63 0-.89-.56-.22-.53-.32-1.44-.07-2.45.73-2.99 2.44-5.65 5.13-7.59.34-.24.71-.46 1.07-.68.39-.19.77-.4 1.19-.56.88-.34 1.62-.53 2.42-.68 1.59-.3 3.22-.36 4.85-.15 2.21.28 4.43 1.13 6.31 2.57.94.75 1.73 1.61 2.43 2.65.18.28.34.57.49.9.07.16.14.33.21.51.07.19.14.43.19.65.21.89.17 1.84-.16 2.67-.25.61-.64 1.17-1.14 1.6l-.06-.05ZM66.19 270.92c1.7-.32 3.63.67 4.38 2.11.77 1.4.79 2.72.62 3.94-.36 2.32-1.59 4.31-3.06 5.81-1.07 1.11-2.24 2.08-3.53 2.82-1.14.64-2.31 1.19-3.63 1.57-1.3.37-2.78.57-4.23.23-1.45-.3-2.74-1.08-3.72-2.04-1-.96-1.71-2.13-2.23-3.33-.45-1.08-.75-2.22-.86-3.38-.09-1.16-.04-2.29.16-3.42.27-1.44.84-2.86 1.74-4.05a8.979 8.979 0 0 1 3.42-2.63c.82-.35.82 0 .4.66-.43.67-1.16 1.76-1.84 2.89-.66.98-1.07 2.07-1.23 3.22-.09.57-.11 1.16-.09 1.75.01.6.08 1.19.2 1.73.39 2.22 1.68 4.41 3.51 5.38 1.09.59 2.44.59 3.85.13 1.4-.46 2.84-1.28 4.08-2.17 1.37-.99 2.56-2.21 3.27-3.63.35-.69.59-1.48.68-2.2.07-.71-.07-1.43-.36-1.8-.36-.44-.87-.6-1.63-.23-.75.37-1.48 1.15-2 1.99-.75 1.37-1.41 2.97-1.81 4.56-.39 1.61-.55 3.27-.39 4.88.1 1.25.47 2.45 1.02 3.48.52 1.06 1.3 1.91 2.18 2.56l.6.41c.22.1.44.19.66.31 1.64.78 2.26.96 2.59 1.85.08.2.19.4.24.59.07.32-.12.57-.58.73-.46.13-1.19.3-2.1.07-1.39-.18-2.73-.89-3.95-1.78-1.14-.98-2.18-2.19-2.77-3.58-1.27-2.77-1.37-5.77-.99-8.57.32-2.08.96-4.09 1.87-5.97l.34-.71c.15-.27.3-.53.46-.78.33-.5.7-.97 1.12-1.41.86-.85 1.87-1.75 3.58-2.07l.02.08ZM451.08 254.68c-.76.02-1.27.25-1.62.62-.16.18-.23.33-.26.46-.02.16-.01.3.08.53.2.46.85 1.08 1.62 1.52.19.11.39.22.6.32.23.1.46.21.7.31.47.2.95.37 1.44.53 1.42.47 2.91.67 4.4.8 1.32.11 2.64.1 3.89-.11.63-.1 1.24-.25 1.83-.46a8.05 8.05 0 0 0 1.67-.73c1.03-.59 1.84-1.47 2.26-2.54.44-1.06.5-2.33.18-3.58-.56-2.23-2.16-4.23-4.23-5.4-2.68-1.57-5.91-2.2-9.09-2.89-1-.22-.84-.4.06-.56.89-.14 2.53-.35 4.47-.08 1.71.26 3.46.65 5.13 1.42.84.38 1.64.83 2.43 1.41.77.58 1.46 1.27 2.06 2.02 1.2 1.51 2.06 3.38 2.24 5.47.08 1.04 0 2.14-.39 3.17a7.685 7.685 0 0 1-1.68 2.72c-1.77 1.83-4.05 2.81-6.3 3.24-2.28.44-4.53.42-6.73.07-1.2-.2-2.39-.5-3.54-.9-1.14-.42-2.25-.86-3.39-1.6-1.07-.74-2.19-1.68-2.74-3.25-.26-.78-.28-1.67-.02-2.47.26-.81.75-1.47 1.33-1.96.7-.6 1.58-.99 2.43-1.15.85-.16 1.69-.12 2.46-.02 1.54.22 2.95.69 4.32 1.33 2.05.98 3.91 2.48 5.2 4.44 1.28 1.97 1.92 4.32 1.75 6.67-.1 1.83-.78 3.66-1.9 5.14-1.11 1.5-2.6 2.62-4.17 3.42-.69.35-1.36.69-2.08.94-1.33.49-2.25.56-2.9.56-.66-.03-1.07-.22-1.45-.57-.17-.16-.38-.3-.49-.47-.39-.56.57-1.31 2.26-2.14 1.25-.62 2.48-1.17 3.53-1.89 1.06-.71 1.95-1.46 2.6-2.32.63-.88 1.02-1.81 1.13-2.9.11-1.08-.05-2.25-.48-3.32-.6-1.56-1.83-2.98-3.41-3.99-.78-.52-1.66-.93-2.57-1.24-.92-.3-1.88-.55-2.61-.49v-.08ZM133.74 144.55c.08-.12.18-.23.3-.32l-.34.26c.1-.08.22-.14.34-.18l-.45.17c.09-.03.19-.05.28-.07l-.54.07c.1-.01.2-.02.3-.01l-.61-.03c.1 0 .2.02.3.04l-.65-.14c.1.02.2.05.3.09l-.62-.23c.12.05.23.1.34.16l-.53-.3c.11.07.21.14.31.22l-.42-.36c.12.1.23.22.32.34l-.29-.39c.1.13.18.28.24.43l-.14-.4c.07.19.1.38.09.58l.02-.39c0 .11-.03.22-.05.32-.12.43.13.87.41 1.17.2.21.42.38.68.51.27.18.56.3.88.39.57.15 1.22.26 1.8.09.4-.12.86-.31.98-.76.08-.28.09-.58.08-.87s-.13-.57-.24-.83c-.09-.23-.23-.41-.38-.61s-.29-.38-.47-.53-.38-.35-.59-.49c-.23-.16-.47-.29-.72-.42-.07-.04-.14-.07-.21-.1-.27-.11-.54-.22-.82-.31-.86-.26-1.77-.33-2.65-.15-.31.06-.64.18-.91.35s-.53.37-.71.63c-.15.15-.22.33-.2.53-.04.21 0 .41.13.59.13.23.29.41.5.56.21.2.46.37.74.48.58.26 1.23.45 1.87.4l.54-.07c.31-.06.57-.2.79-.42ZM110.05 346.16c.09.42.12.54.1.38v-.08l.03.43c0-.11 0-.21.02-.32l-.06.33c.05-.24.15-.44.3-.63l-.17.2c.11-.12.24-.22.38-.29l-.25.04.06.02-.31-.11c.8.29 1.56.68 2.26 1.17l-.35-.25c.35.25.68.51.99.8.18.17.64.48.92.32s.24-.71.2-.96c-.21-1.16-.9-2.28-1.75-3.07s-1.91-1.51-3.01-1.98c-.12-.05-.25-.1-.37-.15-.23-.09-.48-.23-.72-.19-.32.05-.54.33-.73.58-.17.22-.23.46-.28.73-.11.56 0 1.09.15 1.64.09.3.22.59.37.86.14.3.31.59.51.86.16.24.35.46.56.66.16.17.34.32.54.43.25.11.59.21.73-.13.16-.4 0-.88-.1-1.27ZM66.59 231.76c-.95-.04-1.93.09-2.82.4-.42.15-.83.35-1.21.57-.21.13-.43.29-.57.5-.12.19-.2.4-.28.6-.07.19-.11.38-.11.59 0 .32 0 .65.1.96.2.66.59 1.25 1.1 1.71.44.4.97.69 1.52.9.29.12.6.2.91.26.32.06.66.11.99.1.53-.01 1.14-.06 1.6-.38.33-.23.59-.65.47-1.07-.14-.48-.53-.85-.96-1.09-.55-.31-1.22-.53-1.86-.52h-.21l.66.08c-.08 0-.16-.02-.24-.05l.64.18c-.08-.02-.15-.05-.23-.08l.56.26c-.1-.05-.19-.1-.28-.16l.45.32c-.12-.09-.23-.19-.33-.3l.33.37a2.18 2.18 0 0 1-.33-.52l.18.4c-.11-.24-.17-.49-.18-.75v.4c0-.24.05-.48.14-.7l-.16.37c.04-.09.09-.17.14-.25l-.32.3c.15-.1.31-.19.47-.27l-.44.22c.29-.14.59-.25.91-.33l-.54.13c.28-.07.55-.11.84-.12l-.61.03h.42c.5.02 1.17-.08 1.6-.38.33-.23.59-.65.47-1.07-.14-.48-.53-.85-.96-1.09a4.19 4.19 0 0 0-1.86-.52ZM430.57 180.9c.06.03.12.07.18.1l-.51-.31c.17.11.33.24.47.38l-.39-.4c.2.21.36.44.5.69l-.25-.48c.15.29.25.59.31.91l-.09-.53c.05.33.06.67 0 1l.09-.53c-.05.27-.13.52-.26.76l.25-.48-.02.04c-.18.22-.28.47-.3.74-.07.27-.06.53.04.8.17.51.66.99 1.15 1.19.59.25 1.29.37 1.93.2l.6-.2c.36-.16.66-.4.9-.72.17-.32.36-.64.47-.99s.16-.71.19-1.07c.05-.55-.05-1.14-.21-1.66s-.43-1.05-.77-1.48c-.48-.62-1.05-1.06-1.74-1.42-.54-.29-1.34-.33-1.93-.2-.53.12-1.19.44-1.49.92s-.46 1.01-.25 1.54c.22.55.63.92 1.15 1.19ZM416.27 318c-.2.9-.01 1.83.36 2.65s1.05 1.44 1.83 1.85c1.8.95 4.28.35 5.66-1.07.3-.31.57-.7.62-1.15.04-.37-.1-.82-.41-1.06-.73-.55-1.88-.32-2.5.32-.1.1-.2.19-.31.28l.4-.3c-.17.13-.35.23-.54.32l.45-.21c-.19.09-.39.15-.6.2l.46-.1c-.23.05-.46.08-.7.08h.44c-.24 0-.47-.03-.7-.08l.4.1c-.25-.06-.49-.16-.71-.28l.34.2c-.28-.17-.52-.37-.73-.62l.26.3c-.22-.27-.4-.56-.52-.89l.14.37c-.11-.31-.18-.62-.2-.94l.02.39c0-.26.01-.5.07-.75.08-.36-.14-.83-.41-1.06-.31-.25-.8-.36-1.18-.3-.48.07-.97.27-1.31.62s-.52.69-.62 1.15ZM128.71 211.34c.28.14.12.5-.28.99-.13.16-.63.46-.74.44-.22-.04-.43-.08-.61-.15-.11-.04-1.18-1.11-1.57-1.45-.38-.33-.67-.72-.95-1.12l-1.87-2.32c-.14-.17-.24-.36-.32-.58-.23-.74-.63-1.38-1.11-1.96-.08-.1-.13-.22-.31-.25-.29-.05-1.44-1.74-1.5-2.01-.15-.68-.38-1.31-.57-1.96-.03-.09-.13-.15-.03-.31.22-.37.07-.51 0-.71-.1-.27-.19-.54-.23-.85-.02-.15.09-.38.15-.58.06-.18.51-.39.58-.38.2.02.35-.19.52-.31.06-.04.13-.09.18-.12.12-.06 1.83.77 1.96.9.06.02 1.48 1.9 1.68 2.09.1.1.1.27.13.42.02.07 1.22 1.54 1.25 1.61.17.36.47.63.41 1.12-.01.1.04.16.09.22.4.54.6 1.21.85 1.84.13.32.32.61.48.91.03.06.02.13.04.2.02.08.02.17.06.24.39.71.69 1.49 1.2 2.13.11.15.32 1.07.47 1.24.08.09-.07.65.05.71ZM121.93 217.96c.18-.21.44.07.73.63.09.18.22.76.17.86-.09.19-.17.38-.27.52-.06.08-1.19.69-1.57.93-.36.23-.75.36-1.14.47l-2.38.73c-.18.05-.36.07-.55.06-.65-.05-1.27.1-1.86.33-.1.04-.21.05-.28.19-.12.23-1.76.7-2 .67-.58-.09-1.15-.09-1.72-.14-.08 0-.15.06-.25-.07-.24-.31-.39-.21-.56-.19-.24.02-.48 0-.74-.06-.13-.03-.28-.21-.43-.35-.13-.12-.19-.66-.17-.72.07-.19-.07-.42-.13-.63-.02-.07-.05-.17-.05-.23-.02-.14 1.09-1.37 1.25-1.36.02 0 .49-.16 1-.33.5-.17 1.03-.35 1.13-.4.11-.05.24 0 .37.03.06 0 1.56-.54 1.62-.54.33-.02.63-.19 1.01.02.08.04.14.02.2 0 .54-.14 1.12-.14 1.69-.17.29-.02.57-.11.85-.15.05 0 .11.02.17.03.07 0 .14.03.2.02.66-.15 1.36-.14 2.01-.37.15-.05.95.1 1.12.02.1-.04.51.31.58.22ZM411.85 129.57c.15.24-.19.43-.77.61-.19.06-.74.05-.83-.02-.16-.14-.32-.28-.44-.42-.07-.09-.47-1.45-.65-1.93-.17-.46-.23-.91-.27-1.36l-.12-1.38c-.02-.46-.03-.92-.03-1.38 0-.2.04-.4.13-.6.28-.67.34-1.36.3-2.07 0-.12.03-.23-.11-.36-.23-.21-.09-2.14.06-2.37.35-.58.6-1.16.94-1.74.05-.08 0-.19.2-.23.45-.09.43-.3.49-.48.09-.25.22-.5.45-.72.11-.11.39-.17.62-.23.21-.06.81.19.87.25.17.17.49.17.75.24.09.02.21.05.27.08.16.08.93 1.65.86 1.77 0 0-.01.14-.03.33-.02.19-.04.45-.06.72-.04.53-.06 1.1-.04 1.22.01.12-.11.23-.19.34-.04.05-.03 1.7-.05 1.77-.11.33-.02.68-.42.98-.08.06-.07.13-.08.2-.04.59-.26 1.16-.42 1.74-.09.3-.07.6-.12.9-.01.05-.07.1-.1.16-.04.07-.09.13-.1.2-.09.71-.37 1.42-.35 2.14 0 .16-.42.94-.39 1.13 0 .11-.45.45-.38.54ZM418.54 134.68c-.2.18-.43-.1-.68-.61-.08-.16-.16-.68-.11-.77.1-.17.21-.33.33-.46.07-.08 1.33-.62 1.78-.81.42-.2.86-.29 1.31-.35.9-.13 1.81-.26 2.72-.32.2-.01.41 0 .6.07.68.22 1.37.22 2.07.22.12 0 .23.03.36-.09.21-.21 2.11.02 2.33.17.55.35 1.11.63 1.63 1 .08.05.18.03.21.2.07.41.26.4.43.48.23.11.46.25.66.44.1.1.15.34.21.54.05.18-.19.69-.24.73-.16.13-.16.41-.23.63-.02.08-.05.17-.08.23-.07.12-1.61.65-1.74.62 0 0-.13-.02-.32-.04s-.43-.04-.69-.06c-.5-.05-1.02-.11-1.13-.09-.11.01-.21-.1-.31-.18-.05-.05-1.56-.05-1.62-.07-.3-.1-.62-.01-.89-.38-.05-.07-.12-.07-.18-.07-.54-.04-1.06-.24-1.6-.36-.28-.07-.55-.05-.83-.08-.05 0-.1-.05-.15-.07-.06-.03-.13-.07-.19-.07-.66-.01-1.34-.17-1.99-.05-.15.02-.91-.23-1.09-.18-.1.02-.48-.33-.56-.25Z" class="cls-4"/></svg>