<svg xmlns="http://www.w3.org/2000/svg" width="157" height="93" fill="none"><g fill="#000"><path d="M0 5.933h10.42v28.102h7.113V5.933h10.42V0H0zM39.319 34.534c7.744 0 12.564-5.301 12.564-13.162 0-7.91-4.82-13.196-12.564-13.196s-12.564 5.285-12.564 13.196c0 7.86 4.82 13.162 12.564 13.162zm.033-5.484c-3.573 0-5.4-3.274-5.4-7.728s1.827-7.744 5.4-7.744c3.507 0 5.335 3.29 5.335 7.744s-1.828 7.728-5.335 7.728zM67.084 34.534c7.744 0 12.564-5.301 12.564-13.162 0-7.91-4.82-13.196-12.564-13.196S54.52 13.461 54.52 21.372c0 7.86 4.82 13.162 12.564 13.162zm.033-5.484c-3.573 0-5.401-3.274-5.401-7.728s1.828-7.744 5.401-7.744c3.507 0 5.335 3.29 5.335 7.744s-1.828 7.728-5.335 7.728zM90.395 0h-7.08v34.035h7.08zM116.369 15.788c-.632-4.703-4.421-7.612-10.869-7.612-6.531 0-10.835 3.025-10.819 7.944-.016 3.823 2.393 6.299 7.379 7.296l4.421.88c2.226.45 3.24 1.264 3.273 2.543-.033 1.513-1.678 2.593-4.154 2.593-2.526 0-4.205-1.08-4.637-3.158L94 26.64c.665 4.886 4.82 7.894 11.583 7.894 6.614 0 11.351-3.374 11.367-8.41-.016-3.689-2.426-5.899-7.378-6.913l-4.62-.93c-2.377-.515-3.258-1.33-3.241-2.56-.017-1.528 1.712-2.526 3.905-2.526 2.46 0 3.922 1.347 4.271 2.992zM22.697 48.03l-1.404-1.405h-.748s-.89 1.872-6.178 9.313c-1.076-1.03-2.246-1.498-3.229-1.498C5.288 54.44 0 61.835 0 69.37c0 7.3 4.727 12.354 12.823 12.354 10.39 0 17.456-9.36 18.392-21.387 1.919 1.17 3.37 2.06 5.194 2.106 3.417.14 7.16-3.416 7.16-7.44 0-1.124-.655-2.668-2.527-2.715-.608 0-1.216.093-1.778.421.562 1.076 1.264 3.089 1.217 4.68-.047 1.357-.421 2.059-1.404 2.012-1.077-.047-1.919-.515-5.57-2.901-1.403-.89-3.088-2.013-5.287-2.106-5.43-.188-8.143 5.241-8.143 8.283 0 3.323 1.544 3.838 2.246 3.838 1.263 0 2.012-.936 2.995-2.06-1.123-.795-2.995-1.731-2.995-3.837 0-1.264.89-2.948 2.995-2.948 1.591 0 2.855.889 4.306 1.731-.983 9.781-6.927 18.392-15.584 18.392-4.68 0-8.33-2.2-10.015-5.85zM2.948 66.794c0-6.832 3.557-9.406 5.757-9.406 2.059 0 2.76 1.872 2.34 3.089l-7.629 9.827c-.327-1.076-.468-2.246-.468-3.51zM69.456 80.975c4.633 0 7.769-1.45 10.155-2.2l2.528-8.423h-1.685l-4.633 7.16c-1.357.75-3.182 1.451-5.756 1.451-5.803 0-9.688-3.79-9.735-12.027-.046-7.628 5.336-16.52 13.806-16.52 2.855 0 4.68.983 5.944 2.012l1.31 6.786h1.638l.795-8.33c-2.48-1.404-4.96-2.48-8.564-2.48-13.103 0-20.076 9.78-20.076 18.204 0 9.875 6.411 14.367 14.273 14.367zM86.049 80.227l.608.608 3.37-.983c1.31-4.586 1.918-5.85 3.088-8.33 2.293-4.867 4.82-9.172 6.833-10.155 1.029.093 1.263 1.544.468 2.901h1.591c.749-.655 2.34-2.62 2.34-4.586 0-1.45-.983-2.2-2.247-2.2-3.837 0-6.27 4.587-10.202 13.525h-.655l2.48-8.423c.796-2.808.656-5.101-1.778-5.101-2.667 0-5.148 3.041-5.148 3.041v.234l3.744.702s-1.123 5.429-3.089 13.244zM121.584 57.202l-.421 1.59c-.796-.514-1.966-.888-3.323-.888-6.505 0-15.256 9.827-15.116 18.532.047 2.48 1.404 4.399 3.791 4.399 4.68 0 8.424-7.254 10.623-10.249h.141l-1.404 4.82c-1.17 3.65-.188 5.289 1.965 5.289 2.106 0 5.99-3.697 7.394-7.675l-.936-.281c-1.076 1.872-2.995 3.978-5.054 4.586l-.14-.047 5.335-20.076zm-12.87 20.123c-1.17 0-1.544-1.03-1.544-2.387 0-7.16 5.803-15.162 9.36-15.162 1.31 0 2.386.795 3.229 1.871l-.562 1.779c-1.216 3.931-7.534 13.9-10.483 13.9z"/><path d="M128.855 60.758h4.025l-4.493 22.276c-.889 4.446-1.685 7.02-3.416 7.02-1.311 0-2.995-1.59-4.212-2.714-.609.421-1.17 1.498-1.17 2.34 0 1.778 1.919 2.667 3.089 2.667 2.106 0 8.002-1.59 10.342-12.87l3.604-17.268c.093-.515.187-.983.327-1.45h6.037l.468-2.06h-6.037c2.527-9.874 5.008-10.904 6.224-10.904 1.919 0 4.165 1.45 5.616 2.995.515-.655 1.451-1.778 1.451-2.995s-1.825-2.527-4.072-2.527c-5.569 0-11.138 5.897-13.244 13.431h-4.258z"/><path d="M142.96 60.758h3.651L142.68 76.67c-.562 2.387.421 4.071 2.106 4.071 2.714 0 8.096-5.148 9.687-8.751l-.936-.328c-1.264 1.826-4.306 4.493-6.739 5.382l-.187-.14 3.837-16.146h6.271L157 58.7h-6.131l1.404-5.803h-2.901l-2.153 5.803h-3.978z"/></g></svg>